M48
; DRILL file {KiCad 9.0.7-9.0.7~ubuntu24.04.1} date 2026-01-18T13:51:05+0530
; FORMAT={-:-/ absolute / metric / decimal}
; #@! TF.CreationDate,2026-01-18T13:51:05+05:30
; #@! TF.GenerationSoftware,Kicad,Pcbnew,9.0.7-9.0.7~ubuntu24.04.1
; #@! TF.FileFunction,Plated,1,2,PTH
FMAT,2
METRIC
; #@! TA.AperFunction,Plated,PTH,ViaDrill
T1C0.100
; #@! TA.AperFunction,Plated,PTH,ViaDrill
T2C0.300
; #@! TA.AperFunction,Plated,PTH,ComponentDrill
T3C0.600
; #@! TA.AperFunction,Plated,PTH,ComponentDrill
T4C1.000
%
G90
G05
T1
X155.5Y-115.5
X155.75Y-114.0
X158.312Y-107.312
X164.75Y-113.5
X166.25Y-115.5
X169.999Y-104.647
X170.5Y-115.5
X177.75Y-99.25
T2
X125.5Y-111.88
X137.5Y-125.0
X139.25Y-120.5
X141.5Y-141.0
X146.5Y-127.551
X154.8Y-119.75
X155.5Y-110.5
X159.63Y-135.25
X160.0Y-115.0
X160.125Y-137.625
X161.75Y-119.75
X163.5Y-134.0
X164.75Y-113.5
X165.25Y-110.0
X166.5Y-134.0
X173.0Y-115.0
X174.4Y-108.6
X176.5Y-94.15
X178.5Y-102.0
X183.15Y-128.0
X191.0Y-94.15
X199.75Y-115.5
X199.75Y-124.0
X201.0Y-108.0
X205.375Y-114.875
X206.0Y-132.5
X209.95Y-121.6
X210.5Y-99.0
X210.5Y-102.262
X211.0Y-128.5
X219.462Y-99.462
X221.0Y-126.0
X221.5Y-101.5
T4
X123.0Y-111.88
X123.0Y-114.42
X123.0Y-116.96
X123.0Y-119.5
X125.84Y-96.0
X128.38Y-96.0
X130.92Y-96.0
X133.46Y-96.0
X134.75Y-132.13
X134.75Y-134.67
X134.75Y-137.21
X134.75Y-139.75
X136.0Y-96.0
X137.29Y-132.13
X137.29Y-134.67
X137.29Y-137.21
X137.29Y-139.75
X138.54Y-96.0
X142.5Y-117.0
X145.04Y-117.0
X146.8Y-96.0
X149.34Y-96.0
X151.88Y-96.0
X154.42Y-96.0
X156.96Y-96.0
X159.5Y-96.0
T3
G00X210.07Y-92.62
M15
G01X210.07Y-92.02
M16
G05
G00X210.07Y-97.05
M15
G01X210.07Y-95.95
M16
G05
G00X218.71Y-92.62
M15
G01X218.71Y-92.02
M16
G05
G00X218.71Y-97.05
M15
G01X218.71Y-95.95
M16
G05
M30
