%TF.GenerationSoftware,KiCad,Pcbnew,9.0.7-9.0.7~ubuntu24.04.1*%
%TF.CreationDate,2026-01-20T21:07:02+05:30*%
%TF.ProjectId,fpga_dev_board,66706761-5f64-4657-965f-626f6172642e,rev?*%
%TF.SameCoordinates,Original*%
%TF.FileFunction,Copper,L2,Bot*%
%TF.FilePolarity,Positive*%
%FSLAX46Y46*%
G04 Gerber Fmt 4.6, Leading zero omitted, Abs format (unit mm)*
G04 Created by KiCad (PCBNEW 9.0.7-9.0.7~ubuntu24.04.1) date 2026-01-20 21:07:02*
%MOMM*%
%LPD*%
G01*
G04 APERTURE LIST*
%TA.AperFunction,ComponentPad*%
%ADD10R,1.700000X1.700000*%
%TD*%
%TA.AperFunction,ComponentPad*%
%ADD11O,1.700000X1.700000*%
%TD*%
%TA.AperFunction,ComponentPad*%
%ADD12C,2.000000*%
%TD*%
%TA.AperFunction,HeatsinkPad*%
%ADD13O,1.000000X2.100000*%
%TD*%
%TA.AperFunction,HeatsinkPad*%
%ADD14O,1.000000X1.800000*%
%TD*%
%TA.AperFunction,ViaPad*%
%ADD15C,0.600000*%
%TD*%
%TA.AperFunction,ViaPad*%
%ADD16C,0.500000*%
%TD*%
%TA.AperFunction,Conductor*%
%ADD17C,0.200000*%
%TD*%
%TA.AperFunction,Conductor*%
%ADD18C,0.400000*%
%TD*%
G04 APERTURE END LIST*
D10*
%TO.P,J4,1,Pin_1*%
%TO.N,/IOB_0a*%
X159500000Y-96000000D03*
D11*
%TO.P,J4,2,Pin_2*%
%TO.N,/IOT_48b*%
X156960000Y-96000000D03*
%TO.P,J4,3,Pin_3*%
%TO.N,/IOT_45b*%
X154420000Y-96000000D03*
%TO.P,J4,4,Pin_4*%
%TO.N,/IOT_50b*%
X151880000Y-96000000D03*
%TO.P,J4,5,Pin_5*%
%TO.N,/IOT_51a*%
X149340000Y-96000000D03*
%TO.P,J4,6,Pin_6*%
%TO.N,/IOT_49a*%
X146800000Y-96000000D03*
%TD*%
D10*
%TO.P,J6,1,Pin_1*%
%TO.N,/~{BTN}*%
X140000000Y-116775000D03*
D11*
%TO.P,J6,2,Pin_2*%
%TO.N,/CDONE*%
X140000000Y-114235000D03*
%TD*%
D12*
%TO.P,SW2,1*%
%TO.N,GND*%
X187675000Y-94000000D03*
X194175000Y-94000000D03*
%TO.P,SW2,2*%
%TO.N,/~{BTN}*%
X187675000Y-98500000D03*
X194175000Y-98500000D03*
%TD*%
D10*
%TO.P,J3,1,Pin_1*%
%TO.N,GND*%
X137290000Y-139750000D03*
D11*
%TO.P,J3,2,Pin_2*%
%TO.N,/SPI_~{CS}*%
X134750000Y-139750000D03*
%TO.P,J3,3,Pin_3*%
%TO.N,/SPI_~{HLD}-IO3*%
X137290000Y-137210000D03*
%TO.P,J3,4,Pin_4*%
%TO.N,/SPI_SCK*%
X134750000Y-137210000D03*
%TO.P,J3,5,Pin_5*%
%TO.N,/SPI_~{WP}-IO2*%
X137290000Y-134670000D03*
%TO.P,J3,6,Pin_6*%
%TO.N,/SPI_MISO-IO1*%
X134750000Y-134670000D03*
%TO.P,J3,7,Pin_7*%
%TO.N,VIN*%
X137290000Y-132130000D03*
%TO.P,J3,8,Pin_8*%
%TO.N,/SPI_MOSI-IO0*%
X134750000Y-132130000D03*
%TD*%
D10*
%TO.P,J5,1,Pin_1*%
%TO.N,GND*%
X123000000Y-111880000D03*
D11*
%TO.P,J5,2,Pin_2*%
X123000000Y-114420000D03*
%TO.P,J5,3,Pin_3*%
%TO.N,+3V3*%
X123000000Y-116960000D03*
%TO.P,J5,4,Pin_4*%
X123000000Y-119500000D03*
%TD*%
D12*
%TO.P,SW1,1*%
%TO.N,GND*%
X174000000Y-94000000D03*
X180500000Y-94000000D03*
%TO.P,SW1,2*%
%TO.N,/IOB_0a*%
X174000000Y-98500000D03*
X180500000Y-98500000D03*
%TD*%
D13*
%TO.P,J1,S1,SHIELD*%
%TO.N,Net-(J1-SHIELD)*%
X209211000Y-96500000D03*
D14*
X209211000Y-92320000D03*
D13*
X200571000Y-96500000D03*
D14*
X200571000Y-92320000D03*
%TD*%
D10*
%TO.P,J2,1,Pin_1*%
%TO.N,/IOB_3a_G6*%
X138540000Y-96000000D03*
D11*
%TO.P,J2,2,Pin_2*%
%TO.N,/IOB_5a*%
X136000000Y-96000000D03*
%TO.P,J2,3,Pin_3*%
%TO.N,/IOB_2a*%
X133460000Y-96000000D03*
%TO.P,J2,4,Pin_4*%
%TO.N,/IOB_4a*%
X130920000Y-96000000D03*
%TO.P,J2,5,Pin_5*%
%TO.N,/IOB_6a*%
X128380000Y-96000000D03*
%TO.P,J2,6,Pin_6*%
%TO.N,/IOB_8a*%
X125840000Y-96000000D03*
%TD*%
D15*
%TO.N,/~{BTN}*%
X181000000Y-103000000D03*
X155500000Y-115600000D03*
%TO.N,+1V2*%
X155000000Y-114000000D03*
%TO.N,/IOB_0a*%
X158020860Y-107400000D03*
X169000000Y-104500000D03*
%TO.N,+1V2*%
X181000000Y-113500000D03*
%TO.N,GND*%
X137581000Y-91400000D03*
X213581000Y-91400000D03*
X189581000Y-99400000D03*
X205001000Y-106000000D03*
X166500000Y-134000000D03*
X209581000Y-119400000D03*
X189581000Y-131400000D03*
X189581000Y-139400000D03*
X177581000Y-127400000D03*
X205581000Y-139400000D03*
X197581000Y-139400000D03*
X205581000Y-91400000D03*
X165581000Y-127400000D03*
X181581000Y-91400000D03*
X125581000Y-99400000D03*
X121581000Y-107400000D03*
X193581000Y-111400000D03*
X121581000Y-99400000D03*
X213581000Y-131400000D03*
X209581000Y-123400000D03*
X165581000Y-91400000D03*
X177581000Y-99400000D03*
X185581000Y-111400000D03*
X193581000Y-131400000D03*
X173581000Y-131400000D03*
X153581000Y-91400000D03*
X185581000Y-139400000D03*
X213581000Y-115400000D03*
X149581000Y-123400000D03*
X177581000Y-107400000D03*
X205581000Y-131400000D03*
X209581000Y-135400000D03*
X205581000Y-127400000D03*
X169581000Y-131400000D03*
X193581000Y-127400000D03*
X189581000Y-103400000D03*
X211501000Y-126000000D03*
X133581000Y-107400000D03*
X185581000Y-131400000D03*
X169581000Y-91400000D03*
X193581000Y-135400000D03*
X149581000Y-91400000D03*
X185581000Y-123400000D03*
D16*
X201001000Y-99000000D03*
D15*
X189581000Y-123400000D03*
X137581000Y-111400000D03*
X165581000Y-131400000D03*
X189581000Y-135400000D03*
X213581000Y-111400000D03*
X137581000Y-115400000D03*
X125581000Y-115400000D03*
X189581000Y-95400000D03*
X141581000Y-111400000D03*
X185581000Y-107400000D03*
X121581000Y-139400000D03*
X129581000Y-119400000D03*
X145581000Y-111400000D03*
X169000000Y-109000000D03*
X193581000Y-103400000D03*
X197581000Y-95400000D03*
X146500000Y-127551000D03*
X169581000Y-119400000D03*
X189581000Y-127400000D03*
X137581000Y-107400000D03*
X125500000Y-111880000D03*
X173581000Y-107400000D03*
X181581000Y-127400000D03*
X201581000Y-115400000D03*
X191501000Y-108000000D03*
X129581000Y-131400000D03*
X180675000Y-94150000D03*
X169581000Y-95400000D03*
X160000000Y-115000000D03*
X141581000Y-107400000D03*
X153581000Y-131400000D03*
X125581000Y-103400000D03*
X129581000Y-91400000D03*
X193581000Y-139400000D03*
X189581000Y-91400000D03*
X201581000Y-135400000D03*
X163000000Y-126000000D03*
X197000000Y-114500000D03*
X129581000Y-103400000D03*
X203001000Y-119000000D03*
X189581000Y-115400000D03*
X121581000Y-123400000D03*
X209581000Y-127400000D03*
X181581000Y-115400000D03*
X121581000Y-131400000D03*
X149581000Y-127400000D03*
X177581000Y-131400000D03*
X173581000Y-135400000D03*
X197581000Y-91400000D03*
X129581000Y-127400000D03*
X173581000Y-91400000D03*
X145581000Y-91400000D03*
X125581000Y-119400000D03*
X205581000Y-115400000D03*
X197581000Y-127400000D03*
X193581000Y-91400000D03*
X213581000Y-135400000D03*
X177581000Y-91400000D03*
X201581000Y-139400000D03*
X141581000Y-127400000D03*
X205581000Y-135400000D03*
X161581000Y-91400000D03*
X193581000Y-123400000D03*
X173581000Y-127400000D03*
X205581000Y-103400000D03*
X166175000Y-94150000D03*
X181581000Y-139400000D03*
X197581000Y-135400000D03*
X137581000Y-119400000D03*
X177581000Y-139400000D03*
X185581000Y-91400000D03*
X201581000Y-131400000D03*
X209581000Y-139400000D03*
X141581000Y-91400000D03*
X121581000Y-135400000D03*
X133581000Y-91400000D03*
X189581000Y-107400000D03*
X121581000Y-95400000D03*
X181581000Y-119400000D03*
X213581000Y-107400000D03*
X212001000Y-101500000D03*
X141500000Y-141000000D03*
D16*
X209963500Y-99462500D03*
D15*
X141581000Y-95400000D03*
X213581000Y-127400000D03*
X185581000Y-135400000D03*
X129581000Y-111400000D03*
X213581000Y-119400000D03*
X181581000Y-135400000D03*
X209581000Y-131400000D03*
X173581000Y-119400000D03*
X121581000Y-103400000D03*
X133581000Y-127400000D03*
X177581000Y-95400000D03*
X137581000Y-127400000D03*
X201001000Y-102262500D03*
X163500000Y-134000000D03*
X213581000Y-139400000D03*
X121581000Y-91400000D03*
X169581000Y-139400000D03*
X185581000Y-119400000D03*
X137581000Y-123400000D03*
X157581000Y-91400000D03*
X125581000Y-91400000D03*
X185581000Y-95400000D03*
X149581000Y-131400000D03*
X197581000Y-107400000D03*
X197581000Y-123400000D03*
X129581000Y-107400000D03*
X121581000Y-127400000D03*
X129581000Y-135400000D03*
X137500000Y-125000000D03*
X197581000Y-131400000D03*
X178500000Y-102000000D03*
X189581000Y-111400000D03*
X213581000Y-123400000D03*
X153581000Y-127400000D03*
X129581000Y-115400000D03*
X125581000Y-107400000D03*
D16*
%TO.N,/SPI_~{CS}*%
X160125000Y-137625000D03*
D15*
%TO.N,VIN*%
X201501000Y-128500000D03*
%TO.N,+3V3*%
X165250000Y-110000000D03*
X188000000Y-124000000D03*
X139250000Y-120500000D03*
X165250000Y-113500000D03*
X155500000Y-110500000D03*
X162000000Y-119750000D03*
X188000000Y-111000000D03*
X154800000Y-119750000D03*
D16*
%TO.N,/SPI_MISO-IO1*%
X159630002Y-135250000D03*
D15*
%TO.N,/led*%
X155000000Y-100000000D03*
X162000000Y-99500000D03*
%TD*%
D17*
%TO.N,/IOB_0a*%
X158020860Y-107400000D02*
X158020860Y-107231579D01*
X158020860Y-107231579D02*
X158064939Y-107187500D01*
X161001000Y-104499000D02*
X168999000Y-104499000D01*
X158064939Y-107187500D02*
X158312500Y-107187500D01*
X158312500Y-107187500D02*
X161001000Y-104499000D01*
X168999000Y-104499000D02*
X169000000Y-104500000D01*
%TO.N,/~{BTN}*%
X181000000Y-103000000D02*
X156250000Y-103000000D01*
%TO.N,+1V2*%
X181000000Y-113500000D02*
X171500000Y-113500000D01*
X171500000Y-113500000D02*
X166000000Y-108000000D01*
X166000000Y-108000000D02*
X155000000Y-108000000D01*
X154750000Y-113750000D02*
X155000000Y-114000000D01*
X155000000Y-108000000D02*
X154750000Y-108250000D01*
X154750000Y-108250000D02*
X154750000Y-113750000D01*
%TO.N,/~{BTN}*%
X153750000Y-113750000D02*
X155500000Y-115500000D01*
X181175000Y-103000000D02*
X181000000Y-103000000D01*
X156250000Y-103000000D02*
X153750000Y-105500000D01*
X153750000Y-105500000D02*
X153750000Y-113750000D01*
%TO.N,/SPI_~{CS}*%
X135901000Y-138599000D02*
X155651000Y-138599000D01*
X134750000Y-139750000D02*
X135901000Y-138599000D01*
X156625000Y-137625000D02*
X160125000Y-137625000D01*
X155651000Y-138599000D02*
X156625000Y-137625000D01*
D18*
%TO.N,VIN*%
X200901000Y-129100000D02*
X140320000Y-129100000D01*
X140320000Y-129100000D02*
X137290000Y-132130000D01*
X201501000Y-128500000D02*
X200901000Y-129100000D01*
%TO.N,+3V3*%
X165250000Y-113000000D02*
X165250000Y-113500000D01*
X162000000Y-119750000D02*
X162750000Y-119750000D01*
X141500000Y-122750000D02*
X139250000Y-120500000D01*
X155500000Y-110500000D02*
X156000000Y-110000000D01*
X145500000Y-122750000D02*
X141500000Y-122750000D01*
X148500000Y-119750000D02*
X145500000Y-122750000D01*
X188000000Y-124000000D02*
X188000000Y-111000000D01*
X156000000Y-110000000D02*
X165250000Y-110000000D01*
X165250000Y-117250000D02*
X165250000Y-113000000D01*
X154800000Y-119750000D02*
X148500000Y-119750000D01*
X165250000Y-110000000D02*
X165250000Y-113000000D01*
X162750000Y-119750000D02*
X165250000Y-117250000D01*
X162000000Y-119750000D02*
X154800000Y-119750000D01*
D17*
%TO.N,/SPI_MISO-IO1*%
X146500000Y-135250000D02*
X144750000Y-133500000D01*
X159630002Y-135250000D02*
X160065001Y-135684999D01*
X144750000Y-133500000D02*
X135920000Y-133500000D01*
X134750000Y-134670000D02*
X135920000Y-133500000D01*
X146500000Y-135250000D02*
X159630002Y-135250000D01*
%TO.N,/led*%
X161500000Y-100000000D02*
X162000000Y-99500000D01*
X155000000Y-100000000D02*
X161500000Y-100000000D01*
%TD*%
%TA.AperFunction,Conductor*%
%TO.N,GND*%
G36*
X123250000Y-113986988D02*
G01*
X123192993Y-113954075D01*
X123065826Y-113920000D01*
X122934174Y-113920000D01*
X122807007Y-113954075D01*
X122750000Y-113986988D01*
X122750000Y-112313012D01*
X122807007Y-112345925D01*
X122934174Y-112380000D01*
X123065826Y-112380000D01*
X123192993Y-112345925D01*
X123250000Y-112313012D01*
X123250000Y-113986988D01*
G37*
%TD.AperFunction*%
%TA.AperFunction,Conductor*%
G36*
X217692539Y-90270185D02*
G01*
X217738294Y-90322989D01*
X217749500Y-90374500D01*
X217749500Y-143125500D01*
X217729815Y-143192539D01*
X217677011Y-143238294D01*
X217625500Y-143249500D01*
X118374500Y-143249500D01*
X118307461Y-143229815D01*
X118261706Y-143177011D01*
X118250500Y-143125500D01*
X118250500Y-132023713D01*
X133399500Y-132023713D01*
X133399500Y-132236286D01*
X133432753Y-132446239D01*
X133498444Y-132648414D01*
X133594951Y-132837820D01*
X133719890Y-133009786D01*
X133870213Y-133160109D01*
X134042182Y-133285050D01*
X134050946Y-133289516D01*
X134101742Y-133337491D01*
X134118536Y-133405312D01*
X134095998Y-133471447D01*
X134050946Y-133510484D01*
X134042182Y-133514949D01*
X133870213Y-133639890D01*
X133719890Y-133790213D01*
X133594951Y-133962179D01*
X133498444Y-134151585D01*
X133432753Y-134353760D01*
X133405102Y-134528342D01*
X133399500Y-134563713D01*
X133399500Y-134776287D01*
X133432754Y-134986243D01*
X133473087Y-135110376D01*
X133498444Y-135188414D01*
X133594951Y-135377820D01*
X133719890Y-135549786D01*
X133870213Y-135700109D01*
X134042182Y-135825050D01*
X134050946Y-135829516D01*
X134101742Y-135877491D01*
X134118536Y-135945312D01*
X134095998Y-136011447D01*
X134050946Y-136050484D01*
X134042182Y-136054949D01*
X133870213Y-136179890D01*
X133719890Y-136330213D01*
X133594951Y-136502179D01*
X133498444Y-136691585D01*
X133432753Y-136893760D01*
X133405564Y-137065424D01*
X133399500Y-137103713D01*
X133399500Y-137316287D01*
X133432754Y-137526243D01*
X133488860Y-137698920D01*
X133498444Y-137728414D01*
X133594951Y-137917820D01*
X133719890Y-138089786D01*
X133870213Y-138240109D01*
X134042182Y-138365050D01*
X134050946Y-138369516D01*
X134101742Y-138417491D01*
X134118536Y-138485312D01*
X134095998Y-138551447D01*
X134050946Y-138590484D01*
X134042182Y-138594949D01*
X133870213Y-138719890D01*
X133719890Y-138870213D01*
X133594951Y-139042179D01*
X133498444Y-139231585D01*
X133432753Y-139433760D01*
X133431291Y-139442993D01*
X133399500Y-139643713D01*
X133399500Y-139856287D01*
X133409534Y-139919644D01*
X133432753Y-140066239D01*
X133498444Y-140268414D01*
X133594951Y-140457820D01*
X133719890Y-140629786D01*
X133870213Y-140780109D01*
X134042179Y-140905048D01*
X134042181Y-140905049D01*
X134042184Y-140905051D01*
X134231588Y-141001557D01*
X134433757Y-141067246D01*
X134643713Y-141100500D01*
X134643714Y-141100500D01*
X134856286Y-141100500D01*
X134856287Y-141100500D01*
X135066243Y-141067246D01*
X135268412Y-141001557D01*
X135457816Y-140905051D01*
X135544478Y-140842088D01*
X135629784Y-140780110D01*
X135629784Y-140780109D01*
X135629792Y-140780104D01*
X135743717Y-140666178D01*
X135805036Y-140632696D01*
X135874728Y-140637680D01*
X135930662Y-140679551D01*
X135947577Y-140710528D01*
X135996646Y-140842088D01*
X135996649Y-140842093D01*
X136082809Y-140957187D01*
X136082812Y-140957190D01*
X136197906Y-141043350D01*
X136197913Y-141043354D01*
X136332620Y-141093596D01*
X136332627Y-141093598D01*
X136392155Y-141099999D01*
X136392172Y-141100000D01*
X137040000Y-141100000D01*
X137040000Y-140183012D01*
X137097007Y-140215925D01*
X137224174Y-140250000D01*
X137355826Y-140250000D01*
X137482993Y-140215925D01*
X137540000Y-140183012D01*
X137540000Y-141100000D01*
X138187828Y-141100000D01*
X138187844Y-141099999D01*
X138247372Y-141093598D01*
X138247379Y-141093596D01*
X138382086Y-141043354D01*
X138382093Y-141043350D01*
X138497187Y-140957190D01*
X138497190Y-140957187D01*
X138583350Y-140842093D01*
X138583354Y-140842086D01*
X138633596Y-140707379D01*
X138633598Y-140707372D01*
X138639999Y-140647844D01*
X138640000Y-140647827D01*
X138640000Y-140000000D01*
X137723012Y-140000000D01*
X137755925Y-139942993D01*
X137790000Y-139815826D01*
X137790000Y-139684174D01*
X137755925Y-139557007D01*
X137723012Y-139500000D01*
X138640000Y-139500000D01*
X138640000Y-139323500D01*
X138659685Y-139256461D01*
X138712489Y-139210706D01*
X138764000Y-139199500D01*
X155564331Y-139199500D01*
X155564347Y-139199501D01*
X155571943Y-139199501D01*
X155730054Y-139199501D01*
X155730057Y-139199501D01*
X155882785Y-139158577D01*
X155932904Y-139129639D01*
X156019716Y-139079520D01*
X156131520Y-138967716D01*
X156131520Y-138967714D01*
X156141728Y-138957507D01*
X156141729Y-138957504D01*
X156837416Y-138261819D01*
X156898739Y-138228334D01*
X156925097Y-138225500D01*
X159635233Y-138225500D01*
X159702272Y-138245185D01*
X159704124Y-138246398D01*
X159769498Y-138290080D01*
X159769511Y-138290087D01*
X159906082Y-138346656D01*
X159906087Y-138346658D01*
X159906091Y-138346658D01*
X159906092Y-138346659D01*
X160051079Y-138375500D01*
X160051082Y-138375500D01*
X160198920Y-138375500D01*
X160296462Y-138356096D01*
X160343913Y-138346658D01*
X160480495Y-138290084D01*
X160603416Y-138207951D01*
X160707951Y-138103416D01*
X160790084Y-137980495D01*
X160846658Y-137843913D01*
X160875500Y-137698918D01*
X160875500Y-137551082D01*
X160875500Y-137551079D01*
X160846659Y-137406092D01*
X160846658Y-137406091D01*
X160846658Y-137406087D01*
X160809462Y-137316287D01*
X160790087Y-137269511D01*
X160790080Y-137269498D01*
X160707951Y-137146584D01*
X160707948Y-137146580D01*
X160603419Y-137042051D01*
X160603415Y-137042048D01*
X160480501Y-136959919D01*
X160480488Y-136959912D01*
X160343917Y-136903343D01*
X160343907Y-136903340D01*
X160198920Y-136874500D01*
X160198918Y-136874500D01*
X160051082Y-136874500D01*
X160051080Y-136874500D01*
X159906092Y-136903340D01*
X159906082Y-136903343D01*
X159769511Y-136959912D01*
X159769498Y-136959919D01*
X159704124Y-137003602D01*
X159637447Y-137024480D01*
X159635233Y-137024500D01*
X156711669Y-137024500D01*
X156711653Y-137024499D01*
X156704057Y-137024499D01*
X156545943Y-137024499D01*
X156438587Y-137053265D01*
X156393210Y-137065424D01*
X156393209Y-137065425D01*
X156343096Y-137094359D01*
X156343095Y-137094360D01*
X156326895Y-137103713D01*
X156256285Y-137144479D01*
X156256282Y-137144481D01*
X156144478Y-137256286D01*
X155438584Y-137962181D01*
X155377261Y-137995666D01*
X155350903Y-137998500D01*
X138606290Y-137998500D01*
X138539251Y-137978815D01*
X138493496Y-137926011D01*
X138483552Y-137856853D01*
X138495805Y-137818205D01*
X138541557Y-137728412D01*
X138607246Y-137526243D01*
X138640500Y-137316287D01*
X138640500Y-137103713D01*
X138607246Y-136893757D01*
X138541557Y-136691588D01*
X138445051Y-136502184D01*
X138445049Y-136502181D01*
X138445048Y-136502179D01*
X138320109Y-136330213D01*
X138169786Y-136179890D01*
X137997820Y-136054951D01*
X137995380Y-136053708D01*
X137989054Y-136050485D01*
X137938259Y-136002512D01*
X137921463Y-135934692D01*
X137943999Y-135868556D01*
X137989054Y-135829515D01*
X137997816Y-135825051D01*
X138081772Y-135764054D01*
X138169786Y-135700109D01*
X138169788Y-135700106D01*
X138169792Y-135700104D01*
X138320104Y-135549792D01*
X138320106Y-135549788D01*
X138320109Y-135549786D01*
X138445048Y-135377820D01*
X138445047Y-135377820D01*
X138445051Y-135377816D01*
X138541557Y-135188412D01*
X138607246Y-134986243D01*
X138640500Y-134776287D01*
X138640500Y-134563713D01*
X138607246Y-134353757D01*
X138577698Y-134262818D01*
X138575703Y-134192977D01*
X138611784Y-134133144D01*
X138674485Y-134102316D01*
X138695629Y-134100500D01*
X144449903Y-134100500D01*
X144516942Y-134120185D01*
X144537583Y-134136818D01*
X146131284Y-135730520D01*
X146131286Y-135730521D01*
X146131290Y-135730524D01*
X146268209Y-135809573D01*
X146268216Y-135809577D01*
X146420943Y-135850501D01*
X146420945Y-135850501D01*
X146586654Y-135850501D01*
X146586670Y-135850500D01*
X159140235Y-135850500D01*
X159207274Y-135870185D01*
X159209126Y-135871398D01*
X159274500Y-135915080D01*
X159274513Y-135915087D01*
X159379185Y-135958443D01*
X159411089Y-135971658D01*
X159488214Y-135986999D01*
X159550121Y-136019382D01*
X159551701Y-136020934D01*
X159696285Y-136165518D01*
X159833216Y-136244575D01*
X159985943Y-136285499D01*
X159985945Y-136285499D01*
X160144056Y-136285499D01*
X160144058Y-136285499D01*
X160296785Y-136244575D01*
X160433717Y-136165518D01*
X160545520Y-136053715D01*
X160624577Y-135916783D01*
X160665501Y-135764056D01*
X160665501Y-135605941D01*
X160624577Y-135453214D01*
X160545520Y-135316283D01*
X160400936Y-135171699D01*
X160367451Y-135110376D01*
X160367027Y-135108346D01*
X160351660Y-135031087D01*
X160333085Y-134986243D01*
X160295089Y-134894511D01*
X160295082Y-134894498D01*
X160212953Y-134771584D01*
X160212950Y-134771580D01*
X160108421Y-134667051D01*
X160108417Y-134667048D01*
X159985503Y-134584919D01*
X159985490Y-134584912D01*
X159848919Y-134528343D01*
X159848909Y-134528340D01*
X159703922Y-134499500D01*
X159703920Y-134499500D01*
X159556084Y-134499500D01*
X159556082Y-134499500D01*
X159411094Y-134528340D01*
X159411084Y-134528343D01*
X159274513Y-134584912D01*
X159274500Y-134584919D01*
X159209126Y-134628602D01*
X159142449Y-134649480D01*
X159140235Y-134649500D01*
X146800098Y-134649500D01*
X146733059Y-134629815D01*
X146712417Y-134613181D01*
X145237590Y-133138355D01*
X145237588Y-133138352D01*
X145118717Y-133019481D01*
X145118716Y-133019480D01*
X145031904Y-132969360D01*
X145031904Y-132969359D01*
X145031900Y-132969358D01*
X144981785Y-132940423D01*
X144829057Y-132899499D01*
X144670943Y-132899499D01*
X144663347Y-132899499D01*
X144663331Y-132899500D01*
X138615971Y-132899500D01*
X138548932Y-132879815D01*
X138503177Y-132827011D01*
X138493233Y-132757853D01*
X138505486Y-132719205D01*
X138541557Y-132648412D01*
X138607246Y-132446243D01*
X138640500Y-132236287D01*
X138640500Y-132023713D01*
X138615715Y-131867227D01*
X138624670Y-131797933D01*
X138650504Y-131760151D01*
X140573838Y-129836819D01*
X140635161Y-129803334D01*
X140661519Y-129800500D01*
X200969996Y-129800500D01*
X201061040Y-129782389D01*
X201105328Y-129773580D01*
X201169069Y-129747177D01*
X201232807Y-129720777D01*
X201232808Y-129720776D01*
X201232811Y-129720775D01*
X201347543Y-129644114D01*
X201695588Y-129296067D01*
X201735810Y-129269192D01*
X201790435Y-129246566D01*
X201880173Y-129209397D01*
X201880176Y-129209395D01*
X201880179Y-129209394D01*
X202011289Y-129121789D01*
X202122789Y-129010289D01*
X202210394Y-128879179D01*
X202270737Y-128733497D01*
X202301500Y-128578842D01*
X202301500Y-128421158D01*
X202301500Y-128421155D01*
X202301499Y-128421153D01*
X202278476Y-128305410D01*
X202270737Y-128266503D01*
X202270190Y-128265183D01*
X202210397Y-128120827D01*
X202210390Y-128120814D01*
X202122789Y-127989711D01*
X202122786Y-127989707D01*
X202011292Y-127878213D01*
X202011288Y-127878210D01*
X201880185Y-127790609D01*
X201880172Y-127790602D01*
X201734501Y-127730264D01*
X201734489Y-127730261D01*
X201579845Y-127699500D01*
X201579842Y-127699500D01*
X201422158Y-127699500D01*
X201422155Y-127699500D01*
X201267510Y-127730261D01*
X201267498Y-127730264D01*
X201121827Y-127790602D01*
X201121814Y-127790609D01*
X200990711Y-127878210D01*
X200990707Y-127878213D01*
X200879213Y-127989707D01*
X200879210Y-127989711D01*
X200791609Y-128120814D01*
X200791604Y-128120824D01*
X200731809Y-128265183D01*
X200727177Y-128272115D01*
X200726081Y-128277155D01*
X200704931Y-128305410D01*
X200647163Y-128363180D01*
X200585840Y-128396666D01*
X200559480Y-128399500D01*
X140251004Y-128399500D01*
X140115677Y-128426418D01*
X140115667Y-128426421D01*
X139988192Y-128479222D01*
X139873454Y-128555887D01*
X137659849Y-130769492D01*
X137598526Y-130802977D01*
X137552771Y-130804284D01*
X137396287Y-130779500D01*
X137183713Y-130779500D01*
X137135042Y-130787208D01*
X136973760Y-130812753D01*
X136771585Y-130878444D01*
X136582179Y-130974951D01*
X136410213Y-131099890D01*
X136259890Y-131250213D01*
X136134949Y-131422182D01*
X136130484Y-131430946D01*
X136082509Y-131481742D01*
X136014688Y-131498536D01*
X135948553Y-131475998D01*
X135909516Y-131430946D01*
X135905050Y-131422182D01*
X135780109Y-131250213D01*
X135629786Y-131099890D01*
X135457820Y-130974951D01*
X135268414Y-130878444D01*
X135268413Y-130878443D01*
X135268412Y-130878443D01*
X135066243Y-130812754D01*
X135066241Y-130812753D01*
X135066240Y-130812753D01*
X134904957Y-130787208D01*
X134856287Y-130779500D01*
X134643713Y-130779500D01*
X134595042Y-130787208D01*
X134433760Y-130812753D01*
X134231585Y-130878444D01*
X134042179Y-130974951D01*
X133870213Y-131099890D01*
X133719890Y-131250213D01*
X133594951Y-131422179D01*
X133498444Y-131611585D01*
X133432753Y-131813760D01*
X133399500Y-132023713D01*
X118250500Y-132023713D01*
X118250500Y-116853713D01*
X121649500Y-116853713D01*
X121649500Y-117066287D01*
X121682754Y-117276243D01*
X121696645Y-117318996D01*
X121748444Y-117478414D01*
X121844951Y-117667820D01*
X121969890Y-117839786D01*
X122120213Y-117990109D01*
X122292182Y-118115050D01*
X122300946Y-118119516D01*
X122351742Y-118167491D01*
X122368536Y-118235312D01*
X122345998Y-118301447D01*
X122300946Y-118340484D01*
X122292182Y-118344949D01*
X122120213Y-118469890D01*
X121969890Y-118620213D01*
X121844951Y-118792179D01*
X121748444Y-118981585D01*
X121682753Y-119183760D01*
X121649500Y-119393713D01*
X121649500Y-119606287D01*
X121682754Y-119816243D01*
X121739117Y-119989711D01*
X121748444Y-120018414D01*
X121844951Y-120207820D01*
X121969890Y-120379786D01*
X122120213Y-120530109D01*
X122292179Y-120655048D01*
X122292181Y-120655049D01*
X122292184Y-120655051D01*
X122481588Y-120751557D01*
X122683757Y-120817246D01*
X122893713Y-120850500D01*
X122893714Y-120850500D01*
X123106286Y-120850500D01*
X123106287Y-120850500D01*
X123316243Y-120817246D01*
X123518412Y-120751557D01*
X123707816Y-120655051D01*
X123812704Y-120578846D01*
X123879786Y-120530109D01*
X123879788Y-120530106D01*
X123879792Y-120530104D01*
X123988743Y-120421153D01*
X138449500Y-120421153D01*
X138449500Y-120578846D01*
X138480261Y-120733489D01*
X138480264Y-120733501D01*
X138540602Y-120879172D01*
X138540609Y-120879185D01*
X138628210Y-121010288D01*
X138628213Y-121010292D01*
X138739707Y-121121786D01*
X138739711Y-121121789D01*
X138870814Y-121209390D01*
X138870827Y-121209397D01*
X139015185Y-121269191D01*
X139055414Y-121296071D01*
X141053451Y-123294109D01*
X141053454Y-123294112D01*
X141053457Y-123294114D01*
X141136349Y-123349500D01*
X141168189Y-123370775D01*
X141168191Y-123370776D01*
X141168193Y-123370777D01*
X141295667Y-123423578D01*
X141295672Y-123423580D01*
X141295676Y-123423580D01*
X141295677Y-123423581D01*
X141431004Y-123450500D01*
X141431007Y-123450500D01*
X145568996Y-123450500D01*
X145660040Y-123432389D01*
X145704328Y-123423580D01*
X145768069Y-123397177D01*
X145831807Y-123370777D01*
X145831808Y-123370776D01*
X145831811Y-123370775D01*
X145946543Y-123294114D01*
X148753838Y-120486819D01*
X148815161Y-120453334D01*
X148841519Y-120450500D01*
X154374684Y-120450500D01*
X154422136Y-120459939D01*
X154487031Y-120486819D01*
X154566503Y-120519737D01*
X154721153Y-120550499D01*
X154721156Y-120550500D01*
X154721158Y-120550500D01*
X154878844Y-120550500D01*
X154878845Y-120550499D01*
X155033497Y-120519737D01*
X155112969Y-120486819D01*
X155177864Y-120459939D01*
X155225316Y-120450500D01*
X161574684Y-120450500D01*
X161622136Y-120459939D01*
X161687031Y-120486819D01*
X161766503Y-120519737D01*
X161921153Y-120550499D01*
X161921156Y-120550500D01*
X161921158Y-120550500D01*
X162078844Y-120550500D01*
X162078845Y-120550499D01*
X162233497Y-120519737D01*
X162312969Y-120486819D01*
X162377864Y-120459939D01*
X162425316Y-120450500D01*
X162818996Y-120450500D01*
X162910040Y-120432389D01*
X162954328Y-120423580D01*
X163018069Y-120397177D01*
X163081807Y-120370777D01*
X163081808Y-120370776D01*
X163081811Y-120370775D01*
X163196543Y-120294114D01*
X165794114Y-117696543D01*
X165870775Y-117581811D01*
X165923580Y-117454328D01*
X165950500Y-117318994D01*
X165950500Y-117181006D01*
X165950500Y-113925316D01*
X165959939Y-113877864D01*
X165988478Y-113808963D01*
X166019737Y-113733497D01*
X166050500Y-113578842D01*
X166050500Y-113421158D01*
X166050500Y-113421155D01*
X166050499Y-113421153D01*
X166039360Y-113365154D01*
X166019737Y-113266503D01*
X165959939Y-113122136D01*
X165950500Y-113074684D01*
X165950500Y-110425316D01*
X165959939Y-110377864D01*
X165996082Y-110290606D01*
X166019737Y-110233497D01*
X166050500Y-110078842D01*
X166050500Y-109921158D01*
X166050500Y-109921155D01*
X166050499Y-109921153D01*
X166019738Y-109766510D01*
X166019737Y-109766503D01*
X166019735Y-109766498D01*
X165959397Y-109620827D01*
X165959390Y-109620814D01*
X165871789Y-109489711D01*
X165871786Y-109489707D01*
X165760292Y-109378213D01*
X165760288Y-109378210D01*
X165629185Y-109290609D01*
X165629172Y-109290602D01*
X165483501Y-109230264D01*
X165483489Y-109230261D01*
X165328845Y-109199500D01*
X165328842Y-109199500D01*
X165171158Y-109199500D01*
X165171155Y-109199500D01*
X165016510Y-109230261D01*
X165016498Y-109230264D01*
X164872136Y-109290061D01*
X164824684Y-109299500D01*
X155931004Y-109299500D01*
X155795677Y-109326418D01*
X155795667Y-109326421D01*
X155668192Y-109379222D01*
X155553449Y-109455890D01*
X155553162Y-109456127D01*
X155552981Y-109456203D01*
X155548391Y-109459271D01*
X155547809Y-109458400D01*
X155488852Y-109483439D01*
X155419984Y-109471645D01*
X155368426Y-109424492D01*
X155350500Y-109360272D01*
X155350500Y-108724500D01*
X155370185Y-108657461D01*
X155422989Y-108611706D01*
X155474500Y-108600500D01*
X165699903Y-108600500D01*
X165766942Y-108620185D01*
X165787583Y-108636818D01*
X171131284Y-113980520D01*
X171131286Y-113980521D01*
X171131290Y-113980524D01*
X171268209Y-114059573D01*
X171268216Y-114059577D01*
X171420943Y-114100501D01*
X171420945Y-114100501D01*
X171586654Y-114100501D01*
X171586670Y-114100500D01*
X180420234Y-114100500D01*
X180487273Y-114120185D01*
X180489125Y-114121398D01*
X180620814Y-114209390D01*
X180620827Y-114209397D01*
X180766498Y-114269735D01*
X180766503Y-114269737D01*
X180921153Y-114300499D01*
X180921156Y-114300500D01*
X180921158Y-114300500D01*
X181078844Y-114300500D01*
X181078845Y-114300499D01*
X181233497Y-114269737D01*
X181379179Y-114209394D01*
X181510289Y-114121789D01*
X181621789Y-114010289D01*
X181709394Y-113879179D01*
X181769737Y-113733497D01*
X181800500Y-113578842D01*
X181800500Y-113421158D01*
X181800500Y-113421155D01*
X181800499Y-113421153D01*
X181789360Y-113365154D01*
X181769737Y-113266503D01*
X181744219Y-113204896D01*
X181709397Y-113120827D01*
X181709390Y-113120814D01*
X181621789Y-112989711D01*
X181621786Y-112989707D01*
X181510292Y-112878213D01*
X181510288Y-112878210D01*
X181379185Y-112790609D01*
X181379172Y-112790602D01*
X181233501Y-112730264D01*
X181233489Y-112730261D01*
X181078845Y-112699500D01*
X181078842Y-112699500D01*
X180921158Y-112699500D01*
X180921155Y-112699500D01*
X180766510Y-112730261D01*
X180766498Y-112730264D01*
X180620827Y-112790602D01*
X180620814Y-112790609D01*
X180489125Y-112878602D01*
X180422447Y-112899480D01*
X180420234Y-112899500D01*
X171800098Y-112899500D01*
X171733059Y-112879815D01*
X171712417Y-112863181D01*
X169851983Y-111002747D01*
X169770389Y-110921153D01*
X187199500Y-110921153D01*
X187199500Y-111078846D01*
X187230261Y-111233489D01*
X187230264Y-111233501D01*
X187290061Y-111377864D01*
X187299500Y-111425316D01*
X187299500Y-123574684D01*
X187290061Y-123622136D01*
X187230264Y-123766498D01*
X187230261Y-123766510D01*
X187199500Y-123921153D01*
X187199500Y-124078846D01*
X187230261Y-124233489D01*
X187230264Y-124233501D01*
X187290602Y-124379172D01*
X187290609Y-124379185D01*
X187378210Y-124510288D01*
X187378213Y-124510292D01*
X187489707Y-124621786D01*
X187489711Y-124621789D01*
X187620814Y-124709390D01*
X187620827Y-124709397D01*
X187766498Y-124769735D01*
X187766503Y-124769737D01*
X187921153Y-124800499D01*
X187921156Y-124800500D01*
X187921158Y-124800500D01*
X188078844Y-124800500D01*
X188078845Y-124800499D01*
X188233497Y-124769737D01*
X188379179Y-124709394D01*
X188510289Y-124621789D01*
X188621789Y-124510289D01*
X188709394Y-124379179D01*
X188769737Y-124233497D01*
X188800500Y-124078842D01*
X188800500Y-123921158D01*
X188800500Y-123921155D01*
X188800499Y-123921153D01*
X188769738Y-123766510D01*
X188769737Y-123766503D01*
X188709939Y-123622136D01*
X188700500Y-123574684D01*
X188700500Y-111425316D01*
X188709939Y-111377864D01*
X188747805Y-111286445D01*
X188769737Y-111233497D01*
X188800500Y-111078842D01*
X188800500Y-110921158D01*
X188800500Y-110921155D01*
X188800499Y-110921153D01*
X188781273Y-110824500D01*
X188769737Y-110766503D01*
X188750552Y-110720185D01*
X188709397Y-110620827D01*
X188709390Y-110620814D01*
X188621789Y-110489711D01*
X188621786Y-110489707D01*
X188510292Y-110378213D01*
X188510288Y-110378210D01*
X188379185Y-110290609D01*
X188379172Y-110290602D01*
X188233501Y-110230264D01*
X188233489Y-110230261D01*
X188078845Y-110199500D01*
X188078842Y-110199500D01*
X187921158Y-110199500D01*
X187921155Y-110199500D01*
X187766510Y-110230261D01*
X187766498Y-110230264D01*
X187620827Y-110290602D01*
X187620814Y-110290609D01*
X187489711Y-110378210D01*
X187489707Y-110378213D01*
X187378213Y-110489707D01*
X187378210Y-110489711D01*
X187290609Y-110620814D01*
X187290602Y-110620827D01*
X187230264Y-110766498D01*
X187230261Y-110766510D01*
X187199500Y-110921153D01*
X169770389Y-110921153D01*
X166487590Y-107638355D01*
X166487588Y-107638352D01*
X166368717Y-107519481D01*
X166368716Y-107519480D01*
X166281904Y-107469360D01*
X166281904Y-107469359D01*
X166281900Y-107469358D01*
X166231785Y-107440423D01*
X166079057Y-107399499D01*
X165920943Y-107399499D01*
X165913347Y-107399499D01*
X165913331Y-107399500D01*
X159249097Y-107399500D01*
X159182058Y-107379815D01*
X159136303Y-107327011D01*
X159126359Y-107257853D01*
X159155384Y-107194297D01*
X159161416Y-107187819D01*
X161213416Y-105135819D01*
X161274739Y-105102334D01*
X161301097Y-105099500D01*
X168418738Y-105099500D01*
X168485777Y-105119185D01*
X168487629Y-105120398D01*
X168620814Y-105209390D01*
X168620827Y-105209397D01*
X168766498Y-105269735D01*
X168766503Y-105269737D01*
X168921153Y-105300499D01*
X168921156Y-105300500D01*
X168921158Y-105300500D01*
X169078844Y-105300500D01*
X169078845Y-105300499D01*
X169233497Y-105269737D01*
X169379179Y-105209394D01*
X169510289Y-105121789D01*
X169621789Y-105010289D01*
X169709394Y-104879179D01*
X169769737Y-104733497D01*
X169800500Y-104578842D01*
X169800500Y-104421158D01*
X169800500Y-104421155D01*
X169800499Y-104421153D01*
X169769738Y-104266510D01*
X169769737Y-104266503D01*
X169713314Y-104130284D01*
X169709397Y-104120827D01*
X169709390Y-104120814D01*
X169621789Y-103989711D01*
X169621786Y-103989707D01*
X169510292Y-103878213D01*
X169510288Y-103878210D01*
X169434548Y-103827602D01*
X169389743Y-103773990D01*
X169381036Y-103704665D01*
X169411190Y-103641637D01*
X169470634Y-103604918D01*
X169503439Y-103600500D01*
X180420234Y-103600500D01*
X180487273Y-103620185D01*
X180489125Y-103621398D01*
X180620814Y-103709390D01*
X180620827Y-103709397D01*
X180699894Y-103742147D01*
X180766503Y-103769737D01*
X180871418Y-103790606D01*
X180921153Y-103800499D01*
X180921156Y-103800500D01*
X180921158Y-103800500D01*
X181078844Y-103800500D01*
X181078845Y-103800499D01*
X181233497Y-103769737D01*
X181379179Y-103709394D01*
X181510289Y-103621789D01*
X181621789Y-103510289D01*
X181709394Y-103379179D01*
X181769737Y-103233497D01*
X181800500Y-103078842D01*
X181800500Y-102921158D01*
X181800500Y-102921155D01*
X181800499Y-102921153D01*
X181769738Y-102766510D01*
X181769737Y-102766503D01*
X181713728Y-102631284D01*
X181709397Y-102620827D01*
X181709390Y-102620814D01*
X181621789Y-102489711D01*
X181621786Y-102489707D01*
X181510292Y-102378213D01*
X181510288Y-102378210D01*
X181379185Y-102290609D01*
X181379172Y-102290602D01*
X181233501Y-102230264D01*
X181233489Y-102230261D01*
X181078845Y-102199500D01*
X181078842Y-102199500D01*
X180921158Y-102199500D01*
X180921155Y-102199500D01*
X180766510Y-102230261D01*
X180766498Y-102230264D01*
X180620827Y-102290602D01*
X180620814Y-102290609D01*
X180489125Y-102378602D01*
X180422447Y-102399480D01*
X180420234Y-102399500D01*
X156336669Y-102399500D01*
X156336653Y-102399499D01*
X156329057Y-102399499D01*
X156170943Y-102399499D01*
X156063587Y-102428265D01*
X156018210Y-102440424D01*
X156018209Y-102440425D01*
X155968096Y-102469359D01*
X155968095Y-102469360D01*
X155932853Y-102489707D01*
X155881285Y-102519479D01*
X155881282Y-102519481D01*
X153269481Y-105131282D01*
X153269479Y-105131285D01*
X153224385Y-105209392D01*
X153224384Y-105209393D01*
X153190423Y-105268214D01*
X153190423Y-105268215D01*
X153149499Y-105420943D01*
X153149499Y-105420945D01*
X153149499Y-105589046D01*
X153149500Y-105589059D01*
X153149500Y-113663330D01*
X153149499Y-113663348D01*
X153149499Y-113829054D01*
X153149498Y-113829054D01*
X153149499Y-113829057D01*
X153190423Y-113981785D01*
X153190424Y-113981787D01*
X153190423Y-113981787D01*
X153203986Y-114005277D01*
X153203987Y-114005279D01*
X153269475Y-114118709D01*
X153269481Y-114118717D01*
X153388349Y-114237585D01*
X153388355Y-114237590D01*
X154663181Y-115512416D01*
X154696666Y-115573739D01*
X154699500Y-115600097D01*
X154699500Y-115678846D01*
X154730261Y-115833489D01*
X154730264Y-115833501D01*
X154790602Y-115979172D01*
X154790609Y-115979185D01*
X154878210Y-116110288D01*
X154878213Y-116110292D01*
X154989707Y-116221786D01*
X154989711Y-116221789D01*
X155120814Y-116309390D01*
X155120827Y-116309397D01*
X155266498Y-116369735D01*
X155266503Y-116369737D01*
X155421153Y-116400499D01*
X155421156Y-116400500D01*
X155421158Y-116400500D01*
X155578844Y-116400500D01*
X155578845Y-116400499D01*
X155733497Y-116369737D01*
X155879179Y-116309394D01*
X156010289Y-116221789D01*
X156121789Y-116110289D01*
X156209394Y-115979179D01*
X156269737Y-115833497D01*
X156300500Y-115678842D01*
X156300500Y-115521158D01*
X156300500Y-115521155D01*
X156300499Y-115521153D01*
X156292553Y-115481206D01*
X156269737Y-115366503D01*
X156269735Y-115366498D01*
X156209397Y-115220827D01*
X156209390Y-115220814D01*
X156121789Y-115089711D01*
X156121786Y-115089707D01*
X156010292Y-114978213D01*
X156010288Y-114978210D01*
X155879185Y-114890609D01*
X155879172Y-114890602D01*
X155733499Y-114830263D01*
X155733493Y-114830261D01*
X155702980Y-114824192D01*
X155686223Y-114815426D01*
X155667746Y-114811407D01*
X155642705Y-114792661D01*
X155641070Y-114791806D01*
X155639492Y-114790256D01*
X155578338Y-114729102D01*
X155544853Y-114667779D01*
X155549837Y-114598087D01*
X155578339Y-114553739D01*
X155621786Y-114510292D01*
X155621789Y-114510289D01*
X155709394Y-114379179D01*
X155769737Y-114233497D01*
X155800500Y-114078842D01*
X155800500Y-113921158D01*
X155800500Y-113921155D01*
X155800499Y-113921153D01*
X155769738Y-113766510D01*
X155769737Y-113766503D01*
X155749062Y-113716588D01*
X155709397Y-113620827D01*
X155709390Y-113620814D01*
X155621789Y-113489711D01*
X155621786Y-113489707D01*
X155510289Y-113378210D01*
X155405609Y-113308266D01*
X155360804Y-113254654D01*
X155350500Y-113205164D01*
X155350500Y-111424500D01*
X155370185Y-111357461D01*
X155422989Y-111311706D01*
X155474500Y-111300500D01*
X155578844Y-111300500D01*
X155578845Y-111300499D01*
X155733497Y-111269737D01*
X155879179Y-111209394D01*
X156010289Y-111121789D01*
X156121789Y-111010289D01*
X156209394Y-110879179D01*
X156232043Y-110824500D01*
X156251698Y-110777048D01*
X156295538Y-110722644D01*
X156361833Y-110700579D01*
X156366259Y-110700500D01*
X164425500Y-110700500D01*
X164492539Y-110720185D01*
X164538294Y-110772989D01*
X164549500Y-110824500D01*
X164549500Y-113074684D01*
X164540061Y-113122136D01*
X164480264Y-113266498D01*
X164480261Y-113266510D01*
X164449500Y-113421153D01*
X164449500Y-113578846D01*
X164480261Y-113733489D01*
X164480264Y-113733501D01*
X164540061Y-113877864D01*
X164549500Y-113925316D01*
X164549500Y-116908481D01*
X164529815Y-116975520D01*
X164513181Y-116996162D01*
X162501092Y-119008250D01*
X162439769Y-119041735D01*
X162370077Y-119036751D01*
X162365971Y-119035135D01*
X162233497Y-118980263D01*
X162233489Y-118980261D01*
X162078845Y-118949500D01*
X162078842Y-118949500D01*
X161921158Y-118949500D01*
X161921155Y-118949500D01*
X161766510Y-118980261D01*
X161766498Y-118980264D01*
X161622136Y-119040061D01*
X161574684Y-119049500D01*
X155225316Y-119049500D01*
X155177864Y-119040061D01*
X155033501Y-118980264D01*
X155033489Y-118980261D01*
X154878845Y-118949500D01*
X154878842Y-118949500D01*
X154721158Y-118949500D01*
X154721155Y-118949500D01*
X154566510Y-118980261D01*
X154566498Y-118980264D01*
X154422136Y-119040061D01*
X154374684Y-119049500D01*
X148431004Y-119049500D01*
X148295677Y-119076418D01*
X148295667Y-119076421D01*
X148168192Y-119129222D01*
X148053454Y-119205887D01*
X148053453Y-119205888D01*
X145246162Y-122013181D01*
X145184839Y-122046666D01*
X145158481Y-122049500D01*
X141841519Y-122049500D01*
X141774480Y-122029815D01*
X141753838Y-122013181D01*
X140046071Y-120305414D01*
X140019191Y-120265185D01*
X139959397Y-120120827D01*
X139959390Y-120120814D01*
X139871789Y-119989711D01*
X139871786Y-119989707D01*
X139760292Y-119878213D01*
X139760288Y-119878210D01*
X139629185Y-119790609D01*
X139629172Y-119790602D01*
X139483501Y-119730264D01*
X139483489Y-119730261D01*
X139328845Y-119699500D01*
X139328842Y-119699500D01*
X139171158Y-119699500D01*
X139171155Y-119699500D01*
X139016510Y-119730261D01*
X139016498Y-119730264D01*
X138870827Y-119790602D01*
X138870814Y-119790609D01*
X138739711Y-119878210D01*
X138739707Y-119878213D01*
X138628213Y-119989707D01*
X138628210Y-119989711D01*
X138540609Y-120120814D01*
X138540602Y-120120827D01*
X138480264Y-120266498D01*
X138480261Y-120266510D01*
X138449500Y-120421153D01*
X123988743Y-120421153D01*
X124030104Y-120379792D01*
X124155051Y-120207816D01*
X124251557Y-120018412D01*
X124317246Y-119816243D01*
X124350500Y-119606287D01*
X124350500Y-119393713D01*
X124317246Y-119183757D01*
X124251557Y-118981588D01*
X124155051Y-118792184D01*
X124155049Y-118792181D01*
X124155048Y-118792179D01*
X124030109Y-118620213D01*
X123879786Y-118469890D01*
X123707820Y-118344951D01*
X123707115Y-118344591D01*
X123699054Y-118340485D01*
X123648259Y-118292512D01*
X123631463Y-118224692D01*
X123653999Y-118158556D01*
X123699054Y-118119515D01*
X123707816Y-118115051D01*
X123771485Y-118068793D01*
X123879786Y-117990109D01*
X123879788Y-117990106D01*
X123879792Y-117990104D01*
X124030104Y-117839792D01*
X124030106Y-117839788D01*
X124030109Y-117839786D01*
X124155048Y-117667820D01*
X124155047Y-117667820D01*
X124155051Y-117667816D01*
X124251557Y-117478412D01*
X124317246Y-117276243D01*
X124350500Y-117066287D01*
X124350500Y-116853713D01*
X124317246Y-116643757D01*
X124251557Y-116441588D01*
X124155051Y-116252184D01*
X124155049Y-116252181D01*
X124155048Y-116252179D01*
X124030109Y-116080213D01*
X123879786Y-115929890D01*
X123707817Y-115804949D01*
X123698504Y-115800204D01*
X123647707Y-115752230D01*
X123630912Y-115684409D01*
X123653449Y-115618274D01*
X123698507Y-115579232D01*
X123707558Y-115574620D01*
X123879459Y-115449727D01*
X123879464Y-115449723D01*
X124029723Y-115299464D01*
X124029727Y-115299459D01*
X124154620Y-115127557D01*
X124251095Y-114938217D01*
X124316757Y-114736129D01*
X124316757Y-114736126D01*
X124327231Y-114670000D01*
X123433012Y-114670000D01*
X123465925Y-114612993D01*
X123500000Y-114485826D01*
X123500000Y-114354174D01*
X123465925Y-114227007D01*
X123433012Y-114170000D01*
X124327231Y-114170000D01*
X124322993Y-114143239D01*
X124320692Y-114128713D01*
X138649500Y-114128713D01*
X138649500Y-114341287D01*
X138682754Y-114551243D01*
X138742827Y-114736129D01*
X138748444Y-114753414D01*
X138844951Y-114942820D01*
X138969890Y-115114786D01*
X139083430Y-115228326D01*
X139116915Y-115289649D01*
X139111931Y-115359341D01*
X139070059Y-115415274D01*
X139039083Y-115432189D01*
X138907669Y-115481203D01*
X138907664Y-115481206D01*
X138792455Y-115567452D01*
X138792452Y-115567455D01*
X138706206Y-115682664D01*
X138706202Y-115682671D01*
X138655908Y-115817517D01*
X138654190Y-115833501D01*
X138649501Y-115877123D01*
X138649500Y-115877135D01*
X138649500Y-117672870D01*
X138649501Y-117672876D01*
X138655908Y-117732483D01*
X138706202Y-117867328D01*
X138706206Y-117867335D01*
X138792452Y-117982544D01*
X138792455Y-117982547D01*
X138907664Y-118068793D01*
X138907671Y-118068797D01*
X139042517Y-118119091D01*
X139042516Y-118119091D01*
X139049444Y-118119835D01*
X139102127Y-118125500D01*
X140897872Y-118125499D01*
X140957483Y-118119091D01*
X141092331Y-118068796D01*
X141207546Y-117982546D01*
X141293796Y-117867331D01*
X141344091Y-117732483D01*
X141350500Y-117672873D01*
X141350499Y-115877128D01*
X141344091Y-115817517D01*
X141339403Y-115804949D01*
X141293797Y-115682671D01*
X141293793Y-115682664D01*
X141207547Y-115567455D01*
X141207544Y-115567452D01*
X141092335Y-115481206D01*
X141092328Y-115481202D01*
X140960917Y-115432189D01*
X140904983Y-115390318D01*
X140880566Y-115324853D01*
X140895418Y-115256580D01*
X140916563Y-115228332D01*
X141030104Y-115114792D01*
X141155051Y-114942816D01*
X141251557Y-114753412D01*
X141317246Y-114551243D01*
X141350500Y-114341287D01*
X141350500Y-114128713D01*
X141317246Y-113918757D01*
X141251557Y-113716588D01*
X141155051Y-113527184D01*
X141155049Y-113527181D01*
X141155048Y-113527179D01*
X141030109Y-113355213D01*
X140879786Y-113204890D01*
X140707820Y-113079951D01*
X140518414Y-112983444D01*
X140518413Y-112983443D01*
X140518412Y-112983443D01*
X140316243Y-112917754D01*
X140316241Y-112917753D01*
X140316240Y-112917753D01*
X140154957Y-112892208D01*
X140106287Y-112884500D01*
X139893713Y-112884500D01*
X139845042Y-112892208D01*
X139683760Y-112917753D01*
X139481585Y-112983444D01*
X139292179Y-113079951D01*
X139120213Y-113204890D01*
X138969890Y-113355213D01*
X138844951Y-113527179D01*
X138748444Y-113716585D01*
X138682753Y-113918760D01*
X138653968Y-114100501D01*
X138649500Y-114128713D01*
X124320692Y-114128713D01*
X124316757Y-114103873D01*
X124316757Y-114103870D01*
X124251095Y-113901782D01*
X124154620Y-113712442D01*
X124029727Y-113540540D01*
X124029723Y-113540535D01*
X123915665Y-113426477D01*
X123882180Y-113365154D01*
X123887164Y-113295462D01*
X123929036Y-113239529D01*
X123960013Y-113222614D01*
X124092086Y-113173354D01*
X124092093Y-113173350D01*
X124207187Y-113087190D01*
X124207190Y-113087187D01*
X124293350Y-112972093D01*
X124293354Y-112972086D01*
X124343596Y-112837379D01*
X124343598Y-112837372D01*
X124349999Y-112777844D01*
X124350000Y-112777827D01*
X124350000Y-112130000D01*
X123433012Y-112130000D01*
X123465925Y-112072993D01*
X123500000Y-111945826D01*
X123500000Y-111814174D01*
X123465925Y-111687007D01*
X123433012Y-111630000D01*
X124350000Y-111630000D01*
X124350000Y-110982172D01*
X124349999Y-110982155D01*
X124343598Y-110922627D01*
X124343596Y-110922620D01*
X124293354Y-110787913D01*
X124293350Y-110787906D01*
X124207190Y-110672812D01*
X124207187Y-110672809D01*
X124092093Y-110586649D01*
X124092086Y-110586645D01*
X123957379Y-110536403D01*
X123957372Y-110536401D01*
X123897844Y-110530000D01*
X123250000Y-110530000D01*
X123250000Y-111446988D01*
X123192993Y-111414075D01*
X123065826Y-111380000D01*
X122934174Y-111380000D01*
X122807007Y-111414075D01*
X122750000Y-111446988D01*
X122750000Y-110530000D01*
X122102155Y-110530000D01*
X122042627Y-110536401D01*
X122042620Y-110536403D01*
X121907913Y-110586645D01*
X121907906Y-110586649D01*
X121792812Y-110672809D01*
X121792809Y-110672812D01*
X121706649Y-110787906D01*
X121706645Y-110787913D01*
X121656403Y-110922620D01*
X121656401Y-110922627D01*
X121650000Y-110982155D01*
X121650000Y-111630000D01*
X122566988Y-111630000D01*
X122534075Y-111687007D01*
X122500000Y-111814174D01*
X122500000Y-111945826D01*
X122534075Y-112072993D01*
X122566988Y-112130000D01*
X121650000Y-112130000D01*
X121650000Y-112777844D01*
X121656401Y-112837372D01*
X121656403Y-112837379D01*
X121706645Y-112972086D01*
X121706649Y-112972093D01*
X121792809Y-113087187D01*
X121792812Y-113087190D01*
X121907906Y-113173350D01*
X121907913Y-113173354D01*
X122039986Y-113222614D01*
X122095920Y-113264485D01*
X122120337Y-113329949D01*
X122105486Y-113398222D01*
X122084335Y-113426477D01*
X121970271Y-113540541D01*
X121845379Y-113712442D01*
X121748904Y-113901782D01*
X121683242Y-114103870D01*
X121683242Y-114103873D01*
X121672769Y-114170000D01*
X122566988Y-114170000D01*
X122534075Y-114227007D01*
X122500000Y-114354174D01*
X122500000Y-114485826D01*
X122534075Y-114612993D01*
X122566988Y-114670000D01*
X121672769Y-114670000D01*
X121683242Y-114736126D01*
X121683242Y-114736129D01*
X121748904Y-114938217D01*
X121845379Y-115127557D01*
X121970272Y-115299459D01*
X121970276Y-115299464D01*
X122120535Y-115449723D01*
X122120540Y-115449727D01*
X122292444Y-115574622D01*
X122301495Y-115579234D01*
X122352292Y-115627208D01*
X122369087Y-115695029D01*
X122346550Y-115761164D01*
X122301499Y-115800202D01*
X122292182Y-115804949D01*
X122120213Y-115929890D01*
X121969890Y-116080213D01*
X121844951Y-116252179D01*
X121748444Y-116441585D01*
X121682753Y-116643760D01*
X121649500Y-116853713D01*
X118250500Y-116853713D01*
X118250500Y-99921153D01*
X154199500Y-99921153D01*
X154199500Y-100078846D01*
X154230261Y-100233489D01*
X154230264Y-100233501D01*
X154290602Y-100379172D01*
X154290609Y-100379185D01*
X154378210Y-100510288D01*
X154378213Y-100510292D01*
X154489707Y-100621786D01*
X154489711Y-100621789D01*
X154620814Y-100709390D01*
X154620827Y-100709397D01*
X154766498Y-100769735D01*
X154766503Y-100769737D01*
X154921153Y-100800499D01*
X154921156Y-100800500D01*
X154921158Y-100800500D01*
X155078844Y-100800500D01*
X155078845Y-100800499D01*
X155233497Y-100769737D01*
X155379179Y-100709394D01*
X155379185Y-100709390D01*
X155510875Y-100621398D01*
X155577553Y-100600520D01*
X155579766Y-100600500D01*
X161413331Y-100600500D01*
X161413347Y-100600501D01*
X161420943Y-100600501D01*
X161579054Y-100600501D01*
X161579057Y-100600501D01*
X161731785Y-100559577D01*
X161781904Y-100530639D01*
X161868716Y-100480520D01*
X161980520Y-100368716D01*
X161980521Y-100368714D01*
X162014662Y-100334572D01*
X162075983Y-100301089D01*
X162078150Y-100300638D01*
X162136085Y-100289113D01*
X162233497Y-100269737D01*
X162379179Y-100209394D01*
X162510289Y-100121789D01*
X162621789Y-100010289D01*
X162709394Y-99879179D01*
X162769737Y-99733497D01*
X162800500Y-99578842D01*
X162800500Y-99421158D01*
X162800500Y-99421155D01*
X162800499Y-99421153D01*
X162788653Y-99361602D01*
X162769737Y-99266503D01*
X162769735Y-99266498D01*
X162709397Y-99120827D01*
X162709390Y-99120814D01*
X162621789Y-98989711D01*
X162621786Y-98989707D01*
X162510292Y-98878213D01*
X162510288Y-98878210D01*
X162379185Y-98790609D01*
X162379172Y-98790602D01*
X162233501Y-98730264D01*
X162233489Y-98730261D01*
X162078845Y-98699500D01*
X162078842Y-98699500D01*
X161921158Y-98699500D01*
X161921155Y-98699500D01*
X161766510Y-98730261D01*
X161766498Y-98730264D01*
X161620827Y-98790602D01*
X161620814Y-98790609D01*
X161489711Y-98878210D01*
X161489707Y-98878213D01*
X161378213Y-98989707D01*
X161378210Y-98989711D01*
X161290609Y-99120814D01*
X161290602Y-99120827D01*
X161230264Y-99266498D01*
X161230261Y-99266510D01*
X161223661Y-99299691D01*
X161191276Y-99361602D01*
X161130561Y-99396176D01*
X161102044Y-99399500D01*
X155579766Y-99399500D01*
X155512727Y-99379815D01*
X155510875Y-99378602D01*
X155379185Y-99290609D01*
X155379172Y-99290602D01*
X155233501Y-99230264D01*
X155233489Y-99230261D01*
X155078845Y-99199500D01*
X155078842Y-99199500D01*
X154921158Y-99199500D01*
X154921155Y-99199500D01*
X154766510Y-99230261D01*
X154766498Y-99230264D01*
X154620827Y-99290602D01*
X154620814Y-99290609D01*
X154489711Y-99378210D01*
X154489707Y-99378213D01*
X154378213Y-99489707D01*
X154378210Y-99489711D01*
X154290609Y-99620814D01*
X154290602Y-99620827D01*
X154230264Y-99766498D01*
X154230261Y-99766510D01*
X154199500Y-99921153D01*
X118250500Y-99921153D01*
X118250500Y-98381902D01*
X172499500Y-98381902D01*
X172499500Y-98618097D01*
X172536446Y-98851368D01*
X172609433Y-99075996D01*
X172672362Y-99199500D01*
X172716657Y-99286433D01*
X172855483Y-99477510D01*
X173022490Y-99644517D01*
X173213567Y-99783343D01*
X173312991Y-99834002D01*
X173424003Y-99890566D01*
X173424005Y-99890566D01*
X173424008Y-99890568D01*
X173518139Y-99921153D01*
X173648631Y-99963553D01*
X173881903Y-100000500D01*
X173881908Y-100000500D01*
X174118097Y-100000500D01*
X174351368Y-99963553D01*
X174575992Y-99890568D01*
X174786433Y-99783343D01*
X174977510Y-99644517D01*
X175144517Y-99477510D01*
X175283343Y-99286433D01*
X175390568Y-99075992D01*
X175463553Y-98851368D01*
X175473177Y-98790606D01*
X175500500Y-98618097D01*
X175500500Y-98381902D01*
X178999500Y-98381902D01*
X178999500Y-98618097D01*
X179036446Y-98851368D01*
X179109433Y-99075996D01*
X179172362Y-99199500D01*
X179216657Y-99286433D01*
X179355483Y-99477510D01*
X179522490Y-99644517D01*
X179713567Y-99783343D01*
X179812991Y-99834002D01*
X179924003Y-99890566D01*
X179924005Y-99890566D01*
X179924008Y-99890568D01*
X180018139Y-99921153D01*
X180148631Y-99963553D01*
X180381903Y-100000500D01*
X180381908Y-100000500D01*
X180618097Y-100000500D01*
X180851368Y-99963553D01*
X181075992Y-99890568D01*
X181286433Y-99783343D01*
X181477510Y-99644517D01*
X181644517Y-99477510D01*
X181783343Y-99286433D01*
X181890568Y-99075992D01*
X181963553Y-98851368D01*
X181973177Y-98790606D01*
X182000500Y-98618097D01*
X182000500Y-98381902D01*
X186174500Y-98381902D01*
X186174500Y-98618097D01*
X186211446Y-98851368D01*
X186284433Y-99075996D01*
X186347362Y-99199500D01*
X186391657Y-99286433D01*
X186530483Y-99477510D01*
X186697490Y-99644517D01*
X186888567Y-99783343D01*
X186987991Y-99834002D01*
X187099003Y-99890566D01*
X187099005Y-99890566D01*
X187099008Y-99890568D01*
X187193139Y-99921153D01*
X187323631Y-99963553D01*
X187556903Y-100000500D01*
X187556908Y-100000500D01*
X187793097Y-100000500D01*
X188026368Y-99963553D01*
X188250992Y-99890568D01*
X188461433Y-99783343D01*
X188652510Y-99644517D01*
X188819517Y-99477510D01*
X188958343Y-99286433D01*
X189065568Y-99075992D01*
X189138553Y-98851368D01*
X189148177Y-98790606D01*
X189175500Y-98618097D01*
X189175500Y-98381902D01*
X192674500Y-98381902D01*
X192674500Y-98618097D01*
X192711446Y-98851368D01*
X192784433Y-99075996D01*
X192847362Y-99199500D01*
X192891657Y-99286433D01*
X193030483Y-99477510D01*
X193197490Y-99644517D01*
X193388567Y-99783343D01*
X193487991Y-99834002D01*
X193599003Y-99890566D01*
X193599005Y-99890566D01*
X193599008Y-99890568D01*
X193693139Y-99921153D01*
X193823631Y-99963553D01*
X194056903Y-100000500D01*
X194056908Y-100000500D01*
X194293097Y-100000500D01*
X194526368Y-99963553D01*
X194750992Y-99890568D01*
X194961433Y-99783343D01*
X195152510Y-99644517D01*
X195319517Y-99477510D01*
X195458343Y-99286433D01*
X195565568Y-99075992D01*
X195638553Y-98851368D01*
X195648177Y-98790606D01*
X195675500Y-98618097D01*
X195675500Y-98381902D01*
X195638553Y-98148631D01*
X195594174Y-98012049D01*
X195565568Y-97924008D01*
X195565566Y-97924005D01*
X195565566Y-97924003D01*
X195458342Y-97713566D01*
X195439608Y-97687781D01*
X195319517Y-97522490D01*
X195152510Y-97355483D01*
X194961433Y-97216657D01*
X194943548Y-97207544D01*
X194827753Y-97148543D01*
X199570499Y-97148543D01*
X199608947Y-97341829D01*
X199608950Y-97341839D01*
X199684364Y-97523907D01*
X199684371Y-97523920D01*
X199793860Y-97687781D01*
X199793863Y-97687785D01*
X199933214Y-97827136D01*
X199933218Y-97827139D01*
X200097079Y-97936628D01*
X200097092Y-97936635D01*
X200279160Y-98012049D01*
X200279165Y-98012051D01*
X200279169Y-98012051D01*
X200279170Y-98012052D01*
X200472456Y-98050500D01*
X200472459Y-98050500D01*
X200669543Y-98050500D01*
X200799582Y-98024632D01*
X200862835Y-98012051D01*
X201044914Y-97936632D01*
X201208782Y-97827139D01*
X201348139Y-97687782D01*
X201457632Y-97523914D01*
X201533051Y-97341835D01*
X201559763Y-97207546D01*
X201571500Y-97148543D01*
X201571500Y-96631333D01*
X201591185Y-96564294D01*
X201643989Y-96518539D01*
X201713147Y-96508595D01*
X201757501Y-96523947D01*
X201778859Y-96536278D01*
X201778860Y-96536278D01*
X201778865Y-96536281D01*
X201925234Y-96575500D01*
X201925236Y-96575500D01*
X202076764Y-96575500D01*
X202076766Y-96575500D01*
X202223135Y-96536281D01*
X202354365Y-96460515D01*
X202461515Y-96353365D01*
X202537281Y-96222135D01*
X202576500Y-96075766D01*
X202576500Y-95924234D01*
X207205500Y-95924234D01*
X207205500Y-96075765D01*
X207244719Y-96222136D01*
X207282602Y-96287750D01*
X207320485Y-96353365D01*
X207427635Y-96460515D01*
X207510912Y-96508595D01*
X207558861Y-96536279D01*
X207558865Y-96536281D01*
X207705234Y-96575500D01*
X207705236Y-96575500D01*
X207856764Y-96575500D01*
X207856766Y-96575500D01*
X208003135Y-96536281D01*
X208013451Y-96530325D01*
X208024499Y-96523947D01*
X208092398Y-96507473D01*
X208158426Y-96530325D01*
X208201617Y-96585245D01*
X208210500Y-96631333D01*
X208210500Y-97148541D01*
X208210500Y-97148543D01*
X208210499Y-97148543D01*
X208248947Y-97341829D01*
X208248950Y-97341839D01*
X208324364Y-97523907D01*
X208324371Y-97523920D01*
X208433860Y-97687781D01*
X208433863Y-97687785D01*
X208573214Y-97827136D01*
X208573218Y-97827139D01*
X208737079Y-97936628D01*
X208737092Y-97936635D01*
X208919160Y-98012049D01*
X208919165Y-98012051D01*
X208919169Y-98012051D01*
X208919170Y-98012052D01*
X209112456Y-98050500D01*
X209112459Y-98050500D01*
X209309543Y-98050500D01*
X209439582Y-98024632D01*
X209502835Y-98012051D01*
X209684914Y-97936632D01*
X209848782Y-97827139D01*
X209988139Y-97687782D01*
X210097632Y-97523914D01*
X210173051Y-97341835D01*
X210199763Y-97207546D01*
X210211500Y-97148543D01*
X210211500Y-95851456D01*
X210173052Y-95658170D01*
X210173051Y-95658169D01*
X210173051Y-95658165D01*
X210168274Y-95646632D01*
X210097635Y-95476092D01*
X210097628Y-95476079D01*
X209988139Y-95312218D01*
X209988136Y-95312214D01*
X209848785Y-95172863D01*
X209848781Y-95172860D01*
X209684920Y-95063371D01*
X209684907Y-95063364D01*
X209502839Y-94987950D01*
X209502829Y-94987947D01*
X209309543Y-94949500D01*
X209309541Y-94949500D01*
X209112459Y-94949500D01*
X209112457Y-94949500D01*
X208919170Y-94987947D01*
X208919160Y-94987950D01*
X208737092Y-95063364D01*
X208737079Y-95063371D01*
X208573218Y-95172860D01*
X208573214Y-95172863D01*
X208433863Y-95312214D01*
X208433860Y-95312218D01*
X208324371Y-95476079D01*
X208324363Y-95476094D01*
X208320456Y-95485528D01*
X208276615Y-95539931D01*
X208210320Y-95561995D01*
X208142621Y-95544715D01*
X208137968Y-95541566D01*
X208134366Y-95539486D01*
X208134365Y-95539485D01*
X208034080Y-95481585D01*
X208003136Y-95463719D01*
X207929950Y-95444109D01*
X207856766Y-95424500D01*
X207705234Y-95424500D01*
X207558863Y-95463719D01*
X207427635Y-95539485D01*
X207427632Y-95539487D01*
X207320487Y-95646632D01*
X207320485Y-95646635D01*
X207244719Y-95777863D01*
X207205500Y-95924234D01*
X202576500Y-95924234D01*
X202537281Y-95777865D01*
X202461515Y-95646635D01*
X202354365Y-95539485D01*
X202283838Y-95498766D01*
X202223136Y-95463719D01*
X202149950Y-95444109D01*
X202076766Y-95424500D01*
X201925234Y-95424500D01*
X201778863Y-95463719D01*
X201687428Y-95516510D01*
X201647635Y-95539485D01*
X201647633Y-95539486D01*
X201640597Y-95543549D01*
X201639254Y-95541224D01*
X201586391Y-95561647D01*
X201517949Y-95547592D01*
X201467971Y-95498766D01*
X201461540Y-95485522D01*
X201459909Y-95481585D01*
X201457632Y-95476086D01*
X201457630Y-95476083D01*
X201457628Y-95476079D01*
X201348139Y-95312218D01*
X201348136Y-95312214D01*
X201208785Y-95172863D01*
X201208781Y-95172860D01*
X201044920Y-95063371D01*
X201044907Y-95063364D01*
X200862839Y-94987950D01*
X200862829Y-94987947D01*
X200669543Y-94949500D01*
X200669541Y-94949500D01*
X200472459Y-94949500D01*
X200472457Y-94949500D01*
X200279170Y-94987947D01*
X200279160Y-94987950D01*
X200097092Y-95063364D01*
X200097079Y-95063371D01*
X199933218Y-95172860D01*
X199933214Y-95172863D01*
X199793863Y-95312214D01*
X199793860Y-95312218D01*
X199684371Y-95476079D01*
X199684364Y-95476092D01*
X199608950Y-95658160D01*
X199608947Y-95658170D01*
X199570500Y-95851456D01*
X199570500Y-95851459D01*
X199570500Y-97148541D01*
X199570500Y-97148543D01*
X199570499Y-97148543D01*
X194827753Y-97148543D01*
X194750996Y-97109433D01*
X194526368Y-97036446D01*
X194293097Y-96999500D01*
X194293092Y-96999500D01*
X194056908Y-96999500D01*
X194056903Y-96999500D01*
X193823631Y-97036446D01*
X193599003Y-97109433D01*
X193388566Y-97216657D01*
X193340534Y-97251555D01*
X193197490Y-97355483D01*
X193197488Y-97355485D01*
X193197487Y-97355485D01*
X193030485Y-97522487D01*
X193030485Y-97522488D01*
X193030483Y-97522490D01*
X192970862Y-97604550D01*
X192891657Y-97713566D01*
X192784433Y-97924003D01*
X192711446Y-98148631D01*
X192674500Y-98381902D01*
X189175500Y-98381902D01*
X189138553Y-98148631D01*
X189094174Y-98012049D01*
X189065568Y-97924008D01*
X189065566Y-97924005D01*
X189065566Y-97924003D01*
X188958342Y-97713566D01*
X188939608Y-97687781D01*
X188819517Y-97522490D01*
X188652510Y-97355483D01*
X188461433Y-97216657D01*
X188443548Y-97207544D01*
X188250996Y-97109433D01*
X188026368Y-97036446D01*
X187793097Y-96999500D01*
X187793092Y-96999500D01*
X187556908Y-96999500D01*
X187556903Y-96999500D01*
X187323631Y-97036446D01*
X187099003Y-97109433D01*
X186888566Y-97216657D01*
X186840534Y-97251555D01*
X186697490Y-97355483D01*
X186697488Y-97355485D01*
X186697487Y-97355485D01*
X186530485Y-97522487D01*
X186530485Y-97522488D01*
X186530483Y-97522490D01*
X186470862Y-97604550D01*
X186391657Y-97713566D01*
X186284433Y-97924003D01*
X186211446Y-98148631D01*
X186174500Y-98381902D01*
X182000500Y-98381902D01*
X181963553Y-98148631D01*
X181919174Y-98012049D01*
X181890568Y-97924008D01*
X181890566Y-97924005D01*
X181890566Y-97924003D01*
X181783342Y-97713566D01*
X181764608Y-97687781D01*
X181644517Y-97522490D01*
X181477510Y-97355483D01*
X181286433Y-97216657D01*
X181268548Y-97207544D01*
X181075996Y-97109433D01*
X180851368Y-97036446D01*
X180618097Y-96999500D01*
X180618092Y-96999500D01*
X180381908Y-96999500D01*
X180381903Y-96999500D01*
X180148631Y-97036446D01*
X179924003Y-97109433D01*
X179713566Y-97216657D01*
X179665534Y-97251555D01*
X179522490Y-97355483D01*
X179522488Y-97355485D01*
X179522487Y-97355485D01*
X179355485Y-97522487D01*
X179355485Y-97522488D01*
X179355483Y-97522490D01*
X179295862Y-97604550D01*
X179216657Y-97713566D01*
X179109433Y-97924003D01*
X179036446Y-98148631D01*
X178999500Y-98381902D01*
X175500500Y-98381902D01*
X175463553Y-98148631D01*
X175419174Y-98012049D01*
X175390568Y-97924008D01*
X175390566Y-97924005D01*
X175390566Y-97924003D01*
X175283342Y-97713566D01*
X175264608Y-97687781D01*
X175144517Y-97522490D01*
X174977510Y-97355483D01*
X174786433Y-97216657D01*
X174768548Y-97207544D01*
X174575996Y-97109433D01*
X174351368Y-97036446D01*
X174118097Y-96999500D01*
X174118092Y-96999500D01*
X173881908Y-96999500D01*
X173881903Y-96999500D01*
X173648631Y-97036446D01*
X173424003Y-97109433D01*
X173213566Y-97216657D01*
X173165534Y-97251555D01*
X173022490Y-97355483D01*
X173022488Y-97355485D01*
X173022487Y-97355485D01*
X172855485Y-97522487D01*
X172855485Y-97522488D01*
X172855483Y-97522490D01*
X172795862Y-97604550D01*
X172716657Y-97713566D01*
X172609433Y-97924003D01*
X172536446Y-98148631D01*
X172499500Y-98381902D01*
X118250500Y-98381902D01*
X118250500Y-95893713D01*
X124489500Y-95893713D01*
X124489500Y-96106287D01*
X124522754Y-96316243D01*
X124585253Y-96508595D01*
X124588444Y-96518414D01*
X124684951Y-96707820D01*
X124809890Y-96879786D01*
X124960213Y-97030109D01*
X125132179Y-97155048D01*
X125132181Y-97155049D01*
X125132184Y-97155051D01*
X125321588Y-97251557D01*
X125523757Y-97317246D01*
X125733713Y-97350500D01*
X125733714Y-97350500D01*
X125946286Y-97350500D01*
X125946287Y-97350500D01*
X126156243Y-97317246D01*
X126358412Y-97251557D01*
X126547816Y-97155051D01*
X126634138Y-97092335D01*
X126719786Y-97030109D01*
X126719788Y-97030106D01*
X126719792Y-97030104D01*
X126870104Y-96879792D01*
X126870106Y-96879788D01*
X126870109Y-96879786D01*
X126995048Y-96707820D01*
X126995047Y-96707820D01*
X126995051Y-96707816D01*
X126999514Y-96699054D01*
X127047488Y-96648259D01*
X127115308Y-96631463D01*
X127181444Y-96653999D01*
X127220486Y-96699056D01*
X127224951Y-96707820D01*
X127349890Y-96879786D01*
X127500213Y-97030109D01*
X127672179Y-97155048D01*
X127672181Y-97155049D01*
X127672184Y-97155051D01*
X127861588Y-97251557D01*
X128063757Y-97317246D01*
X128273713Y-97350500D01*
X128273714Y-97350500D01*
X128486286Y-97350500D01*
X128486287Y-97350500D01*
X128696243Y-97317246D01*
X128898412Y-97251557D01*
X129087816Y-97155051D01*
X129174138Y-97092335D01*
X129259786Y-97030109D01*
X129259788Y-97030106D01*
X129259792Y-97030104D01*
X129410104Y-96879792D01*
X129410106Y-96879788D01*
X129410109Y-96879786D01*
X129535048Y-96707820D01*
X129535047Y-96707820D01*
X129535051Y-96707816D01*
X129539514Y-96699054D01*
X129587488Y-96648259D01*
X129655308Y-96631463D01*
X129721444Y-96653999D01*
X129760486Y-96699056D01*
X129764951Y-96707820D01*
X129889890Y-96879786D01*
X130040213Y-97030109D01*
X130212179Y-97155048D01*
X130212181Y-97155049D01*
X130212184Y-97155051D01*
X130401588Y-97251557D01*
X130603757Y-97317246D01*
X130813713Y-97350500D01*
X130813714Y-97350500D01*
X131026286Y-97350500D01*
X131026287Y-97350500D01*
X131236243Y-97317246D01*
X131438412Y-97251557D01*
X131627816Y-97155051D01*
X131714138Y-97092335D01*
X131799786Y-97030109D01*
X131799788Y-97030106D01*
X131799792Y-97030104D01*
X131950104Y-96879792D01*
X131950106Y-96879788D01*
X131950109Y-96879786D01*
X132075048Y-96707820D01*
X132075047Y-96707820D01*
X132075051Y-96707816D01*
X132079514Y-96699054D01*
X132127488Y-96648259D01*
X132195308Y-96631463D01*
X132261444Y-96653999D01*
X132300486Y-96699056D01*
X132304951Y-96707820D01*
X132429890Y-96879786D01*
X132580213Y-97030109D01*
X132752179Y-97155048D01*
X132752181Y-97155049D01*
X132752184Y-97155051D01*
X132941588Y-97251557D01*
X133143757Y-97317246D01*
X133353713Y-97350500D01*
X133353714Y-97350500D01*
X133566286Y-97350500D01*
X133566287Y-97350500D01*
X133776243Y-97317246D01*
X133978412Y-97251557D01*
X134167816Y-97155051D01*
X134254138Y-97092335D01*
X134339786Y-97030109D01*
X134339788Y-97030106D01*
X134339792Y-97030104D01*
X134490104Y-96879792D01*
X134490106Y-96879788D01*
X134490109Y-96879786D01*
X134615048Y-96707820D01*
X134615047Y-96707820D01*
X134615051Y-96707816D01*
X134619514Y-96699054D01*
X134667488Y-96648259D01*
X134735308Y-96631463D01*
X134801444Y-96653999D01*
X134840486Y-96699056D01*
X134844951Y-96707820D01*
X134969890Y-96879786D01*
X135120213Y-97030109D01*
X135292179Y-97155048D01*
X135292181Y-97155049D01*
X135292184Y-97155051D01*
X135481588Y-97251557D01*
X135683757Y-97317246D01*
X135893713Y-97350500D01*
X135893714Y-97350500D01*
X136106286Y-97350500D01*
X136106287Y-97350500D01*
X136316243Y-97317246D01*
X136518412Y-97251557D01*
X136707816Y-97155051D01*
X136879792Y-97030104D01*
X136993329Y-96916566D01*
X137054648Y-96883084D01*
X137124340Y-96888068D01*
X137180274Y-96929939D01*
X137197189Y-96960917D01*
X137246202Y-97092328D01*
X137246206Y-97092335D01*
X137332452Y-97207544D01*
X137332455Y-97207547D01*
X137447664Y-97293793D01*
X137447671Y-97293797D01*
X137582517Y-97344091D01*
X137582516Y-97344091D01*
X137589444Y-97344835D01*
X137642127Y-97350500D01*
X139437872Y-97350499D01*
X139497483Y-97344091D01*
X139632331Y-97293796D01*
X139747546Y-97207546D01*
X139833796Y-97092331D01*
X139884091Y-96957483D01*
X139890500Y-96897873D01*
X139890499Y-95893713D01*
X145449500Y-95893713D01*
X145449500Y-96106287D01*
X145482754Y-96316243D01*
X145545253Y-96508595D01*
X145548444Y-96518414D01*
X145644951Y-96707820D01*
X145769890Y-96879786D01*
X145920213Y-97030109D01*
X146092179Y-97155048D01*
X146092181Y-97155049D01*
X146092184Y-97155051D01*
X146281588Y-97251557D01*
X146483757Y-97317246D01*
X146693713Y-97350500D01*
X146693714Y-97350500D01*
X146906286Y-97350500D01*
X146906287Y-97350500D01*
X147116243Y-97317246D01*
X147318412Y-97251557D01*
X147507816Y-97155051D01*
X147594138Y-97092335D01*
X147679786Y-97030109D01*
X147679788Y-97030106D01*
X147679792Y-97030104D01*
X147830104Y-96879792D01*
X147830106Y-96879788D01*
X147830109Y-96879786D01*
X147955048Y-96707820D01*
X147955047Y-96707820D01*
X147955051Y-96707816D01*
X147959514Y-96699054D01*
X148007488Y-96648259D01*
X148075308Y-96631463D01*
X148141444Y-96653999D01*
X148180486Y-96699056D01*
X148184951Y-96707820D01*
X148309890Y-96879786D01*
X148460213Y-97030109D01*
X148632179Y-97155048D01*
X148632181Y-97155049D01*
X148632184Y-97155051D01*
X148821588Y-97251557D01*
X149023757Y-97317246D01*
X149233713Y-97350500D01*
X149233714Y-97350500D01*
X149446286Y-97350500D01*
X149446287Y-97350500D01*
X149656243Y-97317246D01*
X149858412Y-97251557D01*
X150047816Y-97155051D01*
X150134138Y-97092335D01*
X150219786Y-97030109D01*
X150219788Y-97030106D01*
X150219792Y-97030104D01*
X150370104Y-96879792D01*
X150370106Y-96879788D01*
X150370109Y-96879786D01*
X150495048Y-96707820D01*
X150495047Y-96707820D01*
X150495051Y-96707816D01*
X150499514Y-96699054D01*
X150547488Y-96648259D01*
X150615308Y-96631463D01*
X150681444Y-96653999D01*
X150720486Y-96699056D01*
X150724951Y-96707820D01*
X150849890Y-96879786D01*
X151000213Y-97030109D01*
X151172179Y-97155048D01*
X151172181Y-97155049D01*
X151172184Y-97155051D01*
X151361588Y-97251557D01*
X151563757Y-97317246D01*
X151773713Y-97350500D01*
X151773714Y-97350500D01*
X151986286Y-97350500D01*
X151986287Y-97350500D01*
X152196243Y-97317246D01*
X152398412Y-97251557D01*
X152587816Y-97155051D01*
X152674138Y-97092335D01*
X152759786Y-97030109D01*
X152759788Y-97030106D01*
X152759792Y-97030104D01*
X152910104Y-96879792D01*
X152910106Y-96879788D01*
X152910109Y-96879786D01*
X153035048Y-96707820D01*
X153035047Y-96707820D01*
X153035051Y-96707816D01*
X153039514Y-96699054D01*
X153087488Y-96648259D01*
X153155308Y-96631463D01*
X153221444Y-96653999D01*
X153260486Y-96699056D01*
X153264951Y-96707820D01*
X153389890Y-96879786D01*
X153540213Y-97030109D01*
X153712179Y-97155048D01*
X153712181Y-97155049D01*
X153712184Y-97155051D01*
X153901588Y-97251557D01*
X154103757Y-97317246D01*
X154313713Y-97350500D01*
X154313714Y-97350500D01*
X154526286Y-97350500D01*
X154526287Y-97350500D01*
X154736243Y-97317246D01*
X154938412Y-97251557D01*
X155127816Y-97155051D01*
X155214138Y-97092335D01*
X155299786Y-97030109D01*
X155299788Y-97030106D01*
X155299792Y-97030104D01*
X155450104Y-96879792D01*
X155450106Y-96879788D01*
X155450109Y-96879786D01*
X155575048Y-96707820D01*
X155575047Y-96707820D01*
X155575051Y-96707816D01*
X155579514Y-96699054D01*
X155627488Y-96648259D01*
X155695308Y-96631463D01*
X155761444Y-96653999D01*
X155800486Y-96699056D01*
X155804951Y-96707820D01*
X155929890Y-96879786D01*
X156080213Y-97030109D01*
X156252179Y-97155048D01*
X156252181Y-97155049D01*
X156252184Y-97155051D01*
X156441588Y-97251557D01*
X156643757Y-97317246D01*
X156853713Y-97350500D01*
X156853714Y-97350500D01*
X157066286Y-97350500D01*
X157066287Y-97350500D01*
X157276243Y-97317246D01*
X157478412Y-97251557D01*
X157667816Y-97155051D01*
X157839792Y-97030104D01*
X157953329Y-96916566D01*
X158014648Y-96883084D01*
X158084340Y-96888068D01*
X158140274Y-96929939D01*
X158157189Y-96960917D01*
X158206202Y-97092328D01*
X158206206Y-97092335D01*
X158292452Y-97207544D01*
X158292455Y-97207547D01*
X158407664Y-97293793D01*
X158407671Y-97293797D01*
X158542517Y-97344091D01*
X158542516Y-97344091D01*
X158549444Y-97344835D01*
X158602127Y-97350500D01*
X160397872Y-97350499D01*
X160457483Y-97344091D01*
X160592331Y-97293796D01*
X160707546Y-97207546D01*
X160793796Y-97092331D01*
X160844091Y-96957483D01*
X160850500Y-96897873D01*
X160850499Y-95102128D01*
X160844091Y-95042517D01*
X160842810Y-95039083D01*
X160793797Y-94907671D01*
X160793793Y-94907664D01*
X160707547Y-94792455D01*
X160707544Y-94792452D01*
X160592335Y-94706206D01*
X160592328Y-94706202D01*
X160457482Y-94655908D01*
X160457483Y-94655908D01*
X160397883Y-94649501D01*
X160397881Y-94649500D01*
X160397873Y-94649500D01*
X160397864Y-94649500D01*
X158602129Y-94649500D01*
X158602123Y-94649501D01*
X158542516Y-94655908D01*
X158407671Y-94706202D01*
X158407664Y-94706206D01*
X158292455Y-94792452D01*
X158292452Y-94792455D01*
X158206206Y-94907664D01*
X158206203Y-94907669D01*
X158157189Y-95039083D01*
X158115317Y-95095016D01*
X158049853Y-95119433D01*
X157981580Y-95104581D01*
X157953326Y-95083430D01*
X157839786Y-94969890D01*
X157667820Y-94844951D01*
X157478414Y-94748444D01*
X157478413Y-94748443D01*
X157478412Y-94748443D01*
X157276243Y-94682754D01*
X157276241Y-94682753D01*
X157276240Y-94682753D01*
X157114957Y-94657208D01*
X157066287Y-94649500D01*
X156853713Y-94649500D01*
X156805042Y-94657208D01*
X156643760Y-94682753D01*
X156441585Y-94748444D01*
X156252179Y-94844951D01*
X156080213Y-94969890D01*
X155929890Y-95120213D01*
X155804949Y-95292182D01*
X155800484Y-95300946D01*
X155752509Y-95351742D01*
X155684688Y-95368536D01*
X155618553Y-95345998D01*
X155579516Y-95300946D01*
X155575050Y-95292182D01*
X155450109Y-95120213D01*
X155299786Y-94969890D01*
X155127820Y-94844951D01*
X154938414Y-94748444D01*
X154938413Y-94748443D01*
X154938412Y-94748443D01*
X154736243Y-94682754D01*
X154736241Y-94682753D01*
X154736240Y-94682753D01*
X154574957Y-94657208D01*
X154526287Y-94649500D01*
X154313713Y-94649500D01*
X154265042Y-94657208D01*
X154103760Y-94682753D01*
X153901585Y-94748444D01*
X153712179Y-94844951D01*
X153540213Y-94969890D01*
X153389890Y-95120213D01*
X153264949Y-95292182D01*
X153260484Y-95300946D01*
X153212509Y-95351742D01*
X153144688Y-95368536D01*
X153078553Y-95345998D01*
X153039516Y-95300946D01*
X153035050Y-95292182D01*
X152910109Y-95120213D01*
X152759786Y-94969890D01*
X152587820Y-94844951D01*
X152398414Y-94748444D01*
X152398413Y-94748443D01*
X152398412Y-94748443D01*
X152196243Y-94682754D01*
X152196241Y-94682753D01*
X152196240Y-94682753D01*
X152034957Y-94657208D01*
X151986287Y-94649500D01*
X151773713Y-94649500D01*
X151725042Y-94657208D01*
X151563760Y-94682753D01*
X151361585Y-94748444D01*
X151172179Y-94844951D01*
X151000213Y-94969890D01*
X150849890Y-95120213D01*
X150724949Y-95292182D01*
X150720484Y-95300946D01*
X150672509Y-95351742D01*
X150604688Y-95368536D01*
X150538553Y-95345998D01*
X150499516Y-95300946D01*
X150495050Y-95292182D01*
X150370109Y-95120213D01*
X150219786Y-94969890D01*
X150047820Y-94844951D01*
X149858414Y-94748444D01*
X149858413Y-94748443D01*
X149858412Y-94748443D01*
X149656243Y-94682754D01*
X149656241Y-94682753D01*
X149656240Y-94682753D01*
X149494957Y-94657208D01*
X149446287Y-94649500D01*
X149233713Y-94649500D01*
X149185042Y-94657208D01*
X149023760Y-94682753D01*
X148821585Y-94748444D01*
X148632179Y-94844951D01*
X148460213Y-94969890D01*
X148309890Y-95120213D01*
X148184949Y-95292182D01*
X148180484Y-95300946D01*
X148132509Y-95351742D01*
X148064688Y-95368536D01*
X147998553Y-95345998D01*
X147959516Y-95300946D01*
X147955050Y-95292182D01*
X147830109Y-95120213D01*
X147679786Y-94969890D01*
X147507820Y-94844951D01*
X147318414Y-94748444D01*
X147318413Y-94748443D01*
X147318412Y-94748443D01*
X147116243Y-94682754D01*
X147116241Y-94682753D01*
X147116240Y-94682753D01*
X146954957Y-94657208D01*
X146906287Y-94649500D01*
X146693713Y-94649500D01*
X146645042Y-94657208D01*
X146483760Y-94682753D01*
X146281585Y-94748444D01*
X146092179Y-94844951D01*
X145920213Y-94969890D01*
X145769890Y-95120213D01*
X145644951Y-95292179D01*
X145548444Y-95481585D01*
X145482753Y-95683760D01*
X145456193Y-95851456D01*
X145449500Y-95893713D01*
X139890499Y-95893713D01*
X139890499Y-95102128D01*
X139884091Y-95042517D01*
X139882810Y-95039083D01*
X139833797Y-94907671D01*
X139833793Y-94907664D01*
X139747547Y-94792455D01*
X139747544Y-94792452D01*
X139632335Y-94706206D01*
X139632328Y-94706202D01*
X139497482Y-94655908D01*
X139497483Y-94655908D01*
X139437883Y-94649501D01*
X139437881Y-94649500D01*
X139437873Y-94649500D01*
X139437864Y-94649500D01*
X137642129Y-94649500D01*
X137642123Y-94649501D01*
X137582516Y-94655908D01*
X137447671Y-94706202D01*
X137447664Y-94706206D01*
X137332455Y-94792452D01*
X137332452Y-94792455D01*
X137246206Y-94907664D01*
X137246203Y-94907669D01*
X137197189Y-95039083D01*
X137155317Y-95095016D01*
X137089853Y-95119433D01*
X137021580Y-95104581D01*
X136993326Y-95083430D01*
X136879786Y-94969890D01*
X136707820Y-94844951D01*
X136518414Y-94748444D01*
X136518413Y-94748443D01*
X136518412Y-94748443D01*
X136316243Y-94682754D01*
X136316241Y-94682753D01*
X136316240Y-94682753D01*
X136154957Y-94657208D01*
X136106287Y-94649500D01*
X135893713Y-94649500D01*
X135845042Y-94657208D01*
X135683760Y-94682753D01*
X135481585Y-94748444D01*
X135292179Y-94844951D01*
X135120213Y-94969890D01*
X134969890Y-95120213D01*
X134844949Y-95292182D01*
X134840484Y-95300946D01*
X134792509Y-95351742D01*
X134724688Y-95368536D01*
X134658553Y-95345998D01*
X134619516Y-95300946D01*
X134615050Y-95292182D01*
X134490109Y-95120213D01*
X134339786Y-94969890D01*
X134167820Y-94844951D01*
X133978414Y-94748444D01*
X133978413Y-94748443D01*
X133978412Y-94748443D01*
X133776243Y-94682754D01*
X133776241Y-94682753D01*
X133776240Y-94682753D01*
X133614957Y-94657208D01*
X133566287Y-94649500D01*
X133353713Y-94649500D01*
X133305042Y-94657208D01*
X133143760Y-94682753D01*
X132941585Y-94748444D01*
X132752179Y-94844951D01*
X132580213Y-94969890D01*
X132429890Y-95120213D01*
X132304949Y-95292182D01*
X132300484Y-95300946D01*
X132252509Y-95351742D01*
X132184688Y-95368536D01*
X132118553Y-95345998D01*
X132079516Y-95300946D01*
X132075050Y-95292182D01*
X131950109Y-95120213D01*
X131799786Y-94969890D01*
X131627820Y-94844951D01*
X131438414Y-94748444D01*
X131438413Y-94748443D01*
X131438412Y-94748443D01*
X131236243Y-94682754D01*
X131236241Y-94682753D01*
X131236240Y-94682753D01*
X131074957Y-94657208D01*
X131026287Y-94649500D01*
X130813713Y-94649500D01*
X130765042Y-94657208D01*
X130603760Y-94682753D01*
X130401585Y-94748444D01*
X130212179Y-94844951D01*
X130040213Y-94969890D01*
X129889890Y-95120213D01*
X129764949Y-95292182D01*
X129760484Y-95300946D01*
X129712509Y-95351742D01*
X129644688Y-95368536D01*
X129578553Y-95345998D01*
X129539516Y-95300946D01*
X129535050Y-95292182D01*
X129410109Y-95120213D01*
X129259786Y-94969890D01*
X129087820Y-94844951D01*
X128898414Y-94748444D01*
X128898413Y-94748443D01*
X128898412Y-94748443D01*
X128696243Y-94682754D01*
X128696241Y-94682753D01*
X128696240Y-94682753D01*
X128534957Y-94657208D01*
X128486287Y-94649500D01*
X128273713Y-94649500D01*
X128225042Y-94657208D01*
X128063760Y-94682753D01*
X127861585Y-94748444D01*
X127672179Y-94844951D01*
X127500213Y-94969890D01*
X127349890Y-95120213D01*
X127224949Y-95292182D01*
X127220484Y-95300946D01*
X127172509Y-95351742D01*
X127104688Y-95368536D01*
X127038553Y-95345998D01*
X126999516Y-95300946D01*
X126995050Y-95292182D01*
X126870109Y-95120213D01*
X126719786Y-94969890D01*
X126547820Y-94844951D01*
X126358414Y-94748444D01*
X126358413Y-94748443D01*
X126358412Y-94748443D01*
X126156243Y-94682754D01*
X126156241Y-94682753D01*
X126156240Y-94682753D01*
X125994957Y-94657208D01*
X125946287Y-94649500D01*
X125733713Y-94649500D01*
X125685042Y-94657208D01*
X125523760Y-94682753D01*
X125321585Y-94748444D01*
X125132179Y-94844951D01*
X124960213Y-94969890D01*
X124809890Y-95120213D01*
X124684951Y-95292179D01*
X124588444Y-95481585D01*
X124522753Y-95683760D01*
X124496193Y-95851456D01*
X124489500Y-95893713D01*
X118250500Y-95893713D01*
X118250500Y-93881947D01*
X172500000Y-93881947D01*
X172500000Y-94118052D01*
X172536934Y-94351247D01*
X172609897Y-94575802D01*
X172717087Y-94786174D01*
X172777338Y-94869104D01*
X172777340Y-94869105D01*
X173476212Y-94170233D01*
X173487482Y-94212292D01*
X173559890Y-94337708D01*
X173662292Y-94440110D01*
X173787708Y-94512518D01*
X173829765Y-94523787D01*
X173130893Y-95222658D01*
X173213828Y-95282914D01*
X173424197Y-95390102D01*
X173648752Y-95463065D01*
X173648751Y-95463065D01*
X173881948Y-95500000D01*
X174118052Y-95500000D01*
X174351247Y-95463065D01*
X174575802Y-95390102D01*
X174786163Y-95282918D01*
X174786169Y-95282914D01*
X174869104Y-95222658D01*
X174869105Y-95222658D01*
X174170233Y-94523787D01*
X174212292Y-94512518D01*
X174337708Y-94440110D01*
X174440110Y-94337708D01*
X174512518Y-94212292D01*
X174523787Y-94170233D01*
X175222658Y-94869105D01*
X175222658Y-94869104D01*
X175282914Y-94786169D01*
X175282918Y-94786163D01*
X175390102Y-94575802D01*
X175463065Y-94351247D01*
X175500000Y-94118052D01*
X175500000Y-93881947D01*
X179000000Y-93881947D01*
X179000000Y-94118052D01*
X179036934Y-94351247D01*
X179109897Y-94575802D01*
X179217087Y-94786174D01*
X179277338Y-94869104D01*
X179277340Y-94869105D01*
X179976212Y-94170233D01*
X179987482Y-94212292D01*
X180059890Y-94337708D01*
X180162292Y-94440110D01*
X180287708Y-94512518D01*
X180329765Y-94523787D01*
X179630893Y-95222658D01*
X179713828Y-95282914D01*
X179924197Y-95390102D01*
X180148752Y-95463065D01*
X180148751Y-95463065D01*
X180381948Y-95500000D01*
X180618052Y-95500000D01*
X180851247Y-95463065D01*
X181075802Y-95390102D01*
X181286163Y-95282918D01*
X181286169Y-95282914D01*
X181369104Y-95222658D01*
X181369105Y-95222658D01*
X180670233Y-94523787D01*
X180712292Y-94512518D01*
X180837708Y-94440110D01*
X180940110Y-94337708D01*
X181012518Y-94212292D01*
X181023787Y-94170234D01*
X181722658Y-94869105D01*
X181722658Y-94869104D01*
X181782914Y-94786169D01*
X181782918Y-94786163D01*
X181890102Y-94575802D01*
X181963065Y-94351247D01*
X182000000Y-94118052D01*
X182000000Y-93881947D01*
X186175000Y-93881947D01*
X186175000Y-94118052D01*
X186211934Y-94351247D01*
X186284897Y-94575802D01*
X186392087Y-94786174D01*
X186452338Y-94869104D01*
X186452340Y-94869105D01*
X187151212Y-94170233D01*
X187162482Y-94212292D01*
X187234890Y-94337708D01*
X187337292Y-94440110D01*
X187462708Y-94512518D01*
X187504765Y-94523787D01*
X186805893Y-95222658D01*
X186888828Y-95282914D01*
X187099197Y-95390102D01*
X187323752Y-95463065D01*
X187323751Y-95463065D01*
X187556948Y-95500000D01*
X187793052Y-95500000D01*
X188026247Y-95463065D01*
X188250802Y-95390102D01*
X188461163Y-95282918D01*
X188461169Y-95282914D01*
X188544104Y-95222658D01*
X188544105Y-95222658D01*
X187845233Y-94523787D01*
X187887292Y-94512518D01*
X188012708Y-94440110D01*
X188115110Y-94337708D01*
X188187518Y-94212292D01*
X188198787Y-94170233D01*
X188897658Y-94869105D01*
X188897658Y-94869104D01*
X188957914Y-94786169D01*
X188957918Y-94786163D01*
X189065102Y-94575802D01*
X189138065Y-94351247D01*
X189175000Y-94118052D01*
X189175000Y-93881947D01*
X192675000Y-93881947D01*
X192675000Y-94118052D01*
X192711934Y-94351247D01*
X192784897Y-94575802D01*
X192892087Y-94786174D01*
X192952338Y-94869104D01*
X192952340Y-94869105D01*
X193651212Y-94170233D01*
X193662482Y-94212292D01*
X193734890Y-94337708D01*
X193837292Y-94440110D01*
X193962708Y-94512518D01*
X194004765Y-94523787D01*
X193305893Y-95222658D01*
X193388828Y-95282914D01*
X193599197Y-95390102D01*
X193823752Y-95463065D01*
X193823751Y-95463065D01*
X194056948Y-95500000D01*
X194293052Y-95500000D01*
X194526247Y-95463065D01*
X194750802Y-95390102D01*
X194961163Y-95282918D01*
X194961169Y-95282914D01*
X195044104Y-95222658D01*
X195044105Y-95222658D01*
X194345233Y-94523787D01*
X194387292Y-94512518D01*
X194512708Y-94440110D01*
X194615110Y-94337708D01*
X194687518Y-94212292D01*
X194698787Y-94170234D01*
X195397658Y-94869105D01*
X195397658Y-94869104D01*
X195457914Y-94786169D01*
X195457918Y-94786163D01*
X195565102Y-94575802D01*
X195638065Y-94351247D01*
X195675000Y-94118052D01*
X195675000Y-93881947D01*
X195638065Y-93648752D01*
X195565102Y-93424197D01*
X195457914Y-93213828D01*
X195397658Y-93130894D01*
X195397658Y-93130893D01*
X194698787Y-93829765D01*
X194687518Y-93787708D01*
X194615110Y-93662292D01*
X194512708Y-93559890D01*
X194387292Y-93487482D01*
X194345234Y-93476212D01*
X195002902Y-92818543D01*
X199570499Y-92818543D01*
X199608947Y-93011829D01*
X199608950Y-93011839D01*
X199684364Y-93193907D01*
X199684371Y-93193920D01*
X199793860Y-93357781D01*
X199793863Y-93357785D01*
X199933214Y-93497136D01*
X199933218Y-93497139D01*
X200097079Y-93606628D01*
X200097092Y-93606635D01*
X200193206Y-93646446D01*
X200279165Y-93682051D01*
X200279169Y-93682051D01*
X200279170Y-93682052D01*
X200472456Y-93720500D01*
X200472459Y-93720500D01*
X200669543Y-93720500D01*
X200799582Y-93694632D01*
X200862835Y-93682051D01*
X201044914Y-93606632D01*
X201208782Y-93497139D01*
X201348139Y-93357782D01*
X201457632Y-93193914D01*
X201533051Y-93011835D01*
X201571500Y-92818543D01*
X208210499Y-92818543D01*
X208248947Y-93011829D01*
X208248950Y-93011839D01*
X208324364Y-93193907D01*
X208324371Y-93193920D01*
X208433860Y-93357781D01*
X208433863Y-93357785D01*
X208573214Y-93497136D01*
X208573218Y-93497139D01*
X208737079Y-93606628D01*
X208737092Y-93606635D01*
X208833206Y-93646446D01*
X208919165Y-93682051D01*
X208919169Y-93682051D01*
X208919170Y-93682052D01*
X209112456Y-93720500D01*
X209112459Y-93720500D01*
X209309543Y-93720500D01*
X209439582Y-93694632D01*
X209502835Y-93682051D01*
X209684914Y-93606632D01*
X209848782Y-93497139D01*
X209988139Y-93357782D01*
X210097632Y-93193914D01*
X210173051Y-93011835D01*
X210211500Y-92818541D01*
X210211500Y-91821459D01*
X210211500Y-91821456D01*
X210173052Y-91628170D01*
X210173051Y-91628169D01*
X210173051Y-91628165D01*
X210173049Y-91628160D01*
X210097635Y-91446092D01*
X210097628Y-91446079D01*
X209988139Y-91282218D01*
X209988136Y-91282214D01*
X209848785Y-91142863D01*
X209848781Y-91142860D01*
X209684920Y-91033371D01*
X209684907Y-91033364D01*
X209502839Y-90957950D01*
X209502829Y-90957947D01*
X209309543Y-90919500D01*
X209309541Y-90919500D01*
X209112459Y-90919500D01*
X209112457Y-90919500D01*
X208919170Y-90957947D01*
X208919160Y-90957950D01*
X208737092Y-91033364D01*
X208737079Y-91033371D01*
X208573218Y-91142860D01*
X208573214Y-91142863D01*
X208433863Y-91282214D01*
X208433860Y-91282218D01*
X208324371Y-91446079D01*
X208324364Y-91446092D01*
X208248950Y-91628160D01*
X208248947Y-91628170D01*
X208210500Y-91821456D01*
X208210500Y-91821459D01*
X208210500Y-92818541D01*
X208210500Y-92818543D01*
X208210499Y-92818543D01*
X201571500Y-92818543D01*
X201571500Y-92818541D01*
X201571500Y-91821459D01*
X201571500Y-91821456D01*
X201533052Y-91628170D01*
X201533051Y-91628169D01*
X201533051Y-91628165D01*
X201533049Y-91628160D01*
X201457635Y-91446092D01*
X201457628Y-91446079D01*
X201348139Y-91282218D01*
X201348136Y-91282214D01*
X201208785Y-91142863D01*
X201208781Y-91142860D01*
X201044920Y-91033371D01*
X201044907Y-91033364D01*
X200862839Y-90957950D01*
X200862829Y-90957947D01*
X200669543Y-90919500D01*
X200669541Y-90919500D01*
X200472459Y-90919500D01*
X200472457Y-90919500D01*
X200279170Y-90957947D01*
X200279160Y-90957950D01*
X200097092Y-91033364D01*
X200097079Y-91033371D01*
X199933218Y-91142860D01*
X199933214Y-91142863D01*
X199793863Y-91282214D01*
X199793860Y-91282218D01*
X199684371Y-91446079D01*
X199684364Y-91446092D01*
X199608950Y-91628160D01*
X199608947Y-91628170D01*
X199570500Y-91821456D01*
X199570500Y-91821459D01*
X199570500Y-92818541D01*
X199570500Y-92818543D01*
X199570499Y-92818543D01*
X195002902Y-92818543D01*
X195044105Y-92777340D01*
X195044104Y-92777338D01*
X194961174Y-92717087D01*
X194750802Y-92609897D01*
X194526247Y-92536934D01*
X194526248Y-92536934D01*
X194293052Y-92500000D01*
X194056948Y-92500000D01*
X193823752Y-92536934D01*
X193599197Y-92609897D01*
X193388830Y-92717084D01*
X193305894Y-92777340D01*
X194004766Y-93476212D01*
X193962708Y-93487482D01*
X193837292Y-93559890D01*
X193734890Y-93662292D01*
X193662482Y-93787708D01*
X193651212Y-93829766D01*
X192952340Y-93130894D01*
X192892084Y-93213830D01*
X192784897Y-93424197D01*
X192711934Y-93648752D01*
X192675000Y-93881947D01*
X189175000Y-93881947D01*
X189138065Y-93648752D01*
X189065102Y-93424197D01*
X188957914Y-93213828D01*
X188897658Y-93130894D01*
X188897658Y-93130893D01*
X188198787Y-93829765D01*
X188187518Y-93787708D01*
X188115110Y-93662292D01*
X188012708Y-93559890D01*
X187887292Y-93487482D01*
X187845234Y-93476212D01*
X188544105Y-92777340D01*
X188544104Y-92777339D01*
X188461174Y-92717087D01*
X188250802Y-92609897D01*
X188026247Y-92536934D01*
X188026248Y-92536934D01*
X187793052Y-92500000D01*
X187556948Y-92500000D01*
X187323752Y-92536934D01*
X187099197Y-92609897D01*
X186888830Y-92717084D01*
X186805894Y-92777340D01*
X187504766Y-93476212D01*
X187462708Y-93487482D01*
X187337292Y-93559890D01*
X187234890Y-93662292D01*
X187162482Y-93787708D01*
X187151212Y-93829765D01*
X186452340Y-93130894D01*
X186392084Y-93213830D01*
X186284897Y-93424197D01*
X186211934Y-93648752D01*
X186175000Y-93881947D01*
X182000000Y-93881947D01*
X181963065Y-93648752D01*
X181890102Y-93424197D01*
X181782914Y-93213828D01*
X181722658Y-93130894D01*
X181722658Y-93130893D01*
X181023787Y-93829765D01*
X181012518Y-93787708D01*
X180940110Y-93662292D01*
X180837708Y-93559890D01*
X180712292Y-93487482D01*
X180670234Y-93476212D01*
X181369105Y-92777340D01*
X181369104Y-92777339D01*
X181286174Y-92717087D01*
X181075802Y-92609897D01*
X180851247Y-92536934D01*
X180851248Y-92536934D01*
X180618052Y-92500000D01*
X180381948Y-92500000D01*
X180148752Y-92536934D01*
X179924197Y-92609897D01*
X179713830Y-92717084D01*
X179630894Y-92777340D01*
X180329766Y-93476212D01*
X180287708Y-93487482D01*
X180162292Y-93559890D01*
X180059890Y-93662292D01*
X179987482Y-93787708D01*
X179976212Y-93829766D01*
X179277340Y-93130894D01*
X179217084Y-93213830D01*
X179109897Y-93424197D01*
X179036934Y-93648752D01*
X179000000Y-93881947D01*
X175500000Y-93881947D01*
X175463065Y-93648752D01*
X175390102Y-93424197D01*
X175282914Y-93213828D01*
X175222658Y-93130894D01*
X175222658Y-93130893D01*
X174523787Y-93829765D01*
X174512518Y-93787708D01*
X174440110Y-93662292D01*
X174337708Y-93559890D01*
X174212292Y-93487482D01*
X174170234Y-93476212D01*
X174869105Y-92777340D01*
X174869104Y-92777339D01*
X174786174Y-92717087D01*
X174575802Y-92609897D01*
X174351247Y-92536934D01*
X174351248Y-92536934D01*
X174118052Y-92500000D01*
X173881948Y-92500000D01*
X173648752Y-92536934D01*
X173424197Y-92609897D01*
X173213830Y-92717084D01*
X173130894Y-92777340D01*
X173829766Y-93476212D01*
X173787708Y-93487482D01*
X173662292Y-93559890D01*
X173559890Y-93662292D01*
X173487482Y-93787708D01*
X173476212Y-93829765D01*
X172777340Y-93130894D01*
X172717084Y-93213830D01*
X172609897Y-93424197D01*
X172536934Y-93648752D01*
X172500000Y-93881947D01*
X118250500Y-93881947D01*
X118250500Y-90374500D01*
X118270185Y-90307461D01*
X118322989Y-90261706D01*
X118374500Y-90250500D01*
X217625500Y-90250500D01*
X217692539Y-90270185D01*
G37*
%TD.AperFunction*%
%TD*%
M02*
