%TF.GenerationSoftware,KiCad,Pcbnew,9.0.7-9.0.7~ubuntu24.04.1*%
%TF.CreationDate,2026-01-20T21:07:03+05:30*%
%TF.ProjectId,fpga_dev_board,66706761-5f64-4657-965f-626f6172642e,rev?*%
%TF.SameCoordinates,Original*%
%TF.FileFunction,Legend,Top*%
%TF.FilePolarity,Positive*%
%FSLAX46Y46*%
G04 Gerber Fmt 4.6, Leading zero omitted, Abs format (unit mm)*
G04 Created by KiCad (PCBNEW 9.0.7-9.0.7~ubuntu24.04.1) date 2026-01-20 21:07:03*
%MOMM*%
%LPD*%
G01*
G04 APERTURE LIST*
%ADD10C,0.100000*%
%ADD11C,0.150000*%
%ADD12C,0.120000*%
%ADD13C,0.000000*%
G04 APERTURE END LIST*
D10*
X191849344Y-133332316D02*
X192756487Y-133332316D01*
X191691071Y-129984949D02*
X192598214Y-129984949D01*
X191692135Y-129613500D02*
X192599278Y-129613500D01*
X191817063Y-133030555D02*
X192724206Y-133030555D01*
X191849344Y-140891840D02*
X192756487Y-140891840D01*
X155000000Y-110000000D02*
X165000000Y-110000000D01*
X165000000Y-119500000D01*
X155000000Y-119500000D01*
X155000000Y-110000000D01*
X191947968Y-136558509D02*
X192855111Y-136558509D01*
X191960418Y-136268954D02*
X192867561Y-136268954D01*
X194163557Y-129781902D02*
X195070700Y-129781902D01*
X191867460Y-140539682D02*
X192774603Y-140539682D01*
X140327693Y-139420038D02*
X140232455Y-139372419D01*
X140232455Y-139372419D02*
X140089598Y-139372419D01*
X140089598Y-139372419D02*
X139946741Y-139420038D01*
X139946741Y-139420038D02*
X139851503Y-139515276D01*
X139851503Y-139515276D02*
X139803884Y-139610514D01*
X139803884Y-139610514D02*
X139756265Y-139800990D01*
X139756265Y-139800990D02*
X139756265Y-139943847D01*
X139756265Y-139943847D02*
X139803884Y-140134323D01*
X139803884Y-140134323D02*
X139851503Y-140229561D01*
X139851503Y-140229561D02*
X139946741Y-140324800D01*
X139946741Y-140324800D02*
X140089598Y-140372419D01*
X140089598Y-140372419D02*
X140184836Y-140372419D01*
X140184836Y-140372419D02*
X140327693Y-140324800D01*
X140327693Y-140324800D02*
X140375312Y-140277180D01*
X140375312Y-140277180D02*
X140375312Y-139943847D01*
X140375312Y-139943847D02*
X140184836Y-139943847D01*
X140803884Y-140372419D02*
X140803884Y-139372419D01*
X140803884Y-139372419D02*
X141375312Y-140372419D01*
X141375312Y-140372419D02*
X141375312Y-139372419D01*
X141851503Y-140372419D02*
X141851503Y-139372419D01*
X141851503Y-139372419D02*
X142089598Y-139372419D01*
X142089598Y-139372419D02*
X142232455Y-139420038D01*
X142232455Y-139420038D02*
X142327693Y-139515276D01*
X142327693Y-139515276D02*
X142375312Y-139610514D01*
X142375312Y-139610514D02*
X142422931Y-139800990D01*
X142422931Y-139800990D02*
X142422931Y-139943847D01*
X142422931Y-139943847D02*
X142375312Y-140134323D01*
X142375312Y-140134323D02*
X142327693Y-140229561D01*
X142327693Y-140229561D02*
X142232455Y-140324800D01*
X142232455Y-140324800D02*
X142089598Y-140372419D01*
X142089598Y-140372419D02*
X141851503Y-140372419D01*
X127872419Y-92767544D02*
X127872419Y-92958020D01*
X127872419Y-92958020D02*
X127920038Y-93053258D01*
X127920038Y-93053258D02*
X127967657Y-93100877D01*
X127967657Y-93100877D02*
X128110514Y-93196115D01*
X128110514Y-93196115D02*
X128300990Y-93243734D01*
X128300990Y-93243734D02*
X128681942Y-93243734D01*
X128681942Y-93243734D02*
X128777180Y-93196115D01*
X128777180Y-93196115D02*
X128824800Y-93148496D01*
X128824800Y-93148496D02*
X128872419Y-93053258D01*
X128872419Y-93053258D02*
X128872419Y-92862782D01*
X128872419Y-92862782D02*
X128824800Y-92767544D01*
X128824800Y-92767544D02*
X128777180Y-92719925D01*
X128777180Y-92719925D02*
X128681942Y-92672306D01*
X128681942Y-92672306D02*
X128443847Y-92672306D01*
X128443847Y-92672306D02*
X128348609Y-92719925D01*
X128348609Y-92719925D02*
X128300990Y-92767544D01*
X128300990Y-92767544D02*
X128253371Y-92862782D01*
X128253371Y-92862782D02*
X128253371Y-93053258D01*
X128253371Y-93053258D02*
X128300990Y-93148496D01*
X128300990Y-93148496D02*
X128348609Y-93196115D01*
X128348609Y-93196115D02*
X128443847Y-93243734D01*
X128872419Y-91815163D02*
X128348609Y-91815163D01*
X128348609Y-91815163D02*
X128253371Y-91862782D01*
X128253371Y-91862782D02*
X128205752Y-91958020D01*
X128205752Y-91958020D02*
X128205752Y-92148496D01*
X128205752Y-92148496D02*
X128253371Y-92243734D01*
X128824800Y-91815163D02*
X128872419Y-91910401D01*
X128872419Y-91910401D02*
X128872419Y-92148496D01*
X128872419Y-92148496D02*
X128824800Y-92243734D01*
X128824800Y-92243734D02*
X128729561Y-92291353D01*
X128729561Y-92291353D02*
X128634323Y-92291353D01*
X128634323Y-92291353D02*
X128539085Y-92243734D01*
X128539085Y-92243734D02*
X128491466Y-92148496D01*
X128491466Y-92148496D02*
X128491466Y-91910401D01*
X128491466Y-91910401D02*
X128443847Y-91815163D01*
X130372419Y-108767544D02*
X129848609Y-108767544D01*
X129848609Y-108767544D02*
X129753371Y-108815163D01*
X129753371Y-108815163D02*
X129705752Y-108910401D01*
X129705752Y-108910401D02*
X129705752Y-109100877D01*
X129705752Y-109100877D02*
X129753371Y-109196115D01*
X130324800Y-108767544D02*
X130372419Y-108862782D01*
X130372419Y-108862782D02*
X130372419Y-109100877D01*
X130372419Y-109100877D02*
X130324800Y-109196115D01*
X130324800Y-109196115D02*
X130229561Y-109243734D01*
X130229561Y-109243734D02*
X130134323Y-109243734D01*
X130134323Y-109243734D02*
X130039085Y-109196115D01*
X130039085Y-109196115D02*
X129991466Y-109100877D01*
X129991466Y-109100877D02*
X129991466Y-108862782D01*
X129991466Y-108862782D02*
X129943847Y-108767544D01*
X130324800Y-107862782D02*
X130372419Y-107958020D01*
X130372419Y-107958020D02*
X130372419Y-108148496D01*
X130372419Y-108148496D02*
X130324800Y-108243734D01*
X130324800Y-108243734D02*
X130277180Y-108291353D01*
X130277180Y-108291353D02*
X130181942Y-108338972D01*
X130181942Y-108338972D02*
X129896228Y-108338972D01*
X129896228Y-108338972D02*
X129800990Y-108291353D01*
X129800990Y-108291353D02*
X129753371Y-108243734D01*
X129753371Y-108243734D02*
X129705752Y-108148496D01*
X129705752Y-108148496D02*
X129705752Y-107958020D01*
X129705752Y-107958020D02*
X129753371Y-107862782D01*
X129705752Y-107577067D02*
X129705752Y-107196115D01*
X129372419Y-107434210D02*
X130229561Y-107434210D01*
X130229561Y-107434210D02*
X130324800Y-107386591D01*
X130324800Y-107386591D02*
X130372419Y-107291353D01*
X130372419Y-107291353D02*
X130372419Y-107196115D01*
X154205752Y-92767544D02*
X154872419Y-92767544D01*
X153824800Y-93005639D02*
X154539085Y-93243734D01*
X154539085Y-93243734D02*
X154539085Y-92624687D01*
X153872419Y-91767544D02*
X153872419Y-92243734D01*
X153872419Y-92243734D02*
X154348609Y-92291353D01*
X154348609Y-92291353D02*
X154300990Y-92243734D01*
X154300990Y-92243734D02*
X154253371Y-92148496D01*
X154253371Y-92148496D02*
X154253371Y-91910401D01*
X154253371Y-91910401D02*
X154300990Y-91815163D01*
X154300990Y-91815163D02*
X154348609Y-91767544D01*
X154348609Y-91767544D02*
X154443847Y-91719925D01*
X154443847Y-91719925D02*
X154681942Y-91719925D01*
X154681942Y-91719925D02*
X154777180Y-91767544D01*
X154777180Y-91767544D02*
X154824800Y-91815163D01*
X154824800Y-91815163D02*
X154872419Y-91910401D01*
X154872419Y-91910401D02*
X154872419Y-92148496D01*
X154872419Y-92148496D02*
X154824800Y-92243734D01*
X154824800Y-92243734D02*
X154777180Y-92291353D01*
X154872419Y-91291353D02*
X153872419Y-91291353D01*
X154253371Y-91291353D02*
X154205752Y-91196115D01*
X154205752Y-91196115D02*
X154205752Y-91005639D01*
X154205752Y-91005639D02*
X154253371Y-90910401D01*
X154253371Y-90910401D02*
X154300990Y-90862782D01*
X154300990Y-90862782D02*
X154396228Y-90815163D01*
X154396228Y-90815163D02*
X154681942Y-90815163D01*
X154681942Y-90815163D02*
X154777180Y-90862782D01*
X154777180Y-90862782D02*
X154824800Y-90910401D01*
X154824800Y-90910401D02*
X154872419Y-91005639D01*
X154872419Y-91005639D02*
X154872419Y-91196115D01*
X154872419Y-91196115D02*
X154824800Y-91291353D01*
X129803884Y-132372419D02*
X129803884Y-131372419D01*
X129803884Y-131372419D02*
X130137217Y-132086704D01*
X130137217Y-132086704D02*
X130470550Y-131372419D01*
X130470550Y-131372419D02*
X130470550Y-132372419D01*
X131137217Y-131372419D02*
X131327693Y-131372419D01*
X131327693Y-131372419D02*
X131422931Y-131420038D01*
X131422931Y-131420038D02*
X131518169Y-131515276D01*
X131518169Y-131515276D02*
X131565788Y-131705752D01*
X131565788Y-131705752D02*
X131565788Y-132039085D01*
X131565788Y-132039085D02*
X131518169Y-132229561D01*
X131518169Y-132229561D02*
X131422931Y-132324800D01*
X131422931Y-132324800D02*
X131327693Y-132372419D01*
X131327693Y-132372419D02*
X131137217Y-132372419D01*
X131137217Y-132372419D02*
X131041979Y-132324800D01*
X131041979Y-132324800D02*
X130946741Y-132229561D01*
X130946741Y-132229561D02*
X130899122Y-132039085D01*
X130899122Y-132039085D02*
X130899122Y-131705752D01*
X130899122Y-131705752D02*
X130946741Y-131515276D01*
X130946741Y-131515276D02*
X131041979Y-131420038D01*
X131041979Y-131420038D02*
X131137217Y-131372419D01*
X131946741Y-132324800D02*
X132089598Y-132372419D01*
X132089598Y-132372419D02*
X132327693Y-132372419D01*
X132327693Y-132372419D02*
X132422931Y-132324800D01*
X132422931Y-132324800D02*
X132470550Y-132277180D01*
X132470550Y-132277180D02*
X132518169Y-132181942D01*
X132518169Y-132181942D02*
X132518169Y-132086704D01*
X132518169Y-132086704D02*
X132470550Y-131991466D01*
X132470550Y-131991466D02*
X132422931Y-131943847D01*
X132422931Y-131943847D02*
X132327693Y-131896228D01*
X132327693Y-131896228D02*
X132137217Y-131848609D01*
X132137217Y-131848609D02*
X132041979Y-131800990D01*
X132041979Y-131800990D02*
X131994360Y-131753371D01*
X131994360Y-131753371D02*
X131946741Y-131658133D01*
X131946741Y-131658133D02*
X131946741Y-131562895D01*
X131946741Y-131562895D02*
X131994360Y-131467657D01*
X131994360Y-131467657D02*
X132041979Y-131420038D01*
X132041979Y-131420038D02*
X132137217Y-131372419D01*
X132137217Y-131372419D02*
X132375312Y-131372419D01*
X132375312Y-131372419D02*
X132518169Y-131420038D01*
X132946741Y-132372419D02*
X132946741Y-131372419D01*
X156705752Y-92767544D02*
X157372419Y-92767544D01*
X156324800Y-93005639D02*
X157039085Y-93243734D01*
X157039085Y-93243734D02*
X157039085Y-92624687D01*
X156800990Y-92100877D02*
X156753371Y-92196115D01*
X156753371Y-92196115D02*
X156705752Y-92243734D01*
X156705752Y-92243734D02*
X156610514Y-92291353D01*
X156610514Y-92291353D02*
X156562895Y-92291353D01*
X156562895Y-92291353D02*
X156467657Y-92243734D01*
X156467657Y-92243734D02*
X156420038Y-92196115D01*
X156420038Y-92196115D02*
X156372419Y-92100877D01*
X156372419Y-92100877D02*
X156372419Y-91910401D01*
X156372419Y-91910401D02*
X156420038Y-91815163D01*
X156420038Y-91815163D02*
X156467657Y-91767544D01*
X156467657Y-91767544D02*
X156562895Y-91719925D01*
X156562895Y-91719925D02*
X156610514Y-91719925D01*
X156610514Y-91719925D02*
X156705752Y-91767544D01*
X156705752Y-91767544D02*
X156753371Y-91815163D01*
X156753371Y-91815163D02*
X156800990Y-91910401D01*
X156800990Y-91910401D02*
X156800990Y-92100877D01*
X156800990Y-92100877D02*
X156848609Y-92196115D01*
X156848609Y-92196115D02*
X156896228Y-92243734D01*
X156896228Y-92243734D02*
X156991466Y-92291353D01*
X156991466Y-92291353D02*
X157181942Y-92291353D01*
X157181942Y-92291353D02*
X157277180Y-92243734D01*
X157277180Y-92243734D02*
X157324800Y-92196115D01*
X157324800Y-92196115D02*
X157372419Y-92100877D01*
X157372419Y-92100877D02*
X157372419Y-91910401D01*
X157372419Y-91910401D02*
X157324800Y-91815163D01*
X157324800Y-91815163D02*
X157277180Y-91767544D01*
X157277180Y-91767544D02*
X157181942Y-91719925D01*
X157181942Y-91719925D02*
X156991466Y-91719925D01*
X156991466Y-91719925D02*
X156896228Y-91767544D01*
X156896228Y-91767544D02*
X156848609Y-91815163D01*
X156848609Y-91815163D02*
X156800990Y-91910401D01*
X157372419Y-91291353D02*
X156372419Y-91291353D01*
X156753371Y-91291353D02*
X156705752Y-91196115D01*
X156705752Y-91196115D02*
X156705752Y-91005639D01*
X156705752Y-91005639D02*
X156753371Y-90910401D01*
X156753371Y-90910401D02*
X156800990Y-90862782D01*
X156800990Y-90862782D02*
X156896228Y-90815163D01*
X156896228Y-90815163D02*
X157181942Y-90815163D01*
X157181942Y-90815163D02*
X157277180Y-90862782D01*
X157277180Y-90862782D02*
X157324800Y-90910401D01*
X157324800Y-90910401D02*
X157372419Y-91005639D01*
X157372419Y-91005639D02*
X157372419Y-91196115D01*
X157372419Y-91196115D02*
X157324800Y-91291353D01*
X124803884Y-116991466D02*
X125565789Y-116991466D01*
X125184836Y-117372419D02*
X125184836Y-116610514D01*
X125946741Y-116372419D02*
X126565788Y-116372419D01*
X126565788Y-116372419D02*
X126232455Y-116753371D01*
X126232455Y-116753371D02*
X126375312Y-116753371D01*
X126375312Y-116753371D02*
X126470550Y-116800990D01*
X126470550Y-116800990D02*
X126518169Y-116848609D01*
X126518169Y-116848609D02*
X126565788Y-116943847D01*
X126565788Y-116943847D02*
X126565788Y-117181942D01*
X126565788Y-117181942D02*
X126518169Y-117277180D01*
X126518169Y-117277180D02*
X126470550Y-117324800D01*
X126470550Y-117324800D02*
X126375312Y-117372419D01*
X126375312Y-117372419D02*
X126089598Y-117372419D01*
X126089598Y-117372419D02*
X125994360Y-117324800D01*
X125994360Y-117324800D02*
X125946741Y-117277180D01*
X126851503Y-116372419D02*
X127184836Y-117372419D01*
X127184836Y-117372419D02*
X127518169Y-116372419D01*
X127756265Y-116372419D02*
X128375312Y-116372419D01*
X128375312Y-116372419D02*
X128041979Y-116753371D01*
X128041979Y-116753371D02*
X128184836Y-116753371D01*
X128184836Y-116753371D02*
X128280074Y-116800990D01*
X128280074Y-116800990D02*
X128327693Y-116848609D01*
X128327693Y-116848609D02*
X128375312Y-116943847D01*
X128375312Y-116943847D02*
X128375312Y-117181942D01*
X128375312Y-117181942D02*
X128327693Y-117277180D01*
X128327693Y-117277180D02*
X128280074Y-117324800D01*
X128280074Y-117324800D02*
X128184836Y-117372419D01*
X128184836Y-117372419D02*
X127899122Y-117372419D01*
X127899122Y-117372419D02*
X127803884Y-117324800D01*
X127803884Y-117324800D02*
X127756265Y-117277180D01*
X139708646Y-136872419D02*
X139946741Y-137872419D01*
X139946741Y-137872419D02*
X140137217Y-137158133D01*
X140137217Y-137158133D02*
X140327693Y-137872419D01*
X140327693Y-137872419D02*
X140565789Y-136872419D01*
X140946741Y-137872419D02*
X140946741Y-136872419D01*
X140946741Y-136872419D02*
X141327693Y-136872419D01*
X141327693Y-136872419D02*
X141422931Y-136920038D01*
X141422931Y-136920038D02*
X141470550Y-136967657D01*
X141470550Y-136967657D02*
X141518169Y-137062895D01*
X141518169Y-137062895D02*
X141518169Y-137205752D01*
X141518169Y-137205752D02*
X141470550Y-137300990D01*
X141470550Y-137300990D02*
X141422931Y-137348609D01*
X141422931Y-137348609D02*
X141327693Y-137396228D01*
X141327693Y-137396228D02*
X140946741Y-137396228D01*
X139803884Y-135372419D02*
X139803884Y-134372419D01*
X139803884Y-134848609D02*
X140375312Y-134848609D01*
X140375312Y-135372419D02*
X140375312Y-134372419D01*
X141327693Y-135372419D02*
X140851503Y-135372419D01*
X140851503Y-135372419D02*
X140851503Y-134372419D01*
X141661027Y-135372419D02*
X141661027Y-134372419D01*
X141661027Y-134372419D02*
X141899122Y-134372419D01*
X141899122Y-134372419D02*
X142041979Y-134420038D01*
X142041979Y-134420038D02*
X142137217Y-134515276D01*
X142137217Y-134515276D02*
X142184836Y-134610514D01*
X142184836Y-134610514D02*
X142232455Y-134800990D01*
X142232455Y-134800990D02*
X142232455Y-134943847D01*
X142232455Y-134943847D02*
X142184836Y-135134323D01*
X142184836Y-135134323D02*
X142137217Y-135229561D01*
X142137217Y-135229561D02*
X142041979Y-135324800D01*
X142041979Y-135324800D02*
X141899122Y-135372419D01*
X141899122Y-135372419D02*
X141661027Y-135372419D01*
X139661027Y-131372419D02*
X139994360Y-132372419D01*
X139994360Y-132372419D02*
X140327693Y-131372419D01*
X140661027Y-132372419D02*
X140661027Y-131372419D01*
X141137217Y-132372419D02*
X141137217Y-131372419D01*
X141137217Y-131372419D02*
X141708645Y-132372419D01*
X141708645Y-132372419D02*
X141708645Y-131372419D01*
X203303884Y-112205752D02*
X203303884Y-113205752D01*
X203303884Y-112253371D02*
X203399122Y-112205752D01*
X203399122Y-112205752D02*
X203589598Y-112205752D01*
X203589598Y-112205752D02*
X203684836Y-112253371D01*
X203684836Y-112253371D02*
X203732455Y-112300990D01*
X203732455Y-112300990D02*
X203780074Y-112396228D01*
X203780074Y-112396228D02*
X203780074Y-112681942D01*
X203780074Y-112681942D02*
X203732455Y-112777180D01*
X203732455Y-112777180D02*
X203684836Y-112824800D01*
X203684836Y-112824800D02*
X203589598Y-112872419D01*
X203589598Y-112872419D02*
X203399122Y-112872419D01*
X203399122Y-112872419D02*
X203303884Y-112824800D01*
X204351503Y-112872419D02*
X204256265Y-112824800D01*
X204256265Y-112824800D02*
X204208646Y-112777180D01*
X204208646Y-112777180D02*
X204161027Y-112681942D01*
X204161027Y-112681942D02*
X204161027Y-112396228D01*
X204161027Y-112396228D02*
X204208646Y-112300990D01*
X204208646Y-112300990D02*
X204256265Y-112253371D01*
X204256265Y-112253371D02*
X204351503Y-112205752D01*
X204351503Y-112205752D02*
X204494360Y-112205752D01*
X204494360Y-112205752D02*
X204589598Y-112253371D01*
X204589598Y-112253371D02*
X204637217Y-112300990D01*
X204637217Y-112300990D02*
X204684836Y-112396228D01*
X204684836Y-112396228D02*
X204684836Y-112681942D01*
X204684836Y-112681942D02*
X204637217Y-112777180D01*
X204637217Y-112777180D02*
X204589598Y-112824800D01*
X204589598Y-112824800D02*
X204494360Y-112872419D01*
X204494360Y-112872419D02*
X204351503Y-112872419D01*
X205018170Y-112205752D02*
X205208646Y-112872419D01*
X205208646Y-112872419D02*
X205399122Y-112396228D01*
X205399122Y-112396228D02*
X205589598Y-112872419D01*
X205589598Y-112872419D02*
X205780074Y-112205752D01*
X206541979Y-112824800D02*
X206446741Y-112872419D01*
X206446741Y-112872419D02*
X206256265Y-112872419D01*
X206256265Y-112872419D02*
X206161027Y-112824800D01*
X206161027Y-112824800D02*
X206113408Y-112729561D01*
X206113408Y-112729561D02*
X206113408Y-112348609D01*
X206113408Y-112348609D02*
X206161027Y-112253371D01*
X206161027Y-112253371D02*
X206256265Y-112205752D01*
X206256265Y-112205752D02*
X206446741Y-112205752D01*
X206446741Y-112205752D02*
X206541979Y-112253371D01*
X206541979Y-112253371D02*
X206589598Y-112348609D01*
X206589598Y-112348609D02*
X206589598Y-112443847D01*
X206589598Y-112443847D02*
X206113408Y-112539085D01*
X207018170Y-112872419D02*
X207018170Y-112205752D01*
X207018170Y-112396228D02*
X207065789Y-112300990D01*
X207065789Y-112300990D02*
X207113408Y-112253371D01*
X207113408Y-112253371D02*
X207208646Y-112205752D01*
X207208646Y-112205752D02*
X207303884Y-112205752D01*
X125800990Y-93053258D02*
X125753371Y-93148496D01*
X125753371Y-93148496D02*
X125705752Y-93196115D01*
X125705752Y-93196115D02*
X125610514Y-93243734D01*
X125610514Y-93243734D02*
X125562895Y-93243734D01*
X125562895Y-93243734D02*
X125467657Y-93196115D01*
X125467657Y-93196115D02*
X125420038Y-93148496D01*
X125420038Y-93148496D02*
X125372419Y-93053258D01*
X125372419Y-93053258D02*
X125372419Y-92862782D01*
X125372419Y-92862782D02*
X125420038Y-92767544D01*
X125420038Y-92767544D02*
X125467657Y-92719925D01*
X125467657Y-92719925D02*
X125562895Y-92672306D01*
X125562895Y-92672306D02*
X125610514Y-92672306D01*
X125610514Y-92672306D02*
X125705752Y-92719925D01*
X125705752Y-92719925D02*
X125753371Y-92767544D01*
X125753371Y-92767544D02*
X125800990Y-92862782D01*
X125800990Y-92862782D02*
X125800990Y-93053258D01*
X125800990Y-93053258D02*
X125848609Y-93148496D01*
X125848609Y-93148496D02*
X125896228Y-93196115D01*
X125896228Y-93196115D02*
X125991466Y-93243734D01*
X125991466Y-93243734D02*
X126181942Y-93243734D01*
X126181942Y-93243734D02*
X126277180Y-93196115D01*
X126277180Y-93196115D02*
X126324800Y-93148496D01*
X126324800Y-93148496D02*
X126372419Y-93053258D01*
X126372419Y-93053258D02*
X126372419Y-92862782D01*
X126372419Y-92862782D02*
X126324800Y-92767544D01*
X126324800Y-92767544D02*
X126277180Y-92719925D01*
X126277180Y-92719925D02*
X126181942Y-92672306D01*
X126181942Y-92672306D02*
X125991466Y-92672306D01*
X125991466Y-92672306D02*
X125896228Y-92719925D01*
X125896228Y-92719925D02*
X125848609Y-92767544D01*
X125848609Y-92767544D02*
X125800990Y-92862782D01*
X126372419Y-91815163D02*
X125848609Y-91815163D01*
X125848609Y-91815163D02*
X125753371Y-91862782D01*
X125753371Y-91862782D02*
X125705752Y-91958020D01*
X125705752Y-91958020D02*
X125705752Y-92148496D01*
X125705752Y-92148496D02*
X125753371Y-92243734D01*
X126324800Y-91815163D02*
X126372419Y-91910401D01*
X126372419Y-91910401D02*
X126372419Y-92148496D01*
X126372419Y-92148496D02*
X126324800Y-92243734D01*
X126324800Y-92243734D02*
X126229561Y-92291353D01*
X126229561Y-92291353D02*
X126134323Y-92291353D01*
X126134323Y-92291353D02*
X126039085Y-92243734D01*
X126039085Y-92243734D02*
X125991466Y-92148496D01*
X125991466Y-92148496D02*
X125991466Y-91910401D01*
X125991466Y-91910401D02*
X125943847Y-91815163D01*
X129803884Y-134872419D02*
X129803884Y-133872419D01*
X129803884Y-133872419D02*
X130137217Y-134586704D01*
X130137217Y-134586704D02*
X130470550Y-133872419D01*
X130470550Y-133872419D02*
X130470550Y-134872419D01*
X130946741Y-134872419D02*
X130946741Y-133872419D01*
X131375312Y-134824800D02*
X131518169Y-134872419D01*
X131518169Y-134872419D02*
X131756264Y-134872419D01*
X131756264Y-134872419D02*
X131851502Y-134824800D01*
X131851502Y-134824800D02*
X131899121Y-134777180D01*
X131899121Y-134777180D02*
X131946740Y-134681942D01*
X131946740Y-134681942D02*
X131946740Y-134586704D01*
X131946740Y-134586704D02*
X131899121Y-134491466D01*
X131899121Y-134491466D02*
X131851502Y-134443847D01*
X131851502Y-134443847D02*
X131756264Y-134396228D01*
X131756264Y-134396228D02*
X131565788Y-134348609D01*
X131565788Y-134348609D02*
X131470550Y-134300990D01*
X131470550Y-134300990D02*
X131422931Y-134253371D01*
X131422931Y-134253371D02*
X131375312Y-134158133D01*
X131375312Y-134158133D02*
X131375312Y-134062895D01*
X131375312Y-134062895D02*
X131422931Y-133967657D01*
X131422931Y-133967657D02*
X131470550Y-133920038D01*
X131470550Y-133920038D02*
X131565788Y-133872419D01*
X131565788Y-133872419D02*
X131803883Y-133872419D01*
X131803883Y-133872419D02*
X131946740Y-133920038D01*
X132565788Y-133872419D02*
X132756264Y-133872419D01*
X132756264Y-133872419D02*
X132851502Y-133920038D01*
X132851502Y-133920038D02*
X132946740Y-134015276D01*
X132946740Y-134015276D02*
X132994359Y-134205752D01*
X132994359Y-134205752D02*
X132994359Y-134539085D01*
X132994359Y-134539085D02*
X132946740Y-134729561D01*
X132946740Y-134729561D02*
X132851502Y-134824800D01*
X132851502Y-134824800D02*
X132756264Y-134872419D01*
X132756264Y-134872419D02*
X132565788Y-134872419D01*
X132565788Y-134872419D02*
X132470550Y-134824800D01*
X132470550Y-134824800D02*
X132375312Y-134729561D01*
X132375312Y-134729561D02*
X132327693Y-134539085D01*
X132327693Y-134539085D02*
X132327693Y-134205752D01*
X132327693Y-134205752D02*
X132375312Y-134015276D01*
X132375312Y-134015276D02*
X132470550Y-133920038D01*
X132470550Y-133920038D02*
X132565788Y-133872419D01*
X146705752Y-92767544D02*
X147372419Y-92767544D01*
X146324800Y-93005639D02*
X147039085Y-93243734D01*
X147039085Y-93243734D02*
X147039085Y-92624687D01*
X147372419Y-92196115D02*
X147372419Y-92005639D01*
X147372419Y-92005639D02*
X147324800Y-91910401D01*
X147324800Y-91910401D02*
X147277180Y-91862782D01*
X147277180Y-91862782D02*
X147134323Y-91767544D01*
X147134323Y-91767544D02*
X146943847Y-91719925D01*
X146943847Y-91719925D02*
X146562895Y-91719925D01*
X146562895Y-91719925D02*
X146467657Y-91767544D01*
X146467657Y-91767544D02*
X146420038Y-91815163D01*
X146420038Y-91815163D02*
X146372419Y-91910401D01*
X146372419Y-91910401D02*
X146372419Y-92100877D01*
X146372419Y-92100877D02*
X146420038Y-92196115D01*
X146420038Y-92196115D02*
X146467657Y-92243734D01*
X146467657Y-92243734D02*
X146562895Y-92291353D01*
X146562895Y-92291353D02*
X146800990Y-92291353D01*
X146800990Y-92291353D02*
X146896228Y-92243734D01*
X146896228Y-92243734D02*
X146943847Y-92196115D01*
X146943847Y-92196115D02*
X146991466Y-92100877D01*
X146991466Y-92100877D02*
X146991466Y-91910401D01*
X146991466Y-91910401D02*
X146943847Y-91815163D01*
X146943847Y-91815163D02*
X146896228Y-91767544D01*
X146896228Y-91767544D02*
X146800990Y-91719925D01*
X147372419Y-90862782D02*
X146848609Y-90862782D01*
X146848609Y-90862782D02*
X146753371Y-90910401D01*
X146753371Y-90910401D02*
X146705752Y-91005639D01*
X146705752Y-91005639D02*
X146705752Y-91196115D01*
X146705752Y-91196115D02*
X146753371Y-91291353D01*
X147324800Y-90862782D02*
X147372419Y-90958020D01*
X147372419Y-90958020D02*
X147372419Y-91196115D01*
X147372419Y-91196115D02*
X147324800Y-91291353D01*
X147324800Y-91291353D02*
X147229561Y-91338972D01*
X147229561Y-91338972D02*
X147134323Y-91338972D01*
X147134323Y-91338972D02*
X147039085Y-91291353D01*
X147039085Y-91291353D02*
X146991466Y-91196115D01*
X146991466Y-91196115D02*
X146991466Y-90958020D01*
X146991466Y-90958020D02*
X146943847Y-90862782D01*
X130800990Y-93053258D02*
X130753371Y-93148496D01*
X130753371Y-93148496D02*
X130705752Y-93196115D01*
X130705752Y-93196115D02*
X130610514Y-93243734D01*
X130610514Y-93243734D02*
X130562895Y-93243734D01*
X130562895Y-93243734D02*
X130467657Y-93196115D01*
X130467657Y-93196115D02*
X130420038Y-93148496D01*
X130420038Y-93148496D02*
X130372419Y-93053258D01*
X130372419Y-93053258D02*
X130372419Y-92862782D01*
X130372419Y-92862782D02*
X130420038Y-92767544D01*
X130420038Y-92767544D02*
X130467657Y-92719925D01*
X130467657Y-92719925D02*
X130562895Y-92672306D01*
X130562895Y-92672306D02*
X130610514Y-92672306D01*
X130610514Y-92672306D02*
X130705752Y-92719925D01*
X130705752Y-92719925D02*
X130753371Y-92767544D01*
X130753371Y-92767544D02*
X130800990Y-92862782D01*
X130800990Y-92862782D02*
X130800990Y-93053258D01*
X130800990Y-93053258D02*
X130848609Y-93148496D01*
X130848609Y-93148496D02*
X130896228Y-93196115D01*
X130896228Y-93196115D02*
X130991466Y-93243734D01*
X130991466Y-93243734D02*
X131181942Y-93243734D01*
X131181942Y-93243734D02*
X131277180Y-93196115D01*
X131277180Y-93196115D02*
X131324800Y-93148496D01*
X131324800Y-93148496D02*
X131372419Y-93053258D01*
X131372419Y-93053258D02*
X131372419Y-92862782D01*
X131372419Y-92862782D02*
X131324800Y-92767544D01*
X131324800Y-92767544D02*
X131277180Y-92719925D01*
X131277180Y-92719925D02*
X131181942Y-92672306D01*
X131181942Y-92672306D02*
X130991466Y-92672306D01*
X130991466Y-92672306D02*
X130896228Y-92719925D01*
X130896228Y-92719925D02*
X130848609Y-92767544D01*
X130848609Y-92767544D02*
X130800990Y-92862782D01*
X131372419Y-91815163D02*
X130848609Y-91815163D01*
X130848609Y-91815163D02*
X130753371Y-91862782D01*
X130753371Y-91862782D02*
X130705752Y-91958020D01*
X130705752Y-91958020D02*
X130705752Y-92148496D01*
X130705752Y-92148496D02*
X130753371Y-92243734D01*
X131324800Y-91815163D02*
X131372419Y-91910401D01*
X131372419Y-91910401D02*
X131372419Y-92148496D01*
X131372419Y-92148496D02*
X131324800Y-92243734D01*
X131324800Y-92243734D02*
X131229561Y-92291353D01*
X131229561Y-92291353D02*
X131134323Y-92291353D01*
X131134323Y-92291353D02*
X131039085Y-92243734D01*
X131039085Y-92243734D02*
X130991466Y-92148496D01*
X130991466Y-92148496D02*
X130991466Y-91910401D01*
X130991466Y-91910401D02*
X130943847Y-91815163D01*
X151372419Y-92719925D02*
X151372419Y-93196115D01*
X151372419Y-93196115D02*
X151848609Y-93243734D01*
X151848609Y-93243734D02*
X151800990Y-93196115D01*
X151800990Y-93196115D02*
X151753371Y-93100877D01*
X151753371Y-93100877D02*
X151753371Y-92862782D01*
X151753371Y-92862782D02*
X151800990Y-92767544D01*
X151800990Y-92767544D02*
X151848609Y-92719925D01*
X151848609Y-92719925D02*
X151943847Y-92672306D01*
X151943847Y-92672306D02*
X152181942Y-92672306D01*
X152181942Y-92672306D02*
X152277180Y-92719925D01*
X152277180Y-92719925D02*
X152324800Y-92767544D01*
X152324800Y-92767544D02*
X152372419Y-92862782D01*
X152372419Y-92862782D02*
X152372419Y-93100877D01*
X152372419Y-93100877D02*
X152324800Y-93196115D01*
X152324800Y-93196115D02*
X152277180Y-93243734D01*
X151372419Y-92053258D02*
X151372419Y-91958020D01*
X151372419Y-91958020D02*
X151420038Y-91862782D01*
X151420038Y-91862782D02*
X151467657Y-91815163D01*
X151467657Y-91815163D02*
X151562895Y-91767544D01*
X151562895Y-91767544D02*
X151753371Y-91719925D01*
X151753371Y-91719925D02*
X151991466Y-91719925D01*
X151991466Y-91719925D02*
X152181942Y-91767544D01*
X152181942Y-91767544D02*
X152277180Y-91815163D01*
X152277180Y-91815163D02*
X152324800Y-91862782D01*
X152324800Y-91862782D02*
X152372419Y-91958020D01*
X152372419Y-91958020D02*
X152372419Y-92053258D01*
X152372419Y-92053258D02*
X152324800Y-92148496D01*
X152324800Y-92148496D02*
X152277180Y-92196115D01*
X152277180Y-92196115D02*
X152181942Y-92243734D01*
X152181942Y-92243734D02*
X151991466Y-92291353D01*
X151991466Y-92291353D02*
X151753371Y-92291353D01*
X151753371Y-92291353D02*
X151562895Y-92243734D01*
X151562895Y-92243734D02*
X151467657Y-92196115D01*
X151467657Y-92196115D02*
X151420038Y-92148496D01*
X151420038Y-92148496D02*
X151372419Y-92053258D01*
X152372419Y-91291353D02*
X151372419Y-91291353D01*
X151753371Y-91291353D02*
X151705752Y-91196115D01*
X151705752Y-91196115D02*
X151705752Y-91005639D01*
X151705752Y-91005639D02*
X151753371Y-90910401D01*
X151753371Y-90910401D02*
X151800990Y-90862782D01*
X151800990Y-90862782D02*
X151896228Y-90815163D01*
X151896228Y-90815163D02*
X152181942Y-90815163D01*
X152181942Y-90815163D02*
X152277180Y-90862782D01*
X152277180Y-90862782D02*
X152324800Y-90910401D01*
X152324800Y-90910401D02*
X152372419Y-91005639D01*
X152372419Y-91005639D02*
X152372419Y-91196115D01*
X152372419Y-91196115D02*
X152324800Y-91291353D01*
X158872419Y-93005639D02*
X158872419Y-92910401D01*
X158872419Y-92910401D02*
X158920038Y-92815163D01*
X158920038Y-92815163D02*
X158967657Y-92767544D01*
X158967657Y-92767544D02*
X159062895Y-92719925D01*
X159062895Y-92719925D02*
X159253371Y-92672306D01*
X159253371Y-92672306D02*
X159491466Y-92672306D01*
X159491466Y-92672306D02*
X159681942Y-92719925D01*
X159681942Y-92719925D02*
X159777180Y-92767544D01*
X159777180Y-92767544D02*
X159824800Y-92815163D01*
X159824800Y-92815163D02*
X159872419Y-92910401D01*
X159872419Y-92910401D02*
X159872419Y-93005639D01*
X159872419Y-93005639D02*
X159824800Y-93100877D01*
X159824800Y-93100877D02*
X159777180Y-93148496D01*
X159777180Y-93148496D02*
X159681942Y-93196115D01*
X159681942Y-93196115D02*
X159491466Y-93243734D01*
X159491466Y-93243734D02*
X159253371Y-93243734D01*
X159253371Y-93243734D02*
X159062895Y-93196115D01*
X159062895Y-93196115D02*
X158967657Y-93148496D01*
X158967657Y-93148496D02*
X158920038Y-93100877D01*
X158920038Y-93100877D02*
X158872419Y-93005639D01*
X159872419Y-91815163D02*
X159348609Y-91815163D01*
X159348609Y-91815163D02*
X159253371Y-91862782D01*
X159253371Y-91862782D02*
X159205752Y-91958020D01*
X159205752Y-91958020D02*
X159205752Y-92148496D01*
X159205752Y-92148496D02*
X159253371Y-92243734D01*
X159824800Y-91815163D02*
X159872419Y-91910401D01*
X159872419Y-91910401D02*
X159872419Y-92148496D01*
X159872419Y-92148496D02*
X159824800Y-92243734D01*
X159824800Y-92243734D02*
X159729561Y-92291353D01*
X159729561Y-92291353D02*
X159634323Y-92291353D01*
X159634323Y-92291353D02*
X159539085Y-92243734D01*
X159539085Y-92243734D02*
X159491466Y-92148496D01*
X159491466Y-92148496D02*
X159491466Y-91910401D01*
X159491466Y-91910401D02*
X159443847Y-91815163D01*
X135800990Y-93053258D02*
X135753371Y-93148496D01*
X135753371Y-93148496D02*
X135705752Y-93196115D01*
X135705752Y-93196115D02*
X135610514Y-93243734D01*
X135610514Y-93243734D02*
X135562895Y-93243734D01*
X135562895Y-93243734D02*
X135467657Y-93196115D01*
X135467657Y-93196115D02*
X135420038Y-93148496D01*
X135420038Y-93148496D02*
X135372419Y-93053258D01*
X135372419Y-93053258D02*
X135372419Y-92862782D01*
X135372419Y-92862782D02*
X135420038Y-92767544D01*
X135420038Y-92767544D02*
X135467657Y-92719925D01*
X135467657Y-92719925D02*
X135562895Y-92672306D01*
X135562895Y-92672306D02*
X135610514Y-92672306D01*
X135610514Y-92672306D02*
X135705752Y-92719925D01*
X135705752Y-92719925D02*
X135753371Y-92767544D01*
X135753371Y-92767544D02*
X135800990Y-92862782D01*
X135800990Y-92862782D02*
X135800990Y-93053258D01*
X135800990Y-93053258D02*
X135848609Y-93148496D01*
X135848609Y-93148496D02*
X135896228Y-93196115D01*
X135896228Y-93196115D02*
X135991466Y-93243734D01*
X135991466Y-93243734D02*
X136181942Y-93243734D01*
X136181942Y-93243734D02*
X136277180Y-93196115D01*
X136277180Y-93196115D02*
X136324800Y-93148496D01*
X136324800Y-93148496D02*
X136372419Y-93053258D01*
X136372419Y-93053258D02*
X136372419Y-92862782D01*
X136372419Y-92862782D02*
X136324800Y-92767544D01*
X136324800Y-92767544D02*
X136277180Y-92719925D01*
X136277180Y-92719925D02*
X136181942Y-92672306D01*
X136181942Y-92672306D02*
X135991466Y-92672306D01*
X135991466Y-92672306D02*
X135896228Y-92719925D01*
X135896228Y-92719925D02*
X135848609Y-92767544D01*
X135848609Y-92767544D02*
X135800990Y-92862782D01*
X136372419Y-91815163D02*
X135848609Y-91815163D01*
X135848609Y-91815163D02*
X135753371Y-91862782D01*
X135753371Y-91862782D02*
X135705752Y-91958020D01*
X135705752Y-91958020D02*
X135705752Y-92148496D01*
X135705752Y-92148496D02*
X135753371Y-92243734D01*
X136324800Y-91815163D02*
X136372419Y-91910401D01*
X136372419Y-91910401D02*
X136372419Y-92148496D01*
X136372419Y-92148496D02*
X136324800Y-92243734D01*
X136324800Y-92243734D02*
X136229561Y-92291353D01*
X136229561Y-92291353D02*
X136134323Y-92291353D01*
X136134323Y-92291353D02*
X136039085Y-92243734D01*
X136039085Y-92243734D02*
X135991466Y-92148496D01*
X135991466Y-92148496D02*
X135991466Y-91910401D01*
X135991466Y-91910401D02*
X135943847Y-91815163D01*
X130875312Y-140277180D02*
X130827693Y-140324800D01*
X130827693Y-140324800D02*
X130684836Y-140372419D01*
X130684836Y-140372419D02*
X130589598Y-140372419D01*
X130589598Y-140372419D02*
X130446741Y-140324800D01*
X130446741Y-140324800D02*
X130351503Y-140229561D01*
X130351503Y-140229561D02*
X130303884Y-140134323D01*
X130303884Y-140134323D02*
X130256265Y-139943847D01*
X130256265Y-139943847D02*
X130256265Y-139800990D01*
X130256265Y-139800990D02*
X130303884Y-139610514D01*
X130303884Y-139610514D02*
X130351503Y-139515276D01*
X130351503Y-139515276D02*
X130446741Y-139420038D01*
X130446741Y-139420038D02*
X130589598Y-139372419D01*
X130589598Y-139372419D02*
X130684836Y-139372419D01*
X130684836Y-139372419D02*
X130827693Y-139420038D01*
X130827693Y-139420038D02*
X130875312Y-139467657D01*
X131256265Y-140324800D02*
X131399122Y-140372419D01*
X131399122Y-140372419D02*
X131637217Y-140372419D01*
X131637217Y-140372419D02*
X131732455Y-140324800D01*
X131732455Y-140324800D02*
X131780074Y-140277180D01*
X131780074Y-140277180D02*
X131827693Y-140181942D01*
X131827693Y-140181942D02*
X131827693Y-140086704D01*
X131827693Y-140086704D02*
X131780074Y-139991466D01*
X131780074Y-139991466D02*
X131732455Y-139943847D01*
X131732455Y-139943847D02*
X131637217Y-139896228D01*
X131637217Y-139896228D02*
X131446741Y-139848609D01*
X131446741Y-139848609D02*
X131351503Y-139800990D01*
X131351503Y-139800990D02*
X131303884Y-139753371D01*
X131303884Y-139753371D02*
X131256265Y-139658133D01*
X131256265Y-139658133D02*
X131256265Y-139562895D01*
X131256265Y-139562895D02*
X131303884Y-139467657D01*
X131303884Y-139467657D02*
X131351503Y-139420038D01*
X131351503Y-139420038D02*
X131446741Y-139372419D01*
X131446741Y-139372419D02*
X131684836Y-139372419D01*
X131684836Y-139372419D02*
X131827693Y-139420038D01*
X132872419Y-92767544D02*
X132872419Y-92958020D01*
X132872419Y-92958020D02*
X132920038Y-93053258D01*
X132920038Y-93053258D02*
X132967657Y-93100877D01*
X132967657Y-93100877D02*
X133110514Y-93196115D01*
X133110514Y-93196115D02*
X133300990Y-93243734D01*
X133300990Y-93243734D02*
X133681942Y-93243734D01*
X133681942Y-93243734D02*
X133777180Y-93196115D01*
X133777180Y-93196115D02*
X133824800Y-93148496D01*
X133824800Y-93148496D02*
X133872419Y-93053258D01*
X133872419Y-93053258D02*
X133872419Y-92862782D01*
X133872419Y-92862782D02*
X133824800Y-92767544D01*
X133824800Y-92767544D02*
X133777180Y-92719925D01*
X133777180Y-92719925D02*
X133681942Y-92672306D01*
X133681942Y-92672306D02*
X133443847Y-92672306D01*
X133443847Y-92672306D02*
X133348609Y-92719925D01*
X133348609Y-92719925D02*
X133300990Y-92767544D01*
X133300990Y-92767544D02*
X133253371Y-92862782D01*
X133253371Y-92862782D02*
X133253371Y-93053258D01*
X133253371Y-93053258D02*
X133300990Y-93148496D01*
X133300990Y-93148496D02*
X133348609Y-93196115D01*
X133348609Y-93196115D02*
X133443847Y-93243734D01*
X133872419Y-91815163D02*
X133348609Y-91815163D01*
X133348609Y-91815163D02*
X133253371Y-91862782D01*
X133253371Y-91862782D02*
X133205752Y-91958020D01*
X133205752Y-91958020D02*
X133205752Y-92148496D01*
X133205752Y-92148496D02*
X133253371Y-92243734D01*
X133824800Y-91815163D02*
X133872419Y-91910401D01*
X133872419Y-91910401D02*
X133872419Y-92148496D01*
X133872419Y-92148496D02*
X133824800Y-92243734D01*
X133824800Y-92243734D02*
X133729561Y-92291353D01*
X133729561Y-92291353D02*
X133634323Y-92291353D01*
X133634323Y-92291353D02*
X133539085Y-92243734D01*
X133539085Y-92243734D02*
X133491466Y-92148496D01*
X133491466Y-92148496D02*
X133491466Y-91910401D01*
X133491466Y-91910401D02*
X133443847Y-91815163D01*
X137872419Y-92767544D02*
X137872419Y-92958020D01*
X137872419Y-92958020D02*
X137920038Y-93053258D01*
X137920038Y-93053258D02*
X137967657Y-93100877D01*
X137967657Y-93100877D02*
X138110514Y-93196115D01*
X138110514Y-93196115D02*
X138300990Y-93243734D01*
X138300990Y-93243734D02*
X138681942Y-93243734D01*
X138681942Y-93243734D02*
X138777180Y-93196115D01*
X138777180Y-93196115D02*
X138824800Y-93148496D01*
X138824800Y-93148496D02*
X138872419Y-93053258D01*
X138872419Y-93053258D02*
X138872419Y-92862782D01*
X138872419Y-92862782D02*
X138824800Y-92767544D01*
X138824800Y-92767544D02*
X138777180Y-92719925D01*
X138777180Y-92719925D02*
X138681942Y-92672306D01*
X138681942Y-92672306D02*
X138443847Y-92672306D01*
X138443847Y-92672306D02*
X138348609Y-92719925D01*
X138348609Y-92719925D02*
X138300990Y-92767544D01*
X138300990Y-92767544D02*
X138253371Y-92862782D01*
X138253371Y-92862782D02*
X138253371Y-93053258D01*
X138253371Y-93053258D02*
X138300990Y-93148496D01*
X138300990Y-93148496D02*
X138348609Y-93196115D01*
X138348609Y-93196115D02*
X138443847Y-93243734D01*
X138872419Y-91815163D02*
X138348609Y-91815163D01*
X138348609Y-91815163D02*
X138253371Y-91862782D01*
X138253371Y-91862782D02*
X138205752Y-91958020D01*
X138205752Y-91958020D02*
X138205752Y-92148496D01*
X138205752Y-92148496D02*
X138253371Y-92243734D01*
X138824800Y-91815163D02*
X138872419Y-91910401D01*
X138872419Y-91910401D02*
X138872419Y-92148496D01*
X138872419Y-92148496D02*
X138824800Y-92243734D01*
X138824800Y-92243734D02*
X138729561Y-92291353D01*
X138729561Y-92291353D02*
X138634323Y-92291353D01*
X138634323Y-92291353D02*
X138539085Y-92243734D01*
X138539085Y-92243734D02*
X138491466Y-92148496D01*
X138491466Y-92148496D02*
X138491466Y-91910401D01*
X138491466Y-91910401D02*
X138443847Y-91815163D01*
X119327693Y-111420038D02*
X119232455Y-111372419D01*
X119232455Y-111372419D02*
X119089598Y-111372419D01*
X119089598Y-111372419D02*
X118946741Y-111420038D01*
X118946741Y-111420038D02*
X118851503Y-111515276D01*
X118851503Y-111515276D02*
X118803884Y-111610514D01*
X118803884Y-111610514D02*
X118756265Y-111800990D01*
X118756265Y-111800990D02*
X118756265Y-111943847D01*
X118756265Y-111943847D02*
X118803884Y-112134323D01*
X118803884Y-112134323D02*
X118851503Y-112229561D01*
X118851503Y-112229561D02*
X118946741Y-112324800D01*
X118946741Y-112324800D02*
X119089598Y-112372419D01*
X119089598Y-112372419D02*
X119184836Y-112372419D01*
X119184836Y-112372419D02*
X119327693Y-112324800D01*
X119327693Y-112324800D02*
X119375312Y-112277180D01*
X119375312Y-112277180D02*
X119375312Y-111943847D01*
X119375312Y-111943847D02*
X119184836Y-111943847D01*
X119803884Y-112372419D02*
X119803884Y-111372419D01*
X119803884Y-111372419D02*
X120375312Y-112372419D01*
X120375312Y-112372419D02*
X120375312Y-111372419D01*
X120851503Y-112372419D02*
X120851503Y-111372419D01*
X120851503Y-111372419D02*
X121089598Y-111372419D01*
X121089598Y-111372419D02*
X121232455Y-111420038D01*
X121232455Y-111420038D02*
X121327693Y-111515276D01*
X121327693Y-111515276D02*
X121375312Y-111610514D01*
X121375312Y-111610514D02*
X121422931Y-111800990D01*
X121422931Y-111800990D02*
X121422931Y-111943847D01*
X121422931Y-111943847D02*
X121375312Y-112134323D01*
X121375312Y-112134323D02*
X121327693Y-112229561D01*
X121327693Y-112229561D02*
X121232455Y-112324800D01*
X121232455Y-112324800D02*
X121089598Y-112372419D01*
X121089598Y-112372419D02*
X120851503Y-112372419D01*
X129756265Y-137824800D02*
X129899122Y-137872419D01*
X129899122Y-137872419D02*
X130137217Y-137872419D01*
X130137217Y-137872419D02*
X130232455Y-137824800D01*
X130232455Y-137824800D02*
X130280074Y-137777180D01*
X130280074Y-137777180D02*
X130327693Y-137681942D01*
X130327693Y-137681942D02*
X130327693Y-137586704D01*
X130327693Y-137586704D02*
X130280074Y-137491466D01*
X130280074Y-137491466D02*
X130232455Y-137443847D01*
X130232455Y-137443847D02*
X130137217Y-137396228D01*
X130137217Y-137396228D02*
X129946741Y-137348609D01*
X129946741Y-137348609D02*
X129851503Y-137300990D01*
X129851503Y-137300990D02*
X129803884Y-137253371D01*
X129803884Y-137253371D02*
X129756265Y-137158133D01*
X129756265Y-137158133D02*
X129756265Y-137062895D01*
X129756265Y-137062895D02*
X129803884Y-136967657D01*
X129803884Y-136967657D02*
X129851503Y-136920038D01*
X129851503Y-136920038D02*
X129946741Y-136872419D01*
X129946741Y-136872419D02*
X130184836Y-136872419D01*
X130184836Y-136872419D02*
X130327693Y-136920038D01*
X131327693Y-137777180D02*
X131280074Y-137824800D01*
X131280074Y-137824800D02*
X131137217Y-137872419D01*
X131137217Y-137872419D02*
X131041979Y-137872419D01*
X131041979Y-137872419D02*
X130899122Y-137824800D01*
X130899122Y-137824800D02*
X130803884Y-137729561D01*
X130803884Y-137729561D02*
X130756265Y-137634323D01*
X130756265Y-137634323D02*
X130708646Y-137443847D01*
X130708646Y-137443847D02*
X130708646Y-137300990D01*
X130708646Y-137300990D02*
X130756265Y-137110514D01*
X130756265Y-137110514D02*
X130803884Y-137015276D01*
X130803884Y-137015276D02*
X130899122Y-136920038D01*
X130899122Y-136920038D02*
X131041979Y-136872419D01*
X131041979Y-136872419D02*
X131137217Y-136872419D01*
X131137217Y-136872419D02*
X131280074Y-136920038D01*
X131280074Y-136920038D02*
X131327693Y-136967657D01*
X131756265Y-137872419D02*
X131756265Y-136872419D01*
X132327693Y-137872419D02*
X131899122Y-137300990D01*
X132327693Y-136872419D02*
X131756265Y-137443847D01*
X148872419Y-92719925D02*
X148872419Y-93196115D01*
X148872419Y-93196115D02*
X149348609Y-93243734D01*
X149348609Y-93243734D02*
X149300990Y-93196115D01*
X149300990Y-93196115D02*
X149253371Y-93100877D01*
X149253371Y-93100877D02*
X149253371Y-92862782D01*
X149253371Y-92862782D02*
X149300990Y-92767544D01*
X149300990Y-92767544D02*
X149348609Y-92719925D01*
X149348609Y-92719925D02*
X149443847Y-92672306D01*
X149443847Y-92672306D02*
X149681942Y-92672306D01*
X149681942Y-92672306D02*
X149777180Y-92719925D01*
X149777180Y-92719925D02*
X149824800Y-92767544D01*
X149824800Y-92767544D02*
X149872419Y-92862782D01*
X149872419Y-92862782D02*
X149872419Y-93100877D01*
X149872419Y-93100877D02*
X149824800Y-93196115D01*
X149824800Y-93196115D02*
X149777180Y-93243734D01*
X149872419Y-91719925D02*
X149872419Y-92291353D01*
X149872419Y-92005639D02*
X148872419Y-92005639D01*
X148872419Y-92005639D02*
X149015276Y-92100877D01*
X149015276Y-92100877D02*
X149110514Y-92196115D01*
X149110514Y-92196115D02*
X149158133Y-92291353D01*
X149872419Y-90862782D02*
X149348609Y-90862782D01*
X149348609Y-90862782D02*
X149253371Y-90910401D01*
X149253371Y-90910401D02*
X149205752Y-91005639D01*
X149205752Y-91005639D02*
X149205752Y-91196115D01*
X149205752Y-91196115D02*
X149253371Y-91291353D01*
X149824800Y-90862782D02*
X149872419Y-90958020D01*
X149872419Y-90958020D02*
X149872419Y-91196115D01*
X149872419Y-91196115D02*
X149824800Y-91291353D01*
X149824800Y-91291353D02*
X149729561Y-91338972D01*
X149729561Y-91338972D02*
X149634323Y-91338972D01*
X149634323Y-91338972D02*
X149539085Y-91291353D01*
X149539085Y-91291353D02*
X149491466Y-91196115D01*
X149491466Y-91196115D02*
X149491466Y-90958020D01*
X149491466Y-90958020D02*
X149443847Y-90862782D01*
X124803884Y-119491466D02*
X125565789Y-119491466D01*
X125184836Y-119872419D02*
X125184836Y-119110514D01*
X125946741Y-118872419D02*
X126565788Y-118872419D01*
X126565788Y-118872419D02*
X126232455Y-119253371D01*
X126232455Y-119253371D02*
X126375312Y-119253371D01*
X126375312Y-119253371D02*
X126470550Y-119300990D01*
X126470550Y-119300990D02*
X126518169Y-119348609D01*
X126518169Y-119348609D02*
X126565788Y-119443847D01*
X126565788Y-119443847D02*
X126565788Y-119681942D01*
X126565788Y-119681942D02*
X126518169Y-119777180D01*
X126518169Y-119777180D02*
X126470550Y-119824800D01*
X126470550Y-119824800D02*
X126375312Y-119872419D01*
X126375312Y-119872419D02*
X126089598Y-119872419D01*
X126089598Y-119872419D02*
X125994360Y-119824800D01*
X125994360Y-119824800D02*
X125946741Y-119777180D01*
X126851503Y-118872419D02*
X127184836Y-119872419D01*
X127184836Y-119872419D02*
X127518169Y-118872419D01*
X127756265Y-118872419D02*
X128375312Y-118872419D01*
X128375312Y-118872419D02*
X128041979Y-119253371D01*
X128041979Y-119253371D02*
X128184836Y-119253371D01*
X128184836Y-119253371D02*
X128280074Y-119300990D01*
X128280074Y-119300990D02*
X128327693Y-119348609D01*
X128327693Y-119348609D02*
X128375312Y-119443847D01*
X128375312Y-119443847D02*
X128375312Y-119681942D01*
X128375312Y-119681942D02*
X128327693Y-119777180D01*
X128327693Y-119777180D02*
X128280074Y-119824800D01*
X128280074Y-119824800D02*
X128184836Y-119872419D01*
X128184836Y-119872419D02*
X127899122Y-119872419D01*
X127899122Y-119872419D02*
X127803884Y-119824800D01*
X127803884Y-119824800D02*
X127756265Y-119777180D01*
X119327693Y-113920038D02*
X119232455Y-113872419D01*
X119232455Y-113872419D02*
X119089598Y-113872419D01*
X119089598Y-113872419D02*
X118946741Y-113920038D01*
X118946741Y-113920038D02*
X118851503Y-114015276D01*
X118851503Y-114015276D02*
X118803884Y-114110514D01*
X118803884Y-114110514D02*
X118756265Y-114300990D01*
X118756265Y-114300990D02*
X118756265Y-114443847D01*
X118756265Y-114443847D02*
X118803884Y-114634323D01*
X118803884Y-114634323D02*
X118851503Y-114729561D01*
X118851503Y-114729561D02*
X118946741Y-114824800D01*
X118946741Y-114824800D02*
X119089598Y-114872419D01*
X119089598Y-114872419D02*
X119184836Y-114872419D01*
X119184836Y-114872419D02*
X119327693Y-114824800D01*
X119327693Y-114824800D02*
X119375312Y-114777180D01*
X119375312Y-114777180D02*
X119375312Y-114443847D01*
X119375312Y-114443847D02*
X119184836Y-114443847D01*
X119803884Y-114872419D02*
X119803884Y-113872419D01*
X119803884Y-113872419D02*
X120375312Y-114872419D01*
X120375312Y-114872419D02*
X120375312Y-113872419D01*
X120851503Y-114872419D02*
X120851503Y-113872419D01*
X120851503Y-113872419D02*
X121089598Y-113872419D01*
X121089598Y-113872419D02*
X121232455Y-113920038D01*
X121232455Y-113920038D02*
X121327693Y-114015276D01*
X121327693Y-114015276D02*
X121375312Y-114110514D01*
X121375312Y-114110514D02*
X121422931Y-114300990D01*
X121422931Y-114300990D02*
X121422931Y-114443847D01*
X121422931Y-114443847D02*
X121375312Y-114634323D01*
X121375312Y-114634323D02*
X121327693Y-114729561D01*
X121327693Y-114729561D02*
X121232455Y-114824800D01*
X121232455Y-114824800D02*
X121089598Y-114872419D01*
X121089598Y-114872419D02*
X120851503Y-114872419D01*
X93057419Y-117702380D02*
X93057419Y-118178570D01*
X93057419Y-118178570D02*
X93533609Y-118226189D01*
X93533609Y-118226189D02*
X93485990Y-118178570D01*
X93485990Y-118178570D02*
X93438371Y-118083332D01*
X93438371Y-118083332D02*
X93438371Y-117845237D01*
X93438371Y-117845237D02*
X93485990Y-117749999D01*
X93485990Y-117749999D02*
X93533609Y-117702380D01*
X93533609Y-117702380D02*
X93628847Y-117654761D01*
X93628847Y-117654761D02*
X93866942Y-117654761D01*
X93866942Y-117654761D02*
X93962180Y-117702380D01*
X93962180Y-117702380D02*
X94009800Y-117749999D01*
X94009800Y-117749999D02*
X94057419Y-117845237D01*
X94057419Y-117845237D02*
X94057419Y-118083332D01*
X94057419Y-118083332D02*
X94009800Y-118178570D01*
X94009800Y-118178570D02*
X93962180Y-118226189D01*
X93057419Y-117321427D02*
X93057419Y-116702380D01*
X93057419Y-116702380D02*
X93438371Y-117035713D01*
X93438371Y-117035713D02*
X93438371Y-116892856D01*
X93438371Y-116892856D02*
X93485990Y-116797618D01*
X93485990Y-116797618D02*
X93533609Y-116749999D01*
X93533609Y-116749999D02*
X93628847Y-116702380D01*
X93628847Y-116702380D02*
X93866942Y-116702380D01*
X93866942Y-116702380D02*
X93962180Y-116749999D01*
X93962180Y-116749999D02*
X94009800Y-116797618D01*
X94009800Y-116797618D02*
X94057419Y-116892856D01*
X94057419Y-116892856D02*
X94057419Y-117178570D01*
X94057419Y-117178570D02*
X94009800Y-117273808D01*
X94009800Y-117273808D02*
X93962180Y-117321427D01*
X93962180Y-116273808D02*
X94009800Y-116226189D01*
X94009800Y-116226189D02*
X94057419Y-116273808D01*
X94057419Y-116273808D02*
X94009800Y-116321427D01*
X94009800Y-116321427D02*
X93962180Y-116273808D01*
X93962180Y-116273808D02*
X94057419Y-116273808D01*
X93057419Y-115321428D02*
X93057419Y-115797618D01*
X93057419Y-115797618D02*
X93533609Y-115845237D01*
X93533609Y-115845237D02*
X93485990Y-115797618D01*
X93485990Y-115797618D02*
X93438371Y-115702380D01*
X93438371Y-115702380D02*
X93438371Y-115464285D01*
X93438371Y-115464285D02*
X93485990Y-115369047D01*
X93485990Y-115369047D02*
X93533609Y-115321428D01*
X93533609Y-115321428D02*
X93628847Y-115273809D01*
X93628847Y-115273809D02*
X93866942Y-115273809D01*
X93866942Y-115273809D02*
X93962180Y-115321428D01*
X93962180Y-115321428D02*
X94009800Y-115369047D01*
X94009800Y-115369047D02*
X94057419Y-115464285D01*
X94057419Y-115464285D02*
X94057419Y-115702380D01*
X94057419Y-115702380D02*
X94009800Y-115797618D01*
X94009800Y-115797618D02*
X93962180Y-115845237D01*
X117500000Y-143500000D02*
X94113580Y-143500000D01*
X94113580Y-90000000D02*
X117500000Y-90000000D01*
X94700000Y-143500000D02*
X94700000Y-90000000D01*
X94700000Y-143500000D02*
X94113579Y-142373496D01*
X94700000Y-143500000D02*
X95286421Y-142373496D01*
X94700000Y-90000000D02*
X95286421Y-91126504D01*
X94700000Y-90000000D02*
X94113579Y-91126504D01*
D11*
X143333333Y-119304819D02*
X143000000Y-118828628D01*
X142761905Y-119304819D02*
X142761905Y-118304819D01*
X142761905Y-118304819D02*
X143142857Y-118304819D01*
X143142857Y-118304819D02*
X143238095Y-118352438D01*
X143238095Y-118352438D02*
X143285714Y-118400057D01*
X143285714Y-118400057D02*
X143333333Y-118495295D01*
X143333333Y-118495295D02*
X143333333Y-118638152D01*
X143333333Y-118638152D02*
X143285714Y-118733390D01*
X143285714Y-118733390D02*
X143238095Y-118781009D01*
X143238095Y-118781009D02*
X143142857Y-118828628D01*
X143142857Y-118828628D02*
X142761905Y-118828628D01*
X143809524Y-119304819D02*
X144000000Y-119304819D01*
X144000000Y-119304819D02*
X144095238Y-119257200D01*
X144095238Y-119257200D02*
X144142857Y-119209580D01*
X144142857Y-119209580D02*
X144238095Y-119066723D01*
X144238095Y-119066723D02*
X144285714Y-118876247D01*
X144285714Y-118876247D02*
X144285714Y-118495295D01*
X144285714Y-118495295D02*
X144238095Y-118400057D01*
X144238095Y-118400057D02*
X144190476Y-118352438D01*
X144190476Y-118352438D02*
X144095238Y-118304819D01*
X144095238Y-118304819D02*
X143904762Y-118304819D01*
X143904762Y-118304819D02*
X143809524Y-118352438D01*
X143809524Y-118352438D02*
X143761905Y-118400057D01*
X143761905Y-118400057D02*
X143714286Y-118495295D01*
X143714286Y-118495295D02*
X143714286Y-118733390D01*
X143714286Y-118733390D02*
X143761905Y-118828628D01*
X143761905Y-118828628D02*
X143809524Y-118876247D01*
X143809524Y-118876247D02*
X143904762Y-118923866D01*
X143904762Y-118923866D02*
X144095238Y-118923866D01*
X144095238Y-118923866D02*
X144190476Y-118876247D01*
X144190476Y-118876247D02*
X144238095Y-118828628D01*
X144238095Y-118828628D02*
X144285714Y-118733390D01*
X124833333Y-138554819D02*
X124500000Y-138078628D01*
X124261905Y-138554819D02*
X124261905Y-137554819D01*
X124261905Y-137554819D02*
X124642857Y-137554819D01*
X124642857Y-137554819D02*
X124738095Y-137602438D01*
X124738095Y-137602438D02*
X124785714Y-137650057D01*
X124785714Y-137650057D02*
X124833333Y-137745295D01*
X124833333Y-137745295D02*
X124833333Y-137888152D01*
X124833333Y-137888152D02*
X124785714Y-137983390D01*
X124785714Y-137983390D02*
X124738095Y-138031009D01*
X124738095Y-138031009D02*
X124642857Y-138078628D01*
X124642857Y-138078628D02*
X124261905Y-138078628D01*
X125690476Y-137554819D02*
X125500000Y-137554819D01*
X125500000Y-137554819D02*
X125404762Y-137602438D01*
X125404762Y-137602438D02*
X125357143Y-137650057D01*
X125357143Y-137650057D02*
X125261905Y-137792914D01*
X125261905Y-137792914D02*
X125214286Y-137983390D01*
X125214286Y-137983390D02*
X125214286Y-138364342D01*
X125214286Y-138364342D02*
X125261905Y-138459580D01*
X125261905Y-138459580D02*
X125309524Y-138507200D01*
X125309524Y-138507200D02*
X125404762Y-138554819D01*
X125404762Y-138554819D02*
X125595238Y-138554819D01*
X125595238Y-138554819D02*
X125690476Y-138507200D01*
X125690476Y-138507200D02*
X125738095Y-138459580D01*
X125738095Y-138459580D02*
X125785714Y-138364342D01*
X125785714Y-138364342D02*
X125785714Y-138126247D01*
X125785714Y-138126247D02*
X125738095Y-138031009D01*
X125738095Y-138031009D02*
X125690476Y-137983390D01*
X125690476Y-137983390D02*
X125595238Y-137935771D01*
X125595238Y-137935771D02*
X125404762Y-137935771D01*
X125404762Y-137935771D02*
X125309524Y-137983390D01*
X125309524Y-137983390D02*
X125261905Y-138031009D01*
X125261905Y-138031009D02*
X125214286Y-138126247D01*
X211555819Y-104454166D02*
X211079628Y-104787499D01*
X211555819Y-105025594D02*
X210555819Y-105025594D01*
X210555819Y-105025594D02*
X210555819Y-104644642D01*
X210555819Y-104644642D02*
X210603438Y-104549404D01*
X210603438Y-104549404D02*
X210651057Y-104501785D01*
X210651057Y-104501785D02*
X210746295Y-104454166D01*
X210746295Y-104454166D02*
X210889152Y-104454166D01*
X210889152Y-104454166D02*
X210984390Y-104501785D01*
X210984390Y-104501785D02*
X211032009Y-104549404D01*
X211032009Y-104549404D02*
X211079628Y-104644642D01*
X211079628Y-104644642D02*
X211079628Y-105025594D01*
X210555819Y-103549404D02*
X210555819Y-104025594D01*
X210555819Y-104025594D02*
X211032009Y-104073213D01*
X211032009Y-104073213D02*
X210984390Y-104025594D01*
X210984390Y-104025594D02*
X210936771Y-103930356D01*
X210936771Y-103930356D02*
X210936771Y-103692261D01*
X210936771Y-103692261D02*
X210984390Y-103597023D01*
X210984390Y-103597023D02*
X211032009Y-103549404D01*
X211032009Y-103549404D02*
X211127247Y-103501785D01*
X211127247Y-103501785D02*
X211365342Y-103501785D01*
X211365342Y-103501785D02*
X211460580Y-103549404D01*
X211460580Y-103549404D02*
X211508200Y-103597023D01*
X211508200Y-103597023D02*
X211555819Y-103692261D01*
X211555819Y-103692261D02*
X211555819Y-103930356D01*
X211555819Y-103930356D02*
X211508200Y-104025594D01*
X211508200Y-104025594D02*
X211460580Y-104073213D01*
X211555819Y-98166666D02*
X211079628Y-98499999D01*
X211555819Y-98738094D02*
X210555819Y-98738094D01*
X210555819Y-98738094D02*
X210555819Y-98357142D01*
X210555819Y-98357142D02*
X210603438Y-98261904D01*
X210603438Y-98261904D02*
X210651057Y-98214285D01*
X210651057Y-98214285D02*
X210746295Y-98166666D01*
X210746295Y-98166666D02*
X210889152Y-98166666D01*
X210889152Y-98166666D02*
X210984390Y-98214285D01*
X210984390Y-98214285D02*
X211032009Y-98261904D01*
X211032009Y-98261904D02*
X211079628Y-98357142D01*
X211079628Y-98357142D02*
X211079628Y-98738094D01*
X210889152Y-97309523D02*
X211555819Y-97309523D01*
X210508200Y-97547618D02*
X211222485Y-97785713D01*
X211222485Y-97785713D02*
X211222485Y-97166666D01*
X124795833Y-134804819D02*
X124462500Y-134328628D01*
X124224405Y-134804819D02*
X124224405Y-133804819D01*
X124224405Y-133804819D02*
X124605357Y-133804819D01*
X124605357Y-133804819D02*
X124700595Y-133852438D01*
X124700595Y-133852438D02*
X124748214Y-133900057D01*
X124748214Y-133900057D02*
X124795833Y-133995295D01*
X124795833Y-133995295D02*
X124795833Y-134138152D01*
X124795833Y-134138152D02*
X124748214Y-134233390D01*
X124748214Y-134233390D02*
X124700595Y-134281009D01*
X124700595Y-134281009D02*
X124605357Y-134328628D01*
X124605357Y-134328628D02*
X124224405Y-134328628D01*
X125129167Y-133804819D02*
X125748214Y-133804819D01*
X125748214Y-133804819D02*
X125414881Y-134185771D01*
X125414881Y-134185771D02*
X125557738Y-134185771D01*
X125557738Y-134185771D02*
X125652976Y-134233390D01*
X125652976Y-134233390D02*
X125700595Y-134281009D01*
X125700595Y-134281009D02*
X125748214Y-134376247D01*
X125748214Y-134376247D02*
X125748214Y-134614342D01*
X125748214Y-134614342D02*
X125700595Y-134709580D01*
X125700595Y-134709580D02*
X125652976Y-134757200D01*
X125652976Y-134757200D02*
X125557738Y-134804819D01*
X125557738Y-134804819D02*
X125272024Y-134804819D01*
X125272024Y-134804819D02*
X125176786Y-134757200D01*
X125176786Y-134757200D02*
X125129167Y-134709580D01*
X199405819Y-100966666D02*
X198929628Y-101299999D01*
X199405819Y-101538094D02*
X198405819Y-101538094D01*
X198405819Y-101538094D02*
X198405819Y-101157142D01*
X198405819Y-101157142D02*
X198453438Y-101061904D01*
X198453438Y-101061904D02*
X198501057Y-101014285D01*
X198501057Y-101014285D02*
X198596295Y-100966666D01*
X198596295Y-100966666D02*
X198739152Y-100966666D01*
X198739152Y-100966666D02*
X198834390Y-101014285D01*
X198834390Y-101014285D02*
X198882009Y-101061904D01*
X198882009Y-101061904D02*
X198929628Y-101157142D01*
X198929628Y-101157142D02*
X198929628Y-101538094D01*
X198501057Y-100585713D02*
X198453438Y-100538094D01*
X198453438Y-100538094D02*
X198405819Y-100442856D01*
X198405819Y-100442856D02*
X198405819Y-100204761D01*
X198405819Y-100204761D02*
X198453438Y-100109523D01*
X198453438Y-100109523D02*
X198501057Y-100061904D01*
X198501057Y-100061904D02*
X198596295Y-100014285D01*
X198596295Y-100014285D02*
X198691533Y-100014285D01*
X198691533Y-100014285D02*
X198834390Y-100061904D01*
X198834390Y-100061904D02*
X199405819Y-100633332D01*
X199405819Y-100633332D02*
X199405819Y-100014285D01*
X192774819Y-121132737D02*
X191774819Y-121132737D01*
X191774819Y-121132737D02*
X191774819Y-120751785D01*
X191774819Y-120751785D02*
X191822438Y-120656547D01*
X191822438Y-120656547D02*
X191870057Y-120608928D01*
X191870057Y-120608928D02*
X191965295Y-120561309D01*
X191965295Y-120561309D02*
X192108152Y-120561309D01*
X192108152Y-120561309D02*
X192203390Y-120608928D01*
X192203390Y-120608928D02*
X192251009Y-120656547D01*
X192251009Y-120656547D02*
X192298628Y-120751785D01*
X192298628Y-120751785D02*
X192298628Y-121132737D01*
X191870057Y-120180356D02*
X191822438Y-120132737D01*
X191822438Y-120132737D02*
X191774819Y-120037499D01*
X191774819Y-120037499D02*
X191774819Y-119799404D01*
X191774819Y-119799404D02*
X191822438Y-119704166D01*
X191822438Y-119704166D02*
X191870057Y-119656547D01*
X191870057Y-119656547D02*
X191965295Y-119608928D01*
X191965295Y-119608928D02*
X192060533Y-119608928D01*
X192060533Y-119608928D02*
X192203390Y-119656547D01*
X192203390Y-119656547D02*
X192774819Y-120227975D01*
X192774819Y-120227975D02*
X192774819Y-119608928D01*
X192870057Y-119418452D02*
X192870057Y-118656547D01*
X192679580Y-117847023D02*
X192727200Y-117894642D01*
X192727200Y-117894642D02*
X192774819Y-118037499D01*
X192774819Y-118037499D02*
X192774819Y-118132737D01*
X192774819Y-118132737D02*
X192727200Y-118275594D01*
X192727200Y-118275594D02*
X192631961Y-118370832D01*
X192631961Y-118370832D02*
X192536723Y-118418451D01*
X192536723Y-118418451D02*
X192346247Y-118466070D01*
X192346247Y-118466070D02*
X192203390Y-118466070D01*
X192203390Y-118466070D02*
X192012914Y-118418451D01*
X192012914Y-118418451D02*
X191917676Y-118370832D01*
X191917676Y-118370832D02*
X191822438Y-118275594D01*
X191822438Y-118275594D02*
X191774819Y-118132737D01*
X191774819Y-118132737D02*
X191774819Y-118037499D01*
X191774819Y-118037499D02*
X191822438Y-117894642D01*
X191822438Y-117894642D02*
X191870057Y-117847023D01*
X191774819Y-116942261D02*
X191774819Y-117418451D01*
X191774819Y-117418451D02*
X192251009Y-117466070D01*
X192251009Y-117466070D02*
X192203390Y-117418451D01*
X192203390Y-117418451D02*
X192155771Y-117323213D01*
X192155771Y-117323213D02*
X192155771Y-117085118D01*
X192155771Y-117085118D02*
X192203390Y-116989880D01*
X192203390Y-116989880D02*
X192251009Y-116942261D01*
X192251009Y-116942261D02*
X192346247Y-116894642D01*
X192346247Y-116894642D02*
X192584342Y-116894642D01*
X192584342Y-116894642D02*
X192679580Y-116942261D01*
X192679580Y-116942261D02*
X192727200Y-116989880D01*
X192727200Y-116989880D02*
X192774819Y-117085118D01*
X192774819Y-117085118D02*
X192774819Y-117323213D01*
X192774819Y-117323213D02*
X192727200Y-117418451D01*
X192727200Y-117418451D02*
X192679580Y-117466070D01*
X200930762Y-127134819D02*
X200930762Y-126134819D01*
X200930762Y-126134819D02*
X201311714Y-126134819D01*
X201311714Y-126134819D02*
X201406952Y-126182438D01*
X201406952Y-126182438D02*
X201454571Y-126230057D01*
X201454571Y-126230057D02*
X201502190Y-126325295D01*
X201502190Y-126325295D02*
X201502190Y-126468152D01*
X201502190Y-126468152D02*
X201454571Y-126563390D01*
X201454571Y-126563390D02*
X201406952Y-126611009D01*
X201406952Y-126611009D02*
X201311714Y-126658628D01*
X201311714Y-126658628D02*
X200930762Y-126658628D01*
X201883143Y-126230057D02*
X201930762Y-126182438D01*
X201930762Y-126182438D02*
X202026000Y-126134819D01*
X202026000Y-126134819D02*
X202264095Y-126134819D01*
X202264095Y-126134819D02*
X202359333Y-126182438D01*
X202359333Y-126182438D02*
X202406952Y-126230057D01*
X202406952Y-126230057D02*
X202454571Y-126325295D01*
X202454571Y-126325295D02*
X202454571Y-126420533D01*
X202454571Y-126420533D02*
X202406952Y-126563390D01*
X202406952Y-126563390D02*
X201835524Y-127134819D01*
X201835524Y-127134819D02*
X202454571Y-127134819D01*
X202645048Y-127230057D02*
X203406952Y-127230057D01*
X204216476Y-127039580D02*
X204168857Y-127087200D01*
X204168857Y-127087200D02*
X204026000Y-127134819D01*
X204026000Y-127134819D02*
X203930762Y-127134819D01*
X203930762Y-127134819D02*
X203787905Y-127087200D01*
X203787905Y-127087200D02*
X203692667Y-126991961D01*
X203692667Y-126991961D02*
X203645048Y-126896723D01*
X203645048Y-126896723D02*
X203597429Y-126706247D01*
X203597429Y-126706247D02*
X203597429Y-126563390D01*
X203597429Y-126563390D02*
X203645048Y-126372914D01*
X203645048Y-126372914D02*
X203692667Y-126277676D01*
X203692667Y-126277676D02*
X203787905Y-126182438D01*
X203787905Y-126182438D02*
X203930762Y-126134819D01*
X203930762Y-126134819D02*
X204026000Y-126134819D01*
X204026000Y-126134819D02*
X204168857Y-126182438D01*
X204168857Y-126182438D02*
X204216476Y-126230057D01*
X205073619Y-126468152D02*
X205073619Y-127134819D01*
X204835524Y-126087200D02*
X204597429Y-126801485D01*
X204597429Y-126801485D02*
X205216476Y-126801485D01*
X207605819Y-111595237D02*
X206605819Y-111595237D01*
X206605819Y-111595237D02*
X206605819Y-111214285D01*
X206605819Y-111214285D02*
X206653438Y-111119047D01*
X206653438Y-111119047D02*
X206701057Y-111071428D01*
X206701057Y-111071428D02*
X206796295Y-111023809D01*
X206796295Y-111023809D02*
X206939152Y-111023809D01*
X206939152Y-111023809D02*
X207034390Y-111071428D01*
X207034390Y-111071428D02*
X207082009Y-111119047D01*
X207082009Y-111119047D02*
X207129628Y-111214285D01*
X207129628Y-111214285D02*
X207129628Y-111595237D01*
X207605819Y-110071428D02*
X207605819Y-110642856D01*
X207605819Y-110357142D02*
X206605819Y-110357142D01*
X206605819Y-110357142D02*
X206748676Y-110452380D01*
X206748676Y-110452380D02*
X206843914Y-110547618D01*
X206843914Y-110547618D02*
X206891533Y-110642856D01*
X207701057Y-109880952D02*
X207701057Y-109119047D01*
X207605819Y-108309523D02*
X207129628Y-108642856D01*
X207605819Y-108880951D02*
X206605819Y-108880951D01*
X206605819Y-108880951D02*
X206605819Y-108499999D01*
X206605819Y-108499999D02*
X206653438Y-108404761D01*
X206653438Y-108404761D02*
X206701057Y-108357142D01*
X206701057Y-108357142D02*
X206796295Y-108309523D01*
X206796295Y-108309523D02*
X206939152Y-108309523D01*
X206939152Y-108309523D02*
X207034390Y-108357142D01*
X207034390Y-108357142D02*
X207082009Y-108404761D01*
X207082009Y-108404761D02*
X207129628Y-108499999D01*
X207129628Y-108499999D02*
X207129628Y-108880951D01*
X206605819Y-107976189D02*
X206605819Y-107309523D01*
X206605819Y-107309523D02*
X207605819Y-107738094D01*
X192155762Y-110134819D02*
X192155762Y-109134819D01*
X192155762Y-109134819D02*
X192536714Y-109134819D01*
X192536714Y-109134819D02*
X192631952Y-109182438D01*
X192631952Y-109182438D02*
X192679571Y-109230057D01*
X192679571Y-109230057D02*
X192727190Y-109325295D01*
X192727190Y-109325295D02*
X192727190Y-109468152D01*
X192727190Y-109468152D02*
X192679571Y-109563390D01*
X192679571Y-109563390D02*
X192631952Y-109611009D01*
X192631952Y-109611009D02*
X192536714Y-109658628D01*
X192536714Y-109658628D02*
X192155762Y-109658628D01*
X193679571Y-110134819D02*
X193108143Y-110134819D01*
X193393857Y-110134819D02*
X193393857Y-109134819D01*
X193393857Y-109134819D02*
X193298619Y-109277676D01*
X193298619Y-109277676D02*
X193203381Y-109372914D01*
X193203381Y-109372914D02*
X193108143Y-109420533D01*
X193870048Y-110230057D02*
X194631952Y-110230057D01*
X195441476Y-110039580D02*
X195393857Y-110087200D01*
X195393857Y-110087200D02*
X195251000Y-110134819D01*
X195251000Y-110134819D02*
X195155762Y-110134819D01*
X195155762Y-110134819D02*
X195012905Y-110087200D01*
X195012905Y-110087200D02*
X194917667Y-109991961D01*
X194917667Y-109991961D02*
X194870048Y-109896723D01*
X194870048Y-109896723D02*
X194822429Y-109706247D01*
X194822429Y-109706247D02*
X194822429Y-109563390D01*
X194822429Y-109563390D02*
X194870048Y-109372914D01*
X194870048Y-109372914D02*
X194917667Y-109277676D01*
X194917667Y-109277676D02*
X195012905Y-109182438D01*
X195012905Y-109182438D02*
X195155762Y-109134819D01*
X195155762Y-109134819D02*
X195251000Y-109134819D01*
X195251000Y-109134819D02*
X195393857Y-109182438D01*
X195393857Y-109182438D02*
X195441476Y-109230057D01*
X195774810Y-109134819D02*
X196393857Y-109134819D01*
X196393857Y-109134819D02*
X196060524Y-109515771D01*
X196060524Y-109515771D02*
X196203381Y-109515771D01*
X196203381Y-109515771D02*
X196298619Y-109563390D01*
X196298619Y-109563390D02*
X196346238Y-109611009D01*
X196346238Y-109611009D02*
X196393857Y-109706247D01*
X196393857Y-109706247D02*
X196393857Y-109944342D01*
X196393857Y-109944342D02*
X196346238Y-110039580D01*
X196346238Y-110039580D02*
X196298619Y-110087200D01*
X196298619Y-110087200D02*
X196203381Y-110134819D01*
X196203381Y-110134819D02*
X195917667Y-110134819D01*
X195917667Y-110134819D02*
X195822429Y-110087200D01*
X195822429Y-110087200D02*
X195774810Y-110039580D01*
X203430762Y-103384819D02*
X203430762Y-102384819D01*
X203430762Y-102384819D02*
X203811714Y-102384819D01*
X203811714Y-102384819D02*
X203906952Y-102432438D01*
X203906952Y-102432438D02*
X203954571Y-102480057D01*
X203954571Y-102480057D02*
X204002190Y-102575295D01*
X204002190Y-102575295D02*
X204002190Y-102718152D01*
X204002190Y-102718152D02*
X203954571Y-102813390D01*
X203954571Y-102813390D02*
X203906952Y-102861009D01*
X203906952Y-102861009D02*
X203811714Y-102908628D01*
X203811714Y-102908628D02*
X203430762Y-102908628D01*
X204954571Y-103384819D02*
X204383143Y-103384819D01*
X204668857Y-103384819D02*
X204668857Y-102384819D01*
X204668857Y-102384819D02*
X204573619Y-102527676D01*
X204573619Y-102527676D02*
X204478381Y-102622914D01*
X204478381Y-102622914D02*
X204383143Y-102670533D01*
X205145048Y-103480057D02*
X205906952Y-103480057D01*
X206716476Y-103289580D02*
X206668857Y-103337200D01*
X206668857Y-103337200D02*
X206526000Y-103384819D01*
X206526000Y-103384819D02*
X206430762Y-103384819D01*
X206430762Y-103384819D02*
X206287905Y-103337200D01*
X206287905Y-103337200D02*
X206192667Y-103241961D01*
X206192667Y-103241961D02*
X206145048Y-103146723D01*
X206145048Y-103146723D02*
X206097429Y-102956247D01*
X206097429Y-102956247D02*
X206097429Y-102813390D01*
X206097429Y-102813390D02*
X206145048Y-102622914D01*
X206145048Y-102622914D02*
X206192667Y-102527676D01*
X206192667Y-102527676D02*
X206287905Y-102432438D01*
X206287905Y-102432438D02*
X206430762Y-102384819D01*
X206430762Y-102384819D02*
X206526000Y-102384819D01*
X206526000Y-102384819D02*
X206668857Y-102432438D01*
X206668857Y-102432438D02*
X206716476Y-102480057D01*
X207097429Y-102480057D02*
X207145048Y-102432438D01*
X207145048Y-102432438D02*
X207240286Y-102384819D01*
X207240286Y-102384819D02*
X207478381Y-102384819D01*
X207478381Y-102384819D02*
X207573619Y-102432438D01*
X207573619Y-102432438D02*
X207621238Y-102480057D01*
X207621238Y-102480057D02*
X207668857Y-102575295D01*
X207668857Y-102575295D02*
X207668857Y-102670533D01*
X207668857Y-102670533D02*
X207621238Y-102813390D01*
X207621238Y-102813390D02*
X207049810Y-103384819D01*
X207049810Y-103384819D02*
X207668857Y-103384819D01*
X197655762Y-113884819D02*
X197655762Y-112884819D01*
X197655762Y-112884819D02*
X198036714Y-112884819D01*
X198036714Y-112884819D02*
X198131952Y-112932438D01*
X198131952Y-112932438D02*
X198179571Y-112980057D01*
X198179571Y-112980057D02*
X198227190Y-113075295D01*
X198227190Y-113075295D02*
X198227190Y-113218152D01*
X198227190Y-113218152D02*
X198179571Y-113313390D01*
X198179571Y-113313390D02*
X198131952Y-113361009D01*
X198131952Y-113361009D02*
X198036714Y-113408628D01*
X198036714Y-113408628D02*
X197655762Y-113408628D01*
X199179571Y-113884819D02*
X198608143Y-113884819D01*
X198893857Y-113884819D02*
X198893857Y-112884819D01*
X198893857Y-112884819D02*
X198798619Y-113027676D01*
X198798619Y-113027676D02*
X198703381Y-113122914D01*
X198703381Y-113122914D02*
X198608143Y-113170533D01*
X199370048Y-113980057D02*
X200131952Y-113980057D01*
X200941476Y-113789580D02*
X200893857Y-113837200D01*
X200893857Y-113837200D02*
X200751000Y-113884819D01*
X200751000Y-113884819D02*
X200655762Y-113884819D01*
X200655762Y-113884819D02*
X200512905Y-113837200D01*
X200512905Y-113837200D02*
X200417667Y-113741961D01*
X200417667Y-113741961D02*
X200370048Y-113646723D01*
X200370048Y-113646723D02*
X200322429Y-113456247D01*
X200322429Y-113456247D02*
X200322429Y-113313390D01*
X200322429Y-113313390D02*
X200370048Y-113122914D01*
X200370048Y-113122914D02*
X200417667Y-113027676D01*
X200417667Y-113027676D02*
X200512905Y-112932438D01*
X200512905Y-112932438D02*
X200655762Y-112884819D01*
X200655762Y-112884819D02*
X200751000Y-112884819D01*
X200751000Y-112884819D02*
X200893857Y-112932438D01*
X200893857Y-112932438D02*
X200941476Y-112980057D01*
X201893857Y-113884819D02*
X201322429Y-113884819D01*
X201608143Y-113884819D02*
X201608143Y-112884819D01*
X201608143Y-112884819D02*
X201512905Y-113027676D01*
X201512905Y-113027676D02*
X201417667Y-113122914D01*
X201417667Y-113122914D02*
X201322429Y-113170533D01*
X135604819Y-116023809D02*
X135604819Y-116499999D01*
X135604819Y-116499999D02*
X134604819Y-116499999D01*
X135700057Y-115928571D02*
X135700057Y-115166666D01*
X135604819Y-114357142D02*
X135128628Y-114690475D01*
X135604819Y-114928570D02*
X134604819Y-114928570D01*
X134604819Y-114928570D02*
X134604819Y-114547618D01*
X134604819Y-114547618D02*
X134652438Y-114452380D01*
X134652438Y-114452380D02*
X134700057Y-114404761D01*
X134700057Y-114404761D02*
X134795295Y-114357142D01*
X134795295Y-114357142D02*
X134938152Y-114357142D01*
X134938152Y-114357142D02*
X135033390Y-114404761D01*
X135033390Y-114404761D02*
X135081009Y-114452380D01*
X135081009Y-114452380D02*
X135128628Y-114547618D01*
X135128628Y-114547618D02*
X135128628Y-114928570D01*
X135604819Y-113404761D02*
X135604819Y-113976189D01*
X135604819Y-113690475D02*
X134604819Y-113690475D01*
X134604819Y-113690475D02*
X134747676Y-113785713D01*
X134747676Y-113785713D02*
X134842914Y-113880951D01*
X134842914Y-113880951D02*
X134890533Y-113976189D01*
X134604819Y-113071427D02*
X134604819Y-112452380D01*
X134604819Y-112452380D02*
X134985771Y-112785713D01*
X134985771Y-112785713D02*
X134985771Y-112642856D01*
X134985771Y-112642856D02*
X135033390Y-112547618D01*
X135033390Y-112547618D02*
X135081009Y-112499999D01*
X135081009Y-112499999D02*
X135176247Y-112452380D01*
X135176247Y-112452380D02*
X135414342Y-112452380D01*
X135414342Y-112452380D02*
X135509580Y-112499999D01*
X135509580Y-112499999D02*
X135557200Y-112547618D01*
X135557200Y-112547618D02*
X135604819Y-112642856D01*
X135604819Y-112642856D02*
X135604819Y-112928570D01*
X135604819Y-112928570D02*
X135557200Y-113023808D01*
X135557200Y-113023808D02*
X135509580Y-113071427D01*
X210305819Y-118547619D02*
X210305819Y-119023809D01*
X210305819Y-119023809D02*
X209305819Y-119023809D01*
X210401057Y-118452381D02*
X210401057Y-117690476D01*
X210305819Y-116880952D02*
X209829628Y-117214285D01*
X210305819Y-117452380D02*
X209305819Y-117452380D01*
X209305819Y-117452380D02*
X209305819Y-117071428D01*
X209305819Y-117071428D02*
X209353438Y-116976190D01*
X209353438Y-116976190D02*
X209401057Y-116928571D01*
X209401057Y-116928571D02*
X209496295Y-116880952D01*
X209496295Y-116880952D02*
X209639152Y-116880952D01*
X209639152Y-116880952D02*
X209734390Y-116928571D01*
X209734390Y-116928571D02*
X209782009Y-116976190D01*
X209782009Y-116976190D02*
X209829628Y-117071428D01*
X209829628Y-117071428D02*
X209829628Y-117452380D01*
X210305819Y-115928571D02*
X210305819Y-116499999D01*
X210305819Y-116214285D02*
X209305819Y-116214285D01*
X209305819Y-116214285D02*
X209448676Y-116309523D01*
X209448676Y-116309523D02*
X209543914Y-116404761D01*
X209543914Y-116404761D02*
X209591533Y-116499999D01*
X130607142Y-123679580D02*
X130559523Y-123727200D01*
X130559523Y-123727200D02*
X130416666Y-123774819D01*
X130416666Y-123774819D02*
X130321428Y-123774819D01*
X130321428Y-123774819D02*
X130178571Y-123727200D01*
X130178571Y-123727200D02*
X130083333Y-123631961D01*
X130083333Y-123631961D02*
X130035714Y-123536723D01*
X130035714Y-123536723D02*
X129988095Y-123346247D01*
X129988095Y-123346247D02*
X129988095Y-123203390D01*
X129988095Y-123203390D02*
X130035714Y-123012914D01*
X130035714Y-123012914D02*
X130083333Y-122917676D01*
X130083333Y-122917676D02*
X130178571Y-122822438D01*
X130178571Y-122822438D02*
X130321428Y-122774819D01*
X130321428Y-122774819D02*
X130416666Y-122774819D01*
X130416666Y-122774819D02*
X130559523Y-122822438D01*
X130559523Y-122822438D02*
X130607142Y-122870057D01*
X131559523Y-123774819D02*
X130988095Y-123774819D01*
X131273809Y-123774819D02*
X131273809Y-122774819D01*
X131273809Y-122774819D02*
X131178571Y-122917676D01*
X131178571Y-122917676D02*
X131083333Y-123012914D01*
X131083333Y-123012914D02*
X130988095Y-123060533D01*
X132511904Y-123774819D02*
X131940476Y-123774819D01*
X132226190Y-123774819D02*
X132226190Y-122774819D01*
X132226190Y-122774819D02*
X132130952Y-122917676D01*
X132130952Y-122917676D02*
X132035714Y-123012914D01*
X132035714Y-123012914D02*
X131940476Y-123060533D01*
X165039580Y-123129166D02*
X165087200Y-123176785D01*
X165087200Y-123176785D02*
X165134819Y-123319642D01*
X165134819Y-123319642D02*
X165134819Y-123414880D01*
X165134819Y-123414880D02*
X165087200Y-123557737D01*
X165087200Y-123557737D02*
X164991961Y-123652975D01*
X164991961Y-123652975D02*
X164896723Y-123700594D01*
X164896723Y-123700594D02*
X164706247Y-123748213D01*
X164706247Y-123748213D02*
X164563390Y-123748213D01*
X164563390Y-123748213D02*
X164372914Y-123700594D01*
X164372914Y-123700594D02*
X164277676Y-123652975D01*
X164277676Y-123652975D02*
X164182438Y-123557737D01*
X164182438Y-123557737D02*
X164134819Y-123414880D01*
X164134819Y-123414880D02*
X164134819Y-123319642D01*
X164134819Y-123319642D02*
X164182438Y-123176785D01*
X164182438Y-123176785D02*
X164230057Y-123129166D01*
X164563390Y-122557737D02*
X164515771Y-122652975D01*
X164515771Y-122652975D02*
X164468152Y-122700594D01*
X164468152Y-122700594D02*
X164372914Y-122748213D01*
X164372914Y-122748213D02*
X164325295Y-122748213D01*
X164325295Y-122748213D02*
X164230057Y-122700594D01*
X164230057Y-122700594D02*
X164182438Y-122652975D01*
X164182438Y-122652975D02*
X164134819Y-122557737D01*
X164134819Y-122557737D02*
X164134819Y-122367261D01*
X164134819Y-122367261D02*
X164182438Y-122272023D01*
X164182438Y-122272023D02*
X164230057Y-122224404D01*
X164230057Y-122224404D02*
X164325295Y-122176785D01*
X164325295Y-122176785D02*
X164372914Y-122176785D01*
X164372914Y-122176785D02*
X164468152Y-122224404D01*
X164468152Y-122224404D02*
X164515771Y-122272023D01*
X164515771Y-122272023D02*
X164563390Y-122367261D01*
X164563390Y-122367261D02*
X164563390Y-122557737D01*
X164563390Y-122557737D02*
X164611009Y-122652975D01*
X164611009Y-122652975D02*
X164658628Y-122700594D01*
X164658628Y-122700594D02*
X164753866Y-122748213D01*
X164753866Y-122748213D02*
X164944342Y-122748213D01*
X164944342Y-122748213D02*
X165039580Y-122700594D01*
X165039580Y-122700594D02*
X165087200Y-122652975D01*
X165087200Y-122652975D02*
X165134819Y-122557737D01*
X165134819Y-122557737D02*
X165134819Y-122367261D01*
X165134819Y-122367261D02*
X165087200Y-122272023D01*
X165087200Y-122272023D02*
X165039580Y-122224404D01*
X165039580Y-122224404D02*
X164944342Y-122176785D01*
X164944342Y-122176785D02*
X164753866Y-122176785D01*
X164753866Y-122176785D02*
X164658628Y-122224404D01*
X164658628Y-122224404D02*
X164611009Y-122272023D01*
X164611009Y-122272023D02*
X164563390Y-122367261D01*
X124833333Y-130079580D02*
X124785714Y-130127200D01*
X124785714Y-130127200D02*
X124642857Y-130174819D01*
X124642857Y-130174819D02*
X124547619Y-130174819D01*
X124547619Y-130174819D02*
X124404762Y-130127200D01*
X124404762Y-130127200D02*
X124309524Y-130031961D01*
X124309524Y-130031961D02*
X124261905Y-129936723D01*
X124261905Y-129936723D02*
X124214286Y-129746247D01*
X124214286Y-129746247D02*
X124214286Y-129603390D01*
X124214286Y-129603390D02*
X124261905Y-129412914D01*
X124261905Y-129412914D02*
X124309524Y-129317676D01*
X124309524Y-129317676D02*
X124404762Y-129222438D01*
X124404762Y-129222438D02*
X124547619Y-129174819D01*
X124547619Y-129174819D02*
X124642857Y-129174819D01*
X124642857Y-129174819D02*
X124785714Y-129222438D01*
X124785714Y-129222438D02*
X124833333Y-129270057D01*
X125166667Y-129174819D02*
X125833333Y-129174819D01*
X125833333Y-129174819D02*
X125404762Y-130174819D01*
X168913095Y-99781009D02*
X169055952Y-99828628D01*
X169055952Y-99828628D02*
X169103571Y-99876247D01*
X169103571Y-99876247D02*
X169151190Y-99971485D01*
X169151190Y-99971485D02*
X169151190Y-100114342D01*
X169151190Y-100114342D02*
X169103571Y-100209580D01*
X169103571Y-100209580D02*
X169055952Y-100257200D01*
X169055952Y-100257200D02*
X168960714Y-100304819D01*
X168960714Y-100304819D02*
X168579762Y-100304819D01*
X168579762Y-100304819D02*
X168579762Y-99304819D01*
X168579762Y-99304819D02*
X168913095Y-99304819D01*
X168913095Y-99304819D02*
X169008333Y-99352438D01*
X169008333Y-99352438D02*
X169055952Y-99400057D01*
X169055952Y-99400057D02*
X169103571Y-99495295D01*
X169103571Y-99495295D02*
X169103571Y-99590533D01*
X169103571Y-99590533D02*
X169055952Y-99685771D01*
X169055952Y-99685771D02*
X169008333Y-99733390D01*
X169008333Y-99733390D02*
X168913095Y-99781009D01*
X168913095Y-99781009D02*
X168579762Y-99781009D01*
X169341667Y-100400057D02*
X170103571Y-100400057D01*
X170913095Y-100304819D02*
X170579762Y-99828628D01*
X170341667Y-100304819D02*
X170341667Y-99304819D01*
X170341667Y-99304819D02*
X170722619Y-99304819D01*
X170722619Y-99304819D02*
X170817857Y-99352438D01*
X170817857Y-99352438D02*
X170865476Y-99400057D01*
X170865476Y-99400057D02*
X170913095Y-99495295D01*
X170913095Y-99495295D02*
X170913095Y-99638152D01*
X170913095Y-99638152D02*
X170865476Y-99733390D01*
X170865476Y-99733390D02*
X170817857Y-99781009D01*
X170817857Y-99781009D02*
X170722619Y-99828628D01*
X170722619Y-99828628D02*
X170341667Y-99828628D01*
X171865476Y-100304819D02*
X171294048Y-100304819D01*
X171579762Y-100304819D02*
X171579762Y-99304819D01*
X171579762Y-99304819D02*
X171484524Y-99447676D01*
X171484524Y-99447676D02*
X171389286Y-99542914D01*
X171389286Y-99542914D02*
X171294048Y-99590533D01*
X172484524Y-99304819D02*
X172579762Y-99304819D01*
X172579762Y-99304819D02*
X172675000Y-99352438D01*
X172675000Y-99352438D02*
X172722619Y-99400057D01*
X172722619Y-99400057D02*
X172770238Y-99495295D01*
X172770238Y-99495295D02*
X172817857Y-99685771D01*
X172817857Y-99685771D02*
X172817857Y-99923866D01*
X172817857Y-99923866D02*
X172770238Y-100114342D01*
X172770238Y-100114342D02*
X172722619Y-100209580D01*
X172722619Y-100209580D02*
X172675000Y-100257200D01*
X172675000Y-100257200D02*
X172579762Y-100304819D01*
X172579762Y-100304819D02*
X172484524Y-100304819D01*
X172484524Y-100304819D02*
X172389286Y-100257200D01*
X172389286Y-100257200D02*
X172341667Y-100209580D01*
X172341667Y-100209580D02*
X172294048Y-100114342D01*
X172294048Y-100114342D02*
X172246429Y-99923866D01*
X172246429Y-99923866D02*
X172246429Y-99685771D01*
X172246429Y-99685771D02*
X172294048Y-99495295D01*
X172294048Y-99495295D02*
X172341667Y-99400057D01*
X172341667Y-99400057D02*
X172389286Y-99352438D01*
X172389286Y-99352438D02*
X172484524Y-99304819D01*
X183389285Y-100281009D02*
X183532142Y-100328628D01*
X183532142Y-100328628D02*
X183579761Y-100376247D01*
X183579761Y-100376247D02*
X183627380Y-100471485D01*
X183627380Y-100471485D02*
X183627380Y-100614342D01*
X183627380Y-100614342D02*
X183579761Y-100709580D01*
X183579761Y-100709580D02*
X183532142Y-100757200D01*
X183532142Y-100757200D02*
X183436904Y-100804819D01*
X183436904Y-100804819D02*
X183055952Y-100804819D01*
X183055952Y-100804819D02*
X183055952Y-99804819D01*
X183055952Y-99804819D02*
X183389285Y-99804819D01*
X183389285Y-99804819D02*
X183484523Y-99852438D01*
X183484523Y-99852438D02*
X183532142Y-99900057D01*
X183532142Y-99900057D02*
X183579761Y-99995295D01*
X183579761Y-99995295D02*
X183579761Y-100090533D01*
X183579761Y-100090533D02*
X183532142Y-100185771D01*
X183532142Y-100185771D02*
X183484523Y-100233390D01*
X183484523Y-100233390D02*
X183389285Y-100281009D01*
X183389285Y-100281009D02*
X183055952Y-100281009D01*
X183817857Y-100900057D02*
X184579761Y-100900057D01*
X185389285Y-100804819D02*
X185055952Y-100328628D01*
X184817857Y-100804819D02*
X184817857Y-99804819D01*
X184817857Y-99804819D02*
X185198809Y-99804819D01*
X185198809Y-99804819D02*
X185294047Y-99852438D01*
X185294047Y-99852438D02*
X185341666Y-99900057D01*
X185341666Y-99900057D02*
X185389285Y-99995295D01*
X185389285Y-99995295D02*
X185389285Y-100138152D01*
X185389285Y-100138152D02*
X185341666Y-100233390D01*
X185341666Y-100233390D02*
X185294047Y-100281009D01*
X185294047Y-100281009D02*
X185198809Y-100328628D01*
X185198809Y-100328628D02*
X184817857Y-100328628D01*
X186246428Y-99804819D02*
X186055952Y-99804819D01*
X186055952Y-99804819D02*
X185960714Y-99852438D01*
X185960714Y-99852438D02*
X185913095Y-99900057D01*
X185913095Y-99900057D02*
X185817857Y-100042914D01*
X185817857Y-100042914D02*
X185770238Y-100233390D01*
X185770238Y-100233390D02*
X185770238Y-100614342D01*
X185770238Y-100614342D02*
X185817857Y-100709580D01*
X185817857Y-100709580D02*
X185865476Y-100757200D01*
X185865476Y-100757200D02*
X185960714Y-100804819D01*
X185960714Y-100804819D02*
X186151190Y-100804819D01*
X186151190Y-100804819D02*
X186246428Y-100757200D01*
X186246428Y-100757200D02*
X186294047Y-100709580D01*
X186294047Y-100709580D02*
X186341666Y-100614342D01*
X186341666Y-100614342D02*
X186341666Y-100376247D01*
X186341666Y-100376247D02*
X186294047Y-100281009D01*
X186294047Y-100281009D02*
X186246428Y-100233390D01*
X186246428Y-100233390D02*
X186151190Y-100185771D01*
X186151190Y-100185771D02*
X185960714Y-100185771D01*
X185960714Y-100185771D02*
X185865476Y-100233390D01*
X185865476Y-100233390D02*
X185817857Y-100281009D01*
X185817857Y-100281009D02*
X185770238Y-100376247D01*
X141700595Y-126111009D02*
X141843452Y-126158628D01*
X141843452Y-126158628D02*
X141891071Y-126206247D01*
X141891071Y-126206247D02*
X141938690Y-126301485D01*
X141938690Y-126301485D02*
X141938690Y-126444342D01*
X141938690Y-126444342D02*
X141891071Y-126539580D01*
X141891071Y-126539580D02*
X141843452Y-126587200D01*
X141843452Y-126587200D02*
X141748214Y-126634819D01*
X141748214Y-126634819D02*
X141367262Y-126634819D01*
X141367262Y-126634819D02*
X141367262Y-125634819D01*
X141367262Y-125634819D02*
X141700595Y-125634819D01*
X141700595Y-125634819D02*
X141795833Y-125682438D01*
X141795833Y-125682438D02*
X141843452Y-125730057D01*
X141843452Y-125730057D02*
X141891071Y-125825295D01*
X141891071Y-125825295D02*
X141891071Y-125920533D01*
X141891071Y-125920533D02*
X141843452Y-126015771D01*
X141843452Y-126015771D02*
X141795833Y-126063390D01*
X141795833Y-126063390D02*
X141700595Y-126111009D01*
X141700595Y-126111009D02*
X141367262Y-126111009D01*
X142129167Y-126730057D02*
X142891071Y-126730057D01*
X143700595Y-126539580D02*
X143652976Y-126587200D01*
X143652976Y-126587200D02*
X143510119Y-126634819D01*
X143510119Y-126634819D02*
X143414881Y-126634819D01*
X143414881Y-126634819D02*
X143272024Y-126587200D01*
X143272024Y-126587200D02*
X143176786Y-126491961D01*
X143176786Y-126491961D02*
X143129167Y-126396723D01*
X143129167Y-126396723D02*
X143081548Y-126206247D01*
X143081548Y-126206247D02*
X143081548Y-126063390D01*
X143081548Y-126063390D02*
X143129167Y-125872914D01*
X143129167Y-125872914D02*
X143176786Y-125777676D01*
X143176786Y-125777676D02*
X143272024Y-125682438D01*
X143272024Y-125682438D02*
X143414881Y-125634819D01*
X143414881Y-125634819D02*
X143510119Y-125634819D01*
X143510119Y-125634819D02*
X143652976Y-125682438D01*
X143652976Y-125682438D02*
X143700595Y-125730057D01*
X144081548Y-125730057D02*
X144129167Y-125682438D01*
X144129167Y-125682438D02*
X144224405Y-125634819D01*
X144224405Y-125634819D02*
X144462500Y-125634819D01*
X144462500Y-125634819D02*
X144557738Y-125682438D01*
X144557738Y-125682438D02*
X144605357Y-125730057D01*
X144605357Y-125730057D02*
X144652976Y-125825295D01*
X144652976Y-125825295D02*
X144652976Y-125920533D01*
X144652976Y-125920533D02*
X144605357Y-126063390D01*
X144605357Y-126063390D02*
X144033929Y-126634819D01*
X144033929Y-126634819D02*
X144652976Y-126634819D01*
X145605357Y-126634819D02*
X145033929Y-126634819D01*
X145319643Y-126634819D02*
X145319643Y-125634819D01*
X145319643Y-125634819D02*
X145224405Y-125777676D01*
X145224405Y-125777676D02*
X145129167Y-125872914D01*
X145129167Y-125872914D02*
X145033929Y-125920533D01*
X163213095Y-94251009D02*
X163355952Y-94298628D01*
X163355952Y-94298628D02*
X163403571Y-94346247D01*
X163403571Y-94346247D02*
X163451190Y-94441485D01*
X163451190Y-94441485D02*
X163451190Y-94584342D01*
X163451190Y-94584342D02*
X163403571Y-94679580D01*
X163403571Y-94679580D02*
X163355952Y-94727200D01*
X163355952Y-94727200D02*
X163260714Y-94774819D01*
X163260714Y-94774819D02*
X162879762Y-94774819D01*
X162879762Y-94774819D02*
X162879762Y-93774819D01*
X162879762Y-93774819D02*
X163213095Y-93774819D01*
X163213095Y-93774819D02*
X163308333Y-93822438D01*
X163308333Y-93822438D02*
X163355952Y-93870057D01*
X163355952Y-93870057D02*
X163403571Y-93965295D01*
X163403571Y-93965295D02*
X163403571Y-94060533D01*
X163403571Y-94060533D02*
X163355952Y-94155771D01*
X163355952Y-94155771D02*
X163308333Y-94203390D01*
X163308333Y-94203390D02*
X163213095Y-94251009D01*
X163213095Y-94251009D02*
X162879762Y-94251009D01*
X163641667Y-94870057D02*
X164403571Y-94870057D01*
X165213095Y-94679580D02*
X165165476Y-94727200D01*
X165165476Y-94727200D02*
X165022619Y-94774819D01*
X165022619Y-94774819D02*
X164927381Y-94774819D01*
X164927381Y-94774819D02*
X164784524Y-94727200D01*
X164784524Y-94727200D02*
X164689286Y-94631961D01*
X164689286Y-94631961D02*
X164641667Y-94536723D01*
X164641667Y-94536723D02*
X164594048Y-94346247D01*
X164594048Y-94346247D02*
X164594048Y-94203390D01*
X164594048Y-94203390D02*
X164641667Y-94012914D01*
X164641667Y-94012914D02*
X164689286Y-93917676D01*
X164689286Y-93917676D02*
X164784524Y-93822438D01*
X164784524Y-93822438D02*
X164927381Y-93774819D01*
X164927381Y-93774819D02*
X165022619Y-93774819D01*
X165022619Y-93774819D02*
X165165476Y-93822438D01*
X165165476Y-93822438D02*
X165213095Y-93870057D01*
X165594048Y-93870057D02*
X165641667Y-93822438D01*
X165641667Y-93822438D02*
X165736905Y-93774819D01*
X165736905Y-93774819D02*
X165975000Y-93774819D01*
X165975000Y-93774819D02*
X166070238Y-93822438D01*
X166070238Y-93822438D02*
X166117857Y-93870057D01*
X166117857Y-93870057D02*
X166165476Y-93965295D01*
X166165476Y-93965295D02*
X166165476Y-94060533D01*
X166165476Y-94060533D02*
X166117857Y-94203390D01*
X166117857Y-94203390D02*
X165546429Y-94774819D01*
X165546429Y-94774819D02*
X166165476Y-94774819D01*
X166784524Y-93774819D02*
X166879762Y-93774819D01*
X166879762Y-93774819D02*
X166975000Y-93822438D01*
X166975000Y-93822438D02*
X167022619Y-93870057D01*
X167022619Y-93870057D02*
X167070238Y-93965295D01*
X167070238Y-93965295D02*
X167117857Y-94155771D01*
X167117857Y-94155771D02*
X167117857Y-94393866D01*
X167117857Y-94393866D02*
X167070238Y-94584342D01*
X167070238Y-94584342D02*
X167022619Y-94679580D01*
X167022619Y-94679580D02*
X166975000Y-94727200D01*
X166975000Y-94727200D02*
X166879762Y-94774819D01*
X166879762Y-94774819D02*
X166784524Y-94774819D01*
X166784524Y-94774819D02*
X166689286Y-94727200D01*
X166689286Y-94727200D02*
X166641667Y-94679580D01*
X166641667Y-94679580D02*
X166594048Y-94584342D01*
X166594048Y-94584342D02*
X166546429Y-94393866D01*
X166546429Y-94393866D02*
X166546429Y-94155771D01*
X166546429Y-94155771D02*
X166594048Y-93965295D01*
X166594048Y-93965295D02*
X166641667Y-93870057D01*
X166641667Y-93870057D02*
X166689286Y-93822438D01*
X166689286Y-93822438D02*
X166784524Y-93774819D01*
X168291128Y-125194047D02*
X168243509Y-125241666D01*
X168243509Y-125241666D02*
X168195890Y-125336904D01*
X168195890Y-125336904D02*
X168195890Y-125432142D01*
X168195890Y-125432142D02*
X168243509Y-125527380D01*
X168243509Y-125527380D02*
X168291128Y-125574999D01*
X168291128Y-125574999D02*
X168386366Y-125622618D01*
X168386366Y-125622618D02*
X168481604Y-125622618D01*
X168481604Y-125622618D02*
X168576842Y-125574999D01*
X168576842Y-125574999D02*
X168624461Y-125527380D01*
X168624461Y-125527380D02*
X168672080Y-125432142D01*
X168672080Y-125432142D02*
X168672080Y-125336904D01*
X168672080Y-125336904D02*
X168624461Y-125241666D01*
X168624461Y-125241666D02*
X168576842Y-125194047D01*
X168195890Y-125194047D02*
X168576842Y-125194047D01*
X168576842Y-125194047D02*
X168624461Y-125146428D01*
X168624461Y-125146428D02*
X168624461Y-125098809D01*
X168624461Y-125098809D02*
X168576842Y-125003570D01*
X168576842Y-125003570D02*
X168481604Y-124955951D01*
X168481604Y-124955951D02*
X168243509Y-124955951D01*
X168243509Y-124955951D02*
X168100652Y-125051190D01*
X168100652Y-125051190D02*
X168005414Y-125194047D01*
X168005414Y-125194047D02*
X167957795Y-125384523D01*
X167957795Y-125384523D02*
X168005414Y-125574999D01*
X168005414Y-125574999D02*
X168100652Y-125717856D01*
X168100652Y-125717856D02*
X168243509Y-125813094D01*
X168243509Y-125813094D02*
X168433985Y-125860713D01*
X168433985Y-125860713D02*
X168624461Y-125813094D01*
X168624461Y-125813094D02*
X168767319Y-125717856D01*
X168767319Y-125717856D02*
X168862557Y-125574999D01*
X168862557Y-125574999D02*
X168910176Y-125384523D01*
X168910176Y-125384523D02*
X168862557Y-125194047D01*
X168862557Y-125194047D02*
X168767319Y-125051190D01*
X168767319Y-124527380D02*
X167767319Y-124527380D01*
X167767319Y-124527380D02*
X167767319Y-124146428D01*
X167767319Y-124146428D02*
X167814938Y-124051190D01*
X167814938Y-124051190D02*
X167862557Y-124003571D01*
X167862557Y-124003571D02*
X167957795Y-123955952D01*
X167957795Y-123955952D02*
X168100652Y-123955952D01*
X168100652Y-123955952D02*
X168195890Y-124003571D01*
X168195890Y-124003571D02*
X168243509Y-124051190D01*
X168243509Y-124051190D02*
X168291128Y-124146428D01*
X168291128Y-124146428D02*
X168291128Y-124527380D01*
X168862557Y-123765476D02*
X168862557Y-123003571D01*
X168767319Y-122194047D02*
X168291128Y-122527380D01*
X168767319Y-122765475D02*
X167767319Y-122765475D01*
X167767319Y-122765475D02*
X167767319Y-122384523D01*
X167767319Y-122384523D02*
X167814938Y-122289285D01*
X167814938Y-122289285D02*
X167862557Y-122241666D01*
X167862557Y-122241666D02*
X167957795Y-122194047D01*
X167957795Y-122194047D02*
X168100652Y-122194047D01*
X168100652Y-122194047D02*
X168195890Y-122241666D01*
X168195890Y-122241666D02*
X168243509Y-122289285D01*
X168243509Y-122289285D02*
X168291128Y-122384523D01*
X168291128Y-122384523D02*
X168291128Y-122765475D01*
X168767319Y-121241666D02*
X168767319Y-121813094D01*
X168767319Y-121527380D02*
X167767319Y-121527380D01*
X167767319Y-121527380D02*
X167910176Y-121622618D01*
X167910176Y-121622618D02*
X168005414Y-121717856D01*
X168005414Y-121717856D02*
X168053033Y-121813094D01*
X168100652Y-120384523D02*
X168767319Y-120384523D01*
X167719700Y-120622618D02*
X168433985Y-120860713D01*
X168433985Y-120860713D02*
X168433985Y-120241666D01*
X171798628Y-125156547D02*
X171751009Y-125204166D01*
X171751009Y-125204166D02*
X171703390Y-125299404D01*
X171703390Y-125299404D02*
X171703390Y-125394642D01*
X171703390Y-125394642D02*
X171751009Y-125489880D01*
X171751009Y-125489880D02*
X171798628Y-125537499D01*
X171798628Y-125537499D02*
X171893866Y-125585118D01*
X171893866Y-125585118D02*
X171989104Y-125585118D01*
X171989104Y-125585118D02*
X172084342Y-125537499D01*
X172084342Y-125537499D02*
X172131961Y-125489880D01*
X172131961Y-125489880D02*
X172179580Y-125394642D01*
X172179580Y-125394642D02*
X172179580Y-125299404D01*
X172179580Y-125299404D02*
X172131961Y-125204166D01*
X172131961Y-125204166D02*
X172084342Y-125156547D01*
X171703390Y-125156547D02*
X172084342Y-125156547D01*
X172084342Y-125156547D02*
X172131961Y-125108928D01*
X172131961Y-125108928D02*
X172131961Y-125061309D01*
X172131961Y-125061309D02*
X172084342Y-124966070D01*
X172084342Y-124966070D02*
X171989104Y-124918451D01*
X171989104Y-124918451D02*
X171751009Y-124918451D01*
X171751009Y-124918451D02*
X171608152Y-125013690D01*
X171608152Y-125013690D02*
X171512914Y-125156547D01*
X171512914Y-125156547D02*
X171465295Y-125347023D01*
X171465295Y-125347023D02*
X171512914Y-125537499D01*
X171512914Y-125537499D02*
X171608152Y-125680356D01*
X171608152Y-125680356D02*
X171751009Y-125775594D01*
X171751009Y-125775594D02*
X171941485Y-125823213D01*
X171941485Y-125823213D02*
X172131961Y-125775594D01*
X172131961Y-125775594D02*
X172274819Y-125680356D01*
X172274819Y-125680356D02*
X172370057Y-125537499D01*
X172370057Y-125537499D02*
X172417676Y-125347023D01*
X172417676Y-125347023D02*
X172370057Y-125156547D01*
X172370057Y-125156547D02*
X172274819Y-125013690D01*
X172274819Y-124489880D02*
X171274819Y-124489880D01*
X171274819Y-124489880D02*
X171274819Y-124108928D01*
X171274819Y-124108928D02*
X171322438Y-124013690D01*
X171322438Y-124013690D02*
X171370057Y-123966071D01*
X171370057Y-123966071D02*
X171465295Y-123918452D01*
X171465295Y-123918452D02*
X171608152Y-123918452D01*
X171608152Y-123918452D02*
X171703390Y-123966071D01*
X171703390Y-123966071D02*
X171751009Y-124013690D01*
X171751009Y-124013690D02*
X171798628Y-124108928D01*
X171798628Y-124108928D02*
X171798628Y-124489880D01*
X172370057Y-123727976D02*
X172370057Y-122966071D01*
X172179580Y-122156547D02*
X172227200Y-122204166D01*
X172227200Y-122204166D02*
X172274819Y-122347023D01*
X172274819Y-122347023D02*
X172274819Y-122442261D01*
X172274819Y-122442261D02*
X172227200Y-122585118D01*
X172227200Y-122585118D02*
X172131961Y-122680356D01*
X172131961Y-122680356D02*
X172036723Y-122727975D01*
X172036723Y-122727975D02*
X171846247Y-122775594D01*
X171846247Y-122775594D02*
X171703390Y-122775594D01*
X171703390Y-122775594D02*
X171512914Y-122727975D01*
X171512914Y-122727975D02*
X171417676Y-122680356D01*
X171417676Y-122680356D02*
X171322438Y-122585118D01*
X171322438Y-122585118D02*
X171274819Y-122442261D01*
X171274819Y-122442261D02*
X171274819Y-122347023D01*
X171274819Y-122347023D02*
X171322438Y-122204166D01*
X171322438Y-122204166D02*
X171370057Y-122156547D01*
X172274819Y-121204166D02*
X172274819Y-121775594D01*
X172274819Y-121489880D02*
X171274819Y-121489880D01*
X171274819Y-121489880D02*
X171417676Y-121585118D01*
X171417676Y-121585118D02*
X171512914Y-121680356D01*
X171512914Y-121680356D02*
X171560533Y-121775594D01*
X172274819Y-120727975D02*
X172274819Y-120537499D01*
X172274819Y-120537499D02*
X172227200Y-120442261D01*
X172227200Y-120442261D02*
X172179580Y-120394642D01*
X172179580Y-120394642D02*
X172036723Y-120299404D01*
X172036723Y-120299404D02*
X171846247Y-120251785D01*
X171846247Y-120251785D02*
X171465295Y-120251785D01*
X171465295Y-120251785D02*
X171370057Y-120299404D01*
X171370057Y-120299404D02*
X171322438Y-120347023D01*
X171322438Y-120347023D02*
X171274819Y-120442261D01*
X171274819Y-120442261D02*
X171274819Y-120632737D01*
X171274819Y-120632737D02*
X171322438Y-120727975D01*
X171322438Y-120727975D02*
X171370057Y-120775594D01*
X171370057Y-120775594D02*
X171465295Y-120823213D01*
X171465295Y-120823213D02*
X171703390Y-120823213D01*
X171703390Y-120823213D02*
X171798628Y-120775594D01*
X171798628Y-120775594D02*
X171846247Y-120727975D01*
X171846247Y-120727975D02*
X171893866Y-120632737D01*
X171893866Y-120632737D02*
X171893866Y-120442261D01*
X171893866Y-120442261D02*
X171846247Y-120347023D01*
X171846247Y-120347023D02*
X171798628Y-120299404D01*
X171798628Y-120299404D02*
X171703390Y-120251785D01*
X170128628Y-118156547D02*
X170081009Y-118204166D01*
X170081009Y-118204166D02*
X170033390Y-118299404D01*
X170033390Y-118299404D02*
X170033390Y-118394642D01*
X170033390Y-118394642D02*
X170081009Y-118489880D01*
X170081009Y-118489880D02*
X170128628Y-118537499D01*
X170128628Y-118537499D02*
X170223866Y-118585118D01*
X170223866Y-118585118D02*
X170319104Y-118585118D01*
X170319104Y-118585118D02*
X170414342Y-118537499D01*
X170414342Y-118537499D02*
X170461961Y-118489880D01*
X170461961Y-118489880D02*
X170509580Y-118394642D01*
X170509580Y-118394642D02*
X170509580Y-118299404D01*
X170509580Y-118299404D02*
X170461961Y-118204166D01*
X170461961Y-118204166D02*
X170414342Y-118156547D01*
X170033390Y-118156547D02*
X170414342Y-118156547D01*
X170414342Y-118156547D02*
X170461961Y-118108928D01*
X170461961Y-118108928D02*
X170461961Y-118061309D01*
X170461961Y-118061309D02*
X170414342Y-117966070D01*
X170414342Y-117966070D02*
X170319104Y-117918451D01*
X170319104Y-117918451D02*
X170081009Y-117918451D01*
X170081009Y-117918451D02*
X169938152Y-118013690D01*
X169938152Y-118013690D02*
X169842914Y-118156547D01*
X169842914Y-118156547D02*
X169795295Y-118347023D01*
X169795295Y-118347023D02*
X169842914Y-118537499D01*
X169842914Y-118537499D02*
X169938152Y-118680356D01*
X169938152Y-118680356D02*
X170081009Y-118775594D01*
X170081009Y-118775594D02*
X170271485Y-118823213D01*
X170271485Y-118823213D02*
X170461961Y-118775594D01*
X170461961Y-118775594D02*
X170604819Y-118680356D01*
X170604819Y-118680356D02*
X170700057Y-118537499D01*
X170700057Y-118537499D02*
X170747676Y-118347023D01*
X170747676Y-118347023D02*
X170700057Y-118156547D01*
X170700057Y-118156547D02*
X170604819Y-118013690D01*
X170604819Y-117489880D02*
X169604819Y-117489880D01*
X169604819Y-117489880D02*
X169604819Y-117108928D01*
X169604819Y-117108928D02*
X169652438Y-117013690D01*
X169652438Y-117013690D02*
X169700057Y-116966071D01*
X169700057Y-116966071D02*
X169795295Y-116918452D01*
X169795295Y-116918452D02*
X169938152Y-116918452D01*
X169938152Y-116918452D02*
X170033390Y-116966071D01*
X170033390Y-116966071D02*
X170081009Y-117013690D01*
X170081009Y-117013690D02*
X170128628Y-117108928D01*
X170128628Y-117108928D02*
X170128628Y-117489880D01*
X170700057Y-116727976D02*
X170700057Y-115966071D01*
X170509580Y-115156547D02*
X170557200Y-115204166D01*
X170557200Y-115204166D02*
X170604819Y-115347023D01*
X170604819Y-115347023D02*
X170604819Y-115442261D01*
X170604819Y-115442261D02*
X170557200Y-115585118D01*
X170557200Y-115585118D02*
X170461961Y-115680356D01*
X170461961Y-115680356D02*
X170366723Y-115727975D01*
X170366723Y-115727975D02*
X170176247Y-115775594D01*
X170176247Y-115775594D02*
X170033390Y-115775594D01*
X170033390Y-115775594D02*
X169842914Y-115727975D01*
X169842914Y-115727975D02*
X169747676Y-115680356D01*
X169747676Y-115680356D02*
X169652438Y-115585118D01*
X169652438Y-115585118D02*
X169604819Y-115442261D01*
X169604819Y-115442261D02*
X169604819Y-115347023D01*
X169604819Y-115347023D02*
X169652438Y-115204166D01*
X169652438Y-115204166D02*
X169700057Y-115156547D01*
X170604819Y-114204166D02*
X170604819Y-114775594D01*
X170604819Y-114489880D02*
X169604819Y-114489880D01*
X169604819Y-114489880D02*
X169747676Y-114585118D01*
X169747676Y-114585118D02*
X169842914Y-114680356D01*
X169842914Y-114680356D02*
X169890533Y-114775594D01*
X170033390Y-113632737D02*
X169985771Y-113727975D01*
X169985771Y-113727975D02*
X169938152Y-113775594D01*
X169938152Y-113775594D02*
X169842914Y-113823213D01*
X169842914Y-113823213D02*
X169795295Y-113823213D01*
X169795295Y-113823213D02*
X169700057Y-113775594D01*
X169700057Y-113775594D02*
X169652438Y-113727975D01*
X169652438Y-113727975D02*
X169604819Y-113632737D01*
X169604819Y-113632737D02*
X169604819Y-113442261D01*
X169604819Y-113442261D02*
X169652438Y-113347023D01*
X169652438Y-113347023D02*
X169700057Y-113299404D01*
X169700057Y-113299404D02*
X169795295Y-113251785D01*
X169795295Y-113251785D02*
X169842914Y-113251785D01*
X169842914Y-113251785D02*
X169938152Y-113299404D01*
X169938152Y-113299404D02*
X169985771Y-113347023D01*
X169985771Y-113347023D02*
X170033390Y-113442261D01*
X170033390Y-113442261D02*
X170033390Y-113632737D01*
X170033390Y-113632737D02*
X170081009Y-113727975D01*
X170081009Y-113727975D02*
X170128628Y-113775594D01*
X170128628Y-113775594D02*
X170223866Y-113823213D01*
X170223866Y-113823213D02*
X170414342Y-113823213D01*
X170414342Y-113823213D02*
X170509580Y-113775594D01*
X170509580Y-113775594D02*
X170557200Y-113727975D01*
X170557200Y-113727975D02*
X170604819Y-113632737D01*
X170604819Y-113632737D02*
X170604819Y-113442261D01*
X170604819Y-113442261D02*
X170557200Y-113347023D01*
X170557200Y-113347023D02*
X170509580Y-113299404D01*
X170509580Y-113299404D02*
X170414342Y-113251785D01*
X170414342Y-113251785D02*
X170223866Y-113251785D01*
X170223866Y-113251785D02*
X170128628Y-113299404D01*
X170128628Y-113299404D02*
X170081009Y-113347023D01*
X170081009Y-113347023D02*
X170033390Y-113442261D01*
X173638628Y-118156547D02*
X173591009Y-118204166D01*
X173591009Y-118204166D02*
X173543390Y-118299404D01*
X173543390Y-118299404D02*
X173543390Y-118394642D01*
X173543390Y-118394642D02*
X173591009Y-118489880D01*
X173591009Y-118489880D02*
X173638628Y-118537499D01*
X173638628Y-118537499D02*
X173733866Y-118585118D01*
X173733866Y-118585118D02*
X173829104Y-118585118D01*
X173829104Y-118585118D02*
X173924342Y-118537499D01*
X173924342Y-118537499D02*
X173971961Y-118489880D01*
X173971961Y-118489880D02*
X174019580Y-118394642D01*
X174019580Y-118394642D02*
X174019580Y-118299404D01*
X174019580Y-118299404D02*
X173971961Y-118204166D01*
X173971961Y-118204166D02*
X173924342Y-118156547D01*
X173543390Y-118156547D02*
X173924342Y-118156547D01*
X173924342Y-118156547D02*
X173971961Y-118108928D01*
X173971961Y-118108928D02*
X173971961Y-118061309D01*
X173971961Y-118061309D02*
X173924342Y-117966070D01*
X173924342Y-117966070D02*
X173829104Y-117918451D01*
X173829104Y-117918451D02*
X173591009Y-117918451D01*
X173591009Y-117918451D02*
X173448152Y-118013690D01*
X173448152Y-118013690D02*
X173352914Y-118156547D01*
X173352914Y-118156547D02*
X173305295Y-118347023D01*
X173305295Y-118347023D02*
X173352914Y-118537499D01*
X173352914Y-118537499D02*
X173448152Y-118680356D01*
X173448152Y-118680356D02*
X173591009Y-118775594D01*
X173591009Y-118775594D02*
X173781485Y-118823213D01*
X173781485Y-118823213D02*
X173971961Y-118775594D01*
X173971961Y-118775594D02*
X174114819Y-118680356D01*
X174114819Y-118680356D02*
X174210057Y-118537499D01*
X174210057Y-118537499D02*
X174257676Y-118347023D01*
X174257676Y-118347023D02*
X174210057Y-118156547D01*
X174210057Y-118156547D02*
X174114819Y-118013690D01*
X174114819Y-117489880D02*
X173114819Y-117489880D01*
X173114819Y-117489880D02*
X173114819Y-117108928D01*
X173114819Y-117108928D02*
X173162438Y-117013690D01*
X173162438Y-117013690D02*
X173210057Y-116966071D01*
X173210057Y-116966071D02*
X173305295Y-116918452D01*
X173305295Y-116918452D02*
X173448152Y-116918452D01*
X173448152Y-116918452D02*
X173543390Y-116966071D01*
X173543390Y-116966071D02*
X173591009Y-117013690D01*
X173591009Y-117013690D02*
X173638628Y-117108928D01*
X173638628Y-117108928D02*
X173638628Y-117489880D01*
X174210057Y-116727976D02*
X174210057Y-115966071D01*
X174019580Y-115156547D02*
X174067200Y-115204166D01*
X174067200Y-115204166D02*
X174114819Y-115347023D01*
X174114819Y-115347023D02*
X174114819Y-115442261D01*
X174114819Y-115442261D02*
X174067200Y-115585118D01*
X174067200Y-115585118D02*
X173971961Y-115680356D01*
X173971961Y-115680356D02*
X173876723Y-115727975D01*
X173876723Y-115727975D02*
X173686247Y-115775594D01*
X173686247Y-115775594D02*
X173543390Y-115775594D01*
X173543390Y-115775594D02*
X173352914Y-115727975D01*
X173352914Y-115727975D02*
X173257676Y-115680356D01*
X173257676Y-115680356D02*
X173162438Y-115585118D01*
X173162438Y-115585118D02*
X173114819Y-115442261D01*
X173114819Y-115442261D02*
X173114819Y-115347023D01*
X173114819Y-115347023D02*
X173162438Y-115204166D01*
X173162438Y-115204166D02*
X173210057Y-115156547D01*
X174114819Y-114204166D02*
X174114819Y-114775594D01*
X174114819Y-114489880D02*
X173114819Y-114489880D01*
X173114819Y-114489880D02*
X173257676Y-114585118D01*
X173257676Y-114585118D02*
X173352914Y-114680356D01*
X173352914Y-114680356D02*
X173400533Y-114775594D01*
X173114819Y-113870832D02*
X173114819Y-113204166D01*
X173114819Y-113204166D02*
X174114819Y-113632737D01*
X182158628Y-125231547D02*
X182111009Y-125279166D01*
X182111009Y-125279166D02*
X182063390Y-125374404D01*
X182063390Y-125374404D02*
X182063390Y-125469642D01*
X182063390Y-125469642D02*
X182111009Y-125564880D01*
X182111009Y-125564880D02*
X182158628Y-125612499D01*
X182158628Y-125612499D02*
X182253866Y-125660118D01*
X182253866Y-125660118D02*
X182349104Y-125660118D01*
X182349104Y-125660118D02*
X182444342Y-125612499D01*
X182444342Y-125612499D02*
X182491961Y-125564880D01*
X182491961Y-125564880D02*
X182539580Y-125469642D01*
X182539580Y-125469642D02*
X182539580Y-125374404D01*
X182539580Y-125374404D02*
X182491961Y-125279166D01*
X182491961Y-125279166D02*
X182444342Y-125231547D01*
X182063390Y-125231547D02*
X182444342Y-125231547D01*
X182444342Y-125231547D02*
X182491961Y-125183928D01*
X182491961Y-125183928D02*
X182491961Y-125136309D01*
X182491961Y-125136309D02*
X182444342Y-125041070D01*
X182444342Y-125041070D02*
X182349104Y-124993451D01*
X182349104Y-124993451D02*
X182111009Y-124993451D01*
X182111009Y-124993451D02*
X181968152Y-125088690D01*
X181968152Y-125088690D02*
X181872914Y-125231547D01*
X181872914Y-125231547D02*
X181825295Y-125422023D01*
X181825295Y-125422023D02*
X181872914Y-125612499D01*
X181872914Y-125612499D02*
X181968152Y-125755356D01*
X181968152Y-125755356D02*
X182111009Y-125850594D01*
X182111009Y-125850594D02*
X182301485Y-125898213D01*
X182301485Y-125898213D02*
X182491961Y-125850594D01*
X182491961Y-125850594D02*
X182634819Y-125755356D01*
X182634819Y-125755356D02*
X182730057Y-125612499D01*
X182730057Y-125612499D02*
X182777676Y-125422023D01*
X182777676Y-125422023D02*
X182730057Y-125231547D01*
X182730057Y-125231547D02*
X182634819Y-125088690D01*
X182634819Y-124564880D02*
X181634819Y-124564880D01*
X181634819Y-124564880D02*
X181634819Y-124183928D01*
X181634819Y-124183928D02*
X181682438Y-124088690D01*
X181682438Y-124088690D02*
X181730057Y-124041071D01*
X181730057Y-124041071D02*
X181825295Y-123993452D01*
X181825295Y-123993452D02*
X181968152Y-123993452D01*
X181968152Y-123993452D02*
X182063390Y-124041071D01*
X182063390Y-124041071D02*
X182111009Y-124088690D01*
X182111009Y-124088690D02*
X182158628Y-124183928D01*
X182158628Y-124183928D02*
X182158628Y-124564880D01*
X182730057Y-123802976D02*
X182730057Y-123041071D01*
X182539580Y-122231547D02*
X182587200Y-122279166D01*
X182587200Y-122279166D02*
X182634819Y-122422023D01*
X182634819Y-122422023D02*
X182634819Y-122517261D01*
X182634819Y-122517261D02*
X182587200Y-122660118D01*
X182587200Y-122660118D02*
X182491961Y-122755356D01*
X182491961Y-122755356D02*
X182396723Y-122802975D01*
X182396723Y-122802975D02*
X182206247Y-122850594D01*
X182206247Y-122850594D02*
X182063390Y-122850594D01*
X182063390Y-122850594D02*
X181872914Y-122802975D01*
X181872914Y-122802975D02*
X181777676Y-122755356D01*
X181777676Y-122755356D02*
X181682438Y-122660118D01*
X181682438Y-122660118D02*
X181634819Y-122517261D01*
X181634819Y-122517261D02*
X181634819Y-122422023D01*
X181634819Y-122422023D02*
X181682438Y-122279166D01*
X181682438Y-122279166D02*
X181730057Y-122231547D01*
X182634819Y-121279166D02*
X182634819Y-121850594D01*
X182634819Y-121564880D02*
X181634819Y-121564880D01*
X181634819Y-121564880D02*
X181777676Y-121660118D01*
X181777676Y-121660118D02*
X181872914Y-121755356D01*
X181872914Y-121755356D02*
X181920533Y-121850594D01*
X181634819Y-120422023D02*
X181634819Y-120612499D01*
X181634819Y-120612499D02*
X181682438Y-120707737D01*
X181682438Y-120707737D02*
X181730057Y-120755356D01*
X181730057Y-120755356D02*
X181872914Y-120850594D01*
X181872914Y-120850594D02*
X182063390Y-120898213D01*
X182063390Y-120898213D02*
X182444342Y-120898213D01*
X182444342Y-120898213D02*
X182539580Y-120850594D01*
X182539580Y-120850594D02*
X182587200Y-120802975D01*
X182587200Y-120802975D02*
X182634819Y-120707737D01*
X182634819Y-120707737D02*
X182634819Y-120517261D01*
X182634819Y-120517261D02*
X182587200Y-120422023D01*
X182587200Y-120422023D02*
X182539580Y-120374404D01*
X182539580Y-120374404D02*
X182444342Y-120326785D01*
X182444342Y-120326785D02*
X182206247Y-120326785D01*
X182206247Y-120326785D02*
X182111009Y-120374404D01*
X182111009Y-120374404D02*
X182063390Y-120422023D01*
X182063390Y-120422023D02*
X182015771Y-120517261D01*
X182015771Y-120517261D02*
X182015771Y-120707737D01*
X182015771Y-120707737D02*
X182063390Y-120802975D01*
X182063390Y-120802975D02*
X182111009Y-120850594D01*
X182111009Y-120850594D02*
X182206247Y-120898213D01*
X184658628Y-125231547D02*
X184611009Y-125279166D01*
X184611009Y-125279166D02*
X184563390Y-125374404D01*
X184563390Y-125374404D02*
X184563390Y-125469642D01*
X184563390Y-125469642D02*
X184611009Y-125564880D01*
X184611009Y-125564880D02*
X184658628Y-125612499D01*
X184658628Y-125612499D02*
X184753866Y-125660118D01*
X184753866Y-125660118D02*
X184849104Y-125660118D01*
X184849104Y-125660118D02*
X184944342Y-125612499D01*
X184944342Y-125612499D02*
X184991961Y-125564880D01*
X184991961Y-125564880D02*
X185039580Y-125469642D01*
X185039580Y-125469642D02*
X185039580Y-125374404D01*
X185039580Y-125374404D02*
X184991961Y-125279166D01*
X184991961Y-125279166D02*
X184944342Y-125231547D01*
X184563390Y-125231547D02*
X184944342Y-125231547D01*
X184944342Y-125231547D02*
X184991961Y-125183928D01*
X184991961Y-125183928D02*
X184991961Y-125136309D01*
X184991961Y-125136309D02*
X184944342Y-125041070D01*
X184944342Y-125041070D02*
X184849104Y-124993451D01*
X184849104Y-124993451D02*
X184611009Y-124993451D01*
X184611009Y-124993451D02*
X184468152Y-125088690D01*
X184468152Y-125088690D02*
X184372914Y-125231547D01*
X184372914Y-125231547D02*
X184325295Y-125422023D01*
X184325295Y-125422023D02*
X184372914Y-125612499D01*
X184372914Y-125612499D02*
X184468152Y-125755356D01*
X184468152Y-125755356D02*
X184611009Y-125850594D01*
X184611009Y-125850594D02*
X184801485Y-125898213D01*
X184801485Y-125898213D02*
X184991961Y-125850594D01*
X184991961Y-125850594D02*
X185134819Y-125755356D01*
X185134819Y-125755356D02*
X185230057Y-125612499D01*
X185230057Y-125612499D02*
X185277676Y-125422023D01*
X185277676Y-125422023D02*
X185230057Y-125231547D01*
X185230057Y-125231547D02*
X185134819Y-125088690D01*
X185134819Y-124564880D02*
X184134819Y-124564880D01*
X184134819Y-124564880D02*
X184134819Y-124183928D01*
X184134819Y-124183928D02*
X184182438Y-124088690D01*
X184182438Y-124088690D02*
X184230057Y-124041071D01*
X184230057Y-124041071D02*
X184325295Y-123993452D01*
X184325295Y-123993452D02*
X184468152Y-123993452D01*
X184468152Y-123993452D02*
X184563390Y-124041071D01*
X184563390Y-124041071D02*
X184611009Y-124088690D01*
X184611009Y-124088690D02*
X184658628Y-124183928D01*
X184658628Y-124183928D02*
X184658628Y-124564880D01*
X185230057Y-123802976D02*
X185230057Y-123041071D01*
X185039580Y-122231547D02*
X185087200Y-122279166D01*
X185087200Y-122279166D02*
X185134819Y-122422023D01*
X185134819Y-122422023D02*
X185134819Y-122517261D01*
X185134819Y-122517261D02*
X185087200Y-122660118D01*
X185087200Y-122660118D02*
X184991961Y-122755356D01*
X184991961Y-122755356D02*
X184896723Y-122802975D01*
X184896723Y-122802975D02*
X184706247Y-122850594D01*
X184706247Y-122850594D02*
X184563390Y-122850594D01*
X184563390Y-122850594D02*
X184372914Y-122802975D01*
X184372914Y-122802975D02*
X184277676Y-122755356D01*
X184277676Y-122755356D02*
X184182438Y-122660118D01*
X184182438Y-122660118D02*
X184134819Y-122517261D01*
X184134819Y-122517261D02*
X184134819Y-122422023D01*
X184134819Y-122422023D02*
X184182438Y-122279166D01*
X184182438Y-122279166D02*
X184230057Y-122231547D01*
X185134819Y-121279166D02*
X185134819Y-121850594D01*
X185134819Y-121564880D02*
X184134819Y-121564880D01*
X184134819Y-121564880D02*
X184277676Y-121660118D01*
X184277676Y-121660118D02*
X184372914Y-121755356D01*
X184372914Y-121755356D02*
X184420533Y-121850594D01*
X184134819Y-120374404D02*
X184134819Y-120850594D01*
X184134819Y-120850594D02*
X184611009Y-120898213D01*
X184611009Y-120898213D02*
X184563390Y-120850594D01*
X184563390Y-120850594D02*
X184515771Y-120755356D01*
X184515771Y-120755356D02*
X184515771Y-120517261D01*
X184515771Y-120517261D02*
X184563390Y-120422023D01*
X184563390Y-120422023D02*
X184611009Y-120374404D01*
X184611009Y-120374404D02*
X184706247Y-120326785D01*
X184706247Y-120326785D02*
X184944342Y-120326785D01*
X184944342Y-120326785D02*
X185039580Y-120374404D01*
X185039580Y-120374404D02*
X185087200Y-120422023D01*
X185087200Y-120422023D02*
X185134819Y-120517261D01*
X185134819Y-120517261D02*
X185134819Y-120755356D01*
X185134819Y-120755356D02*
X185087200Y-120850594D01*
X185087200Y-120850594D02*
X185039580Y-120898213D01*
X177148628Y-118156547D02*
X177101009Y-118204166D01*
X177101009Y-118204166D02*
X177053390Y-118299404D01*
X177053390Y-118299404D02*
X177053390Y-118394642D01*
X177053390Y-118394642D02*
X177101009Y-118489880D01*
X177101009Y-118489880D02*
X177148628Y-118537499D01*
X177148628Y-118537499D02*
X177243866Y-118585118D01*
X177243866Y-118585118D02*
X177339104Y-118585118D01*
X177339104Y-118585118D02*
X177434342Y-118537499D01*
X177434342Y-118537499D02*
X177481961Y-118489880D01*
X177481961Y-118489880D02*
X177529580Y-118394642D01*
X177529580Y-118394642D02*
X177529580Y-118299404D01*
X177529580Y-118299404D02*
X177481961Y-118204166D01*
X177481961Y-118204166D02*
X177434342Y-118156547D01*
X177053390Y-118156547D02*
X177434342Y-118156547D01*
X177434342Y-118156547D02*
X177481961Y-118108928D01*
X177481961Y-118108928D02*
X177481961Y-118061309D01*
X177481961Y-118061309D02*
X177434342Y-117966070D01*
X177434342Y-117966070D02*
X177339104Y-117918451D01*
X177339104Y-117918451D02*
X177101009Y-117918451D01*
X177101009Y-117918451D02*
X176958152Y-118013690D01*
X176958152Y-118013690D02*
X176862914Y-118156547D01*
X176862914Y-118156547D02*
X176815295Y-118347023D01*
X176815295Y-118347023D02*
X176862914Y-118537499D01*
X176862914Y-118537499D02*
X176958152Y-118680356D01*
X176958152Y-118680356D02*
X177101009Y-118775594D01*
X177101009Y-118775594D02*
X177291485Y-118823213D01*
X177291485Y-118823213D02*
X177481961Y-118775594D01*
X177481961Y-118775594D02*
X177624819Y-118680356D01*
X177624819Y-118680356D02*
X177720057Y-118537499D01*
X177720057Y-118537499D02*
X177767676Y-118347023D01*
X177767676Y-118347023D02*
X177720057Y-118156547D01*
X177720057Y-118156547D02*
X177624819Y-118013690D01*
X177624819Y-117489880D02*
X176624819Y-117489880D01*
X176624819Y-117489880D02*
X176624819Y-117108928D01*
X176624819Y-117108928D02*
X176672438Y-117013690D01*
X176672438Y-117013690D02*
X176720057Y-116966071D01*
X176720057Y-116966071D02*
X176815295Y-116918452D01*
X176815295Y-116918452D02*
X176958152Y-116918452D01*
X176958152Y-116918452D02*
X177053390Y-116966071D01*
X177053390Y-116966071D02*
X177101009Y-117013690D01*
X177101009Y-117013690D02*
X177148628Y-117108928D01*
X177148628Y-117108928D02*
X177148628Y-117489880D01*
X177720057Y-116727976D02*
X177720057Y-115966071D01*
X177529580Y-115156547D02*
X177577200Y-115204166D01*
X177577200Y-115204166D02*
X177624819Y-115347023D01*
X177624819Y-115347023D02*
X177624819Y-115442261D01*
X177624819Y-115442261D02*
X177577200Y-115585118D01*
X177577200Y-115585118D02*
X177481961Y-115680356D01*
X177481961Y-115680356D02*
X177386723Y-115727975D01*
X177386723Y-115727975D02*
X177196247Y-115775594D01*
X177196247Y-115775594D02*
X177053390Y-115775594D01*
X177053390Y-115775594D02*
X176862914Y-115727975D01*
X176862914Y-115727975D02*
X176767676Y-115680356D01*
X176767676Y-115680356D02*
X176672438Y-115585118D01*
X176672438Y-115585118D02*
X176624819Y-115442261D01*
X176624819Y-115442261D02*
X176624819Y-115347023D01*
X176624819Y-115347023D02*
X176672438Y-115204166D01*
X176672438Y-115204166D02*
X176720057Y-115156547D01*
X177624819Y-114204166D02*
X177624819Y-114775594D01*
X177624819Y-114489880D02*
X176624819Y-114489880D01*
X176624819Y-114489880D02*
X176767676Y-114585118D01*
X176767676Y-114585118D02*
X176862914Y-114680356D01*
X176862914Y-114680356D02*
X176910533Y-114775594D01*
X176958152Y-113347023D02*
X177624819Y-113347023D01*
X176577200Y-113585118D02*
X177291485Y-113823213D01*
X177291485Y-113823213D02*
X177291485Y-113204166D01*
X180658628Y-118156547D02*
X180611009Y-118204166D01*
X180611009Y-118204166D02*
X180563390Y-118299404D01*
X180563390Y-118299404D02*
X180563390Y-118394642D01*
X180563390Y-118394642D02*
X180611009Y-118489880D01*
X180611009Y-118489880D02*
X180658628Y-118537499D01*
X180658628Y-118537499D02*
X180753866Y-118585118D01*
X180753866Y-118585118D02*
X180849104Y-118585118D01*
X180849104Y-118585118D02*
X180944342Y-118537499D01*
X180944342Y-118537499D02*
X180991961Y-118489880D01*
X180991961Y-118489880D02*
X181039580Y-118394642D01*
X181039580Y-118394642D02*
X181039580Y-118299404D01*
X181039580Y-118299404D02*
X180991961Y-118204166D01*
X180991961Y-118204166D02*
X180944342Y-118156547D01*
X180563390Y-118156547D02*
X180944342Y-118156547D01*
X180944342Y-118156547D02*
X180991961Y-118108928D01*
X180991961Y-118108928D02*
X180991961Y-118061309D01*
X180991961Y-118061309D02*
X180944342Y-117966070D01*
X180944342Y-117966070D02*
X180849104Y-117918451D01*
X180849104Y-117918451D02*
X180611009Y-117918451D01*
X180611009Y-117918451D02*
X180468152Y-118013690D01*
X180468152Y-118013690D02*
X180372914Y-118156547D01*
X180372914Y-118156547D02*
X180325295Y-118347023D01*
X180325295Y-118347023D02*
X180372914Y-118537499D01*
X180372914Y-118537499D02*
X180468152Y-118680356D01*
X180468152Y-118680356D02*
X180611009Y-118775594D01*
X180611009Y-118775594D02*
X180801485Y-118823213D01*
X180801485Y-118823213D02*
X180991961Y-118775594D01*
X180991961Y-118775594D02*
X181134819Y-118680356D01*
X181134819Y-118680356D02*
X181230057Y-118537499D01*
X181230057Y-118537499D02*
X181277676Y-118347023D01*
X181277676Y-118347023D02*
X181230057Y-118156547D01*
X181230057Y-118156547D02*
X181134819Y-118013690D01*
X181134819Y-117489880D02*
X180134819Y-117489880D01*
X180134819Y-117489880D02*
X180134819Y-117108928D01*
X180134819Y-117108928D02*
X180182438Y-117013690D01*
X180182438Y-117013690D02*
X180230057Y-116966071D01*
X180230057Y-116966071D02*
X180325295Y-116918452D01*
X180325295Y-116918452D02*
X180468152Y-116918452D01*
X180468152Y-116918452D02*
X180563390Y-116966071D01*
X180563390Y-116966071D02*
X180611009Y-117013690D01*
X180611009Y-117013690D02*
X180658628Y-117108928D01*
X180658628Y-117108928D02*
X180658628Y-117489880D01*
X181230057Y-116727976D02*
X181230057Y-115966071D01*
X181039580Y-115156547D02*
X181087200Y-115204166D01*
X181087200Y-115204166D02*
X181134819Y-115347023D01*
X181134819Y-115347023D02*
X181134819Y-115442261D01*
X181134819Y-115442261D02*
X181087200Y-115585118D01*
X181087200Y-115585118D02*
X180991961Y-115680356D01*
X180991961Y-115680356D02*
X180896723Y-115727975D01*
X180896723Y-115727975D02*
X180706247Y-115775594D01*
X180706247Y-115775594D02*
X180563390Y-115775594D01*
X180563390Y-115775594D02*
X180372914Y-115727975D01*
X180372914Y-115727975D02*
X180277676Y-115680356D01*
X180277676Y-115680356D02*
X180182438Y-115585118D01*
X180182438Y-115585118D02*
X180134819Y-115442261D01*
X180134819Y-115442261D02*
X180134819Y-115347023D01*
X180134819Y-115347023D02*
X180182438Y-115204166D01*
X180182438Y-115204166D02*
X180230057Y-115156547D01*
X181134819Y-114204166D02*
X181134819Y-114775594D01*
X181134819Y-114489880D02*
X180134819Y-114489880D01*
X180134819Y-114489880D02*
X180277676Y-114585118D01*
X180277676Y-114585118D02*
X180372914Y-114680356D01*
X180372914Y-114680356D02*
X180420533Y-114775594D01*
X180134819Y-113870832D02*
X180134819Y-113251785D01*
X180134819Y-113251785D02*
X180515771Y-113585118D01*
X180515771Y-113585118D02*
X180515771Y-113442261D01*
X180515771Y-113442261D02*
X180563390Y-113347023D01*
X180563390Y-113347023D02*
X180611009Y-113299404D01*
X180611009Y-113299404D02*
X180706247Y-113251785D01*
X180706247Y-113251785D02*
X180944342Y-113251785D01*
X180944342Y-113251785D02*
X181039580Y-113299404D01*
X181039580Y-113299404D02*
X181087200Y-113347023D01*
X181087200Y-113347023D02*
X181134819Y-113442261D01*
X181134819Y-113442261D02*
X181134819Y-113727975D01*
X181134819Y-113727975D02*
X181087200Y-113823213D01*
X181087200Y-113823213D02*
X181039580Y-113870832D01*
X175298628Y-124755357D02*
X175251009Y-124802976D01*
X175251009Y-124802976D02*
X175203390Y-124898214D01*
X175203390Y-124898214D02*
X175203390Y-124993452D01*
X175203390Y-124993452D02*
X175251009Y-125088690D01*
X175251009Y-125088690D02*
X175298628Y-125136309D01*
X175298628Y-125136309D02*
X175393866Y-125183928D01*
X175393866Y-125183928D02*
X175489104Y-125183928D01*
X175489104Y-125183928D02*
X175584342Y-125136309D01*
X175584342Y-125136309D02*
X175631961Y-125088690D01*
X175631961Y-125088690D02*
X175679580Y-124993452D01*
X175679580Y-124993452D02*
X175679580Y-124898214D01*
X175679580Y-124898214D02*
X175631961Y-124802976D01*
X175631961Y-124802976D02*
X175584342Y-124755357D01*
X175203390Y-124755357D02*
X175584342Y-124755357D01*
X175584342Y-124755357D02*
X175631961Y-124707738D01*
X175631961Y-124707738D02*
X175631961Y-124660119D01*
X175631961Y-124660119D02*
X175584342Y-124564880D01*
X175584342Y-124564880D02*
X175489104Y-124517261D01*
X175489104Y-124517261D02*
X175251009Y-124517261D01*
X175251009Y-124517261D02*
X175108152Y-124612500D01*
X175108152Y-124612500D02*
X175012914Y-124755357D01*
X175012914Y-124755357D02*
X174965295Y-124945833D01*
X174965295Y-124945833D02*
X175012914Y-125136309D01*
X175012914Y-125136309D02*
X175108152Y-125279166D01*
X175108152Y-125279166D02*
X175251009Y-125374404D01*
X175251009Y-125374404D02*
X175441485Y-125422023D01*
X175441485Y-125422023D02*
X175631961Y-125374404D01*
X175631961Y-125374404D02*
X175774819Y-125279166D01*
X175774819Y-125279166D02*
X175870057Y-125136309D01*
X175870057Y-125136309D02*
X175917676Y-124945833D01*
X175917676Y-124945833D02*
X175870057Y-124755357D01*
X175870057Y-124755357D02*
X175774819Y-124612500D01*
X175774819Y-124088690D02*
X174774819Y-124088690D01*
X174774819Y-124088690D02*
X174774819Y-123707738D01*
X174774819Y-123707738D02*
X174822438Y-123612500D01*
X174822438Y-123612500D02*
X174870057Y-123564881D01*
X174870057Y-123564881D02*
X174965295Y-123517262D01*
X174965295Y-123517262D02*
X175108152Y-123517262D01*
X175108152Y-123517262D02*
X175203390Y-123564881D01*
X175203390Y-123564881D02*
X175251009Y-123612500D01*
X175251009Y-123612500D02*
X175298628Y-123707738D01*
X175298628Y-123707738D02*
X175298628Y-124088690D01*
X175870057Y-123326786D02*
X175870057Y-122564881D01*
X175679580Y-121755357D02*
X175727200Y-121802976D01*
X175727200Y-121802976D02*
X175774819Y-121945833D01*
X175774819Y-121945833D02*
X175774819Y-122041071D01*
X175774819Y-122041071D02*
X175727200Y-122183928D01*
X175727200Y-122183928D02*
X175631961Y-122279166D01*
X175631961Y-122279166D02*
X175536723Y-122326785D01*
X175536723Y-122326785D02*
X175346247Y-122374404D01*
X175346247Y-122374404D02*
X175203390Y-122374404D01*
X175203390Y-122374404D02*
X175012914Y-122326785D01*
X175012914Y-122326785D02*
X174917676Y-122279166D01*
X174917676Y-122279166D02*
X174822438Y-122183928D01*
X174822438Y-122183928D02*
X174774819Y-122041071D01*
X174774819Y-122041071D02*
X174774819Y-121945833D01*
X174774819Y-121945833D02*
X174822438Y-121802976D01*
X174822438Y-121802976D02*
X174870057Y-121755357D01*
X175774819Y-121279166D02*
X175774819Y-121088690D01*
X175774819Y-121088690D02*
X175727200Y-120993452D01*
X175727200Y-120993452D02*
X175679580Y-120945833D01*
X175679580Y-120945833D02*
X175536723Y-120850595D01*
X175536723Y-120850595D02*
X175346247Y-120802976D01*
X175346247Y-120802976D02*
X174965295Y-120802976D01*
X174965295Y-120802976D02*
X174870057Y-120850595D01*
X174870057Y-120850595D02*
X174822438Y-120898214D01*
X174822438Y-120898214D02*
X174774819Y-120993452D01*
X174774819Y-120993452D02*
X174774819Y-121183928D01*
X174774819Y-121183928D02*
X174822438Y-121279166D01*
X174822438Y-121279166D02*
X174870057Y-121326785D01*
X174870057Y-121326785D02*
X174965295Y-121374404D01*
X174965295Y-121374404D02*
X175203390Y-121374404D01*
X175203390Y-121374404D02*
X175298628Y-121326785D01*
X175298628Y-121326785D02*
X175346247Y-121279166D01*
X175346247Y-121279166D02*
X175393866Y-121183928D01*
X175393866Y-121183928D02*
X175393866Y-120993452D01*
X175393866Y-120993452D02*
X175346247Y-120898214D01*
X175346247Y-120898214D02*
X175298628Y-120850595D01*
X175298628Y-120850595D02*
X175203390Y-120802976D01*
X164798628Y-108632738D02*
X164751009Y-108680357D01*
X164751009Y-108680357D02*
X164703390Y-108775595D01*
X164703390Y-108775595D02*
X164703390Y-108870833D01*
X164703390Y-108870833D02*
X164751009Y-108966071D01*
X164751009Y-108966071D02*
X164798628Y-109013690D01*
X164798628Y-109013690D02*
X164893866Y-109061309D01*
X164893866Y-109061309D02*
X164989104Y-109061309D01*
X164989104Y-109061309D02*
X165084342Y-109013690D01*
X165084342Y-109013690D02*
X165131961Y-108966071D01*
X165131961Y-108966071D02*
X165179580Y-108870833D01*
X165179580Y-108870833D02*
X165179580Y-108775595D01*
X165179580Y-108775595D02*
X165131961Y-108680357D01*
X165131961Y-108680357D02*
X165084342Y-108632738D01*
X164703390Y-108632738D02*
X165084342Y-108632738D01*
X165084342Y-108632738D02*
X165131961Y-108585119D01*
X165131961Y-108585119D02*
X165131961Y-108537500D01*
X165131961Y-108537500D02*
X165084342Y-108442261D01*
X165084342Y-108442261D02*
X164989104Y-108394642D01*
X164989104Y-108394642D02*
X164751009Y-108394642D01*
X164751009Y-108394642D02*
X164608152Y-108489881D01*
X164608152Y-108489881D02*
X164512914Y-108632738D01*
X164512914Y-108632738D02*
X164465295Y-108823214D01*
X164465295Y-108823214D02*
X164512914Y-109013690D01*
X164512914Y-109013690D02*
X164608152Y-109156547D01*
X164608152Y-109156547D02*
X164751009Y-109251785D01*
X164751009Y-109251785D02*
X164941485Y-109299404D01*
X164941485Y-109299404D02*
X165131961Y-109251785D01*
X165131961Y-109251785D02*
X165274819Y-109156547D01*
X165274819Y-109156547D02*
X165370057Y-109013690D01*
X165370057Y-109013690D02*
X165417676Y-108823214D01*
X165417676Y-108823214D02*
X165370057Y-108632738D01*
X165370057Y-108632738D02*
X165274819Y-108489881D01*
X164322438Y-107442262D02*
X164274819Y-107537500D01*
X164274819Y-107537500D02*
X164274819Y-107680357D01*
X164274819Y-107680357D02*
X164322438Y-107823214D01*
X164322438Y-107823214D02*
X164417676Y-107918452D01*
X164417676Y-107918452D02*
X164512914Y-107966071D01*
X164512914Y-107966071D02*
X164703390Y-108013690D01*
X164703390Y-108013690D02*
X164846247Y-108013690D01*
X164846247Y-108013690D02*
X165036723Y-107966071D01*
X165036723Y-107966071D02*
X165131961Y-107918452D01*
X165131961Y-107918452D02*
X165227200Y-107823214D01*
X165227200Y-107823214D02*
X165274819Y-107680357D01*
X165274819Y-107680357D02*
X165274819Y-107585119D01*
X165274819Y-107585119D02*
X165227200Y-107442262D01*
X165227200Y-107442262D02*
X165179580Y-107394643D01*
X165179580Y-107394643D02*
X164846247Y-107394643D01*
X164846247Y-107394643D02*
X164846247Y-107585119D01*
X164370057Y-107013690D02*
X164322438Y-106966071D01*
X164322438Y-106966071D02*
X164274819Y-106870833D01*
X164274819Y-106870833D02*
X164274819Y-106632738D01*
X164274819Y-106632738D02*
X164322438Y-106537500D01*
X164322438Y-106537500D02*
X164370057Y-106489881D01*
X164370057Y-106489881D02*
X164465295Y-106442262D01*
X164465295Y-106442262D02*
X164560533Y-106442262D01*
X164560533Y-106442262D02*
X164703390Y-106489881D01*
X164703390Y-106489881D02*
X165274819Y-107061309D01*
X165274819Y-107061309D02*
X165274819Y-106442262D01*
X165370057Y-106251786D02*
X165370057Y-105489881D01*
X165179580Y-104680357D02*
X165227200Y-104727976D01*
X165227200Y-104727976D02*
X165274819Y-104870833D01*
X165274819Y-104870833D02*
X165274819Y-104966071D01*
X165274819Y-104966071D02*
X165227200Y-105108928D01*
X165227200Y-105108928D02*
X165131961Y-105204166D01*
X165131961Y-105204166D02*
X165036723Y-105251785D01*
X165036723Y-105251785D02*
X164846247Y-105299404D01*
X164846247Y-105299404D02*
X164703390Y-105299404D01*
X164703390Y-105299404D02*
X164512914Y-105251785D01*
X164512914Y-105251785D02*
X164417676Y-105204166D01*
X164417676Y-105204166D02*
X164322438Y-105108928D01*
X164322438Y-105108928D02*
X164274819Y-104966071D01*
X164274819Y-104966071D02*
X164274819Y-104870833D01*
X164274819Y-104870833D02*
X164322438Y-104727976D01*
X164322438Y-104727976D02*
X164370057Y-104680357D01*
X165274819Y-103727976D02*
X165274819Y-104299404D01*
X165274819Y-104013690D02*
X164274819Y-104013690D01*
X164274819Y-104013690D02*
X164417676Y-104108928D01*
X164417676Y-104108928D02*
X164512914Y-104204166D01*
X164512914Y-104204166D02*
X164560533Y-104299404D01*
X164370057Y-103347023D02*
X164322438Y-103299404D01*
X164322438Y-103299404D02*
X164274819Y-103204166D01*
X164274819Y-103204166D02*
X164274819Y-102966071D01*
X164274819Y-102966071D02*
X164322438Y-102870833D01*
X164322438Y-102870833D02*
X164370057Y-102823214D01*
X164370057Y-102823214D02*
X164465295Y-102775595D01*
X164465295Y-102775595D02*
X164560533Y-102775595D01*
X164560533Y-102775595D02*
X164703390Y-102823214D01*
X164703390Y-102823214D02*
X165274819Y-103394642D01*
X165274819Y-103394642D02*
X165274819Y-102775595D01*
X153658628Y-123156547D02*
X153611009Y-123204166D01*
X153611009Y-123204166D02*
X153563390Y-123299404D01*
X153563390Y-123299404D02*
X153563390Y-123394642D01*
X153563390Y-123394642D02*
X153611009Y-123489880D01*
X153611009Y-123489880D02*
X153658628Y-123537499D01*
X153658628Y-123537499D02*
X153753866Y-123585118D01*
X153753866Y-123585118D02*
X153849104Y-123585118D01*
X153849104Y-123585118D02*
X153944342Y-123537499D01*
X153944342Y-123537499D02*
X153991961Y-123489880D01*
X153991961Y-123489880D02*
X154039580Y-123394642D01*
X154039580Y-123394642D02*
X154039580Y-123299404D01*
X154039580Y-123299404D02*
X153991961Y-123204166D01*
X153991961Y-123204166D02*
X153944342Y-123156547D01*
X153563390Y-123156547D02*
X153944342Y-123156547D01*
X153944342Y-123156547D02*
X153991961Y-123108928D01*
X153991961Y-123108928D02*
X153991961Y-123061309D01*
X153991961Y-123061309D02*
X153944342Y-122966070D01*
X153944342Y-122966070D02*
X153849104Y-122918451D01*
X153849104Y-122918451D02*
X153611009Y-122918451D01*
X153611009Y-122918451D02*
X153468152Y-123013690D01*
X153468152Y-123013690D02*
X153372914Y-123156547D01*
X153372914Y-123156547D02*
X153325295Y-123347023D01*
X153325295Y-123347023D02*
X153372914Y-123537499D01*
X153372914Y-123537499D02*
X153468152Y-123680356D01*
X153468152Y-123680356D02*
X153611009Y-123775594D01*
X153611009Y-123775594D02*
X153801485Y-123823213D01*
X153801485Y-123823213D02*
X153991961Y-123775594D01*
X153991961Y-123775594D02*
X154134819Y-123680356D01*
X154134819Y-123680356D02*
X154230057Y-123537499D01*
X154230057Y-123537499D02*
X154277676Y-123347023D01*
X154277676Y-123347023D02*
X154230057Y-123156547D01*
X154230057Y-123156547D02*
X154134819Y-123013690D01*
X153182438Y-121966071D02*
X153134819Y-122061309D01*
X153134819Y-122061309D02*
X153134819Y-122204166D01*
X153134819Y-122204166D02*
X153182438Y-122347023D01*
X153182438Y-122347023D02*
X153277676Y-122442261D01*
X153277676Y-122442261D02*
X153372914Y-122489880D01*
X153372914Y-122489880D02*
X153563390Y-122537499D01*
X153563390Y-122537499D02*
X153706247Y-122537499D01*
X153706247Y-122537499D02*
X153896723Y-122489880D01*
X153896723Y-122489880D02*
X153991961Y-122442261D01*
X153991961Y-122442261D02*
X154087200Y-122347023D01*
X154087200Y-122347023D02*
X154134819Y-122204166D01*
X154134819Y-122204166D02*
X154134819Y-122108928D01*
X154134819Y-122108928D02*
X154087200Y-121966071D01*
X154087200Y-121966071D02*
X154039580Y-121918452D01*
X154039580Y-121918452D02*
X153706247Y-121918452D01*
X153706247Y-121918452D02*
X153706247Y-122108928D01*
X154134819Y-120966071D02*
X154134819Y-121537499D01*
X154134819Y-121251785D02*
X153134819Y-121251785D01*
X153134819Y-121251785D02*
X153277676Y-121347023D01*
X153277676Y-121347023D02*
X153372914Y-121442261D01*
X153372914Y-121442261D02*
X153420533Y-121537499D01*
X154230057Y-120775595D02*
X154230057Y-120013690D01*
X154039580Y-119204166D02*
X154087200Y-119251785D01*
X154087200Y-119251785D02*
X154134819Y-119394642D01*
X154134819Y-119394642D02*
X154134819Y-119489880D01*
X154134819Y-119489880D02*
X154087200Y-119632737D01*
X154087200Y-119632737D02*
X153991961Y-119727975D01*
X153991961Y-119727975D02*
X153896723Y-119775594D01*
X153896723Y-119775594D02*
X153706247Y-119823213D01*
X153706247Y-119823213D02*
X153563390Y-119823213D01*
X153563390Y-119823213D02*
X153372914Y-119775594D01*
X153372914Y-119775594D02*
X153277676Y-119727975D01*
X153277676Y-119727975D02*
X153182438Y-119632737D01*
X153182438Y-119632737D02*
X153134819Y-119489880D01*
X153134819Y-119489880D02*
X153134819Y-119394642D01*
X153134819Y-119394642D02*
X153182438Y-119251785D01*
X153182438Y-119251785D02*
X153230057Y-119204166D01*
X153134819Y-118347023D02*
X153134819Y-118537499D01*
X153134819Y-118537499D02*
X153182438Y-118632737D01*
X153182438Y-118632737D02*
X153230057Y-118680356D01*
X153230057Y-118680356D02*
X153372914Y-118775594D01*
X153372914Y-118775594D02*
X153563390Y-118823213D01*
X153563390Y-118823213D02*
X153944342Y-118823213D01*
X153944342Y-118823213D02*
X154039580Y-118775594D01*
X154039580Y-118775594D02*
X154087200Y-118727975D01*
X154087200Y-118727975D02*
X154134819Y-118632737D01*
X154134819Y-118632737D02*
X154134819Y-118442261D01*
X154134819Y-118442261D02*
X154087200Y-118347023D01*
X154087200Y-118347023D02*
X154039580Y-118299404D01*
X154039580Y-118299404D02*
X153944342Y-118251785D01*
X153944342Y-118251785D02*
X153706247Y-118251785D01*
X153706247Y-118251785D02*
X153611009Y-118299404D01*
X153611009Y-118299404D02*
X153563390Y-118347023D01*
X153563390Y-118347023D02*
X153515771Y-118442261D01*
X153515771Y-118442261D02*
X153515771Y-118632737D01*
X153515771Y-118632737D02*
X153563390Y-118727975D01*
X153563390Y-118727975D02*
X153611009Y-118775594D01*
X153611009Y-118775594D02*
X153706247Y-118823213D01*
X210280819Y-123238094D02*
X209280819Y-123238094D01*
X209280819Y-123238094D02*
X209280819Y-122999999D01*
X209280819Y-122999999D02*
X209328438Y-122857142D01*
X209328438Y-122857142D02*
X209423676Y-122761904D01*
X209423676Y-122761904D02*
X209518914Y-122714285D01*
X209518914Y-122714285D02*
X209709390Y-122666666D01*
X209709390Y-122666666D02*
X209852247Y-122666666D01*
X209852247Y-122666666D02*
X210042723Y-122714285D01*
X210042723Y-122714285D02*
X210137961Y-122761904D01*
X210137961Y-122761904D02*
X210233200Y-122857142D01*
X210233200Y-122857142D02*
X210280819Y-122999999D01*
X210280819Y-122999999D02*
X210280819Y-123238094D01*
X209280819Y-121761904D02*
X209280819Y-122238094D01*
X209280819Y-122238094D02*
X209757009Y-122285713D01*
X209757009Y-122285713D02*
X209709390Y-122238094D01*
X209709390Y-122238094D02*
X209661771Y-122142856D01*
X209661771Y-122142856D02*
X209661771Y-121904761D01*
X209661771Y-121904761D02*
X209709390Y-121809523D01*
X209709390Y-121809523D02*
X209757009Y-121761904D01*
X209757009Y-121761904D02*
X209852247Y-121714285D01*
X209852247Y-121714285D02*
X210090342Y-121714285D01*
X210090342Y-121714285D02*
X210185580Y-121761904D01*
X210185580Y-121761904D02*
X210233200Y-121809523D01*
X210233200Y-121809523D02*
X210280819Y-121904761D01*
X210280819Y-121904761D02*
X210280819Y-122142856D01*
X210280819Y-122142856D02*
X210233200Y-122238094D01*
X210233200Y-122238094D02*
X210185580Y-122285713D01*
X157338095Y-138939819D02*
X157338095Y-139749342D01*
X157338095Y-139749342D02*
X157385714Y-139844580D01*
X157385714Y-139844580D02*
X157433333Y-139892200D01*
X157433333Y-139892200D02*
X157528571Y-139939819D01*
X157528571Y-139939819D02*
X157719047Y-139939819D01*
X157719047Y-139939819D02*
X157814285Y-139892200D01*
X157814285Y-139892200D02*
X157861904Y-139844580D01*
X157861904Y-139844580D02*
X157909523Y-139749342D01*
X157909523Y-139749342D02*
X157909523Y-138939819D01*
X158814285Y-139273152D02*
X158814285Y-139939819D01*
X158576190Y-138892200D02*
X158338095Y-139606485D01*
X158338095Y-139606485D02*
X158957142Y-139606485D01*
X166761905Y-99994819D02*
X166761905Y-98994819D01*
X166761905Y-98994819D02*
X167000000Y-98994819D01*
X167000000Y-98994819D02*
X167142857Y-99042438D01*
X167142857Y-99042438D02*
X167238095Y-99137676D01*
X167238095Y-99137676D02*
X167285714Y-99232914D01*
X167285714Y-99232914D02*
X167333333Y-99423390D01*
X167333333Y-99423390D02*
X167333333Y-99566247D01*
X167333333Y-99566247D02*
X167285714Y-99756723D01*
X167285714Y-99756723D02*
X167238095Y-99851961D01*
X167238095Y-99851961D02*
X167142857Y-99947200D01*
X167142857Y-99947200D02*
X167000000Y-99994819D01*
X167000000Y-99994819D02*
X166761905Y-99994819D01*
X168285714Y-99994819D02*
X167714286Y-99994819D01*
X168000000Y-99994819D02*
X168000000Y-98994819D01*
X168000000Y-98994819D02*
X167904762Y-99137676D01*
X167904762Y-99137676D02*
X167809524Y-99232914D01*
X167809524Y-99232914D02*
X167714286Y-99280533D01*
X161284819Y-96333333D02*
X161999104Y-96333333D01*
X161999104Y-96333333D02*
X162141961Y-96380952D01*
X162141961Y-96380952D02*
X162237200Y-96476190D01*
X162237200Y-96476190D02*
X162284819Y-96619047D01*
X162284819Y-96619047D02*
X162284819Y-96714285D01*
X161618152Y-95428571D02*
X162284819Y-95428571D01*
X161237200Y-95666666D02*
X161951485Y-95904761D01*
X161951485Y-95904761D02*
X161951485Y-95285714D01*
X171311905Y-136304819D02*
X171311905Y-135304819D01*
X171311905Y-135304819D02*
X171550000Y-135304819D01*
X171550000Y-135304819D02*
X171692857Y-135352438D01*
X171692857Y-135352438D02*
X171788095Y-135447676D01*
X171788095Y-135447676D02*
X171835714Y-135542914D01*
X171835714Y-135542914D02*
X171883333Y-135733390D01*
X171883333Y-135733390D02*
X171883333Y-135876247D01*
X171883333Y-135876247D02*
X171835714Y-136066723D01*
X171835714Y-136066723D02*
X171788095Y-136161961D01*
X171788095Y-136161961D02*
X171692857Y-136257200D01*
X171692857Y-136257200D02*
X171550000Y-136304819D01*
X171550000Y-136304819D02*
X171311905Y-136304819D01*
X172740476Y-135638152D02*
X172740476Y-136304819D01*
X172502381Y-135257200D02*
X172264286Y-135971485D01*
X172264286Y-135971485D02*
X172883333Y-135971485D01*
X168454819Y-134433333D02*
X169169104Y-134433333D01*
X169169104Y-134433333D02*
X169311961Y-134480952D01*
X169311961Y-134480952D02*
X169407200Y-134576190D01*
X169407200Y-134576190D02*
X169454819Y-134719047D01*
X169454819Y-134719047D02*
X169454819Y-134814285D01*
X169454819Y-133957142D02*
X168454819Y-133957142D01*
X168454819Y-133957142D02*
X168454819Y-133576190D01*
X168454819Y-133576190D02*
X168502438Y-133480952D01*
X168502438Y-133480952D02*
X168550057Y-133433333D01*
X168550057Y-133433333D02*
X168645295Y-133385714D01*
X168645295Y-133385714D02*
X168788152Y-133385714D01*
X168788152Y-133385714D02*
X168883390Y-133433333D01*
X168883390Y-133433333D02*
X168931009Y-133480952D01*
X168931009Y-133480952D02*
X168978628Y-133576190D01*
X168978628Y-133576190D02*
X168978628Y-133957142D01*
X168788152Y-132528571D02*
X169454819Y-132528571D01*
X168407200Y-132766666D02*
X169121485Y-133004761D01*
X169121485Y-133004761D02*
X169121485Y-132385714D01*
X139666666Y-118559819D02*
X139666666Y-119274104D01*
X139666666Y-119274104D02*
X139619047Y-119416961D01*
X139619047Y-119416961D02*
X139523809Y-119512200D01*
X139523809Y-119512200D02*
X139380952Y-119559819D01*
X139380952Y-119559819D02*
X139285714Y-119559819D01*
X140571428Y-118559819D02*
X140380952Y-118559819D01*
X140380952Y-118559819D02*
X140285714Y-118607438D01*
X140285714Y-118607438D02*
X140238095Y-118655057D01*
X140238095Y-118655057D02*
X140142857Y-118797914D01*
X140142857Y-118797914D02*
X140095238Y-118988390D01*
X140095238Y-118988390D02*
X140095238Y-119369342D01*
X140095238Y-119369342D02*
X140142857Y-119464580D01*
X140142857Y-119464580D02*
X140190476Y-119512200D01*
X140190476Y-119512200D02*
X140285714Y-119559819D01*
X140285714Y-119559819D02*
X140476190Y-119559819D01*
X140476190Y-119559819D02*
X140571428Y-119512200D01*
X140571428Y-119512200D02*
X140619047Y-119464580D01*
X140619047Y-119464580D02*
X140666666Y-119369342D01*
X140666666Y-119369342D02*
X140666666Y-119131247D01*
X140666666Y-119131247D02*
X140619047Y-119036009D01*
X140619047Y-119036009D02*
X140571428Y-118988390D01*
X140571428Y-118988390D02*
X140476190Y-118940771D01*
X140476190Y-118940771D02*
X140285714Y-118940771D01*
X140285714Y-118940771D02*
X140190476Y-118988390D01*
X140190476Y-118988390D02*
X140142857Y-119036009D01*
X140142857Y-119036009D02*
X140095238Y-119131247D01*
X189591667Y-92407200D02*
X189734524Y-92454819D01*
X189734524Y-92454819D02*
X189972619Y-92454819D01*
X189972619Y-92454819D02*
X190067857Y-92407200D01*
X190067857Y-92407200D02*
X190115476Y-92359580D01*
X190115476Y-92359580D02*
X190163095Y-92264342D01*
X190163095Y-92264342D02*
X190163095Y-92169104D01*
X190163095Y-92169104D02*
X190115476Y-92073866D01*
X190115476Y-92073866D02*
X190067857Y-92026247D01*
X190067857Y-92026247D02*
X189972619Y-91978628D01*
X189972619Y-91978628D02*
X189782143Y-91931009D01*
X189782143Y-91931009D02*
X189686905Y-91883390D01*
X189686905Y-91883390D02*
X189639286Y-91835771D01*
X189639286Y-91835771D02*
X189591667Y-91740533D01*
X189591667Y-91740533D02*
X189591667Y-91645295D01*
X189591667Y-91645295D02*
X189639286Y-91550057D01*
X189639286Y-91550057D02*
X189686905Y-91502438D01*
X189686905Y-91502438D02*
X189782143Y-91454819D01*
X189782143Y-91454819D02*
X190020238Y-91454819D01*
X190020238Y-91454819D02*
X190163095Y-91502438D01*
X190496429Y-91454819D02*
X190734524Y-92454819D01*
X190734524Y-92454819D02*
X190925000Y-91740533D01*
X190925000Y-91740533D02*
X191115476Y-92454819D01*
X191115476Y-92454819D02*
X191353572Y-91454819D01*
X191686905Y-91550057D02*
X191734524Y-91502438D01*
X191734524Y-91502438D02*
X191829762Y-91454819D01*
X191829762Y-91454819D02*
X192067857Y-91454819D01*
X192067857Y-91454819D02*
X192163095Y-91502438D01*
X192163095Y-91502438D02*
X192210714Y-91550057D01*
X192210714Y-91550057D02*
X192258333Y-91645295D01*
X192258333Y-91645295D02*
X192258333Y-91740533D01*
X192258333Y-91740533D02*
X192210714Y-91883390D01*
X192210714Y-91883390D02*
X191639286Y-92454819D01*
X191639286Y-92454819D02*
X192258333Y-92454819D01*
X135686666Y-141534819D02*
X135686666Y-142249104D01*
X135686666Y-142249104D02*
X135639047Y-142391961D01*
X135639047Y-142391961D02*
X135543809Y-142487200D01*
X135543809Y-142487200D02*
X135400952Y-142534819D01*
X135400952Y-142534819D02*
X135305714Y-142534819D01*
X136067619Y-141534819D02*
X136686666Y-141534819D01*
X136686666Y-141534819D02*
X136353333Y-141915771D01*
X136353333Y-141915771D02*
X136496190Y-141915771D01*
X136496190Y-141915771D02*
X136591428Y-141963390D01*
X136591428Y-141963390D02*
X136639047Y-142011009D01*
X136639047Y-142011009D02*
X136686666Y-142106247D01*
X136686666Y-142106247D02*
X136686666Y-142344342D01*
X136686666Y-142344342D02*
X136639047Y-142439580D01*
X136639047Y-142439580D02*
X136591428Y-142487200D01*
X136591428Y-142487200D02*
X136496190Y-142534819D01*
X136496190Y-142534819D02*
X136210476Y-142534819D01*
X136210476Y-142534819D02*
X136115238Y-142487200D01*
X136115238Y-142487200D02*
X136067619Y-142439580D01*
X122666666Y-109004819D02*
X122666666Y-109719104D01*
X122666666Y-109719104D02*
X122619047Y-109861961D01*
X122619047Y-109861961D02*
X122523809Y-109957200D01*
X122523809Y-109957200D02*
X122380952Y-110004819D01*
X122380952Y-110004819D02*
X122285714Y-110004819D01*
X123619047Y-109004819D02*
X123142857Y-109004819D01*
X123142857Y-109004819D02*
X123095238Y-109481009D01*
X123095238Y-109481009D02*
X123142857Y-109433390D01*
X123142857Y-109433390D02*
X123238095Y-109385771D01*
X123238095Y-109385771D02*
X123476190Y-109385771D01*
X123476190Y-109385771D02*
X123571428Y-109433390D01*
X123571428Y-109433390D02*
X123619047Y-109481009D01*
X123619047Y-109481009D02*
X123666666Y-109576247D01*
X123666666Y-109576247D02*
X123666666Y-109814342D01*
X123666666Y-109814342D02*
X123619047Y-109909580D01*
X123619047Y-109909580D02*
X123571428Y-109957200D01*
X123571428Y-109957200D02*
X123476190Y-110004819D01*
X123476190Y-110004819D02*
X123238095Y-110004819D01*
X123238095Y-110004819D02*
X123142857Y-109957200D01*
X123142857Y-109957200D02*
X123095238Y-109909580D01*
X202375595Y-120854819D02*
X202375595Y-121664342D01*
X202375595Y-121664342D02*
X202423214Y-121759580D01*
X202423214Y-121759580D02*
X202470833Y-121807200D01*
X202470833Y-121807200D02*
X202566071Y-121854819D01*
X202566071Y-121854819D02*
X202756547Y-121854819D01*
X202756547Y-121854819D02*
X202851785Y-121807200D01*
X202851785Y-121807200D02*
X202899404Y-121759580D01*
X202899404Y-121759580D02*
X202947023Y-121664342D01*
X202947023Y-121664342D02*
X202947023Y-120854819D01*
X203327976Y-120854819D02*
X203947023Y-120854819D01*
X203947023Y-120854819D02*
X203613690Y-121235771D01*
X203613690Y-121235771D02*
X203756547Y-121235771D01*
X203756547Y-121235771D02*
X203851785Y-121283390D01*
X203851785Y-121283390D02*
X203899404Y-121331009D01*
X203899404Y-121331009D02*
X203947023Y-121426247D01*
X203947023Y-121426247D02*
X203947023Y-121664342D01*
X203947023Y-121664342D02*
X203899404Y-121759580D01*
X203899404Y-121759580D02*
X203851785Y-121807200D01*
X203851785Y-121807200D02*
X203756547Y-121854819D01*
X203756547Y-121854819D02*
X203470833Y-121854819D01*
X203470833Y-121854819D02*
X203375595Y-121807200D01*
X203375595Y-121807200D02*
X203327976Y-121759580D01*
X175916667Y-92407200D02*
X176059524Y-92454819D01*
X176059524Y-92454819D02*
X176297619Y-92454819D01*
X176297619Y-92454819D02*
X176392857Y-92407200D01*
X176392857Y-92407200D02*
X176440476Y-92359580D01*
X176440476Y-92359580D02*
X176488095Y-92264342D01*
X176488095Y-92264342D02*
X176488095Y-92169104D01*
X176488095Y-92169104D02*
X176440476Y-92073866D01*
X176440476Y-92073866D02*
X176392857Y-92026247D01*
X176392857Y-92026247D02*
X176297619Y-91978628D01*
X176297619Y-91978628D02*
X176107143Y-91931009D01*
X176107143Y-91931009D02*
X176011905Y-91883390D01*
X176011905Y-91883390D02*
X175964286Y-91835771D01*
X175964286Y-91835771D02*
X175916667Y-91740533D01*
X175916667Y-91740533D02*
X175916667Y-91645295D01*
X175916667Y-91645295D02*
X175964286Y-91550057D01*
X175964286Y-91550057D02*
X176011905Y-91502438D01*
X176011905Y-91502438D02*
X176107143Y-91454819D01*
X176107143Y-91454819D02*
X176345238Y-91454819D01*
X176345238Y-91454819D02*
X176488095Y-91502438D01*
X176821429Y-91454819D02*
X177059524Y-92454819D01*
X177059524Y-92454819D02*
X177250000Y-91740533D01*
X177250000Y-91740533D02*
X177440476Y-92454819D01*
X177440476Y-92454819D02*
X177678572Y-91454819D01*
X178583333Y-92454819D02*
X178011905Y-92454819D01*
X178297619Y-92454819D02*
X178297619Y-91454819D01*
X178297619Y-91454819D02*
X178202381Y-91597676D01*
X178202381Y-91597676D02*
X178107143Y-91692914D01*
X178107143Y-91692914D02*
X178011905Y-91740533D01*
X126454819Y-109288094D02*
X125454819Y-109288094D01*
X125454819Y-109288094D02*
X125454819Y-109049999D01*
X125454819Y-109049999D02*
X125502438Y-108907142D01*
X125502438Y-108907142D02*
X125597676Y-108811904D01*
X125597676Y-108811904D02*
X125692914Y-108764285D01*
X125692914Y-108764285D02*
X125883390Y-108716666D01*
X125883390Y-108716666D02*
X126026247Y-108716666D01*
X126026247Y-108716666D02*
X126216723Y-108764285D01*
X126216723Y-108764285D02*
X126311961Y-108811904D01*
X126311961Y-108811904D02*
X126407200Y-108907142D01*
X126407200Y-108907142D02*
X126454819Y-109049999D01*
X126454819Y-109049999D02*
X126454819Y-109288094D01*
X125454819Y-108383332D02*
X125454819Y-107764285D01*
X125454819Y-107764285D02*
X125835771Y-108097618D01*
X125835771Y-108097618D02*
X125835771Y-107954761D01*
X125835771Y-107954761D02*
X125883390Y-107859523D01*
X125883390Y-107859523D02*
X125931009Y-107811904D01*
X125931009Y-107811904D02*
X126026247Y-107764285D01*
X126026247Y-107764285D02*
X126264342Y-107764285D01*
X126264342Y-107764285D02*
X126359580Y-107811904D01*
X126359580Y-107811904D02*
X126407200Y-107859523D01*
X126407200Y-107859523D02*
X126454819Y-107954761D01*
X126454819Y-107954761D02*
X126454819Y-108240475D01*
X126454819Y-108240475D02*
X126407200Y-108335713D01*
X126407200Y-108335713D02*
X126359580Y-108383332D01*
X205224333Y-99440180D02*
X205224333Y-98725895D01*
X205224333Y-98725895D02*
X205271952Y-98583038D01*
X205271952Y-98583038D02*
X205367190Y-98487800D01*
X205367190Y-98487800D02*
X205510047Y-98440180D01*
X205510047Y-98440180D02*
X205605285Y-98440180D01*
X204224333Y-98440180D02*
X204795761Y-98440180D01*
X204510047Y-98440180D02*
X204510047Y-99440180D01*
X204510047Y-99440180D02*
X204605285Y-99297323D01*
X204605285Y-99297323D02*
X204700523Y-99202085D01*
X204700523Y-99202085D02*
X204795761Y-99154466D01*
X159238095Y-108454819D02*
X159238095Y-109264342D01*
X159238095Y-109264342D02*
X159285714Y-109359580D01*
X159285714Y-109359580D02*
X159333333Y-109407200D01*
X159333333Y-109407200D02*
X159428571Y-109454819D01*
X159428571Y-109454819D02*
X159619047Y-109454819D01*
X159619047Y-109454819D02*
X159714285Y-109407200D01*
X159714285Y-109407200D02*
X159761904Y-109359580D01*
X159761904Y-109359580D02*
X159809523Y-109264342D01*
X159809523Y-109264342D02*
X159809523Y-108454819D01*
X160809523Y-109454819D02*
X160238095Y-109454819D01*
X160523809Y-109454819D02*
X160523809Y-108454819D01*
X160523809Y-108454819D02*
X160428571Y-108597676D01*
X160428571Y-108597676D02*
X160333333Y-108692914D01*
X160333333Y-108692914D02*
X160238095Y-108740533D01*
X140324819Y-96333333D02*
X141039104Y-96333333D01*
X141039104Y-96333333D02*
X141181961Y-96380952D01*
X141181961Y-96380952D02*
X141277200Y-96476190D01*
X141277200Y-96476190D02*
X141324819Y-96619047D01*
X141324819Y-96619047D02*
X141324819Y-96714285D01*
X140420057Y-95904761D02*
X140372438Y-95857142D01*
X140372438Y-95857142D02*
X140324819Y-95761904D01*
X140324819Y-95761904D02*
X140324819Y-95523809D01*
X140324819Y-95523809D02*
X140372438Y-95428571D01*
X140372438Y-95428571D02*
X140420057Y-95380952D01*
X140420057Y-95380952D02*
X140515295Y-95333333D01*
X140515295Y-95333333D02*
X140610533Y-95333333D01*
X140610533Y-95333333D02*
X140753390Y-95380952D01*
X140753390Y-95380952D02*
X141324819Y-95952380D01*
X141324819Y-95952380D02*
X141324819Y-95333333D01*
X200375595Y-109304819D02*
X200375595Y-110114342D01*
X200375595Y-110114342D02*
X200423214Y-110209580D01*
X200423214Y-110209580D02*
X200470833Y-110257200D01*
X200470833Y-110257200D02*
X200566071Y-110304819D01*
X200566071Y-110304819D02*
X200756547Y-110304819D01*
X200756547Y-110304819D02*
X200851785Y-110257200D01*
X200851785Y-110257200D02*
X200899404Y-110209580D01*
X200899404Y-110209580D02*
X200947023Y-110114342D01*
X200947023Y-110114342D02*
X200947023Y-109304819D01*
X201375595Y-109400057D02*
X201423214Y-109352438D01*
X201423214Y-109352438D02*
X201518452Y-109304819D01*
X201518452Y-109304819D02*
X201756547Y-109304819D01*
X201756547Y-109304819D02*
X201851785Y-109352438D01*
X201851785Y-109352438D02*
X201899404Y-109400057D01*
X201899404Y-109400057D02*
X201947023Y-109495295D01*
X201947023Y-109495295D02*
X201947023Y-109590533D01*
X201947023Y-109590533D02*
X201899404Y-109733390D01*
X201899404Y-109733390D02*
X201327976Y-110304819D01*
X201327976Y-110304819D02*
X201947023Y-110304819D01*
D12*
%TO.C,R9*%
X143272936Y-119765000D02*
X143727064Y-119765000D01*
X143272936Y-121235000D02*
X143727064Y-121235000D01*
%TO.C,R6*%
X124772936Y-139015000D02*
X125227064Y-139015000D01*
X124772936Y-140485000D02*
X125227064Y-140485000D01*
%TO.C,R5*%
X212016000Y-104514564D02*
X212016000Y-104060436D01*
X213486000Y-104514564D02*
X213486000Y-104060436D01*
%TO.C,R4*%
X212016000Y-98227064D02*
X212016000Y-97772936D01*
X213486000Y-98227064D02*
X213486000Y-97772936D01*
%TO.C,R3*%
X124735436Y-135265000D02*
X125189564Y-135265000D01*
X124735436Y-136735000D02*
X125189564Y-136735000D01*
%TO.C,R2*%
X198036000Y-100572936D02*
X198036000Y-101027064D01*
X196566000Y-100572936D02*
X196566000Y-101027064D01*
%TO.C,P2_C5*%
X193265000Y-119298752D02*
X193265000Y-118776248D01*
X194735000Y-119298752D02*
X194735000Y-118776248D01*
%TO.C,P2_C4*%
X203287252Y-125735000D02*
X202764748Y-125735000D01*
X203287252Y-124265000D02*
X202764748Y-124265000D01*
%TO.C,P1_R7*%
X206236000Y-109272936D02*
X206236000Y-109727064D01*
X204766000Y-109272936D02*
X204766000Y-109727064D01*
%TO.C,P1_C3*%
X194512252Y-108735000D02*
X193989748Y-108735000D01*
X194512252Y-107265000D02*
X193989748Y-107265000D01*
%TO.C,P1_C2*%
X205787252Y-101985000D02*
X205264748Y-101985000D01*
X205787252Y-100515000D02*
X205264748Y-100515000D01*
%TO.C,P1_C1*%
X200012252Y-112485000D02*
X199489748Y-112485000D01*
X200012252Y-111015000D02*
X199489748Y-111015000D01*
%TO.C,L_R13*%
X134235000Y-114272936D02*
X134235000Y-114727064D01*
X132765000Y-114272936D02*
X132765000Y-114727064D01*
%TO.C,L_R1*%
X210766000Y-117727064D02*
X210766000Y-117272936D01*
X212236000Y-117727064D02*
X212236000Y-117272936D01*
%TO.C,C11*%
X130988748Y-124265000D02*
X131511252Y-124265000D01*
X130988748Y-125735000D02*
X131511252Y-125735000D01*
%TO.C,C8*%
X163735000Y-122701248D02*
X163735000Y-123223752D01*
X162265000Y-122701248D02*
X162265000Y-123223752D01*
%TO.C,C7*%
X124738748Y-130665000D02*
X125261252Y-130665000D01*
X124738748Y-132135000D02*
X125261252Y-132135000D01*
%TO.C,B_R10*%
X170447936Y-100765000D02*
X170902064Y-100765000D01*
X170447936Y-102235000D02*
X170902064Y-102235000D01*
%TO.C,B_R6*%
X184447936Y-101265000D02*
X184902064Y-101265000D01*
X184447936Y-102735000D02*
X184902064Y-102735000D01*
%TO.C,B_C21*%
X143723752Y-125235000D02*
X143201248Y-125235000D01*
X143723752Y-123765000D02*
X143201248Y-123765000D01*
%TO.C,B_C20*%
X164713748Y-95265000D02*
X165236252Y-95265000D01*
X164713748Y-96735000D02*
X165236252Y-96735000D01*
%TO.C,@P_R14*%
X169227500Y-123302064D02*
X169227500Y-122847936D01*
X170697500Y-123302064D02*
X170697500Y-122847936D01*
%TO.C,@P_C19*%
X172765000Y-123298752D02*
X172765000Y-122776248D01*
X174235000Y-123298752D02*
X174235000Y-122776248D01*
%TO.C,@P_C18*%
X169205000Y-115776248D02*
X169205000Y-116298752D01*
X167735000Y-115776248D02*
X167735000Y-116298752D01*
%TO.C,@P_C17*%
X172715000Y-115776248D02*
X172715000Y-116298752D01*
X171245000Y-115776248D02*
X171245000Y-116298752D01*
%TO.C,@P_C16*%
X181235000Y-122851248D02*
X181235000Y-123373752D01*
X179765000Y-122851248D02*
X179765000Y-123373752D01*
%TO.C,@P_C15*%
X183735000Y-122851248D02*
X183735000Y-123373752D01*
X182265000Y-122851248D02*
X182265000Y-123373752D01*
%TO.C,@P_C14*%
X176225000Y-115776248D02*
X176225000Y-116298752D01*
X174755000Y-115776248D02*
X174755000Y-116298752D01*
%TO.C,@P_C13*%
X179735000Y-115776248D02*
X179735000Y-116298752D01*
X178265000Y-115776248D02*
X178265000Y-116298752D01*
%TO.C,@P_C9*%
X176265000Y-123373752D02*
X176265000Y-122851248D01*
X177735000Y-123373752D02*
X177735000Y-122851248D01*
%TO.C,@G2_C12*%
X165765000Y-106298752D02*
X165765000Y-105776248D01*
X167235000Y-106298752D02*
X167235000Y-105776248D01*
%TO.C,@G1_C6*%
X152735000Y-120776248D02*
X152735000Y-121298752D01*
X151265000Y-120776248D02*
X151265000Y-121298752D01*
%TO.C,D5*%
X210516000Y-121500000D02*
X210516000Y-124360000D01*
X210516000Y-124360000D02*
X212436000Y-124360000D01*
X212436000Y-124360000D02*
X212436000Y-121500000D01*
%TO.C,U4*%
X155340000Y-133125000D02*
X160860000Y-133125000D01*
X155340000Y-133395000D02*
X155340000Y-133125000D01*
X155340000Y-138645000D02*
X155340000Y-138375000D01*
X160860000Y-133125000D02*
X160860000Y-133395000D01*
X160860000Y-138375000D02*
X160860000Y-138645000D01*
X160860000Y-138645000D02*
X155340000Y-138645000D01*
X162030000Y-138855000D02*
X161350000Y-138855000D01*
X161690000Y-138385000D01*
X162030000Y-138855000D01*
G36*
X162030000Y-138855000D02*
G01*
X161350000Y-138855000D01*
X161690000Y-138385000D01*
X162030000Y-138855000D01*
G37*
D13*
%TO.C,G\u002A\u002A\u002A*%
G36*
X191917857Y-133030555D02*
G01*
X191867460Y-133080952D01*
X191817063Y-133030555D01*
X191867460Y-132980158D01*
X191917857Y-133030555D01*
G37*
G36*
X191917857Y-140590079D02*
G01*
X191867460Y-140640476D01*
X191817063Y-140590079D01*
X191867460Y-140539682D01*
X191917857Y-140590079D01*
G37*
G36*
X192825000Y-133030555D02*
G01*
X192774603Y-133080952D01*
X192724206Y-133030555D01*
X192774603Y-132980158D01*
X192825000Y-133030555D01*
G37*
G36*
X192825000Y-140590079D02*
G01*
X192774603Y-140640476D01*
X192724206Y-140590079D01*
X192774603Y-140539682D01*
X192825000Y-140590079D01*
G37*
G36*
X202267663Y-138908085D02*
G01*
X202279679Y-139065613D01*
X202259705Y-139101273D01*
X202213894Y-139071212D01*
X202206767Y-138968981D01*
X202231383Y-138861431D01*
X202267663Y-138908085D01*
G37*
G36*
X203677116Y-142185978D02*
G01*
X203689179Y-142305597D01*
X203677116Y-142320370D01*
X203617194Y-142306534D01*
X203609920Y-142253174D01*
X203646799Y-142170210D01*
X203677116Y-142185978D01*
G37*
G36*
X195602550Y-134559397D02*
G01*
X195584887Y-134638019D01*
X195503551Y-134779892D01*
X195450957Y-134756126D01*
X195445635Y-134699599D01*
X195518839Y-134562921D01*
X195545274Y-134543174D01*
X195602550Y-134559397D01*
G37*
G36*
X196005725Y-136978445D02*
G01*
X195988061Y-137057066D01*
X195906725Y-137198940D01*
X195854131Y-137175173D01*
X195848809Y-137118647D01*
X195922014Y-136981968D01*
X195948448Y-136962221D01*
X196005725Y-136978445D01*
G37*
G36*
X188387150Y-133157653D02*
G01*
X188390079Y-133181746D01*
X188313378Y-133279610D01*
X188289285Y-133282539D01*
X188191421Y-133205838D01*
X188188492Y-133181746D01*
X188265193Y-133083881D01*
X188289285Y-133080952D01*
X188387150Y-133157653D01*
G37*
G36*
X188486771Y-129827929D02*
G01*
X188490873Y-129855555D01*
X188456484Y-129953728D01*
X188446424Y-129956349D01*
X188360370Y-129885719D01*
X188339682Y-129855555D01*
X188347674Y-129762676D01*
X188384131Y-129754762D01*
X188486771Y-129827929D01*
G37*
G36*
X192598214Y-129984949D02*
G01*
X192660745Y-130006922D01*
X192546273Y-130022121D01*
X192321032Y-130026938D01*
X192072193Y-130020688D01*
X191978931Y-130004418D01*
X192043849Y-129984949D01*
X192369423Y-129968076D01*
X192598214Y-129984949D01*
G37*
G36*
X192598214Y-136234155D02*
G01*
X192660745Y-136256128D01*
X192546273Y-136271327D01*
X192321032Y-136276145D01*
X192072193Y-136269894D01*
X191978931Y-136253624D01*
X192043849Y-136234155D01*
X192369423Y-136217282D01*
X192598214Y-136234155D01*
G37*
G36*
X192598214Y-136536536D02*
G01*
X192660745Y-136558509D01*
X192546273Y-136573708D01*
X192321032Y-136578526D01*
X192072193Y-136572275D01*
X191978931Y-136556005D01*
X192043849Y-136536536D01*
X192369423Y-136519663D01*
X192598214Y-136536536D01*
G37*
G36*
X194464282Y-136436984D02*
G01*
X194504841Y-136460592D01*
X194372782Y-136475808D01*
X194185714Y-136479108D01*
X193957020Y-136471565D01*
X193890129Y-136453504D01*
X193960314Y-136435609D01*
X194258400Y-136419027D01*
X194464282Y-136436984D01*
G37*
G36*
X192700813Y-133311313D02*
G01*
X192756487Y-133332316D01*
X192636560Y-133346980D01*
X192371428Y-133352100D01*
X192112764Y-133346042D01*
X192013124Y-133331134D01*
X192093640Y-133310585D01*
X192096051Y-133310285D01*
X192424755Y-133293825D01*
X192700813Y-133311313D01*
G37*
G36*
X192700813Y-140870837D02*
G01*
X192756487Y-140891840D01*
X192636560Y-140906504D01*
X192371428Y-140911624D01*
X192112764Y-140905566D01*
X192013124Y-140890658D01*
X192093640Y-140870109D01*
X192096051Y-140869808D01*
X192424755Y-140853348D01*
X192700813Y-140870837D01*
G37*
G36*
X200268170Y-141019867D02*
G01*
X200511660Y-141064517D01*
X200571872Y-141108858D01*
X200466475Y-141168630D01*
X200444717Y-141177134D01*
X200255707Y-141167092D01*
X200126777Y-141102297D01*
X200031267Y-141018404D01*
X200090358Y-140998539D01*
X200268170Y-141019867D01*
G37*
G36*
X202778909Y-141194115D02*
G01*
X202706100Y-141295635D01*
X202582286Y-141465554D01*
X202529712Y-141539219D01*
X202502558Y-141506091D01*
X202501190Y-141475966D01*
X202572598Y-141335522D01*
X202677579Y-141232381D01*
X202795465Y-141146494D01*
X202778909Y-141194115D01*
G37*
G36*
X193982843Y-131265601D02*
G01*
X194183372Y-131342490D01*
X194290459Y-131329494D01*
X194395572Y-131321757D01*
X194386588Y-131368615D01*
X194238278Y-131453193D01*
X194027665Y-131458585D01*
X193900132Y-131401058D01*
X193828379Y-131269355D01*
X193884191Y-131216276D01*
X193982843Y-131265601D01*
G37*
G36*
X195067658Y-130929462D02*
G01*
X195122333Y-131053641D01*
X195143254Y-131266666D01*
X195119731Y-131491297D01*
X195067658Y-131603871D01*
X195019874Y-131546409D01*
X194993733Y-131345809D01*
X194992063Y-131266666D01*
X195009193Y-131034571D01*
X195051872Y-130928183D01*
X195067658Y-130929462D01*
G37*
G36*
X194975431Y-129774955D02*
G01*
X195070700Y-129781902D01*
X195164940Y-129798030D01*
X195078191Y-129810709D01*
X194831041Y-129818319D01*
X194588889Y-129819778D01*
X194253672Y-129816045D01*
X194072124Y-129806421D01*
X194062086Y-129792517D01*
X194163557Y-129781344D01*
X194567019Y-129766092D01*
X194975431Y-129774955D01*
G37*
G36*
X194764822Y-131085477D02*
G01*
X194789814Y-131281746D01*
X194790476Y-131326688D01*
X194788307Y-131556205D01*
X194782994Y-131667791D01*
X194782076Y-131669841D01*
X194718259Y-131614296D01*
X194706481Y-131602645D01*
X194650350Y-131450211D01*
X194645011Y-131231651D01*
X194688823Y-131058858D01*
X194714881Y-131030256D01*
X194764822Y-131085477D01*
G37*
G36*
X194034524Y-132492831D02*
G01*
X194133922Y-132616511D01*
X194201286Y-132861236D01*
X194227642Y-133147788D01*
X194204018Y-133396948D01*
X194149736Y-133510025D01*
X194093473Y-133498364D01*
X194093901Y-133297621D01*
X194106017Y-133194915D01*
X194106549Y-132805184D01*
X194022467Y-132611954D01*
X193935769Y-132489771D01*
X193991120Y-132479629D01*
X194034524Y-132492831D01*
G37*
G36*
X194380147Y-140499307D02*
G01*
X194344396Y-140714696D01*
X194338489Y-140735744D01*
X194304358Y-140984878D01*
X194370724Y-141080564D01*
X194383128Y-141119950D01*
X194270744Y-141136487D01*
X194132891Y-141124769D01*
X194099121Y-141038651D01*
X194152048Y-140823173D01*
X194161663Y-140791666D01*
X194259796Y-140546959D01*
X194342286Y-140446450D01*
X194380147Y-140499307D01*
G37*
G36*
X196675118Y-136422029D02*
G01*
X196986930Y-136433418D01*
X197123282Y-136446060D01*
X197074858Y-136456687D01*
X196858464Y-136464430D01*
X196490907Y-136468422D01*
X196302381Y-136468774D01*
X195883651Y-136466366D01*
X195614576Y-136459960D01*
X195510313Y-136450418D01*
X195586023Y-136438604D01*
X195676612Y-136433097D01*
X196157962Y-136419561D01*
X196675118Y-136422029D01*
G37*
G36*
X203378076Y-140656483D02*
G01*
X203635119Y-140666642D01*
X203777088Y-140679551D01*
X203733766Y-140690390D01*
X203521448Y-140698232D01*
X203156427Y-140702152D01*
X203005158Y-140702428D01*
X202593299Y-140700005D01*
X202328762Y-140693356D01*
X202227842Y-140683404D01*
X202306834Y-140671076D01*
X202375198Y-140666642D01*
X202854467Y-140652600D01*
X203378076Y-140656483D01*
G37*
G36*
X193761206Y-132627226D02*
G01*
X193753664Y-132854248D01*
X193747980Y-132928983D01*
X193751717Y-133262772D01*
X193811678Y-133500815D01*
X193834937Y-133536934D01*
X193911448Y-133658047D01*
X193901390Y-133685714D01*
X193808125Y-133612598D01*
X193687461Y-133461699D01*
X193544128Y-133114747D01*
X193583335Y-132775496D01*
X193657527Y-132643456D01*
X193732096Y-132566228D01*
X193761206Y-132627226D01*
G37*
G36*
X194425574Y-130706679D02*
G01*
X194287754Y-130731917D01*
X194082187Y-130806785D01*
X194049818Y-130906122D01*
X194201397Y-130993040D01*
X194210912Y-130995599D01*
X194295676Y-131031935D01*
X194186600Y-131051495D01*
X194153125Y-131053387D01*
X193977343Y-131021201D01*
X193952400Y-130888690D01*
X194074999Y-130740980D01*
X194263418Y-130700023D01*
X194442465Y-130694352D01*
X194425574Y-130706679D01*
G37*
G36*
X193884771Y-140604035D02*
G01*
X193890895Y-140791370D01*
X193866857Y-141024676D01*
X193817573Y-141141156D01*
X193807738Y-141144147D01*
X193739832Y-141226023D01*
X193732143Y-141289686D01*
X193661102Y-141467581D01*
X193616649Y-141506307D01*
X193545996Y-141500982D01*
X193563388Y-141330806D01*
X193571124Y-141298909D01*
X193646828Y-140975455D01*
X193699217Y-140729511D01*
X193771245Y-140495993D01*
X193840139Y-140456440D01*
X193884771Y-140604035D01*
G37*
G36*
X196932867Y-137157586D02*
G01*
X196919690Y-137239555D01*
X196856094Y-137533437D01*
X196802081Y-137730908D01*
X196801745Y-137950123D01*
X196871158Y-138030881D01*
X196948429Y-138101934D01*
X196848346Y-138119091D01*
X196676116Y-138091003D01*
X196635599Y-138067478D01*
X196613293Y-137931718D01*
X196643373Y-137685001D01*
X196708794Y-137405620D01*
X196792510Y-137171869D01*
X196850724Y-137079392D01*
X196928060Y-137037264D01*
X196932867Y-137157586D01*
G37*
G36*
X203580223Y-141414301D02*
G01*
X203613788Y-141504591D01*
X203627812Y-141689952D01*
X203582235Y-141763762D01*
X203507611Y-141901546D01*
X203470001Y-142141508D01*
X203439469Y-142358554D01*
X203381060Y-142454303D01*
X203378014Y-142454532D01*
X203336067Y-142366529D01*
X203332586Y-142147756D01*
X203338975Y-142076785D01*
X203388674Y-141770551D01*
X203454760Y-141524183D01*
X203462514Y-141504591D01*
X203531253Y-141366237D01*
X203580223Y-141414301D01*
G37*
G36*
X200622130Y-140444386D02*
G01*
X200678357Y-140531896D01*
X200576971Y-140513445D01*
X200355594Y-140513066D01*
X200274590Y-140547464D01*
X200195185Y-140619597D01*
X200305131Y-140638895D01*
X200308928Y-140638932D01*
X200458555Y-140687825D01*
X200485317Y-140741270D01*
X200400898Y-140823163D01*
X200283730Y-140842063D01*
X200120325Y-140780621D01*
X200082143Y-140694419D01*
X200161998Y-140521748D01*
X200343562Y-140408543D01*
X200539828Y-140395091D01*
X200622130Y-140444386D01*
G37*
G36*
X195004081Y-140985462D02*
G01*
X194958499Y-141288292D01*
X194853721Y-141417724D01*
X194702516Y-141362619D01*
X194643158Y-141300300D01*
X194566283Y-141054292D01*
X194599099Y-140868570D01*
X194654232Y-140699525D01*
X194684553Y-140695855D01*
X194708266Y-140872891D01*
X194717233Y-140968055D01*
X194760646Y-141211144D01*
X194824374Y-141339874D01*
X194840873Y-141346031D01*
X194908042Y-141257014D01*
X194963526Y-141036283D01*
X194972798Y-140968055D01*
X195016099Y-140590079D01*
X195004081Y-140985462D01*
G37*
G36*
X201253288Y-140985462D02*
G01*
X201207706Y-141288292D01*
X201102928Y-141417724D01*
X200951722Y-141362619D01*
X200892364Y-141300300D01*
X200815489Y-141054292D01*
X200848305Y-140868570D01*
X200903438Y-140699525D01*
X200933759Y-140695855D01*
X200957473Y-140872891D01*
X200966439Y-140968055D01*
X201009853Y-141211144D01*
X201073581Y-141339874D01*
X201090079Y-141346031D01*
X201157248Y-141257014D01*
X201212732Y-141036283D01*
X201222005Y-140968055D01*
X201265305Y-140590079D01*
X201253288Y-140985462D01*
G37*
G36*
X198942953Y-140407595D02*
G01*
X199072780Y-140605451D01*
X199256807Y-140669675D01*
X199527778Y-140711065D01*
X199257290Y-140726167D01*
X199045685Y-140784661D01*
X198953620Y-140968183D01*
X198944813Y-141018452D01*
X198902823Y-141295635D01*
X198887721Y-141025147D01*
X198829227Y-140813542D01*
X198645706Y-140721477D01*
X198595436Y-140712670D01*
X198318254Y-140670680D01*
X198595436Y-140655578D01*
X198809081Y-140600686D01*
X198884276Y-140439233D01*
X198886345Y-140413690D01*
X198900071Y-140186904D01*
X198942953Y-140407595D01*
G37*
G36*
X196686181Y-138819717D02*
G01*
X196591300Y-138947431D01*
X196359174Y-139385389D01*
X196211313Y-139949949D01*
X196149668Y-140583697D01*
X196176193Y-141229218D01*
X196292840Y-141829098D01*
X196477824Y-142284908D01*
X196642174Y-142593055D01*
X196696430Y-142732773D01*
X196640551Y-142704531D01*
X196474492Y-142508798D01*
X196459085Y-142489275D01*
X196205121Y-142038161D01*
X196046063Y-141484501D01*
X195979835Y-140875618D01*
X196004366Y-140258834D01*
X196117581Y-139681471D01*
X196317406Y-139190849D01*
X196601769Y-138834292D01*
X196619901Y-138819447D01*
X196715881Y-138754308D01*
X196686181Y-138819717D01*
G37*
G36*
X189076173Y-140368772D02*
G01*
X188971703Y-140494945D01*
X188855740Y-140658906D01*
X188877875Y-140780651D01*
X188971703Y-140892600D01*
X189087389Y-141022850D01*
X189063084Y-141018845D01*
X188961458Y-140943401D01*
X188783539Y-140855846D01*
X188596818Y-140912621D01*
X188558283Y-140934987D01*
X188409133Y-141019629D01*
X188419733Y-140984878D01*
X188514011Y-140884186D01*
X188629900Y-140736385D01*
X188606547Y-140611973D01*
X188517371Y-140494945D01*
X188403927Y-140354263D01*
X188424897Y-140360193D01*
X188538970Y-140462027D01*
X188693328Y-140577998D01*
X188817769Y-140555823D01*
X188938784Y-140462027D01*
X189080208Y-140346073D01*
X189076173Y-140368772D01*
G37*
G36*
X204817445Y-138923069D02*
G01*
X204980653Y-139186970D01*
X205190857Y-139688651D01*
X205304001Y-140273418D01*
X205323619Y-140891372D01*
X205253246Y-141492619D01*
X205096415Y-142027262D01*
X204856661Y-142445405D01*
X204741278Y-142566276D01*
X204590965Y-142691613D01*
X204580798Y-142677033D01*
X204639932Y-142602263D01*
X204912191Y-142160958D01*
X205080272Y-141599480D01*
X205151921Y-140889745D01*
X205155298Y-140733504D01*
X205151015Y-140270253D01*
X205116990Y-139933757D01*
X205039557Y-139649830D01*
X204905051Y-139344282D01*
X204896057Y-139326044D01*
X204735587Y-138979349D01*
X204671609Y-138792324D01*
X204700203Y-138771415D01*
X204817445Y-138923069D01*
G37*
G36*
X188690569Y-136153447D02*
G01*
X188860005Y-136272008D01*
X189000936Y-136243891D01*
X189068546Y-136196005D01*
X189183695Y-136111403D01*
X189167432Y-136148927D01*
X189066085Y-136270434D01*
X188950263Y-136429656D01*
X188972272Y-136509797D01*
X189040886Y-136542716D01*
X189177317Y-136657396D01*
X189196428Y-136721982D01*
X189140207Y-136764290D01*
X189014379Y-136676809D01*
X188864015Y-136568596D01*
X188738477Y-136603228D01*
X188639763Y-136686385D01*
X188510213Y-136800955D01*
X188517300Y-136777661D01*
X188622768Y-136648380D01*
X188736866Y-136481709D01*
X188713042Y-136372855D01*
X188644606Y-136308459D01*
X188516062Y-136154613D01*
X188490873Y-136076798D01*
X188552054Y-136057373D01*
X188690569Y-136153447D01*
G37*
G36*
X197622446Y-139945166D02*
G01*
X197700524Y-140011142D01*
X197709726Y-140185704D01*
X197687928Y-140413690D01*
X197637373Y-140725009D01*
X197568619Y-140959730D01*
X197536777Y-141018452D01*
X197361991Y-141116459D01*
X197121985Y-141142670D01*
X196933478Y-141085888D01*
X196923942Y-141077248D01*
X196859738Y-140929720D01*
X196964645Y-140845443D01*
X197007936Y-140842063D01*
X197142069Y-140896489D01*
X197159127Y-140942857D01*
X197235828Y-141040721D01*
X197259920Y-141043650D01*
X197320031Y-140953562D01*
X197356089Y-140725629D01*
X197360714Y-140590079D01*
X197340694Y-140319580D01*
X197290043Y-140157320D01*
X197259920Y-140136508D01*
X197162056Y-140059806D01*
X197159127Y-140035714D01*
X197246421Y-139963804D01*
X197449126Y-139934920D01*
X197622446Y-139945166D01*
G37*
G36*
X202656132Y-138810675D02*
G01*
X202766691Y-139025768D01*
X202798444Y-139309560D01*
X202744326Y-139600933D01*
X202601984Y-139834127D01*
X202344932Y-140011693D01*
X202120917Y-139992502D01*
X201997641Y-139885028D01*
X201929168Y-139737074D01*
X201992573Y-139554845D01*
X202038020Y-139481853D01*
X202188167Y-139301431D01*
X202309126Y-139229365D01*
X202333305Y-139286012D01*
X202256406Y-139387755D01*
X202133527Y-139583324D01*
X202104215Y-139783897D01*
X202171069Y-139916658D01*
X202236864Y-139934920D01*
X202438214Y-139848296D01*
X202565489Y-139643279D01*
X202572919Y-139431489D01*
X202567107Y-139270480D01*
X202611420Y-139229365D01*
X202698320Y-139167385D01*
X202650900Y-139015314D01*
X202544388Y-138883787D01*
X202454466Y-138762093D01*
X202473832Y-138725396D01*
X202656132Y-138810675D01*
G37*
G36*
X203069364Y-141357492D02*
G01*
X203192492Y-141555549D01*
X203156144Y-141829668D01*
X203006263Y-142127182D01*
X202804614Y-142356429D01*
X202588109Y-142453065D01*
X202406464Y-142404528D01*
X202333586Y-142297143D01*
X202326665Y-142100259D01*
X202398570Y-141870513D01*
X202513628Y-141694073D01*
X202602147Y-141648412D01*
X202629378Y-141718787D01*
X202549855Y-141888827D01*
X202545223Y-141895964D01*
X202443530Y-142142797D01*
X202496946Y-142305900D01*
X202656409Y-142353968D01*
X202783293Y-142268196D01*
X202868301Y-142069960D01*
X202883824Y-141847874D01*
X202847884Y-141739361D01*
X202829535Y-141665319D01*
X202903405Y-141698216D01*
X202990489Y-141711275D01*
X202993137Y-141568164D01*
X202983184Y-141511321D01*
X202963842Y-141333652D01*
X203019371Y-141320405D01*
X203069364Y-141357492D01*
G37*
G36*
X194762149Y-128260770D02*
G01*
X194954574Y-128352412D01*
X195022429Y-128463445D01*
X194984374Y-128639233D01*
X194853027Y-128829851D01*
X194686731Y-128971688D01*
X194543828Y-129001136D01*
X194533963Y-128996010D01*
X194429167Y-129029468D01*
X194342441Y-129168723D01*
X194248889Y-129401984D01*
X194242500Y-129171961D01*
X194276964Y-128924940D01*
X194315482Y-128799765D01*
X194475771Y-128799765D01*
X194492407Y-128854596D01*
X194600643Y-128897396D01*
X194730529Y-128807486D01*
X194824857Y-128637680D01*
X194840873Y-128532896D01*
X194797765Y-128375908D01*
X194743625Y-128343650D01*
X194616893Y-128427131D01*
X194511481Y-128611971D01*
X194475771Y-128799765D01*
X194315482Y-128799765D01*
X194369733Y-128623461D01*
X194385202Y-128585112D01*
X194515562Y-128344015D01*
X194661781Y-128258209D01*
X194762149Y-128260770D01*
G37*
G36*
X187404064Y-135708969D02*
G01*
X187620607Y-135728137D01*
X187684524Y-135749751D01*
X187641800Y-135878054D01*
X187534204Y-136110802D01*
X187392595Y-136389168D01*
X187247833Y-136654328D01*
X187130779Y-136847456D01*
X187075267Y-136911111D01*
X187006250Y-136825972D01*
X186887357Y-136603275D01*
X186751031Y-136306349D01*
X186579230Y-135908180D01*
X186777381Y-135908180D01*
X186818097Y-136057370D01*
X186914074Y-136274642D01*
X187026054Y-136482040D01*
X187114783Y-136601607D01*
X187130158Y-136608730D01*
X187202009Y-136529166D01*
X187316670Y-136335221D01*
X187329157Y-136311354D01*
X187454452Y-136027760D01*
X187448919Y-135872650D01*
X187298564Y-135810232D01*
X187130158Y-135802381D01*
X186897002Y-135828949D01*
X186780435Y-135894279D01*
X186777381Y-135908180D01*
X186579230Y-135908180D01*
X186490090Y-135701587D01*
X187087307Y-135701587D01*
X187404064Y-135708969D01*
G37*
G36*
X187296978Y-132387370D02*
G01*
X187514678Y-132411211D01*
X187580158Y-132445708D01*
X187529999Y-132583320D01*
X187424763Y-132778571D01*
X187322705Y-132940041D01*
X187302757Y-132932165D01*
X187334333Y-132803770D01*
X187354358Y-132659771D01*
X187278199Y-132594461D01*
X187058671Y-132577321D01*
X186983712Y-132576984D01*
X186571696Y-132576984D01*
X186787450Y-132999896D01*
X186922083Y-133248506D01*
X187009531Y-133340274D01*
X187088627Y-133300669D01*
X187142276Y-133232616D01*
X187245671Y-133122146D01*
X187278143Y-133137283D01*
X187223207Y-133277366D01*
X187107022Y-133452653D01*
X186993167Y-133572646D01*
X186963655Y-133584920D01*
X186900243Y-133502034D01*
X186778684Y-133286275D01*
X186647187Y-133028322D01*
X186504094Y-132731835D01*
X186405258Y-132518019D01*
X186374206Y-132440101D01*
X186465792Y-132420115D01*
X186703839Y-132400066D01*
X186978968Y-132386653D01*
X187296978Y-132387370D01*
G37*
G36*
X187296978Y-139946893D02*
G01*
X187514678Y-139970735D01*
X187580158Y-140005232D01*
X187529999Y-140142844D01*
X187424763Y-140338095D01*
X187322705Y-140499565D01*
X187302757Y-140491688D01*
X187334333Y-140363293D01*
X187354358Y-140219295D01*
X187278199Y-140153985D01*
X187058671Y-140136845D01*
X186983712Y-140136508D01*
X186571696Y-140136508D01*
X186787450Y-140559420D01*
X186922083Y-140808030D01*
X187009531Y-140899798D01*
X187088627Y-140860193D01*
X187142276Y-140792139D01*
X187245671Y-140681670D01*
X187278143Y-140696806D01*
X187223207Y-140836890D01*
X187107022Y-141012177D01*
X186993167Y-141132169D01*
X186963655Y-141144444D01*
X186900243Y-141061557D01*
X186778684Y-140845799D01*
X186647187Y-140587846D01*
X186504094Y-140291359D01*
X186405258Y-140077542D01*
X186374206Y-139999624D01*
X186465792Y-139979639D01*
X186703839Y-139959590D01*
X186978968Y-139946177D01*
X187296978Y-139946893D01*
G37*
G36*
X195958435Y-134572679D02*
G01*
X196052909Y-134698345D01*
X196096467Y-134935289D01*
X196026642Y-135198687D01*
X195878166Y-135444250D01*
X195685772Y-135627687D01*
X195484196Y-135704710D01*
X195315495Y-135638643D01*
X195262061Y-135493373D01*
X195344841Y-135493373D01*
X195417621Y-135586988D01*
X195576670Y-135591348D01*
X195733052Y-135516903D01*
X195787629Y-135441359D01*
X195846378Y-135170864D01*
X195782102Y-135018228D01*
X195701165Y-134996031D01*
X195542613Y-135080287D01*
X195403348Y-135275836D01*
X195344841Y-135493373D01*
X195262061Y-135493373D01*
X195246168Y-135450164D01*
X195274071Y-135202339D01*
X195385742Y-135004301D01*
X195394701Y-134996477D01*
X195611565Y-134915955D01*
X195747479Y-134924302D01*
X195909748Y-134919540D01*
X195949603Y-134793407D01*
X195889235Y-134612373D01*
X195823611Y-134558817D01*
X195753516Y-134512811D01*
X195820065Y-134500021D01*
X195958435Y-134572679D01*
G37*
G36*
X196238269Y-136927667D02*
G01*
X196242358Y-136928901D01*
X196419352Y-137075106D01*
X196475799Y-137336329D01*
X196403308Y-137660081D01*
X196370651Y-137731637D01*
X196188341Y-137974580D01*
X195968632Y-138105002D01*
X195768370Y-138094474D01*
X195718669Y-138057691D01*
X195657417Y-137912421D01*
X195748016Y-137912421D01*
X195820796Y-138006035D01*
X195979845Y-138010396D01*
X196136227Y-137935950D01*
X196190803Y-137860407D01*
X196249553Y-137589912D01*
X196185277Y-137437276D01*
X196104340Y-137415079D01*
X195945788Y-137499335D01*
X195806523Y-137694884D01*
X195748016Y-137912421D01*
X195657417Y-137912421D01*
X195633362Y-137855371D01*
X195688877Y-137627716D01*
X195843392Y-137434710D01*
X196055085Y-137336336D01*
X196209463Y-137353757D01*
X196327450Y-137341554D01*
X196341926Y-137217630D01*
X196249620Y-137045166D01*
X196226785Y-137019464D01*
X196153765Y-136921412D01*
X196238269Y-136927667D01*
G37*
G36*
X187398771Y-129056501D02*
G01*
X187617912Y-129075462D01*
X187684524Y-129097370D01*
X187642107Y-129223427D01*
X187535297Y-129454908D01*
X187394747Y-129732940D01*
X187251116Y-129998653D01*
X187135059Y-130193177D01*
X187079762Y-130258730D01*
X187008212Y-130175658D01*
X186880890Y-129959459D01*
X186747981Y-129702132D01*
X186604551Y-129402451D01*
X186557594Y-129297771D01*
X186777381Y-129297771D01*
X186816769Y-129410220D01*
X186914765Y-129631894D01*
X186949130Y-129704911D01*
X187120880Y-130065074D01*
X187297683Y-129733529D01*
X187414663Y-129497480D01*
X187476213Y-129340928D01*
X187478711Y-129326389D01*
X187393043Y-129276458D01*
X187176877Y-129251459D01*
X187130158Y-129250793D01*
X186896836Y-129262610D01*
X186780374Y-129291660D01*
X186777381Y-129297771D01*
X186557594Y-129297771D01*
X186505684Y-129182051D01*
X186475000Y-129097370D01*
X186566598Y-129071964D01*
X186804675Y-129054511D01*
X187079762Y-129049206D01*
X187398771Y-129056501D01*
G37*
G36*
X190311092Y-139934874D02*
G01*
X190660202Y-139983070D01*
X190899397Y-140110758D01*
X190991652Y-140292737D01*
X190974955Y-140386692D01*
X190971497Y-140604968D01*
X191021317Y-140703648D01*
X191083135Y-140883166D01*
X190969407Y-141028402D01*
X190705559Y-141120766D01*
X190418809Y-141144162D01*
X189952381Y-141143880D01*
X189952381Y-140849073D01*
X190305158Y-140849073D01*
X190353532Y-141005693D01*
X190529912Y-141025605D01*
X190530915Y-141025462D01*
X190722927Y-140930880D01*
X190790289Y-140816865D01*
X190761841Y-140681838D01*
X190579922Y-140640577D01*
X190564533Y-140640476D01*
X190364454Y-140683775D01*
X190305257Y-140838652D01*
X190305158Y-140849073D01*
X189952381Y-140849073D01*
X189952381Y-140539354D01*
X189952381Y-140338095D01*
X190305158Y-140338095D01*
X190326630Y-140500862D01*
X190423277Y-140523077D01*
X190616989Y-140433831D01*
X190752235Y-140301839D01*
X190707704Y-140186381D01*
X190502565Y-140136510D01*
X190500797Y-140136508D01*
X190336578Y-140210660D01*
X190305158Y-140338095D01*
X189952381Y-140338095D01*
X189952381Y-139934827D01*
X190311092Y-139934874D01*
G37*
G36*
X190841557Y-135725194D02*
G01*
X191013164Y-135804426D01*
X191052700Y-135867204D01*
X191082649Y-136033757D01*
X191065856Y-136083218D01*
X190994603Y-136049872D01*
X190951906Y-135967997D01*
X190821051Y-135831145D01*
X190631001Y-135799529D01*
X190465298Y-135867643D01*
X190405952Y-136003968D01*
X190448162Y-136167754D01*
X190506746Y-136205555D01*
X190604610Y-136128854D01*
X190607539Y-136104762D01*
X190684241Y-136006897D01*
X190708333Y-136003968D01*
X190781985Y-136090804D01*
X190809127Y-136276111D01*
X190790834Y-136454785D01*
X190722960Y-136458496D01*
X190688174Y-136427301D01*
X190516591Y-136313738D01*
X190421630Y-136383497D01*
X190405952Y-136507936D01*
X190482080Y-136659828D01*
X190659629Y-136713263D01*
X190862347Y-136665021D01*
X191002641Y-136533135D01*
X191080180Y-136423754D01*
X191105839Y-136495232D01*
X191108443Y-136583531D01*
X191093536Y-136711246D01*
X191012605Y-136778056D01*
X190817990Y-136802052D01*
X190531944Y-136802360D01*
X190242261Y-136791370D01*
X190074679Y-136770848D01*
X190060010Y-136749684D01*
X190119096Y-136620357D01*
X190116493Y-136322704D01*
X190103279Y-136203277D01*
X190038918Y-135701587D01*
X190514032Y-135701587D01*
X190841557Y-135725194D01*
G37*
G36*
X189754193Y-132413029D02*
G01*
X190010678Y-132509747D01*
X190151191Y-132641279D01*
X190136417Y-132783355D01*
X190117275Y-132805185D01*
X190077761Y-132973857D01*
X190126702Y-133080535D01*
X190213624Y-133319558D01*
X190122333Y-133479144D01*
X189848967Y-133562490D01*
X189527171Y-133576963D01*
X189239988Y-133565153D01*
X189078132Y-133542425D01*
X189070436Y-133518167D01*
X189152166Y-133391058D01*
X189169216Y-133282539D01*
X189398016Y-133282539D01*
X189457074Y-133440617D01*
X189650000Y-133484127D01*
X189847596Y-133436880D01*
X189901984Y-133282539D01*
X189842926Y-133124462D01*
X189650000Y-133080952D01*
X189452403Y-133128198D01*
X189398016Y-133282539D01*
X189169216Y-133282539D01*
X189190821Y-133145031D01*
X189186016Y-132858183D01*
X189170713Y-132779682D01*
X189390643Y-132779682D01*
X189454249Y-132902000D01*
X189602149Y-132932626D01*
X189785663Y-132865394D01*
X189897602Y-132744732D01*
X189901984Y-132716419D01*
X189814521Y-132607741D01*
X189650000Y-132576984D01*
X189454020Y-132638153D01*
X189390643Y-132779682D01*
X189170713Y-132779682D01*
X189137366Y-132608613D01*
X189075476Y-132496349D01*
X189043516Y-132421801D01*
X189159076Y-132384726D01*
X189421054Y-132375396D01*
X189754193Y-132413029D01*
G37*
G36*
X197005204Y-134530900D02*
G01*
X197252147Y-134628137D01*
X197337710Y-134777796D01*
X197267368Y-134936661D01*
X197206439Y-135086610D01*
X197255026Y-135144197D01*
X197352781Y-135302263D01*
X197330555Y-135504081D01*
X197201280Y-135640406D01*
X197007347Y-135675889D01*
X196705939Y-135693468D01*
X196571320Y-135693630D01*
X196324474Y-135679820D01*
X196212787Y-135653325D01*
X196226785Y-135634833D01*
X196308454Y-135503145D01*
X196330837Y-135348809D01*
X196655158Y-135348809D01*
X196704011Y-135548101D01*
X196848346Y-135600793D01*
X197029917Y-135543607D01*
X197085483Y-135474801D01*
X197088306Y-135245610D01*
X196941593Y-135111171D01*
X196845962Y-135096825D01*
X196694647Y-135162017D01*
X196655158Y-135348809D01*
X196330837Y-135348809D01*
X196349810Y-135217989D01*
X196352778Y-135096825D01*
X196328521Y-134787053D01*
X196655158Y-134787053D01*
X196721566Y-134959375D01*
X196864136Y-134996031D01*
X197024775Y-134941722D01*
X197039368Y-134820800D01*
X196945671Y-134657664D01*
X196800391Y-134608211D01*
X196681469Y-134679290D01*
X196655158Y-134787053D01*
X196328521Y-134787053D01*
X196327243Y-134770737D01*
X196257811Y-134582811D01*
X196226785Y-134558817D01*
X196243682Y-134529426D01*
X196420526Y-134507535D01*
X196617618Y-134500021D01*
X197005204Y-134530900D01*
G37*
G36*
X189950512Y-129057401D02*
G01*
X190122178Y-129084618D01*
X190187291Y-129161331D01*
X190193345Y-129310055D01*
X190192673Y-129326389D01*
X190173057Y-129478848D01*
X190138696Y-129441008D01*
X190134885Y-129427182D01*
X190055812Y-129277780D01*
X190003631Y-129250793D01*
X189842252Y-129217836D01*
X189759037Y-129189613D01*
X189631620Y-129196748D01*
X189599603Y-129340803D01*
X189647450Y-129517270D01*
X189750798Y-129540059D01*
X189835230Y-129427182D01*
X189872499Y-129420641D01*
X189893570Y-129576522D01*
X189894026Y-129590714D01*
X189884594Y-129782423D01*
X189822132Y-129805798D01*
X189750793Y-129754762D01*
X189641254Y-129693590D01*
X189602590Y-129788821D01*
X189599603Y-129893610D01*
X189665408Y-130097626D01*
X189820925Y-130163189D01*
X190003303Y-130083612D01*
X190108191Y-129947716D01*
X190219473Y-129790287D01*
X190270176Y-129818145D01*
X190243262Y-130019746D01*
X190239008Y-130036346D01*
X190182728Y-130163838D01*
X190064324Y-130229303D01*
X189830314Y-130251062D01*
X189613046Y-130250772D01*
X189330915Y-130238736D01*
X189175261Y-130215575D01*
X189171230Y-130191976D01*
X189252898Y-130060288D01*
X189294254Y-129775132D01*
X189297222Y-129653968D01*
X189271687Y-129327880D01*
X189202256Y-129139953D01*
X189171230Y-129115960D01*
X189192308Y-129087995D01*
X189373940Y-129066457D01*
X189624801Y-129057163D01*
X189950512Y-129057401D01*
G37*
G36*
X203760409Y-138836168D02*
G01*
X203933584Y-138865812D01*
X204000718Y-138941171D01*
X204010030Y-139052976D01*
X203997212Y-139205396D01*
X203945342Y-139170848D01*
X203904228Y-139103373D01*
X203745519Y-138956502D01*
X203563139Y-138932202D01*
X203431777Y-139026680D01*
X203408333Y-139128571D01*
X203458166Y-139298785D01*
X203564280Y-139313431D01*
X203643960Y-139204166D01*
X203681229Y-139197625D01*
X203702300Y-139353506D01*
X203702757Y-139367698D01*
X203691466Y-139558825D01*
X203626739Y-139580965D01*
X203571835Y-139541963D01*
X203452658Y-139491291D01*
X203382708Y-139619096D01*
X203379684Y-139630415D01*
X203374808Y-139776111D01*
X203498902Y-139829516D01*
X203619357Y-139834127D01*
X203852459Y-139787837D01*
X203912301Y-139682936D01*
X203959296Y-139548698D01*
X203999118Y-139531746D01*
X204047616Y-139615606D01*
X204037764Y-139783730D01*
X203991665Y-139929997D01*
X203889495Y-140005189D01*
X203676743Y-140032556D01*
X203446980Y-140035714D01*
X203147073Y-140018805D01*
X202950012Y-139975272D01*
X202904365Y-139934920D01*
X202981066Y-139837056D01*
X203005158Y-139834127D01*
X203072526Y-139747533D01*
X203103135Y-139537035D01*
X203098963Y-139276559D01*
X203061990Y-139040031D01*
X202994196Y-138901378D01*
X202979960Y-138892944D01*
X203001039Y-138864979D01*
X203182670Y-138843441D01*
X203433532Y-138834148D01*
X203760409Y-138836168D01*
G37*
D12*
%TO.C,D1*%
X162615000Y-98540000D02*
X162615000Y-100460000D01*
X162615000Y-100460000D02*
X165475000Y-100460000D01*
X165475000Y-98540000D02*
X162615000Y-98540000D01*
%TO.C,J4*%
X145470000Y-94670000D02*
X145470000Y-97330000D01*
X158230000Y-94670000D02*
X145470000Y-94670000D01*
X158230000Y-94670000D02*
X158230000Y-97330000D01*
X158230000Y-97330000D02*
X145470000Y-97330000D01*
X159500000Y-94670000D02*
X160830000Y-94670000D01*
X160830000Y-94670000D02*
X160830000Y-96000000D01*
%TO.C,D4*%
X169690000Y-136850000D02*
X169690000Y-138850000D01*
X169690000Y-136850000D02*
X173700000Y-136850000D01*
X169690000Y-138850000D02*
X173700000Y-138850000D01*
%TO.C,JP4*%
X169800000Y-132200000D02*
X171800000Y-132200000D01*
X169800000Y-135000000D02*
X169800000Y-132200000D01*
X171800000Y-132200000D02*
X171800000Y-135000000D01*
X171800000Y-135000000D02*
X169800000Y-135000000D01*
%TO.C,J6*%
X138670000Y-115505000D02*
X138670000Y-112905000D01*
X141330000Y-112905000D02*
X138670000Y-112905000D01*
X141330000Y-115505000D02*
X138670000Y-115505000D01*
X141330000Y-115505000D02*
X141330000Y-112905000D01*
X141330000Y-116775000D02*
X141330000Y-118105000D01*
X141330000Y-118105000D02*
X140000000Y-118105000D01*
%TO.C,SW2*%
X187425000Y-95500000D02*
X187425000Y-97000000D01*
X188675000Y-99500000D02*
X193175000Y-99500000D01*
X193175000Y-93000000D02*
X188675000Y-93000000D01*
X194425000Y-97000000D02*
X194425000Y-95500000D01*
%TO.C,J3*%
X133420000Y-141080000D02*
X133420000Y-130800000D01*
X136020000Y-138480000D02*
X136020000Y-141080000D01*
X136020000Y-141080000D02*
X133420000Y-141080000D01*
X138620000Y-130800000D02*
X133420000Y-130800000D01*
X138620000Y-138480000D02*
X136020000Y-138480000D01*
X138620000Y-138480000D02*
X138620000Y-130800000D01*
X138620000Y-139750000D02*
X138620000Y-141080000D01*
X138620000Y-141080000D02*
X137290000Y-141080000D01*
%TO.C,J5*%
X121670000Y-110550000D02*
X123000000Y-110550000D01*
X121670000Y-111880000D02*
X121670000Y-110550000D01*
X121670000Y-113150000D02*
X121670000Y-120830000D01*
X121670000Y-113150000D02*
X124330000Y-113150000D01*
X121670000Y-120830000D02*
X124330000Y-120830000D01*
X124330000Y-113150000D02*
X124330000Y-120830000D01*
%TO.C,U3*%
X202227500Y-117440000D02*
X204047500Y-117440000D01*
X202227500Y-117490000D02*
X202227500Y-117440000D01*
X202227500Y-119390000D02*
X202227500Y-118610000D01*
X202227500Y-120560000D02*
X202227500Y-120510000D01*
X204047500Y-117440000D02*
X204047500Y-117490000D01*
X204047500Y-120510000D02*
X204047500Y-120560000D01*
X204047500Y-120560000D02*
X202227500Y-120560000D01*
X204827500Y-120840000D02*
X204347500Y-120840000D01*
X204587500Y-120510000D01*
X204827500Y-120840000D01*
G36*
X204827500Y-120840000D02*
G01*
X204347500Y-120840000D01*
X204587500Y-120510000D01*
X204827500Y-120840000D01*
G37*
%TO.C,SW1*%
X173750000Y-95500000D02*
X173750000Y-97000000D01*
X175000000Y-99500000D02*
X179500000Y-99500000D01*
X179500000Y-93000000D02*
X175000000Y-93000000D01*
X180750000Y-97000000D02*
X180750000Y-95500000D01*
%TO.C,D3*%
X128960000Y-109525000D02*
X128960000Y-106665000D01*
X128960000Y-106665000D02*
X127040000Y-106665000D01*
X127040000Y-106665000D02*
X127040000Y-109525000D01*
%TO.C,J1*%
X200221000Y-93495000D02*
X200221000Y-95195000D01*
X209561000Y-93495000D02*
X209561000Y-95195000D01*
%TO.C,U1*%
X156452500Y-111615000D02*
X156452500Y-111380000D01*
X156452500Y-118360000D02*
X156452500Y-117885000D01*
X156927500Y-111140000D02*
X156752500Y-111140000D01*
X156927500Y-118360000D02*
X156452500Y-118360000D01*
X163197500Y-111140000D02*
X163672500Y-111140000D01*
X163197500Y-118360000D02*
X163672500Y-118360000D01*
X163672500Y-111140000D02*
X163672500Y-111615000D01*
X163672500Y-118360000D02*
X163672500Y-117885000D01*
X156452500Y-111140000D02*
X156212500Y-110810000D01*
X156692500Y-110810000D01*
X156452500Y-111140000D01*
G36*
X156452500Y-111140000D02*
G01*
X156212500Y-110810000D01*
X156692500Y-110810000D01*
X156452500Y-111140000D01*
G37*
%TO.C,J2*%
X124510000Y-94670000D02*
X124510000Y-97330000D01*
X137270000Y-94670000D02*
X124510000Y-94670000D01*
X137270000Y-94670000D02*
X137270000Y-97330000D01*
X137270000Y-97330000D02*
X124510000Y-97330000D01*
X138540000Y-94670000D02*
X139870000Y-94670000D01*
X139870000Y-94670000D02*
X139870000Y-96000000D01*
%TO.C,U2*%
X200227500Y-105890000D02*
X202047500Y-105890000D01*
X200227500Y-105940000D02*
X200227500Y-105890000D01*
X200227500Y-107840000D02*
X200227500Y-107060000D01*
X200227500Y-109010000D02*
X200227500Y-108960000D01*
X202047500Y-105890000D02*
X202047500Y-105940000D01*
X202047500Y-108960000D02*
X202047500Y-109010000D01*
X202047500Y-109010000D02*
X200227500Y-109010000D01*
X202827500Y-109290000D02*
X202347500Y-109290000D01*
X202587500Y-108960000D01*
X202827500Y-109290000D01*
G36*
X202827500Y-109290000D02*
G01*
X202347500Y-109290000D01*
X202587500Y-108960000D01*
X202827500Y-109290000D01*
G37*
%TD*%
M02*
