%TF.GenerationSoftware,KiCad,Pcbnew,9.0.7-9.0.7~ubuntu24.04.1*%
%TF.CreationDate,2026-01-18T13:54:00+05:30*%
%TF.ProjectId,fpga_dev_board,66706761-5f64-4657-965f-626f6172642e,rev?*%
%TF.SameCoordinates,Original*%
%TF.FileFunction,Copper,L2,Bot*%
%TF.FilePolarity,Positive*%
%FSLAX46Y46*%
G04 Gerber Fmt 4.6, Leading zero omitted, Abs format (unit mm)*
G04 Created by KiCad (PCBNEW 9.0.7-9.0.7~ubuntu24.04.1) date 2026-01-18 13:54:00*
%MOMM*%
%LPD*%
G01*
G04 APERTURE LIST*
%TA.AperFunction,ComponentPad*%
%ADD10R,1.700000X1.700000*%
%TD*%
%TA.AperFunction,ComponentPad*%
%ADD11O,1.700000X1.700000*%
%TD*%
%TA.AperFunction,ComponentPad*%
%ADD12O,1.000000X2.100000*%
%TD*%
%TA.AperFunction,ComponentPad*%
%ADD13O,1.000000X1.600000*%
%TD*%
%TA.AperFunction,ViaPad*%
%ADD14C,0.500000*%
%TD*%
%TA.AperFunction,ViaPad*%
%ADD15C,0.300000*%
%TD*%
%TA.AperFunction,ViaPad*%
%ADD16C,0.600000*%
%TD*%
%TA.AperFunction,Conductor*%
%ADD17C,0.200000*%
%TD*%
%TA.AperFunction,Conductor*%
%ADD18C,0.400000*%
%TD*%
G04 APERTURE END LIST*
D10*
%TO.P,J4,1,Pin_1*%
%TO.N,/IOB_0a*%
X159500000Y-96000000D03*
D11*
%TO.P,J4,2,Pin_2*%
%TO.N,/IOT_48b*%
X156960000Y-96000000D03*
%TO.P,J4,3,Pin_3*%
%TO.N,/IOT_45b*%
X154420000Y-96000000D03*
%TO.P,J4,4,Pin_4*%
%TO.N,/IOT_50b*%
X151880000Y-96000000D03*
%TO.P,J4,5,Pin_5*%
%TO.N,/IOT_51a*%
X149340000Y-96000000D03*
%TO.P,J4,6,Pin_6*%
%TO.N,/IOT_49a*%
X146800000Y-96000000D03*
%TD*%
D10*
%TO.P,J6,1,Pin_1*%
%TO.N,/~{BTN}*%
X145040000Y-117000000D03*
D11*
%TO.P,J6,2,Pin_2*%
%TO.N,/CDONE*%
X142500000Y-117000000D03*
%TD*%
D10*
%TO.P,J3,1,Pin_1*%
%TO.N,GND*%
X137290000Y-139750000D03*
D11*
%TO.P,J3,2,Pin_2*%
%TO.N,/SPI_~{CS}*%
X134750000Y-139750000D03*
%TO.P,J3,3,Pin_3*%
%TO.N,/SPI_~{WP}-IO2*%
X137290000Y-137210000D03*
%TO.P,J3,4,Pin_4*%
%TO.N,/SPI_SCK*%
X134750000Y-137210000D03*
%TO.P,J3,5,Pin_5*%
%TO.N,/SPI_~{HLD}-IO3*%
X137290000Y-134670000D03*
%TO.P,J3,6,Pin_6*%
%TO.N,/SPI_MISO-IO1*%
X134750000Y-134670000D03*
%TO.P,J3,7,Pin_7*%
%TO.N,VIN*%
X137290000Y-132130000D03*
%TO.P,J3,8,Pin_8*%
%TO.N,/SPI_MOSI-IO0*%
X134750000Y-132130000D03*
%TD*%
D10*
%TO.P,J5,1,Pin_1*%
%TO.N,GND*%
X123000000Y-111880000D03*
D11*
%TO.P,J5,2,Pin_2*%
X123000000Y-114420000D03*
%TO.P,J5,3,Pin_3*%
%TO.N,+3V3*%
X123000000Y-116960000D03*
%TO.P,J5,4,Pin_4*%
X123000000Y-119500000D03*
%TD*%
D12*
%TO.P,J1,S1,SHIELD*%
%TO.N,Net-(J1-SHIELD)*%
X218710000Y-96500000D03*
D13*
X218710000Y-92320000D03*
D12*
X210070000Y-96500000D03*
D13*
X210070000Y-92320000D03*
%TD*%
D10*
%TO.P,J2,1,Pin_1*%
%TO.N,/IOB_3a_G6*%
X138540000Y-96000000D03*
D11*
%TO.P,J2,2,Pin_2*%
%TO.N,/IOB_5a*%
X136000000Y-96000000D03*
%TO.P,J2,3,Pin_3*%
%TO.N,/IOB_2a*%
X133460000Y-96000000D03*
%TO.P,J2,4,Pin_4*%
%TO.N,/IOB_4a*%
X130920000Y-96000000D03*
%TO.P,J2,5,Pin_5*%
%TO.N,/IOB_6a*%
X128380000Y-96000000D03*
%TO.P,J2,6,Pin_6*%
%TO.N,/IOB_8a*%
X125840000Y-96000000D03*
%TD*%
D14*
%TO.N,/SPI_MISO-IO1*%
X159630002Y-135250000D03*
%TO.N,/SPI_~{CS}*%
X160125000Y-137625000D03*
%TO.N,GND*%
X219462500Y-99462500D03*
X210500000Y-99000000D03*
D15*
%TO.N,/IOB_0a*%
X169999352Y-104646708D03*
X158312500Y-107312500D03*
%TO.N,/~{BTN}*%
X155500000Y-115500000D03*
X177750000Y-99250000D03*
%TO.N,Net-(U1D-VCCPLL)*%
X166250000Y-115500000D03*
X170500000Y-115500000D03*
%TO.N,+1V2*%
X155750000Y-114000000D03*
D16*
X173000000Y-115000000D03*
%TO.N,GND*%
X166500000Y-134000000D03*
X221000000Y-126000000D03*
X174400000Y-108600000D03*
X183150000Y-128000000D03*
X146500000Y-127551000D03*
X125500000Y-111880000D03*
X201000000Y-108000000D03*
X191000000Y-94150000D03*
X160000000Y-115000000D03*
X209949943Y-121600000D03*
X176500000Y-94150000D03*
X221500000Y-101500000D03*
X141500000Y-141000000D03*
X205375000Y-114875000D03*
X210500000Y-102262500D03*
X163500000Y-134000000D03*
X206000000Y-132500000D03*
X137500000Y-125000000D03*
X178500000Y-102000000D03*
%TO.N,VIN*%
X211000000Y-128500000D03*
%TO.N,+3V3*%
X165250000Y-110000000D03*
X199750000Y-124000000D03*
X139250000Y-120500000D03*
X164750000Y-113500000D03*
X155500000Y-110500000D03*
X161750000Y-119750000D03*
X199750000Y-115500000D03*
D15*
X164750000Y-113500000D03*
D16*
X154800000Y-119750000D03*
%TD*%
D17*
%TO.N,/IOB_0a*%
X160853292Y-104646708D02*
X158312500Y-107187500D01*
X158312500Y-107187500D02*
X158312500Y-107312500D01*
X169999352Y-104646708D02*
X160853292Y-104646708D01*
%TO.N,/~{BTN}*%
X174000000Y-103000000D02*
X156250000Y-103000000D01*
X153750000Y-105500000D02*
X156250000Y-103000000D01*
X177750000Y-99250000D02*
X174000000Y-103000000D01*
X153750000Y-105500000D02*
X153750000Y-113750000D01*
X153750000Y-113750000D02*
X155500000Y-115500000D01*
%TO.N,Net-(U1D-VCCPLL)*%
X170500000Y-115500000D02*
X166250000Y-115500000D01*
%TO.N,+1V2*%
X155000000Y-108000000D02*
X166000000Y-108000000D01*
X155750000Y-114000000D02*
X154750000Y-113000000D01*
X154750000Y-108250000D02*
X155000000Y-108000000D01*
X173000000Y-115000000D02*
X173025000Y-115000000D01*
X166000000Y-108000000D02*
X173000000Y-115000000D01*
X154750000Y-113000000D02*
X154750000Y-108250000D01*
%TO.N,/SPI_~{CS}*%
X135901000Y-138599000D02*
X155651000Y-138599000D01*
X134750000Y-139750000D02*
X135901000Y-138599000D01*
X156625000Y-137625000D02*
X160125000Y-137625000D01*
X155651000Y-138599000D02*
X156625000Y-137625000D01*
D18*
%TO.N,VIN*%
X140220000Y-129200000D02*
X137290000Y-132130000D01*
X210400000Y-129100000D02*
X210400000Y-129200000D01*
X210400000Y-129200000D02*
X140220000Y-129200000D01*
X211000000Y-128500000D02*
X210400000Y-129100000D01*
%TO.N,+3V3*%
X141500000Y-122750000D02*
X139250000Y-120500000D01*
X155500000Y-110500000D02*
X156000000Y-110000000D01*
X165250000Y-113000000D02*
X165250000Y-117250000D01*
X165250000Y-113000000D02*
X164750000Y-113500000D01*
X145500000Y-122750000D02*
X141500000Y-122750000D01*
X148500000Y-119750000D02*
X145500000Y-122750000D01*
X161750000Y-119750000D02*
X154800000Y-119750000D01*
X199750000Y-124000000D02*
X199750000Y-115500000D01*
X156000000Y-110000000D02*
X165250000Y-110000000D01*
X154800000Y-119750000D02*
X148500000Y-119750000D01*
X165250000Y-110000000D02*
X165250000Y-113000000D01*
X165250000Y-117250000D02*
X162750000Y-119750000D01*
X162750000Y-119750000D02*
X161750000Y-119750000D01*
D17*
%TO.N,/SPI_MISO-IO1*%
X146500000Y-135250000D02*
X144750000Y-133500000D01*
X159630002Y-135250000D02*
X160065001Y-135684999D01*
X144750000Y-133500000D02*
X135920000Y-133500000D01*
X134750000Y-134670000D02*
X135920000Y-133500000D01*
X146500000Y-135250000D02*
X159630002Y-135250000D01*
%TD*%
%TA.AperFunction,Conductor*%
%TO.N,GND*%
G36*
X123250000Y-113986988D02*
G01*
X123192993Y-113954075D01*
X123065826Y-113920000D01*
X122934174Y-113920000D01*
X122807007Y-113954075D01*
X122750000Y-113986988D01*
X122750000Y-112313012D01*
X122807007Y-112345925D01*
X122934174Y-112380000D01*
X123065826Y-112380000D01*
X123192993Y-112345925D01*
X123250000Y-112313012D01*
X123250000Y-113986988D01*
G37*
%TD.AperFunction*%
%TA.AperFunction,Conductor*%
G36*
X209048142Y-91509740D02*
G01*
X209079946Y-91517858D01*
X209081511Y-91519539D01*
X209083711Y-91520185D01*
X209105184Y-91544967D01*
X209127556Y-91568996D01*
X209127963Y-91571255D01*
X209129466Y-91572989D01*
X209134134Y-91605454D01*
X209139962Y-91637755D01*
X209139204Y-91640720D01*
X209139410Y-91642147D01*
X209131233Y-91671953D01*
X209107949Y-91728164D01*
X209107947Y-91728170D01*
X209069500Y-91921456D01*
X209069500Y-91921459D01*
X209069500Y-92718541D01*
X209069500Y-92718543D01*
X209069499Y-92718543D01*
X209107947Y-92911829D01*
X209107950Y-92911839D01*
X209183364Y-93093907D01*
X209183371Y-93093920D01*
X209292860Y-93257781D01*
X209292863Y-93257785D01*
X209432214Y-93397136D01*
X209432218Y-93397139D01*
X209596079Y-93506628D01*
X209596092Y-93506635D01*
X209778160Y-93582049D01*
X209778165Y-93582051D01*
X209778169Y-93582051D01*
X209778170Y-93582052D01*
X209971456Y-93620500D01*
X209971459Y-93620500D01*
X210168543Y-93620500D01*
X210298582Y-93594632D01*
X210361835Y-93582051D01*
X210543914Y-93506632D01*
X210707782Y-93397139D01*
X210847139Y-93257782D01*
X210956632Y-93093914D01*
X211032051Y-92911835D01*
X211070500Y-92718541D01*
X211070500Y-91921459D01*
X211070500Y-91921456D01*
X211032052Y-91728170D01*
X211032051Y-91728169D01*
X211032051Y-91728165D01*
X211008766Y-91671951D01*
X211001298Y-91602483D01*
X211032573Y-91540004D01*
X211092662Y-91504352D01*
X211123328Y-91500500D01*
X217656672Y-91500500D01*
X217723711Y-91520185D01*
X217769466Y-91572989D01*
X217779410Y-91642147D01*
X217771233Y-91671953D01*
X217747949Y-91728164D01*
X217747947Y-91728170D01*
X217709500Y-91921456D01*
X217709500Y-91921459D01*
X217709500Y-92718541D01*
X217709500Y-92718543D01*
X217709499Y-92718543D01*
X217747947Y-92911829D01*
X217747950Y-92911839D01*
X217823364Y-93093907D01*
X217823371Y-93093920D01*
X217932860Y-93257781D01*
X217932863Y-93257785D01*
X218072214Y-93397136D01*
X218072218Y-93397139D01*
X218236079Y-93506628D01*
X218236092Y-93506635D01*
X218418160Y-93582049D01*
X218418165Y-93582051D01*
X218418169Y-93582051D01*
X218418170Y-93582052D01*
X218611456Y-93620500D01*
X218611459Y-93620500D01*
X218808543Y-93620500D01*
X218938582Y-93594632D01*
X219001835Y-93582051D01*
X219183914Y-93506632D01*
X219347782Y-93397139D01*
X219487139Y-93257782D01*
X219596632Y-93093914D01*
X219672051Y-92911835D01*
X219710500Y-92718541D01*
X219710500Y-91921459D01*
X219710500Y-91921456D01*
X219672052Y-91728170D01*
X219672051Y-91728169D01*
X219672051Y-91728165D01*
X219648766Y-91671951D01*
X219641298Y-91602483D01*
X219672573Y-91540004D01*
X219732662Y-91504352D01*
X219763328Y-91500500D01*
X225375500Y-91500500D01*
X225442539Y-91520185D01*
X225488294Y-91572989D01*
X225499500Y-91624500D01*
X225499500Y-143875500D01*
X225479815Y-143942539D01*
X225427011Y-143988294D01*
X225375500Y-143999500D01*
X119424500Y-143999500D01*
X119357461Y-143979815D01*
X119311706Y-143927011D01*
X119300500Y-143875500D01*
X119300500Y-132023713D01*
X133399500Y-132023713D01*
X133399500Y-132236286D01*
X133432753Y-132446239D01*
X133498444Y-132648414D01*
X133594951Y-132837820D01*
X133719890Y-133009786D01*
X133870213Y-133160109D01*
X134042182Y-133285050D01*
X134050946Y-133289516D01*
X134101742Y-133337491D01*
X134118536Y-133405312D01*
X134095998Y-133471447D01*
X134050946Y-133510484D01*
X134042182Y-133514949D01*
X133870213Y-133639890D01*
X133719890Y-133790213D01*
X133594951Y-133962179D01*
X133498444Y-134151585D01*
X133432753Y-134353760D01*
X133405102Y-134528342D01*
X133399500Y-134563713D01*
X133399500Y-134776287D01*
X133432754Y-134986243D01*
X133473087Y-135110376D01*
X133498444Y-135188414D01*
X133594951Y-135377820D01*
X133719890Y-135549786D01*
X133870213Y-135700109D01*
X134042182Y-135825050D01*
X134050946Y-135829516D01*
X134101742Y-135877491D01*
X134118536Y-135945312D01*
X134095998Y-136011447D01*
X134050946Y-136050484D01*
X134042182Y-136054949D01*
X133870213Y-136179890D01*
X133719890Y-136330213D01*
X133594951Y-136502179D01*
X133498444Y-136691585D01*
X133432753Y-136893760D01*
X133405564Y-137065424D01*
X133399500Y-137103713D01*
X133399500Y-137316287D01*
X133432754Y-137526243D01*
X133488860Y-137698920D01*
X133498444Y-137728414D01*
X133594951Y-137917820D01*
X133719890Y-138089786D01*
X133870213Y-138240109D01*
X134042182Y-138365050D01*
X134050946Y-138369516D01*
X134101742Y-138417491D01*
X134118536Y-138485312D01*
X134095998Y-138551447D01*
X134050946Y-138590484D01*
X134042182Y-138594949D01*
X133870213Y-138719890D01*
X133719890Y-138870213D01*
X133594951Y-139042179D01*
X133498444Y-139231585D01*
X133432753Y-139433760D01*
X133431291Y-139442993D01*
X133399500Y-139643713D01*
X133399500Y-139856287D01*
X133409534Y-139919644D01*
X133432753Y-140066239D01*
X133498444Y-140268414D01*
X133594951Y-140457820D01*
X133719890Y-140629786D01*
X133870213Y-140780109D01*
X134042179Y-140905048D01*
X134042181Y-140905049D01*
X134042184Y-140905051D01*
X134231588Y-141001557D01*
X134433757Y-141067246D01*
X134643713Y-141100500D01*
X134643714Y-141100500D01*
X134856286Y-141100500D01*
X134856287Y-141100500D01*
X135066243Y-141067246D01*
X135268412Y-141001557D01*
X135457816Y-140905051D01*
X135544478Y-140842088D01*
X135629784Y-140780110D01*
X135629784Y-140780109D01*
X135629792Y-140780104D01*
X135743717Y-140666178D01*
X135805036Y-140632696D01*
X135874728Y-140637680D01*
X135930662Y-140679551D01*
X135947577Y-140710528D01*
X135996646Y-140842088D01*
X135996649Y-140842093D01*
X136082809Y-140957187D01*
X136082812Y-140957190D01*
X136197906Y-141043350D01*
X136197913Y-141043354D01*
X136332620Y-141093596D01*
X136332627Y-141093598D01*
X136392155Y-141099999D01*
X136392172Y-141100000D01*
X137040000Y-141100000D01*
X137040000Y-140183012D01*
X137097007Y-140215925D01*
X137224174Y-140250000D01*
X137355826Y-140250000D01*
X137482993Y-140215925D01*
X137540000Y-140183012D01*
X137540000Y-141100000D01*
X138187828Y-141100000D01*
X138187844Y-141099999D01*
X138247372Y-141093598D01*
X138247379Y-141093596D01*
X138382086Y-141043354D01*
X138382093Y-141043350D01*
X138497187Y-140957190D01*
X138497190Y-140957187D01*
X138583350Y-140842093D01*
X138583354Y-140842086D01*
X138633596Y-140707379D01*
X138633598Y-140707372D01*
X138639999Y-140647844D01*
X138640000Y-140647827D01*
X138640000Y-140000000D01*
X137723012Y-140000000D01*
X137755925Y-139942993D01*
X137790000Y-139815826D01*
X137790000Y-139684174D01*
X137755925Y-139557007D01*
X137723012Y-139500000D01*
X138640000Y-139500000D01*
X138640000Y-139323500D01*
X138659685Y-139256461D01*
X138712489Y-139210706D01*
X138764000Y-139199500D01*
X155564331Y-139199500D01*
X155564347Y-139199501D01*
X155571943Y-139199501D01*
X155730054Y-139199501D01*
X155730057Y-139199501D01*
X155882785Y-139158577D01*
X155932904Y-139129639D01*
X156019716Y-139079520D01*
X156131520Y-138967716D01*
X156131520Y-138967714D01*
X156141728Y-138957507D01*
X156141729Y-138957504D01*
X156837416Y-138261819D01*
X156898739Y-138228334D01*
X156925097Y-138225500D01*
X159635233Y-138225500D01*
X159702272Y-138245185D01*
X159704124Y-138246398D01*
X159769498Y-138290080D01*
X159769511Y-138290087D01*
X159906082Y-138346656D01*
X159906087Y-138346658D01*
X159906091Y-138346658D01*
X159906092Y-138346659D01*
X160051079Y-138375500D01*
X160051082Y-138375500D01*
X160198920Y-138375500D01*
X160296462Y-138356096D01*
X160343913Y-138346658D01*
X160480495Y-138290084D01*
X160603416Y-138207951D01*
X160707951Y-138103416D01*
X160790084Y-137980495D01*
X160846658Y-137843913D01*
X160875500Y-137698918D01*
X160875500Y-137551082D01*
X160875500Y-137551079D01*
X160846659Y-137406092D01*
X160846658Y-137406091D01*
X160846658Y-137406087D01*
X160809462Y-137316287D01*
X160790087Y-137269511D01*
X160790080Y-137269498D01*
X160707951Y-137146584D01*
X160707948Y-137146580D01*
X160603419Y-137042051D01*
X160603415Y-137042048D01*
X160480501Y-136959919D01*
X160480488Y-136959912D01*
X160343917Y-136903343D01*
X160343907Y-136903340D01*
X160198920Y-136874500D01*
X160198918Y-136874500D01*
X160051082Y-136874500D01*
X160051080Y-136874500D01*
X159906092Y-136903340D01*
X159906082Y-136903343D01*
X159769511Y-136959912D01*
X159769498Y-136959919D01*
X159704124Y-137003602D01*
X159637447Y-137024480D01*
X159635233Y-137024500D01*
X156711669Y-137024500D01*
X156711653Y-137024499D01*
X156704057Y-137024499D01*
X156545943Y-137024499D01*
X156438587Y-137053265D01*
X156393210Y-137065424D01*
X156393209Y-137065425D01*
X156343096Y-137094359D01*
X156343095Y-137094360D01*
X156326895Y-137103713D01*
X156256285Y-137144479D01*
X156256282Y-137144481D01*
X156144478Y-137256286D01*
X155438584Y-137962181D01*
X155377261Y-137995666D01*
X155350903Y-137998500D01*
X138606290Y-137998500D01*
X138539251Y-137978815D01*
X138493496Y-137926011D01*
X138483552Y-137856853D01*
X138495805Y-137818205D01*
X138541557Y-137728412D01*
X138607246Y-137526243D01*
X138640500Y-137316287D01*
X138640500Y-137103713D01*
X138607246Y-136893757D01*
X138541557Y-136691588D01*
X138445051Y-136502184D01*
X138445049Y-136502181D01*
X138445048Y-136502179D01*
X138320109Y-136330213D01*
X138169786Y-136179890D01*
X137997820Y-136054951D01*
X137995380Y-136053708D01*
X137989054Y-136050485D01*
X137938259Y-136002512D01*
X137921463Y-135934692D01*
X137943999Y-135868556D01*
X137989054Y-135829515D01*
X137997816Y-135825051D01*
X138081772Y-135764054D01*
X138169786Y-135700109D01*
X138169788Y-135700106D01*
X138169792Y-135700104D01*
X138320104Y-135549792D01*
X138320106Y-135549788D01*
X138320109Y-135549786D01*
X138445048Y-135377820D01*
X138445047Y-135377820D01*
X138445051Y-135377816D01*
X138541557Y-135188412D01*
X138607246Y-134986243D01*
X138640500Y-134776287D01*
X138640500Y-134563713D01*
X138607246Y-134353757D01*
X138577698Y-134262818D01*
X138575703Y-134192977D01*
X138611784Y-134133144D01*
X138674485Y-134102316D01*
X138695629Y-134100500D01*
X144449903Y-134100500D01*
X144516942Y-134120185D01*
X144537583Y-134136818D01*
X146131284Y-135730520D01*
X146131286Y-135730521D01*
X146131290Y-135730524D01*
X146268209Y-135809573D01*
X146268216Y-135809577D01*
X146420943Y-135850501D01*
X146420945Y-135850501D01*
X146586654Y-135850501D01*
X146586670Y-135850500D01*
X159140235Y-135850500D01*
X159207274Y-135870185D01*
X159209126Y-135871398D01*
X159274500Y-135915080D01*
X159274513Y-135915087D01*
X159379185Y-135958443D01*
X159411089Y-135971658D01*
X159488214Y-135986999D01*
X159550121Y-136019382D01*
X159551701Y-136020934D01*
X159696285Y-136165518D01*
X159833216Y-136244575D01*
X159985943Y-136285499D01*
X159985945Y-136285499D01*
X160144056Y-136285499D01*
X160144058Y-136285499D01*
X160296785Y-136244575D01*
X160433717Y-136165518D01*
X160545520Y-136053715D01*
X160624577Y-135916783D01*
X160665501Y-135764056D01*
X160665501Y-135605941D01*
X160624577Y-135453214D01*
X160545520Y-135316283D01*
X160400936Y-135171699D01*
X160367451Y-135110376D01*
X160367027Y-135108346D01*
X160351660Y-135031087D01*
X160333085Y-134986243D01*
X160295089Y-134894511D01*
X160295082Y-134894498D01*
X160212953Y-134771584D01*
X160212950Y-134771580D01*
X160108421Y-134667051D01*
X160108417Y-134667048D01*
X159985503Y-134584919D01*
X159985490Y-134584912D01*
X159848919Y-134528343D01*
X159848909Y-134528340D01*
X159703922Y-134499500D01*
X159703920Y-134499500D01*
X159556084Y-134499500D01*
X159556082Y-134499500D01*
X159411094Y-134528340D01*
X159411084Y-134528343D01*
X159274513Y-134584912D01*
X159274500Y-134584919D01*
X159209126Y-134628602D01*
X159142449Y-134649480D01*
X159140235Y-134649500D01*
X146800098Y-134649500D01*
X146733059Y-134629815D01*
X146712417Y-134613181D01*
X145237590Y-133138355D01*
X145237588Y-133138352D01*
X145118717Y-133019481D01*
X145118716Y-133019480D01*
X145031904Y-132969360D01*
X145031904Y-132969359D01*
X145031900Y-132969358D01*
X144981785Y-132940423D01*
X144829057Y-132899499D01*
X144670943Y-132899499D01*
X144663347Y-132899499D01*
X144663331Y-132899500D01*
X138615971Y-132899500D01*
X138548932Y-132879815D01*
X138503177Y-132827011D01*
X138493233Y-132757853D01*
X138505486Y-132719205D01*
X138541557Y-132648412D01*
X138607246Y-132446243D01*
X138640500Y-132236287D01*
X138640500Y-132023713D01*
X138615715Y-131867227D01*
X138624670Y-131797933D01*
X138650504Y-131760151D01*
X140473838Y-129936819D01*
X140535161Y-129903334D01*
X140561519Y-129900500D01*
X210468995Y-129900500D01*
X210560041Y-129882389D01*
X210604328Y-129873580D01*
X210731811Y-129820775D01*
X210846542Y-129744114D01*
X210944114Y-129646542D01*
X211020775Y-129531811D01*
X211055127Y-129448874D01*
X211059758Y-129441945D01*
X211060855Y-129436903D01*
X211082003Y-129408652D01*
X211194586Y-129296069D01*
X211234810Y-129269192D01*
X211289435Y-129246566D01*
X211379173Y-129209397D01*
X211379176Y-129209395D01*
X211379179Y-129209394D01*
X211510289Y-129121789D01*
X211621789Y-129010289D01*
X211709394Y-128879179D01*
X211769737Y-128733497D01*
X211800500Y-128578842D01*
X211800500Y-128421158D01*
X211800500Y-128421155D01*
X211800499Y-128421153D01*
X211769737Y-128266503D01*
X211769191Y-128265184D01*
X211709397Y-128120827D01*
X211709390Y-128120814D01*
X211621789Y-127989711D01*
X211621786Y-127989707D01*
X211510292Y-127878213D01*
X211510288Y-127878210D01*
X211379185Y-127790609D01*
X211379172Y-127790602D01*
X211233501Y-127730264D01*
X211233489Y-127730261D01*
X211078845Y-127699500D01*
X211078842Y-127699500D01*
X210921158Y-127699500D01*
X210921155Y-127699500D01*
X210766510Y-127730261D01*
X210766498Y-127730264D01*
X210620827Y-127790602D01*
X210620814Y-127790609D01*
X210489711Y-127878210D01*
X210489707Y-127878213D01*
X210378213Y-127989707D01*
X210378210Y-127989711D01*
X210290609Y-128120814D01*
X210290602Y-128120827D01*
X210230809Y-128265184D01*
X210226176Y-128272116D01*
X210225080Y-128277159D01*
X210203932Y-128305409D01*
X210046160Y-128463182D01*
X209984839Y-128496666D01*
X209958481Y-128499500D01*
X140151004Y-128499500D01*
X140015677Y-128526418D01*
X140015667Y-128526421D01*
X139888192Y-128579222D01*
X139773454Y-128655887D01*
X137659849Y-130769492D01*
X137598526Y-130802977D01*
X137552771Y-130804284D01*
X137396287Y-130779500D01*
X137183713Y-130779500D01*
X137135042Y-130787208D01*
X136973760Y-130812753D01*
X136771585Y-130878444D01*
X136582179Y-130974951D01*
X136410213Y-131099890D01*
X136259890Y-131250213D01*
X136134949Y-131422182D01*
X136130484Y-131430946D01*
X136082509Y-131481742D01*
X136014688Y-131498536D01*
X135948553Y-131475998D01*
X135909516Y-131430946D01*
X135905050Y-131422182D01*
X135780109Y-131250213D01*
X135629786Y-131099890D01*
X135457820Y-130974951D01*
X135268414Y-130878444D01*
X135268413Y-130878443D01*
X135268412Y-130878443D01*
X135066243Y-130812754D01*
X135066241Y-130812753D01*
X135066240Y-130812753D01*
X134904957Y-130787208D01*
X134856287Y-130779500D01*
X134643713Y-130779500D01*
X134595042Y-130787208D01*
X134433760Y-130812753D01*
X134231585Y-130878444D01*
X134042179Y-130974951D01*
X133870213Y-131099890D01*
X133719890Y-131250213D01*
X133594951Y-131422179D01*
X133498444Y-131611585D01*
X133432753Y-131813760D01*
X133399500Y-132023713D01*
X119300500Y-132023713D01*
X119300500Y-116853713D01*
X121649500Y-116853713D01*
X121649500Y-117066287D01*
X121682754Y-117276243D01*
X121696645Y-117318996D01*
X121748444Y-117478414D01*
X121844951Y-117667820D01*
X121969890Y-117839786D01*
X122120213Y-117990109D01*
X122292182Y-118115050D01*
X122300946Y-118119516D01*
X122351742Y-118167491D01*
X122368536Y-118235312D01*
X122345998Y-118301447D01*
X122300946Y-118340484D01*
X122292182Y-118344949D01*
X122120213Y-118469890D01*
X121969890Y-118620213D01*
X121844951Y-118792179D01*
X121748444Y-118981585D01*
X121682753Y-119183760D01*
X121649500Y-119393713D01*
X121649500Y-119606287D01*
X121682754Y-119816243D01*
X121739117Y-119989711D01*
X121748444Y-120018414D01*
X121844951Y-120207820D01*
X121969890Y-120379786D01*
X122120213Y-120530109D01*
X122292179Y-120655048D01*
X122292181Y-120655049D01*
X122292184Y-120655051D01*
X122481588Y-120751557D01*
X122683757Y-120817246D01*
X122893713Y-120850500D01*
X122893714Y-120850500D01*
X123106286Y-120850500D01*
X123106287Y-120850500D01*
X123316243Y-120817246D01*
X123518412Y-120751557D01*
X123707816Y-120655051D01*
X123812704Y-120578846D01*
X123879786Y-120530109D01*
X123879788Y-120530106D01*
X123879792Y-120530104D01*
X123988743Y-120421153D01*
X138449500Y-120421153D01*
X138449500Y-120578846D01*
X138480261Y-120733489D01*
X138480264Y-120733501D01*
X138540602Y-120879172D01*
X138540609Y-120879185D01*
X138628210Y-121010288D01*
X138628213Y-121010292D01*
X138739707Y-121121786D01*
X138739711Y-121121789D01*
X138870814Y-121209390D01*
X138870827Y-121209397D01*
X139015185Y-121269191D01*
X139055414Y-121296071D01*
X141053451Y-123294109D01*
X141053454Y-123294112D01*
X141053457Y-123294114D01*
X141136349Y-123349500D01*
X141168189Y-123370775D01*
X141168191Y-123370776D01*
X141168193Y-123370777D01*
X141295667Y-123423578D01*
X141295672Y-123423580D01*
X141295676Y-123423580D01*
X141295677Y-123423581D01*
X141431004Y-123450500D01*
X141431007Y-123450500D01*
X145568996Y-123450500D01*
X145660040Y-123432389D01*
X145704328Y-123423580D01*
X145768069Y-123397177D01*
X145831807Y-123370777D01*
X145831808Y-123370776D01*
X145831811Y-123370775D01*
X145946543Y-123294114D01*
X148753838Y-120486819D01*
X148815161Y-120453334D01*
X148841519Y-120450500D01*
X154374684Y-120450500D01*
X154422136Y-120459939D01*
X154487031Y-120486819D01*
X154566503Y-120519737D01*
X154721153Y-120550499D01*
X154721156Y-120550500D01*
X154721158Y-120550500D01*
X154878844Y-120550500D01*
X154878845Y-120550499D01*
X155033497Y-120519737D01*
X155112969Y-120486819D01*
X155177864Y-120459939D01*
X155225316Y-120450500D01*
X161324684Y-120450500D01*
X161372136Y-120459939D01*
X161437031Y-120486819D01*
X161516503Y-120519737D01*
X161671153Y-120550499D01*
X161671156Y-120550500D01*
X161671158Y-120550500D01*
X161828844Y-120550500D01*
X161828845Y-120550499D01*
X161983497Y-120519737D01*
X162062969Y-120486819D01*
X162127864Y-120459939D01*
X162175316Y-120450500D01*
X162818996Y-120450500D01*
X162910040Y-120432389D01*
X162954328Y-120423580D01*
X163018069Y-120397177D01*
X163081807Y-120370777D01*
X163081808Y-120370776D01*
X163081811Y-120370775D01*
X163196543Y-120294114D01*
X165794114Y-117696543D01*
X165870775Y-117581811D01*
X165923580Y-117454328D01*
X165950500Y-117318994D01*
X165950500Y-117181006D01*
X165950500Y-116254763D01*
X165970185Y-116187724D01*
X166022989Y-116141969D01*
X166092147Y-116132025D01*
X166098663Y-116133141D01*
X166168647Y-116147061D01*
X166185930Y-116150500D01*
X166185931Y-116150500D01*
X166314071Y-116150500D01*
X166401311Y-116133146D01*
X166439744Y-116125501D01*
X166458235Y-116117841D01*
X166477315Y-116109939D01*
X166524767Y-116100500D01*
X170225233Y-116100500D01*
X170272685Y-116109939D01*
X170310251Y-116125499D01*
X170310256Y-116125501D01*
X170310260Y-116125501D01*
X170310261Y-116125502D01*
X170435928Y-116150500D01*
X170435931Y-116150500D01*
X170564071Y-116150500D01*
X170651311Y-116133146D01*
X170689744Y-116125501D01*
X170808127Y-116076465D01*
X170914669Y-116005276D01*
X171005276Y-115914669D01*
X171076465Y-115808127D01*
X171125501Y-115689744D01*
X171137941Y-115627208D01*
X171150500Y-115564071D01*
X171150500Y-115435928D01*
X171125502Y-115310261D01*
X171125501Y-115310260D01*
X171125501Y-115310256D01*
X171076465Y-115191873D01*
X171076464Y-115191872D01*
X171076461Y-115191866D01*
X171005276Y-115085331D01*
X171005273Y-115085327D01*
X170914672Y-114994726D01*
X170914668Y-114994723D01*
X170808133Y-114923538D01*
X170808124Y-114923533D01*
X170689744Y-114874499D01*
X170689738Y-114874497D01*
X170564071Y-114849500D01*
X170564069Y-114849500D01*
X170435931Y-114849500D01*
X170435929Y-114849500D01*
X170310261Y-114874497D01*
X170310251Y-114874500D01*
X170272685Y-114890061D01*
X170225233Y-114899500D01*
X166524767Y-114899500D01*
X166477315Y-114890061D01*
X166439748Y-114874500D01*
X166439738Y-114874497D01*
X166314071Y-114849500D01*
X166314069Y-114849500D01*
X166185931Y-114849500D01*
X166185929Y-114849500D01*
X166098692Y-114866853D01*
X166029100Y-114860626D01*
X165973923Y-114817763D01*
X165950678Y-114751874D01*
X165950500Y-114745236D01*
X165950500Y-110425316D01*
X165959939Y-110377864D01*
X166019735Y-110233501D01*
X166019737Y-110233497D01*
X166050500Y-110078842D01*
X166050500Y-109921158D01*
X166050500Y-109921155D01*
X166050499Y-109921153D01*
X166019738Y-109766510D01*
X166019737Y-109766503D01*
X166019735Y-109766498D01*
X165959397Y-109620827D01*
X165959390Y-109620814D01*
X165871789Y-109489711D01*
X165871786Y-109489707D01*
X165760292Y-109378213D01*
X165760288Y-109378210D01*
X165629185Y-109290609D01*
X165629172Y-109290602D01*
X165483501Y-109230264D01*
X165483489Y-109230261D01*
X165328845Y-109199500D01*
X165328842Y-109199500D01*
X165171158Y-109199500D01*
X165171155Y-109199500D01*
X165016510Y-109230261D01*
X165016498Y-109230264D01*
X164872136Y-109290061D01*
X164824684Y-109299500D01*
X155931004Y-109299500D01*
X155795677Y-109326418D01*
X155795667Y-109326421D01*
X155668192Y-109379222D01*
X155553449Y-109455890D01*
X155553162Y-109456127D01*
X155552981Y-109456203D01*
X155548391Y-109459271D01*
X155547809Y-109458400D01*
X155488852Y-109483439D01*
X155419984Y-109471645D01*
X155368426Y-109424492D01*
X155350500Y-109360272D01*
X155350500Y-108724500D01*
X155370185Y-108657461D01*
X155422989Y-108611706D01*
X155474500Y-108600500D01*
X165699903Y-108600500D01*
X165766942Y-108620185D01*
X165787584Y-108636819D01*
X172165425Y-115014660D01*
X172198910Y-115075983D01*
X172199361Y-115078149D01*
X172230261Y-115233491D01*
X172230264Y-115233501D01*
X172290602Y-115379172D01*
X172290609Y-115379185D01*
X172378210Y-115510288D01*
X172378213Y-115510292D01*
X172489707Y-115621786D01*
X172489711Y-115621789D01*
X172620814Y-115709390D01*
X172620827Y-115709397D01*
X172766498Y-115769735D01*
X172766503Y-115769737D01*
X172919660Y-115800202D01*
X172921153Y-115800499D01*
X172921156Y-115800500D01*
X172921158Y-115800500D01*
X173078844Y-115800500D01*
X173078845Y-115800499D01*
X173233497Y-115769737D01*
X173379179Y-115709394D01*
X173510289Y-115621789D01*
X173621789Y-115510289D01*
X173681348Y-115421153D01*
X198949500Y-115421153D01*
X198949500Y-115578846D01*
X198980261Y-115733489D01*
X198980264Y-115733501D01*
X199040061Y-115877864D01*
X199049500Y-115925316D01*
X199049500Y-123574684D01*
X199040061Y-123622136D01*
X198980264Y-123766498D01*
X198980261Y-123766510D01*
X198949500Y-123921153D01*
X198949500Y-124078846D01*
X198980261Y-124233489D01*
X198980264Y-124233501D01*
X199040602Y-124379172D01*
X199040609Y-124379185D01*
X199128210Y-124510288D01*
X199128213Y-124510292D01*
X199239707Y-124621786D01*
X199239711Y-124621789D01*
X199370814Y-124709390D01*
X199370827Y-124709397D01*
X199516498Y-124769735D01*
X199516503Y-124769737D01*
X199671153Y-124800499D01*
X199671156Y-124800500D01*
X199671158Y-124800500D01*
X199828844Y-124800500D01*
X199828845Y-124800499D01*
X199983497Y-124769737D01*
X200129179Y-124709394D01*
X200260289Y-124621789D01*
X200371789Y-124510289D01*
X200459394Y-124379179D01*
X200519737Y-124233497D01*
X200550500Y-124078842D01*
X200550500Y-123921158D01*
X200550500Y-123921155D01*
X200550499Y-123921153D01*
X200519738Y-123766510D01*
X200519737Y-123766503D01*
X200459939Y-123622136D01*
X200450500Y-123574684D01*
X200450500Y-115925316D01*
X200459939Y-115877864D01*
X200504387Y-115770555D01*
X200519737Y-115733497D01*
X200550500Y-115578842D01*
X200550500Y-115421158D01*
X200550500Y-115421155D01*
X200550499Y-115421153D01*
X200519738Y-115266510D01*
X200519737Y-115266503D01*
X200506062Y-115233489D01*
X200459397Y-115120827D01*
X200459390Y-115120814D01*
X200371789Y-114989711D01*
X200371786Y-114989707D01*
X200260292Y-114878213D01*
X200260288Y-114878210D01*
X200129185Y-114790609D01*
X200129172Y-114790602D01*
X199983501Y-114730264D01*
X199983489Y-114730261D01*
X199828845Y-114699500D01*
X199828842Y-114699500D01*
X199671158Y-114699500D01*
X199671155Y-114699500D01*
X199516510Y-114730261D01*
X199516498Y-114730264D01*
X199370827Y-114790602D01*
X199370814Y-114790609D01*
X199239711Y-114878210D01*
X199239707Y-114878213D01*
X199128213Y-114989707D01*
X199128210Y-114989711D01*
X199040609Y-115120814D01*
X199040602Y-115120827D01*
X198980264Y-115266498D01*
X198980261Y-115266510D01*
X198949500Y-115421153D01*
X173681348Y-115421153D01*
X173709394Y-115379179D01*
X173769737Y-115233497D01*
X173800500Y-115078842D01*
X173800500Y-114921158D01*
X173800500Y-114921155D01*
X173800499Y-114921153D01*
X173796956Y-114903339D01*
X173769737Y-114766503D01*
X173755100Y-114731166D01*
X173709397Y-114620827D01*
X173709390Y-114620814D01*
X173621789Y-114489711D01*
X173621786Y-114489707D01*
X173510292Y-114378213D01*
X173510288Y-114378210D01*
X173379185Y-114290609D01*
X173379172Y-114290602D01*
X173233501Y-114230264D01*
X173233491Y-114230261D01*
X173078149Y-114199361D01*
X173016238Y-114166976D01*
X173014660Y-114165425D01*
X166487590Y-107638355D01*
X166487588Y-107638352D01*
X166368717Y-107519481D01*
X166368716Y-107519480D01*
X166281904Y-107469360D01*
X166281904Y-107469359D01*
X166281900Y-107469358D01*
X166231785Y-107440423D01*
X166079057Y-107399499D01*
X165920943Y-107399499D01*
X165913347Y-107399499D01*
X165913331Y-107399500D01*
X159249096Y-107399500D01*
X159182057Y-107379815D01*
X159136302Y-107327011D01*
X159126358Y-107257853D01*
X159155383Y-107194297D01*
X159161415Y-107187819D01*
X159530445Y-106818790D01*
X161065709Y-105283527D01*
X161127032Y-105250042D01*
X161153390Y-105247208D01*
X169724585Y-105247208D01*
X169772037Y-105256647D01*
X169809603Y-105272207D01*
X169809608Y-105272209D01*
X169809612Y-105272209D01*
X169809613Y-105272210D01*
X169935280Y-105297208D01*
X169935283Y-105297208D01*
X170063423Y-105297208D01*
X170147967Y-105280390D01*
X170189096Y-105272209D01*
X170307479Y-105223173D01*
X170414021Y-105151984D01*
X170504628Y-105061377D01*
X170575817Y-104954835D01*
X170624853Y-104836452D01*
X170649852Y-104710777D01*
X170649852Y-104582639D01*
X170649852Y-104582636D01*
X170624854Y-104456969D01*
X170624853Y-104456968D01*
X170624853Y-104456964D01*
X170575817Y-104338581D01*
X170575816Y-104338580D01*
X170575813Y-104338574D01*
X170504628Y-104232039D01*
X170504625Y-104232035D01*
X170414024Y-104141434D01*
X170414020Y-104141431D01*
X170307485Y-104070246D01*
X170307476Y-104070241D01*
X170189096Y-104021207D01*
X170189090Y-104021205D01*
X170063423Y-103996208D01*
X170063421Y-103996208D01*
X169935283Y-103996208D01*
X169935281Y-103996208D01*
X169809613Y-104021205D01*
X169809603Y-104021208D01*
X169772037Y-104036769D01*
X169724585Y-104046208D01*
X160939962Y-104046208D01*
X160939946Y-104046207D01*
X160932350Y-104046207D01*
X160774235Y-104046207D01*
X160697871Y-104066669D01*
X160621506Y-104087131D01*
X160621501Y-104087134D01*
X160484582Y-104166183D01*
X160484574Y-104166189D01*
X157831981Y-106818782D01*
X157831975Y-106818790D01*
X157788862Y-106893464D01*
X157788851Y-106893485D01*
X157786343Y-106897831D01*
X157752923Y-106955715D01*
X157744539Y-106987001D01*
X157739728Y-106997155D01*
X157738684Y-106998325D01*
X157737035Y-107002500D01*
X157736034Y-107004371D01*
X157687000Y-107122751D01*
X157686997Y-107122761D01*
X157662000Y-107248428D01*
X157662000Y-107275500D01*
X157642315Y-107342539D01*
X157589511Y-107388294D01*
X157538000Y-107399500D01*
X154920940Y-107399500D01*
X154880019Y-107410464D01*
X154880019Y-107410465D01*
X154842751Y-107420451D01*
X154768214Y-107440423D01*
X154768209Y-107440426D01*
X154631290Y-107519475D01*
X154631282Y-107519481D01*
X154562181Y-107588583D01*
X154500858Y-107622068D01*
X154431166Y-107617084D01*
X154375233Y-107575212D01*
X154350816Y-107509748D01*
X154350500Y-107500902D01*
X154350500Y-105800097D01*
X154370185Y-105733058D01*
X154386819Y-105712416D01*
X156462416Y-103636819D01*
X156523739Y-103603334D01*
X156550097Y-103600500D01*
X173913331Y-103600500D01*
X173913347Y-103600501D01*
X173920943Y-103600501D01*
X174079054Y-103600501D01*
X174079057Y-103600501D01*
X174231785Y-103559577D01*
X174281904Y-103530639D01*
X174368716Y-103480520D01*
X174480520Y-103368716D01*
X174480520Y-103368714D01*
X174490728Y-103358507D01*
X174490730Y-103358504D01*
X177980329Y-99868904D01*
X178020554Y-99842027D01*
X178058127Y-99826465D01*
X178164669Y-99755276D01*
X178255276Y-99664669D01*
X178326465Y-99558127D01*
X178375501Y-99439744D01*
X178400500Y-99314069D01*
X178400500Y-99185931D01*
X178400500Y-99185928D01*
X178375502Y-99060261D01*
X178375501Y-99060260D01*
X178375501Y-99060256D01*
X178326465Y-98941873D01*
X178326464Y-98941872D01*
X178326461Y-98941866D01*
X178255276Y-98835331D01*
X178255273Y-98835327D01*
X178164672Y-98744726D01*
X178164668Y-98744723D01*
X178058133Y-98673538D01*
X178058124Y-98673533D01*
X177939744Y-98624499D01*
X177939738Y-98624497D01*
X177814071Y-98599500D01*
X177814069Y-98599500D01*
X177685931Y-98599500D01*
X177685929Y-98599500D01*
X177560261Y-98624497D01*
X177560255Y-98624499D01*
X177441875Y-98673533D01*
X177441866Y-98673538D01*
X177335331Y-98744723D01*
X177335327Y-98744726D01*
X177244725Y-98835328D01*
X177173535Y-98941873D01*
X177157971Y-98979446D01*
X177131092Y-99019671D01*
X173787584Y-102363181D01*
X173726261Y-102396666D01*
X173699903Y-102399500D01*
X156336669Y-102399500D01*
X156336653Y-102399499D01*
X156329057Y-102399499D01*
X156170943Y-102399499D01*
X156063587Y-102428265D01*
X156018210Y-102440424D01*
X156018209Y-102440425D01*
X155968096Y-102469359D01*
X155968095Y-102469360D01*
X155924689Y-102494420D01*
X155881285Y-102519479D01*
X155881282Y-102519481D01*
X153269481Y-105131282D01*
X153269477Y-105131287D01*
X153257529Y-105151984D01*
X153253079Y-105159692D01*
X153190423Y-105268215D01*
X153149499Y-105420943D01*
X153149499Y-105420945D01*
X153149499Y-105589046D01*
X153149500Y-105589059D01*
X153149500Y-113663330D01*
X153149499Y-113663348D01*
X153149499Y-113829054D01*
X153149498Y-113829054D01*
X153149499Y-113829057D01*
X153190423Y-113981785D01*
X153190424Y-113981787D01*
X153190423Y-113981787D01*
X153203986Y-114005277D01*
X153203987Y-114005279D01*
X153269475Y-114118709D01*
X153269481Y-114118717D01*
X153388349Y-114237585D01*
X153388355Y-114237590D01*
X154881092Y-115730328D01*
X154907972Y-115770555D01*
X154923535Y-115808127D01*
X154923538Y-115808133D01*
X154994723Y-115914668D01*
X154994726Y-115914672D01*
X155085327Y-116005273D01*
X155085331Y-116005276D01*
X155191866Y-116076461D01*
X155191872Y-116076464D01*
X155191873Y-116076465D01*
X155310256Y-116125501D01*
X155310260Y-116125501D01*
X155310261Y-116125502D01*
X155435928Y-116150500D01*
X155435931Y-116150500D01*
X155564071Y-116150500D01*
X155651311Y-116133146D01*
X155689744Y-116125501D01*
X155808127Y-116076465D01*
X155914669Y-116005276D01*
X156005276Y-115914669D01*
X156076465Y-115808127D01*
X156125501Y-115689744D01*
X156137941Y-115627208D01*
X156150500Y-115564071D01*
X156150500Y-115435928D01*
X156125502Y-115310261D01*
X156125501Y-115310260D01*
X156125501Y-115310256D01*
X156076465Y-115191873D01*
X156076464Y-115191872D01*
X156076461Y-115191866D01*
X156005276Y-115085331D01*
X156005273Y-115085327D01*
X155914672Y-114994726D01*
X155914668Y-114994723D01*
X155808133Y-114923538D01*
X155808127Y-114923535D01*
X155770555Y-114907972D01*
X155763622Y-114903339D01*
X155758582Y-114902243D01*
X155730328Y-114881092D01*
X155711417Y-114862181D01*
X155677932Y-114800858D01*
X155682916Y-114731166D01*
X155724788Y-114675233D01*
X155790252Y-114650816D01*
X155799098Y-114650500D01*
X155814071Y-114650500D01*
X155898615Y-114633682D01*
X155939744Y-114625501D01*
X156058127Y-114576465D01*
X156164669Y-114505276D01*
X156255276Y-114414669D01*
X156326465Y-114308127D01*
X156375501Y-114189744D01*
X156383682Y-114148615D01*
X156400500Y-114064071D01*
X156400500Y-113935928D01*
X156375502Y-113810261D01*
X156375501Y-113810260D01*
X156375501Y-113810256D01*
X156326465Y-113691873D01*
X156326464Y-113691872D01*
X156326461Y-113691866D01*
X156255276Y-113585331D01*
X156255273Y-113585327D01*
X156164672Y-113494726D01*
X156164668Y-113494723D01*
X156058133Y-113423538D01*
X156058127Y-113423535D01*
X156020555Y-113407972D01*
X155980328Y-113381092D01*
X155386819Y-112787583D01*
X155353334Y-112726260D01*
X155350500Y-112699902D01*
X155350500Y-111424500D01*
X155370185Y-111357461D01*
X155422989Y-111311706D01*
X155474500Y-111300500D01*
X155578844Y-111300500D01*
X155578845Y-111300499D01*
X155733497Y-111269737D01*
X155879179Y-111209394D01*
X156010289Y-111121789D01*
X156121789Y-111010289D01*
X156209394Y-110879179D01*
X156232043Y-110824500D01*
X156251698Y-110777048D01*
X156295538Y-110722644D01*
X156361833Y-110700579D01*
X156366259Y-110700500D01*
X164425500Y-110700500D01*
X164492539Y-110720185D01*
X164538294Y-110772989D01*
X164549500Y-110824500D01*
X164549500Y-112633740D01*
X164529815Y-112700779D01*
X164477011Y-112746534D01*
X164472953Y-112748301D01*
X164370824Y-112790604D01*
X164370814Y-112790609D01*
X164239711Y-112878210D01*
X164239707Y-112878213D01*
X164128213Y-112989707D01*
X164128210Y-112989711D01*
X164040609Y-113120814D01*
X164040602Y-113120827D01*
X163980264Y-113266498D01*
X163980261Y-113266510D01*
X163949500Y-113421153D01*
X163949500Y-113578846D01*
X163980261Y-113733489D01*
X163980264Y-113733501D01*
X164040602Y-113879172D01*
X164040609Y-113879185D01*
X164128210Y-114010288D01*
X164128213Y-114010292D01*
X164239707Y-114121786D01*
X164239711Y-114121789D01*
X164370814Y-114209390D01*
X164370827Y-114209397D01*
X164472952Y-114251698D01*
X164527356Y-114295538D01*
X164549421Y-114361833D01*
X164549500Y-114366259D01*
X164549500Y-116908481D01*
X164529815Y-116975520D01*
X164513181Y-116996162D01*
X162496162Y-119013181D01*
X162469234Y-119027884D01*
X162443416Y-119044477D01*
X162437215Y-119045368D01*
X162434839Y-119046666D01*
X162408481Y-119049500D01*
X162175316Y-119049500D01*
X162127864Y-119040061D01*
X161983501Y-118980264D01*
X161983489Y-118980261D01*
X161828845Y-118949500D01*
X161828842Y-118949500D01*
X161671158Y-118949500D01*
X161671155Y-118949500D01*
X161516510Y-118980261D01*
X161516498Y-118980264D01*
X161372136Y-119040061D01*
X161324684Y-119049500D01*
X155225316Y-119049500D01*
X155177864Y-119040061D01*
X155033501Y-118980264D01*
X155033489Y-118980261D01*
X154878845Y-118949500D01*
X154878842Y-118949500D01*
X154721158Y-118949500D01*
X154721155Y-118949500D01*
X154566510Y-118980261D01*
X154566498Y-118980264D01*
X154422136Y-119040061D01*
X154374684Y-119049500D01*
X148431004Y-119049500D01*
X148295677Y-119076418D01*
X148295667Y-119076421D01*
X148168192Y-119129222D01*
X148053454Y-119205887D01*
X148053453Y-119205888D01*
X145246162Y-122013181D01*
X145184839Y-122046666D01*
X145158481Y-122049500D01*
X141841519Y-122049500D01*
X141774480Y-122029815D01*
X141753838Y-122013181D01*
X140046071Y-120305414D01*
X140019191Y-120265185D01*
X139959397Y-120120827D01*
X139959390Y-120120814D01*
X139871789Y-119989711D01*
X139871786Y-119989707D01*
X139760292Y-119878213D01*
X139760288Y-119878210D01*
X139629185Y-119790609D01*
X139629172Y-119790602D01*
X139483501Y-119730264D01*
X139483489Y-119730261D01*
X139328845Y-119699500D01*
X139328842Y-119699500D01*
X139171158Y-119699500D01*
X139171155Y-119699500D01*
X139016510Y-119730261D01*
X139016498Y-119730264D01*
X138870827Y-119790602D01*
X138870814Y-119790609D01*
X138739711Y-119878210D01*
X138739707Y-119878213D01*
X138628213Y-119989707D01*
X138628210Y-119989711D01*
X138540609Y-120120814D01*
X138540602Y-120120827D01*
X138480264Y-120266498D01*
X138480261Y-120266510D01*
X138449500Y-120421153D01*
X123988743Y-120421153D01*
X124030104Y-120379792D01*
X124155051Y-120207816D01*
X124251557Y-120018412D01*
X124317246Y-119816243D01*
X124350500Y-119606287D01*
X124350500Y-119393713D01*
X124317246Y-119183757D01*
X124251557Y-118981588D01*
X124155051Y-118792184D01*
X124155049Y-118792181D01*
X124155048Y-118792179D01*
X124030109Y-118620213D01*
X123879786Y-118469890D01*
X123707820Y-118344951D01*
X123706132Y-118344091D01*
X123699054Y-118340485D01*
X123648259Y-118292512D01*
X123631463Y-118224692D01*
X123653999Y-118158556D01*
X123699054Y-118119515D01*
X123707816Y-118115051D01*
X123739092Y-118092328D01*
X123879786Y-117990109D01*
X123879788Y-117990106D01*
X123879792Y-117990104D01*
X124030104Y-117839792D01*
X124030106Y-117839788D01*
X124030109Y-117839786D01*
X124155048Y-117667820D01*
X124155047Y-117667820D01*
X124155051Y-117667816D01*
X124251557Y-117478412D01*
X124317246Y-117276243D01*
X124350500Y-117066287D01*
X124350500Y-116893713D01*
X141149500Y-116893713D01*
X141149500Y-117106286D01*
X141182753Y-117316239D01*
X141248444Y-117518414D01*
X141344951Y-117707820D01*
X141469890Y-117879786D01*
X141620213Y-118030109D01*
X141792179Y-118155048D01*
X141792181Y-118155049D01*
X141792184Y-118155051D01*
X141981588Y-118251557D01*
X142183757Y-118317246D01*
X142393713Y-118350500D01*
X142393714Y-118350500D01*
X142606286Y-118350500D01*
X142606287Y-118350500D01*
X142816243Y-118317246D01*
X143018412Y-118251557D01*
X143207816Y-118155051D01*
X143379792Y-118030104D01*
X143493329Y-117916566D01*
X143554648Y-117883084D01*
X143624340Y-117888068D01*
X143680274Y-117929939D01*
X143697189Y-117960917D01*
X143746202Y-118092328D01*
X143746206Y-118092335D01*
X143832452Y-118207544D01*
X143832455Y-118207547D01*
X143947664Y-118293793D01*
X143947671Y-118293797D01*
X144082517Y-118344091D01*
X144082516Y-118344091D01*
X144089444Y-118344835D01*
X144142127Y-118350500D01*
X145937872Y-118350499D01*
X145997483Y-118344091D01*
X146132331Y-118293796D01*
X146247546Y-118207546D01*
X146333796Y-118092331D01*
X146384091Y-117957483D01*
X146390500Y-117897873D01*
X146390499Y-116102128D01*
X146384091Y-116042517D01*
X146382810Y-116039083D01*
X146333797Y-115907671D01*
X146333793Y-115907664D01*
X146247547Y-115792455D01*
X146247544Y-115792452D01*
X146132335Y-115706206D01*
X146132328Y-115706202D01*
X145997482Y-115655908D01*
X145997483Y-115655908D01*
X145937883Y-115649501D01*
X145937881Y-115649500D01*
X145937873Y-115649500D01*
X145937864Y-115649500D01*
X144142129Y-115649500D01*
X144142123Y-115649501D01*
X144082516Y-115655908D01*
X143947671Y-115706202D01*
X143947664Y-115706206D01*
X143832455Y-115792452D01*
X143832452Y-115792455D01*
X143746206Y-115907664D01*
X143746203Y-115907669D01*
X143697189Y-116039083D01*
X143655317Y-116095016D01*
X143589853Y-116119433D01*
X143521580Y-116104581D01*
X143493326Y-116083430D01*
X143379786Y-115969890D01*
X143207820Y-115844951D01*
X143018414Y-115748444D01*
X143018413Y-115748443D01*
X143018412Y-115748443D01*
X142816243Y-115682754D01*
X142816241Y-115682753D01*
X142816240Y-115682753D01*
X142654957Y-115657208D01*
X142606287Y-115649500D01*
X142393713Y-115649500D01*
X142345042Y-115657208D01*
X142183760Y-115682753D01*
X142104695Y-115708443D01*
X142027612Y-115733489D01*
X141981585Y-115748444D01*
X141792179Y-115844951D01*
X141620213Y-115969890D01*
X141469890Y-116120213D01*
X141344951Y-116292179D01*
X141248444Y-116481585D01*
X141182753Y-116683760D01*
X141149500Y-116893713D01*
X124350500Y-116893713D01*
X124350500Y-116853713D01*
X124317246Y-116643757D01*
X124251557Y-116441588D01*
X124155051Y-116252184D01*
X124155049Y-116252181D01*
X124155048Y-116252179D01*
X124030109Y-116080213D01*
X123879786Y-115929890D01*
X123707817Y-115804949D01*
X123698504Y-115800204D01*
X123647707Y-115752230D01*
X123630912Y-115684409D01*
X123653449Y-115618274D01*
X123698507Y-115579232D01*
X123707558Y-115574620D01*
X123879459Y-115449727D01*
X123879464Y-115449723D01*
X124029723Y-115299464D01*
X124029727Y-115299459D01*
X124154620Y-115127557D01*
X124251095Y-114938217D01*
X124316757Y-114736129D01*
X124316757Y-114736126D01*
X124327231Y-114670000D01*
X123433012Y-114670000D01*
X123465925Y-114612993D01*
X123500000Y-114485826D01*
X123500000Y-114354174D01*
X123465925Y-114227007D01*
X123433012Y-114170000D01*
X124327231Y-114170000D01*
X124316757Y-114103873D01*
X124316757Y-114103870D01*
X124251095Y-113901782D01*
X124154620Y-113712442D01*
X124029727Y-113540540D01*
X124029723Y-113540535D01*
X123915665Y-113426477D01*
X123882180Y-113365154D01*
X123887164Y-113295462D01*
X123929036Y-113239529D01*
X123960013Y-113222614D01*
X124092086Y-113173354D01*
X124092093Y-113173350D01*
X124207187Y-113087190D01*
X124207190Y-113087187D01*
X124293350Y-112972093D01*
X124293354Y-112972086D01*
X124343596Y-112837379D01*
X124343598Y-112837372D01*
X124349999Y-112777844D01*
X124350000Y-112777827D01*
X124350000Y-112130000D01*
X123433012Y-112130000D01*
X123465925Y-112072993D01*
X123500000Y-111945826D01*
X123500000Y-111814174D01*
X123465925Y-111687007D01*
X123433012Y-111630000D01*
X124350000Y-111630000D01*
X124350000Y-110982172D01*
X124349999Y-110982155D01*
X124343598Y-110922627D01*
X124343596Y-110922620D01*
X124293354Y-110787913D01*
X124293350Y-110787906D01*
X124207190Y-110672812D01*
X124207187Y-110672809D01*
X124092093Y-110586649D01*
X124092086Y-110586645D01*
X123957379Y-110536403D01*
X123957372Y-110536401D01*
X123897844Y-110530000D01*
X123250000Y-110530000D01*
X123250000Y-111446988D01*
X123192993Y-111414075D01*
X123065826Y-111380000D01*
X122934174Y-111380000D01*
X122807007Y-111414075D01*
X122750000Y-111446988D01*
X122750000Y-110530000D01*
X122102155Y-110530000D01*
X122042627Y-110536401D01*
X122042620Y-110536403D01*
X121907913Y-110586645D01*
X121907906Y-110586649D01*
X121792812Y-110672809D01*
X121792809Y-110672812D01*
X121706649Y-110787906D01*
X121706645Y-110787913D01*
X121656403Y-110922620D01*
X121656401Y-110922627D01*
X121650000Y-110982155D01*
X121650000Y-111630000D01*
X122566988Y-111630000D01*
X122534075Y-111687007D01*
X122500000Y-111814174D01*
X122500000Y-111945826D01*
X122534075Y-112072993D01*
X122566988Y-112130000D01*
X121650000Y-112130000D01*
X121650000Y-112777844D01*
X121656401Y-112837372D01*
X121656403Y-112837379D01*
X121706645Y-112972086D01*
X121706649Y-112972093D01*
X121792809Y-113087187D01*
X121792812Y-113087190D01*
X121907906Y-113173350D01*
X121907913Y-113173354D01*
X122039986Y-113222614D01*
X122095920Y-113264485D01*
X122120337Y-113329949D01*
X122105486Y-113398222D01*
X122084335Y-113426477D01*
X121970271Y-113540541D01*
X121845379Y-113712442D01*
X121748904Y-113901782D01*
X121683242Y-114103870D01*
X121683242Y-114103873D01*
X121672769Y-114170000D01*
X122566988Y-114170000D01*
X122534075Y-114227007D01*
X122500000Y-114354174D01*
X122500000Y-114485826D01*
X122534075Y-114612993D01*
X122566988Y-114670000D01*
X121672769Y-114670000D01*
X121683242Y-114736126D01*
X121683242Y-114736129D01*
X121748904Y-114938217D01*
X121845379Y-115127557D01*
X121970272Y-115299459D01*
X121970276Y-115299464D01*
X122120535Y-115449723D01*
X122120540Y-115449727D01*
X122292444Y-115574622D01*
X122301495Y-115579234D01*
X122352292Y-115627208D01*
X122369087Y-115695029D01*
X122346550Y-115761164D01*
X122301499Y-115800202D01*
X122292182Y-115804949D01*
X122120213Y-115929890D01*
X121969890Y-116080213D01*
X121844951Y-116252179D01*
X121748444Y-116441585D01*
X121682753Y-116643760D01*
X121676418Y-116683760D01*
X121649500Y-116853713D01*
X119300500Y-116853713D01*
X119300500Y-95893713D01*
X124489500Y-95893713D01*
X124489500Y-96106287D01*
X124522754Y-96316243D01*
X124585253Y-96508595D01*
X124588444Y-96518414D01*
X124684951Y-96707820D01*
X124809890Y-96879786D01*
X124960213Y-97030109D01*
X125132179Y-97155048D01*
X125132181Y-97155049D01*
X125132184Y-97155051D01*
X125321588Y-97251557D01*
X125523757Y-97317246D01*
X125733713Y-97350500D01*
X125733714Y-97350500D01*
X125946286Y-97350500D01*
X125946287Y-97350500D01*
X126156243Y-97317246D01*
X126358412Y-97251557D01*
X126547816Y-97155051D01*
X126634138Y-97092335D01*
X126719786Y-97030109D01*
X126719788Y-97030106D01*
X126719792Y-97030104D01*
X126870104Y-96879792D01*
X126870106Y-96879788D01*
X126870109Y-96879786D01*
X126995048Y-96707820D01*
X126995047Y-96707820D01*
X126995051Y-96707816D01*
X126999514Y-96699054D01*
X127047488Y-96648259D01*
X127115308Y-96631463D01*
X127181444Y-96653999D01*
X127220486Y-96699056D01*
X127224951Y-96707820D01*
X127349890Y-96879786D01*
X127500213Y-97030109D01*
X127672179Y-97155048D01*
X127672181Y-97155049D01*
X127672184Y-97155051D01*
X127861588Y-97251557D01*
X128063757Y-97317246D01*
X128273713Y-97350500D01*
X128273714Y-97350500D01*
X128486286Y-97350500D01*
X128486287Y-97350500D01*
X128696243Y-97317246D01*
X128898412Y-97251557D01*
X129087816Y-97155051D01*
X129174138Y-97092335D01*
X129259786Y-97030109D01*
X129259788Y-97030106D01*
X129259792Y-97030104D01*
X129410104Y-96879792D01*
X129410106Y-96879788D01*
X129410109Y-96879786D01*
X129535048Y-96707820D01*
X129535047Y-96707820D01*
X129535051Y-96707816D01*
X129539514Y-96699054D01*
X129587488Y-96648259D01*
X129655308Y-96631463D01*
X129721444Y-96653999D01*
X129760486Y-96699056D01*
X129764951Y-96707820D01*
X129889890Y-96879786D01*
X130040213Y-97030109D01*
X130212179Y-97155048D01*
X130212181Y-97155049D01*
X130212184Y-97155051D01*
X130401588Y-97251557D01*
X130603757Y-97317246D01*
X130813713Y-97350500D01*
X130813714Y-97350500D01*
X131026286Y-97350500D01*
X131026287Y-97350500D01*
X131236243Y-97317246D01*
X131438412Y-97251557D01*
X131627816Y-97155051D01*
X131714138Y-97092335D01*
X131799786Y-97030109D01*
X131799788Y-97030106D01*
X131799792Y-97030104D01*
X131950104Y-96879792D01*
X131950106Y-96879788D01*
X131950109Y-96879786D01*
X132075048Y-96707820D01*
X132075047Y-96707820D01*
X132075051Y-96707816D01*
X132079514Y-96699054D01*
X132127488Y-96648259D01*
X132195308Y-96631463D01*
X132261444Y-96653999D01*
X132300486Y-96699056D01*
X132304951Y-96707820D01*
X132429890Y-96879786D01*
X132580213Y-97030109D01*
X132752179Y-97155048D01*
X132752181Y-97155049D01*
X132752184Y-97155051D01*
X132941588Y-97251557D01*
X133143757Y-97317246D01*
X133353713Y-97350500D01*
X133353714Y-97350500D01*
X133566286Y-97350500D01*
X133566287Y-97350500D01*
X133776243Y-97317246D01*
X133978412Y-97251557D01*
X134167816Y-97155051D01*
X134254138Y-97092335D01*
X134339786Y-97030109D01*
X134339788Y-97030106D01*
X134339792Y-97030104D01*
X134490104Y-96879792D01*
X134490106Y-96879788D01*
X134490109Y-96879786D01*
X134615048Y-96707820D01*
X134615047Y-96707820D01*
X134615051Y-96707816D01*
X134619514Y-96699054D01*
X134667488Y-96648259D01*
X134735308Y-96631463D01*
X134801444Y-96653999D01*
X134840486Y-96699056D01*
X134844951Y-96707820D01*
X134969890Y-96879786D01*
X135120213Y-97030109D01*
X135292179Y-97155048D01*
X135292181Y-97155049D01*
X135292184Y-97155051D01*
X135481588Y-97251557D01*
X135683757Y-97317246D01*
X135893713Y-97350500D01*
X135893714Y-97350500D01*
X136106286Y-97350500D01*
X136106287Y-97350500D01*
X136316243Y-97317246D01*
X136518412Y-97251557D01*
X136707816Y-97155051D01*
X136879792Y-97030104D01*
X136993329Y-96916566D01*
X137054648Y-96883084D01*
X137124340Y-96888068D01*
X137180274Y-96929939D01*
X137197189Y-96960917D01*
X137246202Y-97092328D01*
X137246206Y-97092335D01*
X137332452Y-97207544D01*
X137332455Y-97207547D01*
X137447664Y-97293793D01*
X137447671Y-97293797D01*
X137582517Y-97344091D01*
X137582516Y-97344091D01*
X137589444Y-97344835D01*
X137642127Y-97350500D01*
X139437872Y-97350499D01*
X139497483Y-97344091D01*
X139632331Y-97293796D01*
X139747546Y-97207546D01*
X139833796Y-97092331D01*
X139884091Y-96957483D01*
X139890500Y-96897873D01*
X139890499Y-95893713D01*
X145449500Y-95893713D01*
X145449500Y-96106287D01*
X145482754Y-96316243D01*
X145545253Y-96508595D01*
X145548444Y-96518414D01*
X145644951Y-96707820D01*
X145769890Y-96879786D01*
X145920213Y-97030109D01*
X146092179Y-97155048D01*
X146092181Y-97155049D01*
X146092184Y-97155051D01*
X146281588Y-97251557D01*
X146483757Y-97317246D01*
X146693713Y-97350500D01*
X146693714Y-97350500D01*
X146906286Y-97350500D01*
X146906287Y-97350500D01*
X147116243Y-97317246D01*
X147318412Y-97251557D01*
X147507816Y-97155051D01*
X147594138Y-97092335D01*
X147679786Y-97030109D01*
X147679788Y-97030106D01*
X147679792Y-97030104D01*
X147830104Y-96879792D01*
X147830106Y-96879788D01*
X147830109Y-96879786D01*
X147955048Y-96707820D01*
X147955047Y-96707820D01*
X147955051Y-96707816D01*
X147959514Y-96699054D01*
X148007488Y-96648259D01*
X148075308Y-96631463D01*
X148141444Y-96653999D01*
X148180486Y-96699056D01*
X148184951Y-96707820D01*
X148309890Y-96879786D01*
X148460213Y-97030109D01*
X148632179Y-97155048D01*
X148632181Y-97155049D01*
X148632184Y-97155051D01*
X148821588Y-97251557D01*
X149023757Y-97317246D01*
X149233713Y-97350500D01*
X149233714Y-97350500D01*
X149446286Y-97350500D01*
X149446287Y-97350500D01*
X149656243Y-97317246D01*
X149858412Y-97251557D01*
X150047816Y-97155051D01*
X150134138Y-97092335D01*
X150219786Y-97030109D01*
X150219788Y-97030106D01*
X150219792Y-97030104D01*
X150370104Y-96879792D01*
X150370106Y-96879788D01*
X150370109Y-96879786D01*
X150495048Y-96707820D01*
X150495047Y-96707820D01*
X150495051Y-96707816D01*
X150499514Y-96699054D01*
X150547488Y-96648259D01*
X150615308Y-96631463D01*
X150681444Y-96653999D01*
X150720486Y-96699056D01*
X150724951Y-96707820D01*
X150849890Y-96879786D01*
X151000213Y-97030109D01*
X151172179Y-97155048D01*
X151172181Y-97155049D01*
X151172184Y-97155051D01*
X151361588Y-97251557D01*
X151563757Y-97317246D01*
X151773713Y-97350500D01*
X151773714Y-97350500D01*
X151986286Y-97350500D01*
X151986287Y-97350500D01*
X152196243Y-97317246D01*
X152398412Y-97251557D01*
X152587816Y-97155051D01*
X152674138Y-97092335D01*
X152759786Y-97030109D01*
X152759788Y-97030106D01*
X152759792Y-97030104D01*
X152910104Y-96879792D01*
X152910106Y-96879788D01*
X152910109Y-96879786D01*
X153035048Y-96707820D01*
X153035047Y-96707820D01*
X153035051Y-96707816D01*
X153039514Y-96699054D01*
X153087488Y-96648259D01*
X153155308Y-96631463D01*
X153221444Y-96653999D01*
X153260486Y-96699056D01*
X153264951Y-96707820D01*
X153389890Y-96879786D01*
X153540213Y-97030109D01*
X153712179Y-97155048D01*
X153712181Y-97155049D01*
X153712184Y-97155051D01*
X153901588Y-97251557D01*
X154103757Y-97317246D01*
X154313713Y-97350500D01*
X154313714Y-97350500D01*
X154526286Y-97350500D01*
X154526287Y-97350500D01*
X154736243Y-97317246D01*
X154938412Y-97251557D01*
X155127816Y-97155051D01*
X155214138Y-97092335D01*
X155299786Y-97030109D01*
X155299788Y-97030106D01*
X155299792Y-97030104D01*
X155450104Y-96879792D01*
X155450106Y-96879788D01*
X155450109Y-96879786D01*
X155575048Y-96707820D01*
X155575047Y-96707820D01*
X155575051Y-96707816D01*
X155579514Y-96699054D01*
X155627488Y-96648259D01*
X155695308Y-96631463D01*
X155761444Y-96653999D01*
X155800486Y-96699056D01*
X155804951Y-96707820D01*
X155929890Y-96879786D01*
X156080213Y-97030109D01*
X156252179Y-97155048D01*
X156252181Y-97155049D01*
X156252184Y-97155051D01*
X156441588Y-97251557D01*
X156643757Y-97317246D01*
X156853713Y-97350500D01*
X156853714Y-97350500D01*
X157066286Y-97350500D01*
X157066287Y-97350500D01*
X157276243Y-97317246D01*
X157478412Y-97251557D01*
X157667816Y-97155051D01*
X157839792Y-97030104D01*
X157953329Y-96916566D01*
X158014648Y-96883084D01*
X158084340Y-96888068D01*
X158140274Y-96929939D01*
X158157189Y-96960917D01*
X158206202Y-97092328D01*
X158206206Y-97092335D01*
X158292452Y-97207544D01*
X158292455Y-97207547D01*
X158407664Y-97293793D01*
X158407671Y-97293797D01*
X158542517Y-97344091D01*
X158542516Y-97344091D01*
X158549444Y-97344835D01*
X158602127Y-97350500D01*
X160397872Y-97350499D01*
X160457483Y-97344091D01*
X160592331Y-97293796D01*
X160707546Y-97207546D01*
X160751716Y-97148543D01*
X209069499Y-97148543D01*
X209107947Y-97341829D01*
X209107950Y-97341839D01*
X209183364Y-97523907D01*
X209183371Y-97523920D01*
X209292860Y-97687781D01*
X209292863Y-97687785D01*
X209432214Y-97827136D01*
X209432218Y-97827139D01*
X209596079Y-97936628D01*
X209596092Y-97936635D01*
X209778160Y-98012049D01*
X209778165Y-98012051D01*
X209778169Y-98012051D01*
X209778170Y-98012052D01*
X209971456Y-98050500D01*
X209971459Y-98050500D01*
X210168543Y-98050500D01*
X210298582Y-98024632D01*
X210361835Y-98012051D01*
X210543914Y-97936632D01*
X210707782Y-97827139D01*
X210847139Y-97687782D01*
X210956632Y-97523914D01*
X211032051Y-97341835D01*
X211058763Y-97207546D01*
X211070500Y-97148543D01*
X211070500Y-96631333D01*
X211090185Y-96564294D01*
X211142989Y-96518539D01*
X211212147Y-96508595D01*
X211256501Y-96523947D01*
X211277859Y-96536278D01*
X211277860Y-96536278D01*
X211277865Y-96536281D01*
X211424234Y-96575500D01*
X211424236Y-96575500D01*
X211575764Y-96575500D01*
X211575766Y-96575500D01*
X211722135Y-96536281D01*
X211853365Y-96460515D01*
X211960515Y-96353365D01*
X212036281Y-96222135D01*
X212075500Y-96075766D01*
X212075500Y-95924234D01*
X216704500Y-95924234D01*
X216704500Y-96075765D01*
X216743719Y-96222136D01*
X216781602Y-96287750D01*
X216819485Y-96353365D01*
X216926635Y-96460515D01*
X217009912Y-96508595D01*
X217057861Y-96536279D01*
X217057865Y-96536281D01*
X217204234Y-96575500D01*
X217204236Y-96575500D01*
X217355764Y-96575500D01*
X217355766Y-96575500D01*
X217502135Y-96536281D01*
X217512451Y-96530325D01*
X217523499Y-96523947D01*
X217591398Y-96507473D01*
X217657426Y-96530325D01*
X217700617Y-96585245D01*
X217709500Y-96631333D01*
X217709500Y-97148541D01*
X217709500Y-97148543D01*
X217709499Y-97148543D01*
X217747947Y-97341829D01*
X217747950Y-97341839D01*
X217823364Y-97523907D01*
X217823371Y-97523920D01*
X217932860Y-97687781D01*
X217932863Y-97687785D01*
X218072214Y-97827136D01*
X218072218Y-97827139D01*
X218236079Y-97936628D01*
X218236092Y-97936635D01*
X218418160Y-98012049D01*
X218418165Y-98012051D01*
X218418169Y-98012051D01*
X218418170Y-98012052D01*
X218611456Y-98050500D01*
X218611459Y-98050500D01*
X218808543Y-98050500D01*
X218938582Y-98024632D01*
X219001835Y-98012051D01*
X219183914Y-97936632D01*
X219347782Y-97827139D01*
X219487139Y-97687782D01*
X219596632Y-97523914D01*
X219672051Y-97341835D01*
X219698763Y-97207546D01*
X219710500Y-97148543D01*
X219710500Y-95851456D01*
X219672052Y-95658170D01*
X219672051Y-95658169D01*
X219672051Y-95658165D01*
X219667274Y-95646632D01*
X219596635Y-95476092D01*
X219596628Y-95476079D01*
X219487139Y-95312218D01*
X219487136Y-95312214D01*
X219347785Y-95172863D01*
X219347781Y-95172860D01*
X219183920Y-95063371D01*
X219183907Y-95063364D01*
X219001839Y-94987950D01*
X219001829Y-94987947D01*
X218808543Y-94949500D01*
X218808541Y-94949500D01*
X218611459Y-94949500D01*
X218611457Y-94949500D01*
X218418170Y-94987947D01*
X218418160Y-94987950D01*
X218236092Y-95063364D01*
X218236079Y-95063371D01*
X218072218Y-95172860D01*
X218072214Y-95172863D01*
X217932863Y-95312214D01*
X217932860Y-95312218D01*
X217823371Y-95476079D01*
X217823363Y-95476094D01*
X217819456Y-95485528D01*
X217775615Y-95539931D01*
X217709320Y-95561995D01*
X217641621Y-95544715D01*
X217636968Y-95541566D01*
X217633366Y-95539486D01*
X217633365Y-95539485D01*
X217533080Y-95481585D01*
X217502136Y-95463719D01*
X217428950Y-95444109D01*
X217355766Y-95424500D01*
X217204234Y-95424500D01*
X217057863Y-95463719D01*
X216926635Y-95539485D01*
X216926632Y-95539487D01*
X216819487Y-95646632D01*
X216819485Y-95646635D01*
X216743719Y-95777863D01*
X216704500Y-95924234D01*
X212075500Y-95924234D01*
X212036281Y-95777865D01*
X211960515Y-95646635D01*
X211853365Y-95539485D01*
X211782838Y-95498766D01*
X211722136Y-95463719D01*
X211648950Y-95444109D01*
X211575766Y-95424500D01*
X211424234Y-95424500D01*
X211277863Y-95463719D01*
X211186428Y-95516510D01*
X211146635Y-95539485D01*
X211146633Y-95539486D01*
X211139597Y-95543549D01*
X211138254Y-95541224D01*
X211085391Y-95561647D01*
X211016949Y-95547592D01*
X210966971Y-95498766D01*
X210960540Y-95485522D01*
X210958909Y-95481585D01*
X210956632Y-95476086D01*
X210956630Y-95476083D01*
X210956628Y-95476079D01*
X210847139Y-95312218D01*
X210847136Y-95312214D01*
X210707785Y-95172863D01*
X210707781Y-95172860D01*
X210543920Y-95063371D01*
X210543907Y-95063364D01*
X210361839Y-94987950D01*
X210361829Y-94987947D01*
X210168543Y-94949500D01*
X210168541Y-94949500D01*
X209971459Y-94949500D01*
X209971457Y-94949500D01*
X209778170Y-94987947D01*
X209778160Y-94987950D01*
X209596092Y-95063364D01*
X209596079Y-95063371D01*
X209432218Y-95172860D01*
X209432214Y-95172863D01*
X209292863Y-95312214D01*
X209292860Y-95312218D01*
X209183371Y-95476079D01*
X209183364Y-95476092D01*
X209107950Y-95658160D01*
X209107947Y-95658170D01*
X209069500Y-95851456D01*
X209069500Y-95851459D01*
X209069500Y-97148541D01*
X209069500Y-97148543D01*
X209069499Y-97148543D01*
X160751716Y-97148543D01*
X160793796Y-97092331D01*
X160844091Y-96957483D01*
X160850500Y-96897873D01*
X160850499Y-95102128D01*
X160844091Y-95042517D01*
X160842810Y-95039083D01*
X160793797Y-94907671D01*
X160793793Y-94907664D01*
X160707547Y-94792455D01*
X160707544Y-94792452D01*
X160592335Y-94706206D01*
X160592328Y-94706202D01*
X160457482Y-94655908D01*
X160457483Y-94655908D01*
X160397883Y-94649501D01*
X160397881Y-94649500D01*
X160397873Y-94649500D01*
X160397864Y-94649500D01*
X158602129Y-94649500D01*
X158602123Y-94649501D01*
X158542516Y-94655908D01*
X158407671Y-94706202D01*
X158407664Y-94706206D01*
X158292455Y-94792452D01*
X158292452Y-94792455D01*
X158206206Y-94907664D01*
X158206203Y-94907669D01*
X158157189Y-95039083D01*
X158115317Y-95095016D01*
X158049853Y-95119433D01*
X157981580Y-95104581D01*
X157953326Y-95083430D01*
X157839786Y-94969890D01*
X157667820Y-94844951D01*
X157478414Y-94748444D01*
X157478413Y-94748443D01*
X157478412Y-94748443D01*
X157276243Y-94682754D01*
X157276241Y-94682753D01*
X157276240Y-94682753D01*
X157114957Y-94657208D01*
X157066287Y-94649500D01*
X156853713Y-94649500D01*
X156805042Y-94657208D01*
X156643760Y-94682753D01*
X156441585Y-94748444D01*
X156252179Y-94844951D01*
X156080213Y-94969890D01*
X155929890Y-95120213D01*
X155804949Y-95292182D01*
X155800484Y-95300946D01*
X155752509Y-95351742D01*
X155684688Y-95368536D01*
X155618553Y-95345998D01*
X155579516Y-95300946D01*
X155575050Y-95292182D01*
X155450109Y-95120213D01*
X155299786Y-94969890D01*
X155127820Y-94844951D01*
X154938414Y-94748444D01*
X154938413Y-94748443D01*
X154938412Y-94748443D01*
X154736243Y-94682754D01*
X154736241Y-94682753D01*
X154736240Y-94682753D01*
X154574957Y-94657208D01*
X154526287Y-94649500D01*
X154313713Y-94649500D01*
X154265042Y-94657208D01*
X154103760Y-94682753D01*
X153901585Y-94748444D01*
X153712179Y-94844951D01*
X153540213Y-94969890D01*
X153389890Y-95120213D01*
X153264949Y-95292182D01*
X153260484Y-95300946D01*
X153212509Y-95351742D01*
X153144688Y-95368536D01*
X153078553Y-95345998D01*
X153039516Y-95300946D01*
X153035050Y-95292182D01*
X152910109Y-95120213D01*
X152759786Y-94969890D01*
X152587820Y-94844951D01*
X152398414Y-94748444D01*
X152398413Y-94748443D01*
X152398412Y-94748443D01*
X152196243Y-94682754D01*
X152196241Y-94682753D01*
X152196240Y-94682753D01*
X152034957Y-94657208D01*
X151986287Y-94649500D01*
X151773713Y-94649500D01*
X151725042Y-94657208D01*
X151563760Y-94682753D01*
X151361585Y-94748444D01*
X151172179Y-94844951D01*
X151000213Y-94969890D01*
X150849890Y-95120213D01*
X150724949Y-95292182D01*
X150720484Y-95300946D01*
X150672509Y-95351742D01*
X150604688Y-95368536D01*
X150538553Y-95345998D01*
X150499516Y-95300946D01*
X150495050Y-95292182D01*
X150370109Y-95120213D01*
X150219786Y-94969890D01*
X150047820Y-94844951D01*
X149858414Y-94748444D01*
X149858413Y-94748443D01*
X149858412Y-94748443D01*
X149656243Y-94682754D01*
X149656241Y-94682753D01*
X149656240Y-94682753D01*
X149494957Y-94657208D01*
X149446287Y-94649500D01*
X149233713Y-94649500D01*
X149185042Y-94657208D01*
X149023760Y-94682753D01*
X148821585Y-94748444D01*
X148632179Y-94844951D01*
X148460213Y-94969890D01*
X148309890Y-95120213D01*
X148184949Y-95292182D01*
X148180484Y-95300946D01*
X148132509Y-95351742D01*
X148064688Y-95368536D01*
X147998553Y-95345998D01*
X147959516Y-95300946D01*
X147955050Y-95292182D01*
X147830109Y-95120213D01*
X147679786Y-94969890D01*
X147507820Y-94844951D01*
X147318414Y-94748444D01*
X147318413Y-94748443D01*
X147318412Y-94748443D01*
X147116243Y-94682754D01*
X147116241Y-94682753D01*
X147116240Y-94682753D01*
X146954957Y-94657208D01*
X146906287Y-94649500D01*
X146693713Y-94649500D01*
X146645042Y-94657208D01*
X146483760Y-94682753D01*
X146281585Y-94748444D01*
X146092179Y-94844951D01*
X145920213Y-94969890D01*
X145769890Y-95120213D01*
X145644951Y-95292179D01*
X145548444Y-95481585D01*
X145482753Y-95683760D01*
X145456193Y-95851456D01*
X145449500Y-95893713D01*
X139890499Y-95893713D01*
X139890499Y-95102128D01*
X139884091Y-95042517D01*
X139882810Y-95039083D01*
X139833797Y-94907671D01*
X139833793Y-94907664D01*
X139747547Y-94792455D01*
X139747544Y-94792452D01*
X139632335Y-94706206D01*
X139632328Y-94706202D01*
X139497482Y-94655908D01*
X139497483Y-94655908D01*
X139437883Y-94649501D01*
X139437881Y-94649500D01*
X139437873Y-94649500D01*
X139437864Y-94649500D01*
X137642129Y-94649500D01*
X137642123Y-94649501D01*
X137582516Y-94655908D01*
X137447671Y-94706202D01*
X137447664Y-94706206D01*
X137332455Y-94792452D01*
X137332452Y-94792455D01*
X137246206Y-94907664D01*
X137246203Y-94907669D01*
X137197189Y-95039083D01*
X137155317Y-95095016D01*
X137089853Y-95119433D01*
X137021580Y-95104581D01*
X136993326Y-95083430D01*
X136879786Y-94969890D01*
X136707820Y-94844951D01*
X136518414Y-94748444D01*
X136518413Y-94748443D01*
X136518412Y-94748443D01*
X136316243Y-94682754D01*
X136316241Y-94682753D01*
X136316240Y-94682753D01*
X136154957Y-94657208D01*
X136106287Y-94649500D01*
X135893713Y-94649500D01*
X135845042Y-94657208D01*
X135683760Y-94682753D01*
X135481585Y-94748444D01*
X135292179Y-94844951D01*
X135120213Y-94969890D01*
X134969890Y-95120213D01*
X134844949Y-95292182D01*
X134840484Y-95300946D01*
X134792509Y-95351742D01*
X134724688Y-95368536D01*
X134658553Y-95345998D01*
X134619516Y-95300946D01*
X134615050Y-95292182D01*
X134490109Y-95120213D01*
X134339786Y-94969890D01*
X134167820Y-94844951D01*
X133978414Y-94748444D01*
X133978413Y-94748443D01*
X133978412Y-94748443D01*
X133776243Y-94682754D01*
X133776241Y-94682753D01*
X133776240Y-94682753D01*
X133614957Y-94657208D01*
X133566287Y-94649500D01*
X133353713Y-94649500D01*
X133305042Y-94657208D01*
X133143760Y-94682753D01*
X132941585Y-94748444D01*
X132752179Y-94844951D01*
X132580213Y-94969890D01*
X132429890Y-95120213D01*
X132304949Y-95292182D01*
X132300484Y-95300946D01*
X132252509Y-95351742D01*
X132184688Y-95368536D01*
X132118553Y-95345998D01*
X132079516Y-95300946D01*
X132075050Y-95292182D01*
X131950109Y-95120213D01*
X131799786Y-94969890D01*
X131627820Y-94844951D01*
X131438414Y-94748444D01*
X131438413Y-94748443D01*
X131438412Y-94748443D01*
X131236243Y-94682754D01*
X131236241Y-94682753D01*
X131236240Y-94682753D01*
X131074957Y-94657208D01*
X131026287Y-94649500D01*
X130813713Y-94649500D01*
X130765042Y-94657208D01*
X130603760Y-94682753D01*
X130401585Y-94748444D01*
X130212179Y-94844951D01*
X130040213Y-94969890D01*
X129889890Y-95120213D01*
X129764949Y-95292182D01*
X129760484Y-95300946D01*
X129712509Y-95351742D01*
X129644688Y-95368536D01*
X129578553Y-95345998D01*
X129539516Y-95300946D01*
X129535050Y-95292182D01*
X129410109Y-95120213D01*
X129259786Y-94969890D01*
X129087820Y-94844951D01*
X128898414Y-94748444D01*
X128898413Y-94748443D01*
X128898412Y-94748443D01*
X128696243Y-94682754D01*
X128696241Y-94682753D01*
X128696240Y-94682753D01*
X128534957Y-94657208D01*
X128486287Y-94649500D01*
X128273713Y-94649500D01*
X128225042Y-94657208D01*
X128063760Y-94682753D01*
X127861585Y-94748444D01*
X127672179Y-94844951D01*
X127500213Y-94969890D01*
X127349890Y-95120213D01*
X127224949Y-95292182D01*
X127220484Y-95300946D01*
X127172509Y-95351742D01*
X127104688Y-95368536D01*
X127038553Y-95345998D01*
X126999516Y-95300946D01*
X126995050Y-95292182D01*
X126870109Y-95120213D01*
X126719786Y-94969890D01*
X126547820Y-94844951D01*
X126358414Y-94748444D01*
X126358413Y-94748443D01*
X126358412Y-94748443D01*
X126156243Y-94682754D01*
X126156241Y-94682753D01*
X126156240Y-94682753D01*
X125994957Y-94657208D01*
X125946287Y-94649500D01*
X125733713Y-94649500D01*
X125685042Y-94657208D01*
X125523760Y-94682753D01*
X125321585Y-94748444D01*
X125132179Y-94844951D01*
X124960213Y-94969890D01*
X124809890Y-95120213D01*
X124684951Y-95292179D01*
X124588444Y-95481585D01*
X124522753Y-95683760D01*
X124496193Y-95851456D01*
X124489500Y-95893713D01*
X119300500Y-95893713D01*
X119300500Y-91624500D01*
X119320185Y-91557461D01*
X119372989Y-91511706D01*
X119424500Y-91500500D01*
X209016672Y-91500500D01*
X209048142Y-91509740D01*
G37*
%TD.AperFunction*%
%TD*%
M02*
