%TF.GenerationSoftware,KiCad,Pcbnew,9.0.7*%
%TF.CreationDate,2026-02-08T16:14:47+05:30*%
%TF.ProjectId,fpga_dev_board,66706761-5f64-4657-965f-626f6172642e,rev?*%
%TF.SameCoordinates,Original*%
%TF.FileFunction,OtherDrawing,Comment*%
%FSLAX46Y46*%
G04 Gerber Fmt 4.6, Leading zero omitted, Abs format (unit mm)*
G04 Created by KiCad (PCBNEW 9.0.7) date 2026-02-08 16:14:47*
%MOMM*%
%LPD*%
G01*
G04 APERTURE LIST*
%ADD10C,0.100000*%
G04 APERTURE END LIST*
D10*
X206605285Y-90068890D02*
X206605285Y-90568890D01*
X206605285Y-90568890D02*
X206414809Y-90568890D01*
X206414809Y-90568890D02*
X206367190Y-90545080D01*
X206367190Y-90545080D02*
X206343380Y-90521271D01*
X206343380Y-90521271D02*
X206319571Y-90473652D01*
X206319571Y-90473652D02*
X206319571Y-90402223D01*
X206319571Y-90402223D02*
X206343380Y-90354604D01*
X206343380Y-90354604D02*
X206367190Y-90330795D01*
X206367190Y-90330795D02*
X206414809Y-90306985D01*
X206414809Y-90306985D02*
X206605285Y-90306985D01*
X205819571Y-90116509D02*
X205843380Y-90092700D01*
X205843380Y-90092700D02*
X205914809Y-90068890D01*
X205914809Y-90068890D02*
X205962428Y-90068890D01*
X205962428Y-90068890D02*
X206033856Y-90092700D01*
X206033856Y-90092700D02*
X206081475Y-90140319D01*
X206081475Y-90140319D02*
X206105285Y-90187938D01*
X206105285Y-90187938D02*
X206129094Y-90283176D01*
X206129094Y-90283176D02*
X206129094Y-90354604D01*
X206129094Y-90354604D02*
X206105285Y-90449842D01*
X206105285Y-90449842D02*
X206081475Y-90497461D01*
X206081475Y-90497461D02*
X206033856Y-90545080D01*
X206033856Y-90545080D02*
X205962428Y-90568890D01*
X205962428Y-90568890D02*
X205914809Y-90568890D01*
X205914809Y-90568890D02*
X205843380Y-90545080D01*
X205843380Y-90545080D02*
X205819571Y-90521271D01*
X205438618Y-90330795D02*
X205367190Y-90306985D01*
X205367190Y-90306985D02*
X205343380Y-90283176D01*
X205343380Y-90283176D02*
X205319571Y-90235557D01*
X205319571Y-90235557D02*
X205319571Y-90164128D01*
X205319571Y-90164128D02*
X205343380Y-90116509D01*
X205343380Y-90116509D02*
X205367190Y-90092700D01*
X205367190Y-90092700D02*
X205414809Y-90068890D01*
X205414809Y-90068890D02*
X205605285Y-90068890D01*
X205605285Y-90068890D02*
X205605285Y-90568890D01*
X205605285Y-90568890D02*
X205438618Y-90568890D01*
X205438618Y-90568890D02*
X205390999Y-90545080D01*
X205390999Y-90545080D02*
X205367190Y-90521271D01*
X205367190Y-90521271D02*
X205343380Y-90473652D01*
X205343380Y-90473652D02*
X205343380Y-90426033D01*
X205343380Y-90426033D02*
X205367190Y-90378414D01*
X205367190Y-90378414D02*
X205390999Y-90354604D01*
X205390999Y-90354604D02*
X205438618Y-90330795D01*
X205438618Y-90330795D02*
X205605285Y-90330795D01*
X204724333Y-90330795D02*
X204557666Y-90330795D01*
X204486238Y-90068890D02*
X204724333Y-90068890D01*
X204724333Y-90068890D02*
X204724333Y-90568890D01*
X204724333Y-90568890D02*
X204486238Y-90568890D01*
X204057666Y-90068890D02*
X204057666Y-90568890D01*
X204057666Y-90092700D02*
X204105285Y-90068890D01*
X204105285Y-90068890D02*
X204200523Y-90068890D01*
X204200523Y-90068890D02*
X204248142Y-90092700D01*
X204248142Y-90092700D02*
X204271952Y-90116509D01*
X204271952Y-90116509D02*
X204295761Y-90164128D01*
X204295761Y-90164128D02*
X204295761Y-90306985D01*
X204295761Y-90306985D02*
X204271952Y-90354604D01*
X204271952Y-90354604D02*
X204248142Y-90378414D01*
X204248142Y-90378414D02*
X204200523Y-90402223D01*
X204200523Y-90402223D02*
X204105285Y-90402223D01*
X204105285Y-90402223D02*
X204057666Y-90378414D01*
X203605285Y-90402223D02*
X203605285Y-89997461D01*
X203605285Y-89997461D02*
X203629095Y-89949842D01*
X203629095Y-89949842D02*
X203652904Y-89926033D01*
X203652904Y-89926033D02*
X203700523Y-89902223D01*
X203700523Y-89902223D02*
X203771952Y-89902223D01*
X203771952Y-89902223D02*
X203819571Y-89926033D01*
X203605285Y-90092700D02*
X203652904Y-90068890D01*
X203652904Y-90068890D02*
X203748142Y-90068890D01*
X203748142Y-90068890D02*
X203795761Y-90092700D01*
X203795761Y-90092700D02*
X203819571Y-90116509D01*
X203819571Y-90116509D02*
X203843380Y-90164128D01*
X203843380Y-90164128D02*
X203843380Y-90306985D01*
X203843380Y-90306985D02*
X203819571Y-90354604D01*
X203819571Y-90354604D02*
X203795761Y-90378414D01*
X203795761Y-90378414D02*
X203748142Y-90402223D01*
X203748142Y-90402223D02*
X203652904Y-90402223D01*
X203652904Y-90402223D02*
X203605285Y-90378414D01*
X203176714Y-90092700D02*
X203224333Y-90068890D01*
X203224333Y-90068890D02*
X203319571Y-90068890D01*
X203319571Y-90068890D02*
X203367190Y-90092700D01*
X203367190Y-90092700D02*
X203390999Y-90140319D01*
X203390999Y-90140319D02*
X203390999Y-90330795D01*
X203390999Y-90330795D02*
X203367190Y-90378414D01*
X203367190Y-90378414D02*
X203319571Y-90402223D01*
X203319571Y-90402223D02*
X203224333Y-90402223D01*
X203224333Y-90402223D02*
X203176714Y-90378414D01*
X203176714Y-90378414D02*
X203152904Y-90330795D01*
X203152904Y-90330795D02*
X203152904Y-90283176D01*
X203152904Y-90283176D02*
X203390999Y-90235557D01*
%TO.C,J1*%
X199891000Y-89720000D02*
X209891000Y-89720000D01*
%TD*%
M02*
