%TF.GenerationSoftware,KiCad,Pcbnew,9.0.7-9.0.7~ubuntu24.04.1*%
%TF.CreationDate,2026-01-20T21:07:03+05:30*%
%TF.ProjectId,fpga_dev_board,66706761-5f64-4657-965f-626f6172642e,rev?*%
%TF.SameCoordinates,Original*%
%TF.FileFunction,Soldermask,Top*%
%TF.FilePolarity,Negative*%
%FSLAX46Y46*%
G04 Gerber Fmt 4.6, Leading zero omitted, Abs format (unit mm)*
G04 Created by KiCad (PCBNEW 9.0.7-9.0.7~ubuntu24.04.1) date 2026-01-20 21:07:03*
%MOMM*%
%LPD*%
G01*
G04 APERTURE LIST*
G04 Aperture macros list*
%AMRoundRect*
0 Rectangle with rounded corners*
0 $1 Rounding radius*
0 $2 $3 $4 $5 $6 $7 $8 $9 X,Y pos of 4 corners*
0 Add a 4 corners polygon primitive as box body*
4,1,4,$2,$3,$4,$5,$6,$7,$8,$9,$2,$3,0*
0 Add four circle primitives for the rounded corners*
1,1,$1+$1,$2,$3*
1,1,$1+$1,$4,$5*
1,1,$1+$1,$6,$7*
1,1,$1+$1,$8,$9*
0 Add four rect primitives between the rounded corners*
20,1,$1+$1,$2,$3,$4,$5,0*
20,1,$1+$1,$4,$5,$6,$7,0*
20,1,$1+$1,$6,$7,$8,$9,0*
20,1,$1+$1,$8,$9,$2,$3,0*%
G04 Aperture macros list end*
%ADD10RoundRect,0.250000X-0.350000X-0.450000X0.350000X-0.450000X0.350000X0.450000X-0.350000X0.450000X0*%
%ADD11RoundRect,0.250000X0.450000X-0.350000X0.450000X0.350000X-0.450000X0.350000X-0.450000X-0.350000X0*%
%ADD12RoundRect,0.250000X-0.450000X0.350000X-0.450000X-0.350000X0.450000X-0.350000X0.450000X0.350000X0*%
%ADD13RoundRect,0.250000X0.475000X-0.337500X0.475000X0.337500X-0.475000X0.337500X-0.475000X-0.337500X0*%
%ADD14RoundRect,0.250000X0.337500X0.475000X-0.337500X0.475000X-0.337500X-0.475000X0.337500X-0.475000X0*%
%ADD15RoundRect,0.250000X-0.337500X-0.475000X0.337500X-0.475000X0.337500X0.475000X-0.337500X0.475000X0*%
%ADD16RoundRect,0.250000X-0.475000X0.337500X-0.475000X-0.337500X0.475000X-0.337500X0.475000X0.337500X0*%
%ADD17RoundRect,0.250000X0.450000X-0.325000X0.450000X0.325000X-0.450000X0.325000X-0.450000X-0.325000X0*%
%ADD18RoundRect,0.162500X0.650000X0.162500X-0.650000X0.162500X-0.650000X-0.162500X0.650000X-0.162500X0*%
%ADD19RoundRect,0.250000X-0.325000X-0.450000X0.325000X-0.450000X0.325000X0.450000X-0.325000X0.450000X0*%
%ADD20R,1.700000X1.700000*%
%ADD21O,1.700000X1.700000*%
%ADD22RoundRect,0.225000X-0.225000X-0.375000X0.225000X-0.375000X0.225000X0.375000X-0.225000X0.375000X0*%
%ADD23R,1.500000X1.000000*%
%ADD24C,2.000000*%
%ADD25RoundRect,0.150000X0.512500X0.150000X-0.512500X0.150000X-0.512500X-0.150000X0.512500X-0.150000X0*%
%ADD26RoundRect,0.250000X-0.450000X0.325000X-0.450000X-0.325000X0.450000X-0.325000X0.450000X0.325000X0*%
%ADD27C,0.650000*%
%ADD28RoundRect,0.150000X0.150000X0.425000X-0.150000X0.425000X-0.150000X-0.425000X0.150000X-0.425000X0*%
%ADD29RoundRect,0.075000X0.075000X0.500000X-0.075000X0.500000X-0.075000X-0.500000X0.075000X-0.500000X0*%
%ADD30O,1.000000X2.100000*%
%ADD31O,1.000000X1.800000*%
%ADD32RoundRect,0.062500X-0.375000X-0.062500X0.375000X-0.062500X0.375000X0.062500X-0.375000X0.062500X0*%
%ADD33RoundRect,0.062500X-0.062500X-0.375000X0.062500X-0.375000X0.062500X0.375000X-0.062500X0.375000X0*%
%ADD34R,5.600000X5.600000*%
G04 APERTURE END LIST*
D10*
%TO.C,R9*%
X142500000Y-120500000D03*
X144500000Y-120500000D03*
%TD*%
%TO.C,R6*%
X124000000Y-139750000D03*
X126000000Y-139750000D03*
%TD*%
D11*
%TO.C,R5*%
X212751000Y-105287500D03*
X212751000Y-103287500D03*
%TD*%
%TO.C,R4*%
X212751000Y-99000000D03*
X212751000Y-97000000D03*
%TD*%
D10*
%TO.C,R3*%
X123962500Y-136000000D03*
X125962500Y-136000000D03*
%TD*%
D12*
%TO.C,R2*%
X197301000Y-99800000D03*
X197301000Y-101800000D03*
%TD*%
D13*
%TO.C,P2_C5*%
X194000000Y-120075000D03*
X194000000Y-118000000D03*
%TD*%
D14*
%TO.C,P2_C4*%
X204063500Y-125000000D03*
X201988500Y-125000000D03*
%TD*%
D12*
%TO.C,P1_R7*%
X205501000Y-108500000D03*
X205501000Y-110500000D03*
%TD*%
D14*
%TO.C,P1_C3*%
X195288500Y-108000000D03*
X193213500Y-108000000D03*
%TD*%
%TO.C,P1_C2*%
X206563500Y-101250000D03*
X204488500Y-101250000D03*
%TD*%
%TO.C,P1_C1*%
X200788500Y-111750000D03*
X198713500Y-111750000D03*
%TD*%
D12*
%TO.C,L_R13*%
X133500000Y-113500000D03*
X133500000Y-115500000D03*
%TD*%
D11*
%TO.C,L_R1*%
X211501000Y-118500000D03*
X211501000Y-116500000D03*
%TD*%
D15*
%TO.C,C11*%
X130212500Y-125000000D03*
X132287500Y-125000000D03*
%TD*%
D16*
%TO.C,C8*%
X163000000Y-121925000D03*
X163000000Y-124000000D03*
%TD*%
D15*
%TO.C,C7*%
X123962500Y-131400000D03*
X126037500Y-131400000D03*
%TD*%
D10*
%TO.C,B_R10*%
X169675000Y-101500000D03*
X171675000Y-101500000D03*
%TD*%
%TO.C,B_R6*%
X183675000Y-102000000D03*
X185675000Y-102000000D03*
%TD*%
D14*
%TO.C,B_C21*%
X144500000Y-124500000D03*
X142425000Y-124500000D03*
%TD*%
D15*
%TO.C,B_C20*%
X163937500Y-96000000D03*
X166012500Y-96000000D03*
%TD*%
D11*
%TO.C,@P_R14*%
X169962500Y-124075000D03*
X169962500Y-122075000D03*
%TD*%
D13*
%TO.C,@P_C19*%
X173500000Y-124075000D03*
X173500000Y-122000000D03*
%TD*%
D16*
%TO.C,@P_C18*%
X168470000Y-115000000D03*
X168470000Y-117075000D03*
%TD*%
%TO.C,@P_C17*%
X171980000Y-115000000D03*
X171980000Y-117075000D03*
%TD*%
%TO.C,@P_C16*%
X180500000Y-122075000D03*
X180500000Y-124150000D03*
%TD*%
%TO.C,@P_C15*%
X183000000Y-122075000D03*
X183000000Y-124150000D03*
%TD*%
%TO.C,@P_C14*%
X175490000Y-115000000D03*
X175490000Y-117075000D03*
%TD*%
%TO.C,@P_C13*%
X179000000Y-115000000D03*
X179000000Y-117075000D03*
%TD*%
D13*
%TO.C,@P_C9*%
X177000000Y-124150000D03*
X177000000Y-122075000D03*
%TD*%
%TO.C,@G2_C12*%
X166500000Y-107075000D03*
X166500000Y-105000000D03*
%TD*%
D16*
%TO.C,@G1_C6*%
X152000000Y-120000000D03*
X152000000Y-122075000D03*
%TD*%
D17*
%TO.C,D5*%
X211476000Y-123525000D03*
X211476000Y-121475000D03*
%TD*%
D18*
%TO.C,U4*%
X161687500Y-137790000D03*
X161687500Y-136520000D03*
X161687500Y-135250000D03*
X161687500Y-133980000D03*
X154512500Y-133980000D03*
X154512500Y-135250000D03*
X154512500Y-136520000D03*
X154512500Y-137790000D03*
%TD*%
D19*
%TO.C,D1*%
X163450000Y-99500000D03*
X165500000Y-99500000D03*
%TD*%
D20*
%TO.C,J4*%
X159500000Y-96000000D03*
D21*
X156960000Y-96000000D03*
X154420000Y-96000000D03*
X151880000Y-96000000D03*
X149340000Y-96000000D03*
X146800000Y-96000000D03*
%TD*%
D22*
%TO.C,D4*%
X170400000Y-137850000D03*
X173700000Y-137850000D03*
%TD*%
D23*
%TO.C,JP4*%
X170800000Y-134250000D03*
X170800000Y-132950000D03*
%TD*%
D20*
%TO.C,J6*%
X140000000Y-116775000D03*
D21*
X140000000Y-114235000D03*
%TD*%
D24*
%TO.C,SW2*%
X187675000Y-94000000D03*
X194175000Y-94000000D03*
X187675000Y-98500000D03*
X194175000Y-98500000D03*
%TD*%
D20*
%TO.C,J3*%
X137290000Y-139750000D03*
D21*
X134750000Y-139750000D03*
X137290000Y-137210000D03*
X134750000Y-137210000D03*
X137290000Y-134670000D03*
X134750000Y-134670000D03*
X137290000Y-132130000D03*
X134750000Y-132130000D03*
%TD*%
D20*
%TO.C,J5*%
X123000000Y-111880000D03*
D21*
X123000000Y-114420000D03*
X123000000Y-116960000D03*
X123000000Y-119500000D03*
%TD*%
D25*
%TO.C,U3*%
X204275000Y-119950000D03*
X204275000Y-119000000D03*
X204275000Y-118050000D03*
X202000000Y-118050000D03*
X202000000Y-119950000D03*
%TD*%
D24*
%TO.C,SW1*%
X174000000Y-94000000D03*
X180500000Y-94000000D03*
X174000000Y-98500000D03*
X180500000Y-98500000D03*
%TD*%
D26*
%TO.C,D3*%
X128000000Y-109550000D03*
X128000000Y-107500000D03*
%TD*%
D27*
%TO.C,J1*%
X207781000Y-96000000D03*
X202001000Y-96000000D03*
D28*
X208091000Y-97075000D03*
X207291000Y-97075000D03*
D29*
X206141000Y-97075000D03*
X205141000Y-97075000D03*
X204641000Y-97075000D03*
X203641000Y-97075000D03*
D28*
X202491000Y-97075000D03*
X201691000Y-97075000D03*
X201691000Y-97075000D03*
X202491000Y-97075000D03*
D29*
X203141000Y-97075000D03*
X204141000Y-97075000D03*
X205641000Y-97075000D03*
X206641000Y-97075000D03*
D28*
X207291000Y-97075000D03*
X208091000Y-97075000D03*
D30*
X209211000Y-96500000D03*
D31*
X209211000Y-92320000D03*
D30*
X200571000Y-96500000D03*
D31*
X200571000Y-92320000D03*
%TD*%
D32*
%TO.C,U1*%
X156625000Y-112000000D03*
X156625000Y-112500000D03*
X156625000Y-113000000D03*
X156625000Y-113500000D03*
X156625000Y-114000000D03*
X156625000Y-114500000D03*
X156625000Y-115000000D03*
X156625000Y-115500000D03*
X156625000Y-116000000D03*
X156625000Y-116500000D03*
X156625000Y-117000000D03*
X156625000Y-117500000D03*
D33*
X157312500Y-118187500D03*
X157812500Y-118187500D03*
X158312500Y-118187500D03*
X158812500Y-118187500D03*
X159312500Y-118187500D03*
X159812500Y-118187500D03*
X160312500Y-118187500D03*
X160812500Y-118187500D03*
X161312500Y-118187500D03*
X161812500Y-118187500D03*
X162312500Y-118187500D03*
X162812500Y-118187500D03*
D32*
X163500000Y-117500000D03*
X163500000Y-117000000D03*
X163500000Y-116500000D03*
X163500000Y-116000000D03*
X163500000Y-115500000D03*
X163500000Y-115000000D03*
X163500000Y-114500000D03*
X163500000Y-114000000D03*
X163500000Y-113500000D03*
X163500000Y-113000000D03*
X163500000Y-112500000D03*
X163500000Y-112000000D03*
D33*
X162812500Y-111312500D03*
X162312500Y-111312500D03*
X161812500Y-111312500D03*
X161312500Y-111312500D03*
X160812500Y-111312500D03*
X160312500Y-111312500D03*
X159812500Y-111312500D03*
X159312500Y-111312500D03*
X158812500Y-111312500D03*
X158312500Y-111312500D03*
X157812500Y-111312500D03*
X157312500Y-111312500D03*
D34*
X160062500Y-114750000D03*
%TD*%
D20*
%TO.C,J2*%
X138540000Y-96000000D03*
D21*
X136000000Y-96000000D03*
X133460000Y-96000000D03*
X130920000Y-96000000D03*
X128380000Y-96000000D03*
X125840000Y-96000000D03*
%TD*%
D25*
%TO.C,U2*%
X202275000Y-108400000D03*
X202275000Y-107450000D03*
X202275000Y-106500000D03*
X200000000Y-106500000D03*
X200000000Y-108400000D03*
%TD*%
M02*
