%TF.GenerationSoftware,KiCad,Pcbnew,9.0.7-9.0.7~ubuntu24.04.1*%
%TF.CreationDate,2026-01-18T13:54:12+05:30*%
%TF.ProjectId,fpga_dev_board,66706761-5f64-4657-965f-626f6172642e,rev?*%
%TF.SameCoordinates,Original*%
%TF.FileFunction,Legend,Bot*%
%TF.FilePolarity,Positive*%
%FSLAX46Y46*%
G04 Gerber Fmt 4.6, Leading zero omitted, Abs format (unit mm)*
G04 Created by KiCad (PCBNEW 9.0.7-9.0.7~ubuntu24.04.1) date 2026-01-18 13:54:12*
%MOMM*%
%LPD*%
G01*
G04 APERTURE LIST*
%ADD10C,0.100000*%
G04 APERTURE END LIST*
D10*
X89857419Y-116797619D02*
X89857419Y-116321429D01*
X89857419Y-116321429D02*
X90333609Y-116273810D01*
X90333609Y-116273810D02*
X90285990Y-116321429D01*
X90285990Y-116321429D02*
X90238371Y-116416667D01*
X90238371Y-116416667D02*
X90238371Y-116654762D01*
X90238371Y-116654762D02*
X90285990Y-116750000D01*
X90285990Y-116750000D02*
X90333609Y-116797619D01*
X90333609Y-116797619D02*
X90428847Y-116845238D01*
X90428847Y-116845238D02*
X90666942Y-116845238D01*
X90666942Y-116845238D02*
X90762180Y-116797619D01*
X90762180Y-116797619D02*
X90809800Y-116750000D01*
X90809800Y-116750000D02*
X90857419Y-116654762D01*
X90857419Y-116654762D02*
X90857419Y-116416667D01*
X90857419Y-116416667D02*
X90809800Y-116321429D01*
X90809800Y-116321429D02*
X90762180Y-116273810D01*
X89857419Y-117178572D02*
X89857419Y-117797619D01*
X89857419Y-117797619D02*
X90238371Y-117464286D01*
X90238371Y-117464286D02*
X90238371Y-117607143D01*
X90238371Y-117607143D02*
X90285990Y-117702381D01*
X90285990Y-117702381D02*
X90333609Y-117750000D01*
X90333609Y-117750000D02*
X90428847Y-117797619D01*
X90428847Y-117797619D02*
X90666942Y-117797619D01*
X90666942Y-117797619D02*
X90762180Y-117750000D01*
X90762180Y-117750000D02*
X90809800Y-117702381D01*
X90809800Y-117702381D02*
X90857419Y-117607143D01*
X90857419Y-117607143D02*
X90857419Y-117321429D01*
X90857419Y-117321429D02*
X90809800Y-117226191D01*
X90809800Y-117226191D02*
X90762180Y-117178572D01*
X90762180Y-118226191D02*
X90809800Y-118273810D01*
X90809800Y-118273810D02*
X90857419Y-118226191D01*
X90857419Y-118226191D02*
X90809800Y-118178572D01*
X90809800Y-118178572D02*
X90762180Y-118226191D01*
X90762180Y-118226191D02*
X90857419Y-118226191D01*
X89857419Y-119178571D02*
X89857419Y-118702381D01*
X89857419Y-118702381D02*
X90333609Y-118654762D01*
X90333609Y-118654762D02*
X90285990Y-118702381D01*
X90285990Y-118702381D02*
X90238371Y-118797619D01*
X90238371Y-118797619D02*
X90238371Y-119035714D01*
X90238371Y-119035714D02*
X90285990Y-119130952D01*
X90285990Y-119130952D02*
X90333609Y-119178571D01*
X90333609Y-119178571D02*
X90428847Y-119226190D01*
X90428847Y-119226190D02*
X90666942Y-119226190D01*
X90666942Y-119226190D02*
X90762180Y-119178571D01*
X90762180Y-119178571D02*
X90809800Y-119130952D01*
X90809800Y-119130952D02*
X90857419Y-119035714D01*
X90857419Y-119035714D02*
X90857419Y-118797619D01*
X90857419Y-118797619D02*
X90809800Y-118702381D01*
X90809800Y-118702381D02*
X90762180Y-118654762D01*
X118300000Y-144500000D02*
X90913580Y-144500000D01*
X90913580Y-91000000D02*
X118300000Y-91000000D01*
X91500000Y-144500000D02*
X91500000Y-91000000D01*
X91500000Y-144500000D02*
X90913579Y-143373496D01*
X91500000Y-144500000D02*
X92086421Y-143373496D01*
X91500000Y-91000000D02*
X92086421Y-92126504D01*
X91500000Y-91000000D02*
X90913579Y-92126504D01*
X173780952Y-65857419D02*
X174352380Y-65857419D01*
X174066666Y-65857419D02*
X174066666Y-64857419D01*
X174066666Y-64857419D02*
X174161904Y-65000276D01*
X174161904Y-65000276D02*
X174257142Y-65095514D01*
X174257142Y-65095514D02*
X174352380Y-65143133D01*
X173161904Y-64857419D02*
X173066666Y-64857419D01*
X173066666Y-64857419D02*
X172971428Y-64905038D01*
X172971428Y-64905038D02*
X172923809Y-64952657D01*
X172923809Y-64952657D02*
X172876190Y-65047895D01*
X172876190Y-65047895D02*
X172828571Y-65238371D01*
X172828571Y-65238371D02*
X172828571Y-65476466D01*
X172828571Y-65476466D02*
X172876190Y-65666942D01*
X172876190Y-65666942D02*
X172923809Y-65762180D01*
X172923809Y-65762180D02*
X172971428Y-65809800D01*
X172971428Y-65809800D02*
X173066666Y-65857419D01*
X173066666Y-65857419D02*
X173161904Y-65857419D01*
X173161904Y-65857419D02*
X173257142Y-65809800D01*
X173257142Y-65809800D02*
X173304761Y-65762180D01*
X173304761Y-65762180D02*
X173352380Y-65666942D01*
X173352380Y-65666942D02*
X173399999Y-65476466D01*
X173399999Y-65476466D02*
X173399999Y-65238371D01*
X173399999Y-65238371D02*
X173352380Y-65047895D01*
X173352380Y-65047895D02*
X173304761Y-64952657D01*
X173304761Y-64952657D02*
X173257142Y-64905038D01*
X173257142Y-64905038D02*
X173161904Y-64857419D01*
X172495237Y-64857419D02*
X171828571Y-64857419D01*
X171828571Y-64857419D02*
X172257142Y-65857419D01*
X171447618Y-65762180D02*
X171399999Y-65809800D01*
X171399999Y-65809800D02*
X171447618Y-65857419D01*
X171447618Y-65857419D02*
X171495237Y-65809800D01*
X171495237Y-65809800D02*
X171447618Y-65762180D01*
X171447618Y-65762180D02*
X171447618Y-65857419D01*
X171019047Y-64952657D02*
X170971428Y-64905038D01*
X170971428Y-64905038D02*
X170876190Y-64857419D01*
X170876190Y-64857419D02*
X170638095Y-64857419D01*
X170638095Y-64857419D02*
X170542857Y-64905038D01*
X170542857Y-64905038D02*
X170495238Y-64952657D01*
X170495238Y-64952657D02*
X170447619Y-65047895D01*
X170447619Y-65047895D02*
X170447619Y-65143133D01*
X170447619Y-65143133D02*
X170495238Y-65285990D01*
X170495238Y-65285990D02*
X171066666Y-65857419D01*
X171066666Y-65857419D02*
X170447619Y-65857419D01*
X118800000Y-90500000D02*
X118800000Y-65913580D01*
X226000000Y-65913580D02*
X226000000Y-90500000D01*
X118800000Y-66500000D02*
X226000000Y-66500000D01*
X118800000Y-66500000D02*
X119926504Y-65913579D01*
X118800000Y-66500000D02*
X119926504Y-67086421D01*
X226000000Y-66500000D02*
X224873496Y-67086421D01*
X226000000Y-66500000D02*
X224873496Y-65913579D01*
M02*
