%TF.GenerationSoftware,KiCad,Pcbnew,9.0.7*%
%TF.CreationDate,2026-02-08T16:14:47+05:30*%
%TF.ProjectId,fpga_dev_board,66706761-5f64-4657-965f-626f6172642e,rev?*%
%TF.SameCoordinates,Original*%
%TF.FileFunction,Other,User*%
%FSLAX46Y46*%
G04 Gerber Fmt 4.6, Leading zero omitted, Abs format (unit mm)*
G04 Created by KiCad (PCBNEW 9.0.7) date 2026-02-08 16:14:47*
%MOMM*%
%LPD*%
G01*
G04 APERTURE LIST*
%ADD10C,0.050000*%
G04 APERTURE END LIST*
%TO.C,@P_C16*%
D10*
X181480000Y-121232500D02*
X179520000Y-121232500D01*
X179520000Y-124992500D01*
X181480000Y-124992500D01*
X181480000Y-121232500D01*
%TO.C,R9*%
X141650000Y-119550000D02*
X145350000Y-119550000D01*
X145350000Y-121450000D01*
X141650000Y-121450000D01*
X141650000Y-119550000D01*
%TO.C,P2_C5*%
X193020000Y-120917500D02*
X194980000Y-120917500D01*
X194980000Y-117157500D01*
X193020000Y-117157500D01*
X193020000Y-120917500D01*
%TO.C,D5*%
X210526000Y-120650000D02*
X212426000Y-120650000D01*
X210526000Y-124350000D02*
X210526000Y-120650000D01*
X212426000Y-120650000D02*
X212426000Y-124350000D01*
X212426000Y-124350000D02*
X210526000Y-124350000D01*
%TO.C,@P_C19*%
X172520000Y-124917500D02*
X174480000Y-124917500D01*
X174480000Y-121157500D01*
X172520000Y-121157500D01*
X172520000Y-124917500D01*
%TO.C,B_C20*%
X163095000Y-95020000D02*
X166855000Y-95020000D01*
X166855000Y-96980000D01*
X163095000Y-96980000D01*
X163095000Y-95020000D01*
%TO.C,P1_C1*%
X201631000Y-112730000D02*
X197871000Y-112730000D01*
X197871000Y-110770000D01*
X201631000Y-110770000D01*
X201631000Y-112730000D01*
%TO.C,R2*%
X198251000Y-98950000D02*
X196351000Y-98950000D01*
X196351000Y-102650000D01*
X198251000Y-102650000D01*
X198251000Y-98950000D01*
%TO.C,B_R10*%
X168825000Y-100550000D02*
X172525000Y-100550000D01*
X172525000Y-102450000D01*
X168825000Y-102450000D01*
X168825000Y-100550000D01*
%TO.C,@G2_C12*%
X165520000Y-107917500D02*
X167480000Y-107917500D01*
X167480000Y-104157500D01*
X165520000Y-104157500D01*
X165520000Y-107917500D01*
%TO.C,B_R6*%
X182825000Y-101050000D02*
X186525000Y-101050000D01*
X186525000Y-102950000D01*
X182825000Y-102950000D01*
X182825000Y-101050000D01*
%TO.C,R6*%
X123150000Y-138800000D02*
X126850000Y-138800000D01*
X126850000Y-140700000D01*
X123150000Y-140700000D01*
X123150000Y-138800000D01*
%TO.C,U4*%
X153450000Y-133405000D02*
X155200000Y-133405000D01*
X153450000Y-138365000D02*
X153450000Y-133405000D01*
X155200000Y-132985000D02*
X161000000Y-132985000D01*
X155200000Y-133405000D02*
X155200000Y-132985000D01*
X155200000Y-138365000D02*
X153450000Y-138365000D01*
X155200000Y-138785000D02*
X155200000Y-138365000D01*
X161000000Y-132985000D02*
X161000000Y-133405000D01*
X161000000Y-133405000D02*
X162750000Y-133405000D01*
X161000000Y-138365000D02*
X161000000Y-138785000D01*
X161000000Y-138785000D02*
X155200000Y-138785000D01*
X162750000Y-133405000D02*
X162750000Y-138365000D01*
X162750000Y-138365000D02*
X161000000Y-138365000D01*
%TO.C,@P_R14*%
X169012500Y-124925000D02*
X170912500Y-124925000D01*
X170912500Y-121225000D01*
X169012500Y-121225000D01*
X169012500Y-124925000D01*
%TO.C,@P_C17*%
X172960000Y-114157500D02*
X171000000Y-114157500D01*
X171000000Y-117917500D01*
X172960000Y-117917500D01*
X172960000Y-114157500D01*
%TO.C,P1_C2*%
X207406000Y-102230000D02*
X203646000Y-102230000D01*
X203646000Y-100270000D01*
X207406000Y-100270000D01*
X207406000Y-102230000D01*
%TO.C,L_R1*%
X210551000Y-119350000D02*
X212451000Y-119350000D01*
X212451000Y-115650000D01*
X210551000Y-115650000D01*
X210551000Y-119350000D01*
%TO.C,B_C21*%
X145342500Y-125480000D02*
X141582500Y-125480000D01*
X141582500Y-123520000D01*
X145342500Y-123520000D01*
X145342500Y-125480000D01*
%TO.C,R5*%
X211801000Y-106137500D02*
X213701000Y-106137500D01*
X213701000Y-102437500D01*
X211801000Y-102437500D01*
X211801000Y-106137500D01*
%TO.C,@P_C13*%
X179980000Y-114157500D02*
X178020000Y-114157500D01*
X178020000Y-117917500D01*
X179980000Y-117917500D01*
X179980000Y-114157500D01*
%TO.C,R3*%
X123112500Y-135050000D02*
X126812500Y-135050000D01*
X126812500Y-136950000D01*
X123112500Y-136950000D01*
X123112500Y-135050000D01*
%TO.C,R4*%
X211801000Y-99850000D02*
X213701000Y-99850000D01*
X213701000Y-96150000D01*
X211801000Y-96150000D01*
X211801000Y-99850000D01*
%TO.C,@P_C15*%
X183980000Y-121232500D02*
X182020000Y-121232500D01*
X182020000Y-124992500D01*
X183980000Y-124992500D01*
X183980000Y-121232500D01*
%TO.C,P1_R7*%
X206451000Y-107650000D02*
X204551000Y-107650000D01*
X204551000Y-111350000D01*
X206451000Y-111350000D01*
X206451000Y-107650000D01*
%TO.C,C7*%
X123120000Y-130420000D02*
X126880000Y-130420000D01*
X126880000Y-132380000D01*
X123120000Y-132380000D01*
X123120000Y-130420000D01*
%TO.C,D1*%
X162625000Y-98550000D02*
X166325000Y-98550000D01*
X166325000Y-100450000D01*
X162625000Y-100450000D01*
X162625000Y-98550000D01*
%TO.C,@P_C18*%
X169450000Y-114157500D02*
X167490000Y-114157500D01*
X167490000Y-117917500D01*
X169450000Y-117917500D01*
X169450000Y-114157500D01*
%TO.C,J4*%
X145000000Y-94200000D02*
X145000000Y-97800000D01*
X145000000Y-97800000D02*
X161300000Y-97800000D01*
X161300000Y-94200000D02*
X145000000Y-94200000D01*
X161300000Y-97800000D02*
X161300000Y-94200000D01*
%TO.C,D4*%
X169700000Y-136700000D02*
X169700000Y-139000000D01*
X169700000Y-136700000D02*
X174400000Y-136700000D01*
X174400000Y-136700000D02*
X174400000Y-139000000D01*
X174400000Y-139000000D02*
X169700000Y-139000000D01*
%TO.C,P2_C4*%
X204906000Y-125980000D02*
X201146000Y-125980000D01*
X201146000Y-124020000D01*
X204906000Y-124020000D01*
X204906000Y-125980000D01*
%TO.C,JP4*%
X169550000Y-135250000D02*
X169550000Y-131950000D01*
X169550000Y-135250000D02*
X172050000Y-135250000D01*
X172050000Y-131950000D02*
X169550000Y-131950000D01*
X172050000Y-131950000D02*
X172050000Y-135250000D01*
%TO.C,C11*%
X129370000Y-124020000D02*
X133130000Y-124020000D01*
X133130000Y-125980000D01*
X129370000Y-125980000D01*
X129370000Y-124020000D01*
%TO.C,@P_C9*%
X176020000Y-124992500D02*
X177980000Y-124992500D01*
X177980000Y-121232500D01*
X176020000Y-121232500D01*
X176020000Y-124992500D01*
%TO.C,J6*%
X138200000Y-112425000D02*
X138200000Y-118575000D01*
X138200000Y-118575000D02*
X141800000Y-118575000D01*
X141800000Y-112425000D02*
X138200000Y-112425000D01*
X141800000Y-118575000D02*
X141800000Y-112425000D01*
%TO.C,SW2*%
X186175000Y-92500000D02*
X186425000Y-92500000D01*
X186175000Y-92750000D02*
X186175000Y-92500000D01*
X186175000Y-99750000D02*
X186175000Y-92750000D01*
X186175000Y-99750000D02*
X186175000Y-100000000D01*
X186175000Y-100000000D02*
X186425000Y-100000000D01*
X186425000Y-92500000D02*
X195425000Y-92500000D01*
X195425000Y-92500000D02*
X195675000Y-92500000D01*
X195425000Y-100000000D02*
X186425000Y-100000000D01*
X195425000Y-100000000D02*
X195675000Y-100000000D01*
X195675000Y-92500000D02*
X195675000Y-92750000D01*
X195675000Y-92750000D02*
X195675000Y-99750000D01*
X195675000Y-100000000D02*
X195675000Y-99750000D01*
%TO.C,J3*%
X132940000Y-130350000D02*
X132940000Y-141550000D01*
X132940000Y-141550000D02*
X139090000Y-141550000D01*
X139090000Y-130350000D02*
X132940000Y-130350000D01*
X139090000Y-141550000D02*
X139090000Y-130350000D01*
%TO.C,J5*%
X121200000Y-110080000D02*
X121200000Y-121280000D01*
X121200000Y-121280000D02*
X124800000Y-121280000D01*
X124800000Y-110080000D02*
X121200000Y-110080000D01*
X124800000Y-121280000D02*
X124800000Y-110080000D01*
%TO.C,U3*%
X201087500Y-117500000D02*
X202087500Y-117500000D01*
X201087500Y-118610000D02*
X201087500Y-117500000D01*
X201087500Y-119390000D02*
X202087500Y-119390000D01*
X201087500Y-120500000D02*
X201087500Y-119390000D01*
X202087500Y-117300000D02*
X204187500Y-117300000D01*
X202087500Y-117500000D02*
X202087500Y-117300000D01*
X202087500Y-118610000D02*
X201087500Y-118610000D01*
X202087500Y-119390000D02*
X202087500Y-118610000D01*
X202087500Y-120500000D02*
X201087500Y-120500000D01*
X202087500Y-120700000D02*
X202087500Y-120500000D01*
X204187500Y-117300000D02*
X204187500Y-117500000D01*
X204187500Y-117500000D02*
X205187500Y-117500000D01*
X204187500Y-120500000D02*
X204187500Y-120700000D01*
X204187500Y-120700000D02*
X202087500Y-120700000D01*
X205187500Y-117500000D02*
X205187500Y-120500000D01*
X205187500Y-120500000D02*
X204187500Y-120500000D01*
%TO.C,C8*%
X163980000Y-121082500D02*
X162020000Y-121082500D01*
X162020000Y-124842500D01*
X163980000Y-124842500D01*
X163980000Y-121082500D01*
%TO.C,SW1*%
X172500000Y-92500000D02*
X172750000Y-92500000D01*
X172500000Y-92750000D02*
X172500000Y-92500000D01*
X172500000Y-99750000D02*
X172500000Y-92750000D01*
X172500000Y-99750000D02*
X172500000Y-100000000D01*
X172500000Y-100000000D02*
X172750000Y-100000000D01*
X172750000Y-92500000D02*
X181750000Y-92500000D01*
X181750000Y-92500000D02*
X182000000Y-92500000D01*
X181750000Y-100000000D02*
X172750000Y-100000000D01*
X181750000Y-100000000D02*
X182000000Y-100000000D01*
X182000000Y-92500000D02*
X182000000Y-92750000D01*
X182000000Y-92750000D02*
X182000000Y-99750000D01*
X182000000Y-100000000D02*
X182000000Y-99750000D01*
%TO.C,D3*%
X127050000Y-106675000D02*
X128950000Y-106675000D01*
X127050000Y-110375000D02*
X127050000Y-106675000D01*
X128950000Y-106675000D02*
X128950000Y-110375000D01*
X128950000Y-110375000D02*
X127050000Y-110375000D01*
%TO.C,J1*%
X210211000Y-98155000D02*
X199571000Y-98155000D01*
X199571000Y-89215000D01*
X210211000Y-89215000D01*
X210211000Y-98155000D01*
%TO.C,U1*%
X155932500Y-110620000D02*
X155932500Y-118880000D01*
X155932500Y-118880000D02*
X164192500Y-118880000D01*
X164192500Y-110620000D02*
X155932500Y-110620000D01*
X164192500Y-118880000D02*
X164192500Y-110620000D01*
%TO.C,J2*%
X124040000Y-94200000D02*
X124040000Y-97800000D01*
X124040000Y-97800000D02*
X140340000Y-97800000D01*
X140340000Y-94200000D02*
X124040000Y-94200000D01*
X140340000Y-97800000D02*
X140340000Y-94200000D01*
%TO.C,@P_C14*%
X176470000Y-114157500D02*
X174510000Y-114157500D01*
X174510000Y-117917500D01*
X176470000Y-117917500D01*
X176470000Y-114157500D01*
%TO.C,L_R13*%
X134450000Y-112650000D02*
X132550000Y-112650000D01*
X132550000Y-116350000D01*
X134450000Y-116350000D01*
X134450000Y-112650000D01*
%TO.C,@G1_C6*%
X152980000Y-119157500D02*
X151020000Y-119157500D01*
X151020000Y-122917500D01*
X152980000Y-122917500D01*
X152980000Y-119157500D01*
%TO.C,U2*%
X199087500Y-105950000D02*
X200087500Y-105950000D01*
X199087500Y-107060000D02*
X199087500Y-105950000D01*
X199087500Y-107840000D02*
X200087500Y-107840000D01*
X199087500Y-108950000D02*
X199087500Y-107840000D01*
X200087500Y-105750000D02*
X202187500Y-105750000D01*
X200087500Y-105950000D02*
X200087500Y-105750000D01*
X200087500Y-107060000D02*
X199087500Y-107060000D01*
X200087500Y-107840000D02*
X200087500Y-107060000D01*
X200087500Y-108950000D02*
X199087500Y-108950000D01*
X200087500Y-109150000D02*
X200087500Y-108950000D01*
X202187500Y-105750000D02*
X202187500Y-105950000D01*
X202187500Y-105950000D02*
X203187500Y-105950000D01*
X202187500Y-108950000D02*
X202187500Y-109150000D01*
X202187500Y-109150000D02*
X200087500Y-109150000D01*
X203187500Y-105950000D02*
X203187500Y-108950000D01*
X203187500Y-108950000D02*
X202187500Y-108950000D01*
%TO.C,P1_C3*%
X196131000Y-108980000D02*
X192371000Y-108980000D01*
X192371000Y-107020000D01*
X196131000Y-107020000D01*
X196131000Y-108980000D01*
%TD*%
M02*
