%TF.GenerationSoftware,KiCad,Pcbnew,9.0.7*%
%TF.CreationDate,2026-02-08T16:14:47+05:30*%
%TF.ProjectId,fpga_dev_board,66706761-5f64-4657-965f-626f6172642e,rev?*%
%TF.SameCoordinates,Original*%
%TF.FileFunction,Soldermask,Bot*%
%TF.FilePolarity,Negative*%
%FSLAX46Y46*%
G04 Gerber Fmt 4.6, Leading zero omitted, Abs format (unit mm)*
G04 Created by KiCad (PCBNEW 9.0.7) date 2026-02-08 16:14:47*
%MOMM*%
%LPD*%
G01*
G04 APERTURE LIST*
%ADD10R,1.700000X1.700000*%
%ADD11O,1.700000X1.700000*%
%ADD12C,2.000000*%
%ADD13C,0.650000*%
%ADD14O,1.000000X2.100000*%
%ADD15O,1.000000X1.800000*%
G04 APERTURE END LIST*
D10*
%TO.C,J4*%
X159500000Y-96000000D03*
D11*
X156960000Y-96000000D03*
X154420000Y-96000000D03*
X151880000Y-96000000D03*
X149340000Y-96000000D03*
X146800000Y-96000000D03*
%TD*%
D10*
%TO.C,J6*%
X140000000Y-116775000D03*
D11*
X140000000Y-114235000D03*
%TD*%
D12*
%TO.C,SW2*%
X187675000Y-94000000D03*
X194175000Y-94000000D03*
X187675000Y-98500000D03*
X194175000Y-98500000D03*
%TD*%
D10*
%TO.C,J3*%
X137290000Y-139750000D03*
D11*
X134750000Y-139750000D03*
X137290000Y-137210000D03*
X134750000Y-137210000D03*
X137290000Y-134670000D03*
X134750000Y-134670000D03*
X137290000Y-132130000D03*
X134750000Y-132130000D03*
%TD*%
D10*
%TO.C,J5*%
X123000000Y-111880000D03*
D11*
X123000000Y-114420000D03*
X123000000Y-116960000D03*
X123000000Y-119500000D03*
%TD*%
D12*
%TO.C,SW1*%
X174000000Y-94000000D03*
X180500000Y-94000000D03*
X174000000Y-98500000D03*
X180500000Y-98500000D03*
%TD*%
D13*
%TO.C,J1*%
X207781000Y-96000000D03*
X202001000Y-96000000D03*
D14*
X209211000Y-96500000D03*
D15*
X209211000Y-92320000D03*
D14*
X200571000Y-96500000D03*
D15*
X200571000Y-92320000D03*
%TD*%
D10*
%TO.C,J2*%
X138540000Y-96000000D03*
D11*
X136000000Y-96000000D03*
X133460000Y-96000000D03*
X130920000Y-96000000D03*
X128380000Y-96000000D03*
X125840000Y-96000000D03*
%TD*%
M02*
