M48
; DRILL file {KiCad 9.0.7} date 2026-02-08T16:14:41+0530
; FORMAT={-:-/ absolute / metric / decimal}
; #@! TF.CreationDate,2026-02-08T16:14:41+05:30
; #@! TF.GenerationSoftware,Kicad,Pcbnew,9.0.7
; #@! TF.FileFunction,Plated,1,2,PTH
FMAT,2
METRIC
; #@! TA.AperFunction,Plated,PTH,ViaDrill
T1C0.300
; #@! TA.AperFunction,Plated,PTH,ComponentDrill
T2C0.600
; #@! TA.AperFunction,Plated,PTH,ComponentDrill
T3C1.000
; #@! TA.AperFunction,Plated,PTH,ComponentDrill
T4C1.100
%
G90
G05
T1
X125.5Y-111.88
X137.5Y-125.0
X139.25Y-120.5
X141.5Y-141.0
X146.5Y-127.551
X154.8Y-119.75
X155.0Y-100.0
X155.0Y-114.0
X155.5Y-110.5
X155.5Y-115.6
X158.021Y-107.4
X159.63Y-135.25
X160.0Y-115.0
X160.125Y-137.625
X162.0Y-99.5
X162.0Y-119.75
X163.0Y-126.0
X163.5Y-134.0
X165.25Y-110.0
X165.25Y-113.5
X166.175Y-94.15
X166.5Y-134.0
X169.0Y-104.5
X169.0Y-109.0
X178.5Y-102.0
X180.675Y-94.15
X181.0Y-103.0
X181.0Y-113.5
X188.0Y-111.0
X188.0Y-124.0
X191.501Y-108.0
X197.0Y-114.5
X201.001Y-99.0
X201.001Y-102.262
X201.501Y-128.5
X203.001Y-119.0
X205.001Y-106.0
X209.963Y-99.462
X211.501Y-126.0
X212.001Y-101.5
T3
X123.0Y-111.88
X123.0Y-114.42
X123.0Y-116.96
X123.0Y-119.5
X125.84Y-96.0
X128.38Y-96.0
X130.92Y-96.0
X133.46Y-96.0
X134.75Y-132.13
X134.75Y-134.67
X134.75Y-137.21
X134.75Y-139.75
X136.0Y-96.0
X137.29Y-132.13
X137.29Y-134.67
X137.29Y-137.21
X137.29Y-139.75
X138.54Y-96.0
X140.0Y-114.235
X140.0Y-116.775
X146.8Y-96.0
X149.34Y-96.0
X151.88Y-96.0
X154.42Y-96.0
X156.96Y-96.0
X159.5Y-96.0
T4
X174.0Y-94.0
X174.0Y-98.5
X180.5Y-94.0
X180.5Y-98.5
X187.675Y-94.0
X187.675Y-98.5
X194.175Y-94.0
X194.175Y-98.5
T2
G00X200.571Y-92.72
M15
G01X200.571Y-91.92
M16
G05
G00X200.571Y-97.05
M15
G01X200.571Y-95.95
M16
G05
G00X209.211Y-92.72
M15
G01X209.211Y-91.92
M16
G05
G00X209.211Y-97.05
M15
G01X209.211Y-95.95
M16
G05
M30
